<?xml version="1.0" encoding="UTF-8" standalone="no"?>
<!DOCTYPE svg PUBLIC "-//W3C//DTD SVG 1.1//EN" "http://www.w3.org/Graphics/SVG/1.1/DTD/svg11.dtd">
<svg xmlns="http://www.w3.org/2000/svg" version="1.1" viewBox="0.00 0.00 1024.00 1024.00">
<g stroke-width="2.00" fill="none" stroke-linecap="butt">
<path stroke="#1c7dea" vector-effect="non-scaling-stroke" d="
  M 529.24 192.32
  Q 528.45 194.96 526.12 195.54
  Q 525.67 195.65 525.37 196.01
  Q 524.41 197.15 523.41 198.26
  Q 522.28 199.52 522.36 201.16
  A 1.70 1.70 0.0 0 1 520.55 202.94
  Q 518.66 202.81 517.39 203.83
  A 2.68 2.68 0.0 0 0 516.42 205.48
  Q 515.85 208.89 514.79 212.07
  C 514.40 213.23 513.41 214.21 512.66 215.19
  Q 511.91 216.15 510.59 217.07
  Q 509.18 218.03 508.24 219.55
  A 2.35 2.33 -74.6 0 1 506.31 220.66
  Q 503.13 220.74 499.36 219.42"
/>
<path stroke="#174e91" vector-effect="non-scaling-stroke" d="
  M 694.40 321.41
  Q 684.06 326.15 666.98 333.01
  C 662.55 334.79 657.92 336.30 654.37 337.80
  Q 628.19 348.88 601.58 358.85
  Q 599.75 359.53 597.41 360.66
  Q 595.36 361.66 593.26 362.53"
/>
<path stroke="#76787e" vector-effect="non-scaling-stroke" d="
  M 593.26 362.53
  Q 592.27 357.71 588.87 353.88
  Q 583.15 347.42 575.51 343.38
  Q 574.42 342.80 566.13 338.78
  Q 561.41 336.49 556.49 334.69
  Q 553.97 333.77 551.67 332.56
  Q 548.20 330.74 546.88 330.37
  Q 543.08 329.34 541.17 327.54"
/>
<path stroke="#174e91" vector-effect="non-scaling-stroke" d="
  M 541.17 327.54
  Q 541.98 325.76 541.91 324.49
  Q 541.45 315.97 536.15 310.07
  Q 531.97 305.41 525.53 301.39"
/>
<path stroke="#89a0a0" vector-effect="non-scaling-stroke" d="
  M 525.53 301.39
  L 517.16 299.48"
/>
<path stroke="#1c7dea" vector-effect="non-scaling-stroke" d="
  M 517.16 299.48
  Q 516.16 293.87 516.15 287.75
  Q 516.12 269.17 515.99 250.58
  Q 515.99 250.09 516.16 249.62
  Q 516.66 248.35 515.33 247.31"
/>
<path stroke="#90ada8" vector-effect="non-scaling-stroke" d="
  M 517.16 299.48
  Q 511.65 299.30 506.75 301.03
  Q 497.29 304.37 495.52 314.78"
/>
<path stroke="#1e5b9a" vector-effect="non-scaling-stroke" d="
  M 495.52 314.78
  Q 495.49 314.63 495.46 314.48
  Q 495.34 313.96 494.93 314.29
  Q 494.80 314.40 494.63 314.39
  A 0.31 0.30 9.3 0 0 494.34 314.59
  C 492.53 319.77 491.97 326.78 494.69 331.67
  C 498.95 339.34 506.50 345.24 515.72 344.94"
/>
<path stroke="#1c7dea" vector-effect="non-scaling-stroke" d="
  M 515.72 344.94
  L 516.12 388.97
  Q 516.13 389.48 515.71 389.77
  Q 514.90 390.34 515.28 390.68"
/>
<path stroke="#77c4f8" vector-effect="non-scaling-stroke" d="
  M 515.28 390.68
  Q 513.43 389.58 512.71 389.30
  Q 504.68 386.12 496.74 382.81
  C 487.10 378.80 475.30 374.77 465.04 370.32
  Q 462.25 369.11 459.46 368.16
  C 454.59 366.52 449.96 364.17 445.18 362.43
  Q 432.41 357.80 420.26 352.91
  Q 412.60 349.84 401.39 346.07
  Q 401.05 345.96 401.05 346.79"
/>
<path stroke="#1e5b9a" vector-effect="non-scaling-stroke" d="
  M 401.05 346.79
  Q 397.44 345.70 396.11 345.16
  Q 373.35 335.95 350.50 326.99
  Q 344.63 324.69 338.90 322.07
  Q 338.36 321.82 338.21 321.28"
/>
<path stroke="#776b6a" vector-effect="non-scaling-stroke" d="
  M 593.76 387.83
  L 593.88 396.43"
/>
<path stroke="#78562e" vector-effect="non-scaling-stroke" d="
  M 541.17 327.54
  Q 540.81 328.43 538.99 328.40"
/>
<path stroke="#8b7e50" vector-effect="non-scaling-stroke" d="
  M 525.53 301.39
  Q 530.08 305.06 532.67 309.65
  C 534.70 313.25 534.41 317.36 533.99 321.26
  Q 533.88 322.31 532.92 321.86
  Q 527.62 319.31 522.19 316.95
  Q 518.02 315.13 514.72 317.54
  A 0.39 0.39 0.0 0 0 514.81 318.22
  C 517.78 319.31 520.77 320.06 523.67 321.44
  Q 531.29 325.06 538.99 328.40"
/>
<path stroke="#eaa73c" vector-effect="non-scaling-stroke" d="
  M 538.99 328.40
  Q 550.80 333.43 562.37 338.85
  Q 563.24 339.25 564.26 339.21
  Q 565.07 339.18 565.68 339.71
  C 566.51 340.41 567.69 340.37 568.45 340.77
  Q 575.86 344.74 581.10 348.31
  Q 586.39 351.92 588.69 359.77
  Q 589.72 363.28 589.61 370.30
  Q 588.96 412.03 589.22 449.21
  Q 589.22 449.71 589.71 449.83
  L 593.92 450.89"
/>
<path stroke="#8b7e50" vector-effect="non-scaling-stroke" d="
  M 593.92 450.89
  L 597.58 452.89"
/>
<path stroke="#eaa73c" vector-effect="non-scaling-stroke" d="
  M 597.58 452.89
  Q 595.43 455.38 598.14 458.24
  Q 600.19 460.40 600.07 461.53"
/>
<path stroke="#8b7e50" vector-effect="non-scaling-stroke" d="
  M 600.07 461.53
  L 597.01 459.79"
/>
<path stroke="#8b938c" vector-effect="non-scaling-stroke" d="
  M 597.01 459.79
  L 594.52 458.07"
/>
<path stroke="#90ada8" vector-effect="non-scaling-stroke" d="
  M 594.52 458.07
  Q 586.58 455.68 580.57 460.93"
/>
<path stroke="#8b7e50" vector-effect="non-scaling-stroke" d="
  M 580.57 460.93
  Q 574.49 463.63 574.38 469.99
  Q 574.21 479.38 574.21 488.75
  Q 574.22 496.58 577.30 500.80"
/>
<path stroke="#eaa73c" vector-effect="non-scaling-stroke" d="
  M 577.30 500.80
  Q 554.87 539.18 532.20 577.26
  Q 527.45 585.25 522.69 593.24
  C 521.09 595.93 519.07 598.31 517.53 601.02
  C 516.01 603.69 515.94 607.54 515.92 610.50
  Q 515.86 619.42 515.88 648.77
  C 515.88 652.15 515.29 655.47 515.10 658.80
  Q 515.09 658.99 514.92 659.06
  L 514.61 659.21
  Q 514.35 659.34 514.39 659.62
  Q 514.51 660.41 513.77 660.44"
/>
<path stroke="#89a0a0" vector-effect="non-scaling-stroke" d="
  M 513.77 660.44
  L 462.91 572.98"
/>
<path stroke="#90ada8" vector-effect="non-scaling-stroke" d="
  M 462.91 572.98
  L 383.38 436.20"
/>
<path stroke="#8b7e50" vector-effect="non-scaling-stroke" d="
  M 383.38 436.20
  L 416.86 436.45"
/>
<path stroke="#f2b742" vector-effect="non-scaling-stroke" d="
  M 416.86 436.45
  Q 419.46 442.03 422.51 447.32
  Q 427.21 455.49 428.55 457.96
  C 433.71 467.46 439.38 476.54 444.82 486.00
  Q 473.42 535.70 485.46 554.82
  Q 492.80 566.48 499.40 577.03
  C 503.00 582.79 506.96 588.41 510.79 594.08
  C 512.27 596.29 514.36 597.95 514.80 600.69
  Q 515.11 602.61 515.87 600.82
  Q 516.26 599.89 516.28 598.75
  Q 516.50 579.90 516.17 561.36"
/>
<path stroke="#8b7e50" vector-effect="non-scaling-stroke" d="
  M 516.17 561.36
  C 518.05 557.12 520.91 552.66 522.64 549.28
  C 532.96 529.16 543.88 509.38 554.26 489.29
  Q 562.84 472.67 571.82 456.25
  C 573.90 452.43 577.15 448.24 579.31 443.85
  Q 580.20 442.04 580.24 444.06
  L 580.37 450.47
  A 0.84 0.84 0.0 0 0 581.22 451.29
  L 581.96 451.28
  Q 582.76 451.26 582.78 450.46
  Q 583.23 432.41 583.19 415.41
  Q 583.14 392.43 583.35 369.62
  Q 583.40 365.15 582.16 362.31
  C 579.97 357.26 574.50 352.93 569.63 350.27
  C 563.33 346.83 556.51 344.41 549.89 341.41
  Q 538.75 336.37 525.98 331.43
  Q 524.34 330.80 522.78 329.95
  Q 521.11 329.05 519.27 328.48
  Q 514.29 326.94 509.26 323.98
  Q 508.24 323.39 508.78 324.43
  Q 509.84 326.51 511.88 327.34
  Q 514.77 328.52 517.80 330.17
  A 1.13 1.13 0.0 0 1 517.76 332.18
  Q 515.06 333.51 512.04 333.34
  C 502.12 332.76 495.11 324.73 495.52 314.78"
/>
<path stroke="#806534" vector-effect="non-scaling-stroke" d="
  M 516.17 561.36
  Q 513.32 556.25 510.45 551.24
  Q 507.34 545.80 504.85 541.04
  Q 478.84 491.24 452.83 441.43
  Q 451.30 438.51 449.96 436.71
  Q 449.66 436.32 449.16 436.32
  L 416.86 436.45"
/>
<path stroke="#1e5b9a" vector-effect="non-scaling-stroke" d="
  M 383.38 436.20
  L 350.31 436.23
  A 0.45 0.45 0.0 0 0 349.92 436.91
  L 419.43 555.39"
/>
<path stroke="#174e91" vector-effect="non-scaling-stroke" d="
  M 419.43 555.39
  Q 461.71 627.21 504.60 698.67
  Q 508.58 705.30 515.21 717.45
  A 0.63 0.62 -23.7 0 0 515.97 717.74
  Q 516.43 717.57 516.77 716.76"
/>
<path stroke="#19427e" vector-effect="non-scaling-stroke" d="
  M 516.77 716.76
  C 517.98 715.48 519.27 714.07 520.16 712.52
  Q 535.55 685.58 551.68 659.15
  C 561.67 642.77 571.11 626.04 581.14 609.64
  Q 586.37 601.08 591.35 592.45
  Q 596.70 583.19 603.08 572.44
  Q 622.04 540.49 641.35 508.05
  Q 649.60 494.18 656.31 482.48
  Q 661.69 473.12 666.44 465.25
  Q 674.83 451.38 683.14 437.15
  A 0.44 0.43 15.0 0 0 682.76 436.50
  L 649.57 436.49"
/>
<path stroke="#78562e" vector-effect="non-scaling-stroke" d="
  M 649.57 436.49
  L 599.41 436.54
  A 1.13 1.13 0.0 0 0 598.28 437.62
  L 597.58 452.89"
/>
<path stroke="#78562e" vector-effect="non-scaling-stroke" d="
  M 593.92 450.89
  L 593.88 396.43"
/>
<path stroke="#19427e" vector-effect="non-scaling-stroke" d="
  M 593.88 396.43
  Q 598.44 395.01 602.57 393.18
  Q 608.87 390.41 611.10 389.56
  Q 627.00 383.53 641.50 376.76
  C 642.95 376.08 643.95 375.15 643.96 373.43
  Q 643.97 370.83 644.25 368.26
  Q 644.49 365.98 642.26 366.48
  C 641.51 366.64 640.49 367.31 639.67 367.60
  Q 620.23 374.52 604.70 380.89
  Q 600.17 382.75 595.47 385.45
  Q 595.24 385.58 594.98 385.61
  Q 594.83 385.63 594.68 385.59
  Q 594.11 385.42 594.16 386.11
  Q 594.24 387.13 593.76 387.83"
/>
<path stroke="#78562e" vector-effect="non-scaling-stroke" d="
  M 593.76 387.83
  C 593.85 379.33 594.08 371.40 593.26 362.53"
/>
<path stroke="#72959f" vector-effect="non-scaling-stroke" d="
  M 401.05 346.79
  L 402.87 347.48"
/>
<path stroke="#243a52" vector-effect="non-scaling-stroke" d="
  M 402.87 347.48
  Q 405.79 351.65 411.37 352.95
  A 0.74 0.73 -11.8 0 1 411.79 353.22
  Q 412.79 354.46 411.87 354.38
  Q 412.01 354.37 412.14 354.42
  Q 412.26 354.48 412.27 354.62
  Q 412.27 355.96 411.87 357.17
  Q 411.71 357.64 411.77 358.14
  Q 412.18 361.56 411.68 364.82
  Q 411.65 365.01 411.53 365.17
  Q 411.49 365.21 411.44 365.23
  Q 410.84 365.46 411.23 365.98
  Q 411.40 366.20 411.31 366.45
  A 1.58 1.54 20.8 0 0 412.19 368.35
  Q 422.66 372.94 433.43 377.11
  Q 442.78 380.73 451.80 384.56
  Q 480.70 396.84 508.99 409.26
  Q 511.59 410.40 514.37 411.83
  A 0.96 0.96 0.0 0 0 515.77 410.98
  Q 515.76 403.21 515.76 395.65
  C 515.76 394.50 516.19 393.39 516.54 392.31"
/>
<path stroke="#174e91" vector-effect="non-scaling-stroke" d="
  M 516.54 392.31
  L 578.84 367.33
  A 1.05 1.04 53.1 0 0 579.09 365.53
  Q 577.24 364.08 575.59 362.15
  Q 573.96 360.24 572.11 358.82
  Q 568.24 355.84 565.64 354.34
  Q 559.26 350.67 545.43 343.68
  C 543.28 342.59 541.05 342.05 538.96 340.88
  Q 535.99 339.21 533.07 339.06
  Q 531.52 338.97 529.98 339.83
  Q 528.58 340.60 527.17 341.42
  Q 521.88 344.48 515.72 344.94"
/>
<path stroke="#7ca3b0" vector-effect="non-scaling-stroke" d="
  M 516.07 392.58
  Q 515.18 393.51 513.80 392.97
  Q 483.25 380.88 452.96 368.18
  C 436.39 361.24 419.55 354.53 402.87 347.48"
/>
<path stroke="#225ca2" vector-effect="non-scaling-stroke" d="
  M 516.54 392.31
  Q 516.50 391.82 516.07 392.58"
/>
<path stroke="#70b7ef" vector-effect="non-scaling-stroke" d="
  M 516.07 392.58
  Q 515.94 391.45 515.28 390.68"
/>
<path stroke="#1e71d6" vector-effect="non-scaling-stroke" d="
  M 594.52 458.07
  Q 594.20 459.05 595.01 459.49
  Q 595.44 459.72 595.44 460.21
  Q 595.45 461.08 594.66 461.46
  A 1.51 1.46 -84.0 0 0 594.11 461.92
  Q 592.43 464.18 590.26 466.60
  C 588.54 468.52 587.78 470.11 587.60 472.54
  C 587.14 478.95 586.27 485.36 587.13 491.75
  Q 587.76 496.37 585.96 497.07"
/>
<path stroke="#1e5b9a" vector-effect="non-scaling-stroke" d="
  M 585.96 497.07
  C 584.19 495.59 582.98 494.40 582.73 491.95
  Q 581.50 479.87 582.22 467.76
  Q 582.45 463.94 580.57 460.93"
/>
<path stroke="#76787e" vector-effect="non-scaling-stroke" d="
  M 516.17 665.13
  Q 514.51 663.27 513.77 660.44"
/>
<path stroke="#78562e" vector-effect="non-scaling-stroke" d="
  M 577.30 500.80
  Q 587.98 510.09 598.93 502.26
  C 603.25 499.17 604.09 494.25 604.13 489.25
  Q 604.20 481.34 604.01 473.42
  C 603.88 467.75 604.32 464.50 600.07 461.53"
/>
<path stroke="#19427e" vector-effect="non-scaling-stroke" d="
  M 597.01 459.79
  Q 597.44 463.33 597.20 464.27
  Q 595.34 471.68 595.41 476.75
  Q 595.51 483.75 595.69 490.75
  Q 595.76 493.39 595.05 495.50
  Q 594.43 497.32 592.50 497.40
  Q 591.39 497.44 588.96 497.95
  Q 586.38 498.49 585.96 497.07"
/>
<path stroke="#1c7dea" vector-effect="non-scaling-stroke" d="
  M 462.91 572.98
  Q 462.37 573.25 462.00 573.11
  Q 461.53 572.93 461.61 572.44
  Q 461.73 571.61 460.95 571.32
  Q 460.47 571.13 460.13 570.75
  L 458.38 568.82
  Q 458.16 568.58 457.84 568.61
  Q 457.70 568.62 457.56 568.62
  Q 457.05 568.61 457.33 568.19
  Q 457.41 568.07 457.31 567.88
  Q 457.04 567.38 456.47 567.28
  C 454.76 566.97 454.22 564.66 452.77 563.76
  Q 451.39 562.91 449.50 562.72
  Q 449.06 562.68 448.90 562.26
  Q 448.84 562.10 448.71 561.96
  Q 448.40 561.61 447.92 561.61
  Q 445.49 561.60 442.96 561.76
  Q 442.77 561.77 442.61 561.68
  Q 442.48 561.62 442.35 561.56
  Q 442.01 561.40 441.67 561.56
  Q 440.91 561.91 440.29 561.35
  Q 439.98 561.07 439.60 561.22
  Q 437.90 561.90 436.82 560.65
  Q 436.50 560.28 436.06 560.07
  Q 435.01 559.57 433.79 559.67
  Q 433.34 559.70 432.93 559.54
  Q 430.33 558.51 427.31 558.31
  Q 426.70 558.27 426.29 558.71
  A 1.01 0.99 -64.0 0 1 425.45 559.01
  Q 425.01 558.96 424.57 559.06
  Q 424.00 559.21 423.90 558.62
  Q 423.81 558.01 423.25 557.53
  Q 422.68 557.02 422.73 557.79
  Q 422.74 558.06 422.52 558.22
  Q 422.24 558.41 422.15 558.09
  Q 422.13 558.03 422.15 557.97
  Q 422.24 557.62 421.88 557.63
  Q 421.15 557.65 420.78 556.98
  Q 420.65 556.75 420.90 556.67
  Q 420.95 556.66 421.00 556.66
  Q 421.49 556.66 421.20 556.22
  Q 420.60 555.31 419.43 555.39"
/>
<path stroke="#1764ce" vector-effect="non-scaling-stroke" d="
  M 516.77 716.76
  Q 515.71 715.29 515.70 713.50
  Q 515.64 706.49 515.90 699.49
  Q 516.17 692.30 516.02 685.51
  Q 515.79 675.21 516.17 665.13"
/>
<path stroke="#776b6a" vector-effect="non-scaling-stroke" d="
  M 516.17 665.13
  Q 517.78 662.83 519.07 660.51
  C 524.96 649.94 531.67 639.70 537.63 629.00
  Q 546.76 612.58 555.27 598.02
  Q 563.33 584.24 571.18 570.65
  Q 576.07 562.18 581.31 553.39
  C 596.15 528.47 611.70 500.96 625.67 477.43
  Q 631.92 466.89 639.84 452.44
  C 642.62 447.36 646.48 442.00 649.57 436.49"
/>
<path stroke="#1e71d6" vector-effect="non-scaling-stroke" d="
  M 309.56 496.83
  L 309.62 498.12
  Q 309.64 498.61 309.38 499.02
  C 307.80 501.49 309.94 507.21 311.09 509.37
  C 311.59 510.32 311.45 511.22 311.44 512.23
  Q 311.44 512.71 311.18 513.11
  Q 307.74 518.46 306.16 522.98
  Q 305.79 524.03 304.95 524.50
  Q 303.84 525.12 302.55 525.13
  Q 300.97 525.14 299.48 525.99
  Q 298.11 526.77 296.22 526.94
  C 293.00 527.23 290.39 526.29 287.95 524.29
  Q 285.77 522.49 282.91 522.17
  Q 282.18 522.09 281.79 521.47
  L 276.65 513.49"
/>
<path stroke="#eaa73c" vector-effect="non-scaling-stroke" d="
  M 354.81 576.55
  Q 354.27 578.75 355.58 580.76
  Q 357.41 583.56 357.59 584.10
  Q 358.87 587.82 358.43 591.70
  Q 358.07 594.88 356.30 597.25
  Q 354.63 599.49 353.03 601.76
  Q 351.69 603.65 348.73 605.48
  Q 345.89 607.22 343.17 609.42"
/>
<path stroke="#eaa73c" vector-effect="non-scaling-stroke" d="
  M 702.51 573.81
  Q 703.59 575.92 701.74 576.59
  Q 701.30 576.75 701.16 577.20
  Q 701.01 577.68 700.62 577.89
  Q 699.12 578.67 697.19 578.41
  Q 696.71 578.34 696.32 578.63
  L 692.80 581.18
  Q 692.37 581.49 692.18 581.98
  Q 691.51 583.72 690.20 584.51
  Q 689.73 584.79 689.57 585.33
  Q 689.17 586.71 688.06 587.45
  Q 685.86 588.93 684.64 591.62
  Q 683.49 594.15 681.45 595.93
  Q 681.13 596.22 681.02 596.63
  L 679.65 601.82
  Q 679.53 602.26 679.18 602.53
  Q 678.04 603.43 676.43 603.74"
/>
<path stroke="#e4e6ae" vector-effect="non-scaling-stroke" d="
  M 513.93 304.58
  C 513.16 302.26 509.83 303.05 508.13 303.48
  C 505.49 304.15 501.37 309.62 499.62 311.85
  C 497.11 315.04 499.22 318.98 502.46 320.57
  A 0.71 0.70 -65.5 0 0 503.42 320.21
  C 505.15 316.10 509.00 312.81 512.51 310.15
  C 514.31 308.78 514.62 306.65 513.93 304.58"
/>
<path stroke="#19427e" vector-effect="non-scaling-stroke" d="
  M 515.33 430.04
  L 580.11 402.71
  A 1.98 1.97 77.9 0 0 581.32 400.83
  L 581.06 392.23
  A 0.51 0.51 0.0 0 0 580.32 391.80
  Q 579.62 392.17 578.60 392.54
  Q 545.42 404.43 515.75 417.80
  Q 514.34 418.43 510.40 418.01"
/>
<path stroke="#1e5b9a" vector-effect="non-scaling-stroke" d="
  M 510.40 418.01
  L 390.11 368.17
  Q 388.35 367.44 388.31 369.34
  L 388.16 375.35
  A 2.91 2.91 0.0 0 0 389.79 378.04
  Q 399.42 382.70 413.96 388.79
  Q 455.02 405.98 496.08 423.16
  Q 508.79 428.48 515.33 430.04"
/>
<path stroke="#1e71d6" vector-effect="non-scaling-stroke" d="
  M 510.40 418.01
  Q 512.30 418.98 513.73 419.10
  Q 514.75 419.18 515.05 420.16
  Q 516.37 424.53 515.33 430.04"
/>
</g>
<path fill="#238af2" d="
  M 529.24 192.32
  Q 528.45 194.96 526.12 195.54
  Q 525.67 195.65 525.37 196.01
  Q 524.41 197.15 523.41 198.26
  Q 522.28 199.52 522.36 201.16
  A 1.70 1.70 0.0 0 1 520.55 202.94
  Q 518.66 202.81 517.39 203.83
  A 2.68 2.68 0.0 0 0 516.42 205.48
  Q 515.85 208.89 514.79 212.07
  C 514.40 213.23 513.41 214.21 512.66 215.19
  Q 511.91 216.15 510.59 217.07
  Q 509.18 218.03 508.24 219.55
  A 2.35 2.33 -74.6 0 1 506.31 220.66
  Q 503.13 220.74 499.36 219.42
  C 494.76 214.23 495.46 205.90 496.47 199.60
  Q 496.86 197.19 499.30 194.64
  Q 510.49 182.94 525.72 189.50
  Q 527.04 190.07 529.24 192.32
  Z"
/>
<path fill="#1570e1" d="
  M 529.24 192.32
  Q 535.90 199.16 535.08 209.01
  Q 534.23 219.16 526.49 223.55
  C 517.62 228.59 505.85 228.26 499.36 219.42
  Q 503.13 220.74 506.31 220.66
  A 2.35 2.33 -74.6 0 0 508.24 219.55
  Q 509.18 218.03 510.59 217.07
  Q 511.91 216.15 512.66 215.19
  C 513.41 214.21 514.40 213.23 514.79 212.07
  Q 515.85 208.89 516.42 205.48
  A 2.68 2.68 0.0 0 1 517.39 203.83
  Q 518.66 202.81 520.55 202.94
  A 1.70 1.70 0.0 0 0 522.36 201.16
  Q 522.28 199.52 523.41 198.26
  Q 524.41 197.15 525.37 196.01
  Q 525.67 195.65 526.12 195.54
  Q 528.45 194.96 529.24 192.32
  Z"
/>
<circle fill="#fdcf5e" cx="429.18" cy="229.79" r="20.43"/>
<ellipse fill="#d67f1a" cx="0.00" cy="0.00" transform="translate(601.84,231.05) rotate(117.6)" rx="20.53" ry="20.39"/>
<path fill="#1570e1" d="
  M 694.40 321.41
  Q 684.06 326.15 666.98 333.01
  C 662.55 334.79 657.92 336.30 654.37 337.80
  Q 628.19 348.88 601.58 358.85
  Q 599.75 359.53 597.41 360.66
  Q 595.36 361.66 593.26 362.53
  Q 592.27 357.71 588.87 353.88
  Q 583.15 347.42 575.51 343.38
  Q 574.42 342.80 566.13 338.78
  Q 561.41 336.49 556.49 334.69
  Q 553.97 333.77 551.67 332.56
  Q 548.20 330.74 546.88 330.37
  Q 543.08 329.34 541.17 327.54
  Q 541.98 325.76 541.91 324.49
  Q 541.45 315.97 536.15 310.07
  Q 531.97 305.41 525.53 301.39
  L 517.16 299.48
  Q 516.16 293.87 516.15 287.75
  Q 516.12 269.17 515.99 250.58
  Q 515.99 250.09 516.16 249.62
  Q 516.66 248.35 515.33 247.31
  Q 519.69 248.31 523.25 249.77
  Q 553.12 262.06 583.34 274.61
  C 590.42 277.55 598.12 281.04 605.68 284.03
  Q 610.36 285.89 614.63 287.76
  Q 627.92 293.60 646.99 301.46
  Q 657.38 305.74 694.40 321.41
  Z"
/>
<path fill="#238af2" d="
  M 515.33 247.31
  Q 516.66 248.35 516.16 249.62
  Q 515.99 250.09 515.99 250.58
  Q 516.12 269.17 516.15 287.75
  Q 516.16 293.87 517.16 299.48
  Q 511.65 299.30 506.75 301.03
  Q 497.29 304.37 495.52 314.78
  Q 495.49 314.63 495.46 314.48
  Q 495.34 313.96 494.93 314.29
  Q 494.80 314.40 494.63 314.39
  A 0.31 0.30 9.3 0 0 494.34 314.59
  C 492.53 319.77 491.97 326.78 494.69 331.67
  C 498.95 339.34 506.50 345.24 515.72 344.94
  L 516.12 388.97
  Q 516.13 389.48 515.71 389.77
  Q 514.90 390.34 515.28 390.68
  Q 513.43 389.58 512.71 389.30
  Q 504.68 386.12 496.74 382.81
  C 487.10 378.80 475.30 374.77 465.04 370.32
  Q 462.25 369.11 459.46 368.16
  C 454.59 366.52 449.96 364.17 445.18 362.43
  Q 432.41 357.80 420.26 352.91
  Q 412.60 349.84 401.39 346.07
  Q 401.05 345.96 401.05 346.79
  Q 397.44 345.70 396.11 345.16
  Q 373.35 335.95 350.50 326.99
  Q 344.63 324.69 338.90 322.07
  Q 338.36 321.82 338.21 321.28
  L 515.33 247.31
  Z"
/>
<ellipse fill="#192c41" cx="0.00" cy="0.00" transform="translate(372.71,270.32) rotate(-25.5)" rx="6.79" ry="6.60"/>
<circle fill="#192c41" cx="658.47" cy="270.30" r="6.59"/>
<path fill="#fdcf5e" d="
  M 517.16 299.48
  L 525.53 301.39
  Q 530.08 305.06 532.67 309.65
  C 534.70 313.25 534.41 317.36 533.99 321.26
  Q 533.88 322.31 532.92 321.86
  Q 527.62 319.31 522.19 316.95
  Q 518.02 315.13 514.72 317.54
  A 0.39 0.39 0.0 0 0 514.81 318.22
  C 517.78 319.31 520.77 320.06 523.67 321.44
  Q 531.29 325.06 538.99 328.40
  Q 550.80 333.43 562.37 338.85
  Q 563.24 339.25 564.26 339.21
  Q 565.07 339.18 565.68 339.71
  C 566.51 340.41 567.69 340.37 568.45 340.77
  Q 575.86 344.74 581.10 348.31
  Q 586.39 351.92 588.69 359.77
  Q 589.72 363.28 589.61 370.30
  Q 588.96 412.03 589.22 449.21
  Q 589.22 449.71 589.71 449.83
  L 593.92 450.89
  L 597.58 452.89
  Q 595.43 455.38 598.14 458.24
  Q 600.19 460.40 600.07 461.53
  L 597.01 459.79
  L 594.52 458.07
  Q 586.58 455.68 580.57 460.93
  Q 574.49 463.63 574.38 469.99
  Q 574.21 479.38 574.21 488.75
  Q 574.22 496.58 577.30 500.80
  Q 554.87 539.18 532.20 577.26
  Q 527.45 585.25 522.69 593.24
  C 521.09 595.93 519.07 598.31 517.53 601.02
  C 516.01 603.69 515.94 607.54 515.92 610.50
  Q 515.86 619.42 515.88 648.77
  C 515.88 652.15 515.29 655.47 515.10 658.80
  Q 515.09 658.99 514.92 659.06
  L 514.61 659.21
  Q 514.35 659.34 514.39 659.62
  Q 514.51 660.41 513.77 660.44
  L 462.91 572.98
  L 383.38 436.20
  L 416.86 436.45
  Q 419.46 442.03 422.51 447.32
  Q 427.21 455.49 428.55 457.96
  C 433.71 467.46 439.38 476.54 444.82 486.00
  Q 473.42 535.70 485.46 554.82
  Q 492.80 566.48 499.40 577.03
  C 503.00 582.79 506.96 588.41 510.79 594.08
  C 512.27 596.29 514.36 597.95 514.80 600.69
  Q 515.11 602.61 515.87 600.82
  Q 516.26 599.89 516.28 598.75
  Q 516.50 579.90 516.17 561.36
  C 518.05 557.12 520.91 552.66 522.64 549.28
  C 532.96 529.16 543.88 509.38 554.26 489.29
  Q 562.84 472.67 571.82 456.25
  C 573.90 452.43 577.15 448.24 579.31 443.85
  Q 580.20 442.04 580.24 444.06
  L 580.37 450.47
  A 0.84 0.84 0.0 0 0 581.22 451.29
  L 581.96 451.28
  Q 582.76 451.26 582.78 450.46
  Q 583.23 432.41 583.19 415.41
  Q 583.14 392.43 583.35 369.62
  Q 583.40 365.15 582.16 362.31
  C 579.97 357.26 574.50 352.93 569.63 350.27
  C 563.33 346.83 556.51 344.41 549.89 341.41
  Q 538.75 336.37 525.98 331.43
  Q 524.34 330.80 522.78 329.95
  Q 521.11 329.05 519.27 328.48
  Q 514.29 326.94 509.26 323.98
  Q 508.24 323.39 508.78 324.43
  Q 509.84 326.51 511.88 327.34
  Q 514.77 328.52 517.80 330.17
  A 1.13 1.13 0.0 0 1 517.76 332.18
  Q 515.06 333.51 512.04 333.34
  C 502.12 332.76 495.11 324.73 495.52 314.78
  Q 497.29 304.37 506.75 301.03
  Q 511.65 299.30 517.16 299.48
  Z
  M 513.93 304.58
  C 513.16 302.26 509.83 303.05 508.13 303.48
  C 505.49 304.15 501.37 309.62 499.62 311.85
  C 497.11 315.04 499.22 318.98 502.46 320.57
  A 0.71 0.70 -65.5 0 0 503.42 320.21
  C 505.15 316.10 509.00 312.81 512.51 310.15
  C 514.31 308.78 514.62 306.65 513.93 304.58
  Z"
/>
<path fill="#192c41" d="
  M 525.53 301.39
  Q 531.97 305.41 536.15 310.07
  Q 541.45 315.97 541.91 324.49
  Q 541.98 325.76 541.17 327.54
  Q 540.81 328.43 538.99 328.40
  Q 531.29 325.06 523.67 321.44
  C 520.77 320.06 517.78 319.31 514.81 318.22
  A 0.39 0.39 0.0 0 1 514.72 317.54
  Q 518.02 315.13 522.19 316.95
  Q 527.62 319.31 532.92 321.86
  Q 533.88 322.31 533.99 321.26
  C 534.41 317.36 534.70 313.25 532.67 309.65
  Q 530.08 305.06 525.53 301.39
  Z"
/>
<path fill="#cafdfd" d="
  M 513.93 304.58
  C 514.62 306.65 514.31 308.78 512.51 310.15
  C 509.00 312.81 505.15 316.10 503.42 320.21
  A 0.71 0.70 -65.5 0 1 502.46 320.57
  C 499.22 318.98 497.11 315.04 499.62 311.85
  C 501.37 309.62 505.49 304.15 508.13 303.48
  C 509.83 303.05 513.16 302.26 513.93 304.58
  Z"
/>
<path fill="#192c41" d="
  M 495.52 314.78
  C 495.11 324.73 502.12 332.76 512.04 333.34
  Q 515.06 333.51 517.76 332.18
  A 1.13 1.13 0.0 0 0 517.80 330.17
  Q 514.77 328.52 511.88 327.34
  Q 509.84 326.51 508.78 324.43
  Q 508.24 323.39 509.26 323.98
  Q 514.29 326.94 519.27 328.48
  Q 521.11 329.05 522.78 329.95
  Q 524.34 330.80 525.98 331.43
  Q 538.75 336.37 549.89 341.41
  C 556.51 344.41 563.33 346.83 569.63 350.27
  C 574.50 352.93 579.97 357.26 582.16 362.31
  Q 583.40 365.15 583.35 369.62
  Q 583.14 392.43 583.19 415.41
  Q 583.23 432.41 582.78 450.46
  Q 582.76 451.26 581.96 451.28
  L 581.22 451.29
  A 0.84 0.84 0.0 0 1 580.37 450.47
  L 580.24 444.06
  Q 580.20 442.04 579.31 443.85
  C 577.15 448.24 573.90 452.43 571.82 456.25
  Q 562.84 472.67 554.26 489.29
  C 543.88 509.38 532.96 529.16 522.64 549.28
  C 520.91 552.66 518.05 557.12 516.17 561.36
  Q 513.32 556.25 510.45 551.24
  Q 507.34 545.80 504.85 541.04
  Q 478.84 491.24 452.83 441.43
  Q 451.30 438.51 449.96 436.71
  Q 449.66 436.32 449.16 436.32
  L 416.86 436.45
  L 383.38 436.20
  L 350.31 436.23
  A 0.45 0.45 0.0 0 0 349.92 436.91
  L 419.43 555.39
  Q 461.71 627.21 504.60 698.67
  Q 508.58 705.30 515.21 717.45
  A 0.63 0.62 -23.7 0 0 515.97 717.74
  Q 516.43 717.57 516.77 716.76
  C 517.98 715.48 519.27 714.07 520.16 712.52
  Q 535.55 685.58 551.68 659.15
  C 561.67 642.77 571.11 626.04 581.14 609.64
  Q 586.37 601.08 591.35 592.45
  Q 596.70 583.19 603.08 572.44
  Q 622.04 540.49 641.35 508.05
  Q 649.60 494.18 656.31 482.48
  Q 661.69 473.12 666.44 465.25
  Q 674.83 451.38 683.14 437.15
  A 0.44 0.43 15.0 0 0 682.76 436.50
  L 649.57 436.49
  L 599.41 436.54
  A 1.13 1.13 0.0 0 0 598.28 437.62
  L 597.58 452.89
  L 593.92 450.89
  L 593.88 396.43
  Q 598.44 395.01 602.57 393.18
  Q 608.87 390.41 611.10 389.56
  Q 627.00 383.53 641.50 376.76
  C 642.95 376.08 643.95 375.15 643.96 373.43
  Q 643.97 370.83 644.25 368.26
  Q 644.49 365.98 642.26 366.48
  C 641.51 366.64 640.49 367.31 639.67 367.60
  Q 620.23 374.52 604.70 380.89
  Q 600.17 382.75 595.47 385.45
  Q 595.24 385.58 594.98 385.61
  Q 594.83 385.63 594.68 385.59
  Q 594.11 385.42 594.16 386.11
  Q 594.24 387.13 593.76 387.83
  C 593.85 379.33 594.08 371.40 593.26 362.53
  Q 595.36 361.66 597.41 360.66
  Q 599.75 359.53 601.58 358.85
  Q 628.19 348.88 654.37 337.80
  C 657.92 336.30 662.55 334.79 666.98 333.01
  Q 684.06 326.15 694.40 321.41
  Q 707.69 326.47 711.76 328.18
  C 714.20 329.20 717.77 332.09 714.29 334.60
  C 712.30 336.04 709.81 337.18 707.52 338.11
  Q 680.17 349.32 651.73 360.36
  A 1.01 1.00 -10.8 0 0 651.09 361.29
  L 651.00 409.67
  A 0.34 0.33 -0.0 0 0 651.34 410.00
  Q 694.66 410.11 735.11 410.02
  C 744.73 410.00 747.38 418.18 742.98 425.66
  Q 731.55 445.11 722.39 461.91
  Q 719.04 468.06 712.43 468.83
  Q 707.53 469.40 701.35 469.58
  Q 697.93 469.68 695.98 471.95
  C 694.38 473.81 692.84 475.82 691.59 477.97
  C 661.25 529.72 632.08 579.93 606.16 623.41
  Q 591.58 647.87 578.33 670.42
  Q 559.09 703.16 539.19 737.17
  Q 532.43 748.72 525.96 759.72
  C 524.18 762.76 521.81 765.67 518.18 766.65
  Q 511.08 768.57 506.80 761.21
  Q 479.18 713.79 449.97 664.20
  Q 410.82 597.72 369.95 528.30
  Q 357.19 506.62 345.09 485.83
  Q 340.94 478.70 336.90 472.85
  C 335.76 471.20 334.03 470.02 332.00 469.83
  C 324.65 469.11 314.68 471.09 310.34 463.10
  Q 300.25 444.51 290.86 428.60
  C 287.43 422.78 284.45 412.21 294.49 410.40
  Q 296.61 410.02 303.50 410.03
  Q 342.17 410.08 381.19 410.04
  Q 381.49 410.04 381.49 409.74
  L 381.48 361.52
  A 1.03 1.03 0.0 0 0 380.83 360.56
  Q 351.34 349.16 323.74 337.99
  Q 320.53 336.69 318.37 335.28
  C 315.43 333.36 315.77 329.97 318.86 328.56
  Q 323.96 326.25 338.21 321.28
  Q 338.36 321.82 338.90 322.07
  Q 344.63 324.69 350.50 326.99
  Q 373.35 335.95 396.11 345.16
  Q 397.44 345.70 401.05 346.79
  L 402.87 347.48
  Q 405.79 351.65 411.37 352.95
  A 0.74 0.73 -11.8 0 1 411.79 353.22
  Q 412.79 354.46 411.87 354.38
  Q 412.01 354.37 412.14 354.42
  Q 412.26 354.48 412.27 354.62
  Q 412.27 355.96 411.87 357.17
  Q 411.71 357.64 411.77 358.14
  Q 412.18 361.56 411.68 364.82
  Q 411.65 365.01 411.53 365.17
  Q 411.49 365.21 411.44 365.23
  Q 410.84 365.46 411.23 365.98
  Q 411.40 366.20 411.31 366.45
  A 1.58 1.54 20.8 0 0 412.19 368.35
  Q 422.66 372.94 433.43 377.11
  Q 442.78 380.73 451.80 384.56
  Q 480.70 396.84 508.99 409.26
  Q 511.59 410.40 514.37 411.83
  A 0.96 0.96 0.0 0 0 515.77 410.98
  Q 515.76 403.21 515.76 395.65
  C 515.76 394.50 516.19 393.39 516.54 392.31
  L 578.84 367.33
  A 1.05 1.04 53.1 0 0 579.09 365.53
  Q 577.24 364.08 575.59 362.15
  Q 573.96 360.24 572.11 358.82
  Q 568.24 355.84 565.64 354.34
  Q 559.26 350.67 545.43 343.68
  C 543.28 342.59 541.05 342.05 538.96 340.88
  Q 535.99 339.21 533.07 339.06
  Q 531.52 338.97 529.98 339.83
  Q 528.58 340.60 527.17 341.42
  Q 521.88 344.48 515.72 344.94
  C 506.50 345.24 498.95 339.34 494.69 331.67
  C 491.97 326.78 492.53 319.77 494.34 314.59
  A 0.31 0.30 9.3 0 1 494.63 314.39
  Q 494.80 314.40 494.93 314.29
  Q 495.34 313.96 495.46 314.48
  Q 495.49 314.63 495.52 314.78
  Z
  M 515.33 430.04
  L 580.11 402.71
  A 1.98 1.97 77.9 0 0 581.32 400.83
  L 581.06 392.23
  A 0.51 0.51 0.0 0 0 580.32 391.80
  Q 579.62 392.17 578.60 392.54
  Q 545.42 404.43 515.75 417.80
  Q 514.34 418.43 510.40 418.01
  L 390.11 368.17
  Q 388.35 367.44 388.31 369.34
  L 388.16 375.35
  A 2.91 2.91 0.0 0 0 389.79 378.04
  Q 399.42 382.70 413.96 388.79
  Q 455.02 405.98 496.08 423.16
  Q 508.79 428.48 515.33 430.04
  Z"
/>
<path fill="#d67f1a" d="
  M 541.17 327.54
  Q 543.08 329.34 546.88 330.37
  Q 548.20 330.74 551.67 332.56
  Q 553.97 333.77 556.49 334.69
  Q 561.41 336.49 566.13 338.78
  Q 574.42 342.80 575.51 343.38
  Q 583.15 347.42 588.87 353.88
  Q 592.27 357.71 593.26 362.53
  C 594.08 371.40 593.85 379.33 593.76 387.83
  L 593.88 396.43
  L 593.92 450.89
  L 589.71 449.83
  Q 589.22 449.71 589.22 449.21
  Q 588.96 412.03 589.61 370.30
  Q 589.72 363.28 588.69 359.77
  Q 586.39 351.92 581.10 348.31
  Q 575.86 344.74 568.45 340.77
  C 567.69 340.37 566.51 340.41 565.68 339.71
  Q 565.07 339.18 564.26 339.21
  Q 563.24 339.25 562.37 338.85
  Q 550.80 333.43 538.99 328.40
  Q 540.81 328.43 541.17 327.54
  Z"
/>
<path fill="#1570e1" d="
  M 516.54 392.31
  Q 516.50 391.82 516.07 392.58
  Q 515.94 391.45 515.28 390.68
  Q 514.90 390.34 515.71 389.77
  Q 516.13 389.48 516.12 388.97
  L 515.72 344.94
  Q 521.88 344.48 527.17 341.42
  Q 528.58 340.60 529.98 339.83
  Q 531.52 338.97 533.07 339.06
  Q 535.99 339.21 538.96 340.88
  C 541.05 342.05 543.28 342.59 545.43 343.68
  Q 559.26 350.67 565.64 354.34
  Q 568.24 355.84 572.11 358.82
  Q 573.96 360.24 575.59 362.15
  Q 577.24 364.08 579.09 365.53
  A 1.05 1.04 53.1 0 1 578.84 367.33
  L 516.54 392.31
  Z"
/>
<path fill="#cafdfd" d="
  M 515.28 390.68
  Q 515.94 391.45 516.07 392.58
  Q 515.18 393.51 513.80 392.97
  Q 483.25 380.88 452.96 368.18
  C 436.39 361.24 419.55 354.53 402.87 347.48
  L 401.05 346.79
  Q 401.05 345.96 401.39 346.07
  Q 412.60 349.84 420.26 352.91
  Q 432.41 357.80 445.18 362.43
  C 449.96 364.17 454.59 366.52 459.46 368.16
  Q 462.25 369.11 465.04 370.32
  C 475.30 374.77 487.10 378.80 496.74 382.81
  Q 504.68 386.12 512.71 389.30
  Q 513.43 389.58 515.28 390.68
  Z"
/>
<path fill="#2e4863" d="
  M 402.87 347.48
  C 419.55 354.53 436.39 361.24 452.96 368.18
  Q 483.25 380.88 513.80 392.97
  Q 515.18 393.51 516.07 392.58
  Q 516.50 391.82 516.54 392.31
  C 516.19 393.39 515.76 394.50 515.76 395.65
  Q 515.76 403.21 515.77 410.98
  A 0.96 0.96 0.0 0 1 514.37 411.83
  Q 511.59 410.40 508.99 409.26
  Q 480.70 396.84 451.80 384.56
  Q 442.78 380.73 433.43 377.11
  Q 422.66 372.94 412.19 368.35
  A 1.58 1.54 20.8 0 1 411.31 366.45
  Q 411.40 366.20 411.23 365.98
  Q 410.84 365.46 411.44 365.23
  Q 411.49 365.21 411.53 365.17
  Q 411.65 365.01 411.68 364.82
  Q 412.18 361.56 411.77 358.14
  Q 411.71 357.64 411.87 357.17
  Q 412.27 355.96 412.27 354.62
  Q 412.26 354.48 412.14 354.42
  Q 412.01 354.37 411.87 354.38
  Q 412.79 354.46 411.79 353.22
  A 0.74 0.73 -11.8 0 0 411.37 352.95
  Q 405.79 351.65 402.87 347.48
  Z"
/>
<path fill="#1857ba" d="
  M 593.88 396.43
  L 593.76 387.83
  Q 594.24 387.13 594.16 386.11
  Q 594.11 385.42 594.68 385.59
  Q 594.83 385.63 594.98 385.61
  Q 595.24 385.58 595.47 385.45
  Q 600.17 382.75 604.70 380.89
  Q 620.23 374.52 639.67 367.60
  C 640.49 367.31 641.51 366.64 642.26 366.48
  Q 644.49 365.98 644.25 368.26
  Q 643.97 370.83 643.96 373.43
  C 643.95 375.15 642.95 376.08 641.50 376.76
  Q 627.00 383.53 611.10 389.56
  Q 608.87 390.41 602.57 393.18
  Q 598.44 395.01 593.88 396.43
  Z"
/>
<path fill="#238af2" d="
  M 510.40 418.01
  Q 512.30 418.98 513.73 419.10
  Q 514.75 419.18 515.05 420.16
  Q 516.37 424.53 515.33 430.04
  Q 508.79 428.48 496.08 423.16
  Q 455.02 405.98 413.96 388.79
  Q 399.42 382.70 389.79 378.04
  A 2.91 2.91 0.0 0 1 388.16 375.35
  L 388.31 369.34
  Q 388.35 367.44 390.11 368.17
  L 510.40 418.01
  Z"
/>
<ellipse fill="#fdcf5e" cx="0.00" cy="0.00" transform="translate(309.71,375.74) rotate(78.9)" rx="5.80" ry="5.53"/>
<circle fill="#e79e26" cx="699.47" cy="375.68" r="5.72"/>
<circle fill="#e79e26" cx="721.90" cy="375.81" r="5.74"/>
<circle fill="#fdcf5e" cx="332.04" cy="375.84" r="5.59"/>
<path fill="#1857ba" d="
  M 515.33 430.04
  Q 516.37 424.53 515.05 420.16
  Q 514.75 419.18 513.73 419.10
  Q 512.30 418.98 510.40 418.01
  Q 514.34 418.43 515.75 417.80
  Q 545.42 404.43 578.60 392.54
  Q 579.62 392.17 580.32 391.80
  A 0.51 0.51 0.0 0 1 581.06 392.23
  L 581.32 400.83
  A 1.98 1.97 77.9 0 1 580.11 402.71
  L 515.33 430.04
  Z"
/>
<path fill="#238af2" d="
  M 383.38 436.20
  L 462.91 572.98
  Q 462.37 573.25 462.00 573.11
  Q 461.53 572.93 461.61 572.44
  Q 461.73 571.61 460.95 571.32
  Q 460.47 571.13 460.13 570.75
  L 458.38 568.82
  Q 458.16 568.58 457.84 568.61
  Q 457.70 568.62 457.56 568.62
  Q 457.05 568.61 457.33 568.19
  Q 457.41 568.07 457.31 567.88
  Q 457.04 567.38 456.47 567.28
  C 454.76 566.97 454.22 564.66 452.77 563.76
  Q 451.39 562.91 449.50 562.72
  Q 449.06 562.68 448.90 562.26
  Q 448.84 562.10 448.71 561.96
  Q 448.40 561.61 447.92 561.61
  Q 445.49 561.60 442.96 561.76
  Q 442.77 561.77 442.61 561.68
  Q 442.48 561.62 442.35 561.56
  Q 442.01 561.40 441.67 561.56
  Q 440.91 561.91 440.29 561.35
  Q 439.98 561.07 439.60 561.22
  Q 437.90 561.90 436.82 560.65
  Q 436.50 560.28 436.06 560.07
  Q 435.01 559.57 433.79 559.67
  Q 433.34 559.70 432.93 559.54
  Q 430.33 558.51 427.31 558.31
  Q 426.70 558.27 426.29 558.71
  A 1.01 0.99 -64.0 0 1 425.45 559.01
  Q 425.01 558.96 424.57 559.06
  Q 424.00 559.21 423.90 558.62
  Q 423.81 558.01 423.25 557.53
  Q 422.68 557.02 422.73 557.79
  Q 422.74 558.06 422.52 558.22
  Q 422.24 558.41 422.15 558.09
  Q 422.13 558.03 422.15 557.97
  Q 422.24 557.62 421.88 557.63
  Q 421.15 557.65 420.78 556.98
  Q 420.65 556.75 420.90 556.67
  Q 420.95 556.66 421.00 556.66
  Q 421.49 556.66 421.20 556.22
  Q 420.60 555.31 419.43 555.39
  L 349.92 436.91
  A 0.45 0.45 0.0 0 1 350.31 436.23
  L 383.38 436.20
  Z"
/>
<path fill="#e79e26" d="
  M 516.17 561.36
  Q 516.50 579.90 516.28 598.75
  Q 516.26 599.89 515.87 600.82
  Q 515.11 602.61 514.80 600.69
  C 514.36 597.95 512.27 596.29 510.79 594.08
  C 506.96 588.41 503.00 582.79 499.40 577.03
  Q 492.80 566.48 485.46 554.82
  Q 473.42 535.70 444.82 486.00
  C 439.38 476.54 433.71 467.46 428.55 457.96
  Q 427.21 455.49 422.51 447.32
  Q 419.46 442.03 416.86 436.45
  L 449.16 436.32
  Q 449.66 436.32 449.96 436.71
  Q 451.30 438.51 452.83 441.43
  Q 478.84 491.24 504.85 541.04
  Q 507.34 545.80 510.45 551.24
  Q 513.32 556.25 516.17 561.36
  Z"
/>
<path fill="#1857ba" d="
  M 516.77 716.76
  Q 515.71 715.29 515.70 713.50
  Q 515.64 706.49 515.90 699.49
  Q 516.17 692.30 516.02 685.51
  Q 515.79 675.21 516.17 665.13
  Q 517.78 662.83 519.07 660.51
  C 524.96 649.94 531.67 639.70 537.63 629.00
  Q 546.76 612.58 555.27 598.02
  Q 563.33 584.24 571.18 570.65
  Q 576.07 562.18 581.31 553.39
  C 596.15 528.47 611.70 500.96 625.67 477.43
  Q 631.92 466.89 639.84 452.44
  C 642.62 447.36 646.48 442.00 649.57 436.49
  L 682.76 436.50
  A 0.44 0.43 15.0 0 1 683.14 437.15
  Q 674.83 451.38 666.44 465.25
  Q 661.69 473.12 656.31 482.48
  Q 649.60 494.18 641.35 508.05
  Q 622.04 540.49 603.08 572.44
  Q 596.70 583.19 591.35 592.45
  Q 586.37 601.08 581.14 609.64
  C 571.11 626.04 561.67 642.77 551.68 659.15
  Q 535.55 685.58 520.16 712.52
  C 519.27 714.07 517.98 715.48 516.77 716.76
  Z"
/>
<path fill="#d67f1a" d="
  M 649.57 436.49
  C 646.48 442.00 642.62 447.36 639.84 452.44
  Q 631.92 466.89 625.67 477.43
  C 611.70 500.96 596.15 528.47 581.31 553.39
  Q 576.07 562.18 571.18 570.65
  Q 563.33 584.24 555.27 598.02
  Q 546.76 612.58 537.63 629.00
  C 531.67 639.70 524.96 649.94 519.07 660.51
  Q 517.78 662.83 516.17 665.13
  Q 514.51 663.27 513.77 660.44
  Q 514.51 660.41 514.39 659.62
  Q 514.35 659.34 514.61 659.21
  L 514.92 659.06
  Q 515.09 658.99 515.10 658.80
  C 515.29 655.47 515.88 652.15 515.88 648.77
  Q 515.86 619.42 515.92 610.50
  C 515.94 607.54 516.01 603.69 517.53 601.02
  C 519.07 598.31 521.09 595.93 522.69 593.24
  Q 527.45 585.25 532.20 577.26
  Q 554.87 539.18 577.30 500.80
  Q 587.98 510.09 598.93 502.26
  C 603.25 499.17 604.09 494.25 604.13 489.25
  Q 604.20 481.34 604.01 473.42
  C 603.88 467.75 604.32 464.50 600.07 461.53
  Q 600.19 460.40 598.14 458.24
  Q 595.43 455.38 597.58 452.89
  L 598.28 437.62
  A 1.13 1.13 0.0 0 1 599.41 436.54
  L 649.57 436.49
  Z"
/>
<path fill="#238af2" d="
  M 594.52 458.07
  Q 594.20 459.05 595.01 459.49
  Q 595.44 459.72 595.44 460.21
  Q 595.45 461.08 594.66 461.46
  A 1.51 1.46 -84.0 0 0 594.11 461.92
  Q 592.43 464.18 590.26 466.60
  C 588.54 468.52 587.78 470.11 587.60 472.54
  C 587.14 478.95 586.27 485.36 587.13 491.75
  Q 587.76 496.37 585.96 497.07
  C 584.19 495.59 582.98 494.40 582.73 491.95
  Q 581.50 479.87 582.22 467.76
  Q 582.45 463.94 580.57 460.93
  Q 586.58 455.68 594.52 458.07
  Z"
/>
<path fill="#1857ba" d="
  M 594.52 458.07
  L 597.01 459.79
  Q 597.44 463.33 597.20 464.27
  Q 595.34 471.68 595.41 476.75
  Q 595.51 483.75 595.69 490.75
  Q 595.76 493.39 595.05 495.50
  Q 594.43 497.32 592.50 497.40
  Q 591.39 497.44 588.96 497.95
  Q 586.38 498.49 585.96 497.07
  Q 587.76 496.37 587.13 491.75
  C 586.27 485.36 587.14 478.95 587.60 472.54
  C 587.78 470.11 588.54 468.52 590.26 466.60
  Q 592.43 464.18 594.11 461.92
  A 1.51 1.46 -84.0 0 1 594.66 461.46
  Q 595.45 461.08 595.44 460.21
  Q 595.44 459.72 595.01 459.49
  Q 594.20 459.05 594.52 458.07
  Z"
/>
<path fill="#192c41" d="
  M 597.01 459.79
  L 600.07 461.53
  C 604.32 464.50 603.88 467.75 604.01 473.42
  Q 604.20 481.34 604.13 489.25
  C 604.09 494.25 603.25 499.17 598.93 502.26
  Q 587.98 510.09 577.30 500.80
  Q 574.22 496.58 574.21 488.75
  Q 574.21 479.38 574.38 469.99
  Q 574.49 463.63 580.57 460.93
  Q 582.45 463.94 582.22 467.76
  Q 581.50 479.87 582.73 491.95
  C 582.98 494.40 584.19 495.59 585.96 497.07
  Q 586.38 498.49 588.96 497.95
  Q 591.39 497.44 592.50 497.40
  Q 594.43 497.32 595.05 495.50
  Q 595.76 493.39 595.69 490.75
  Q 595.51 483.75 595.41 476.75
  Q 595.34 471.68 597.20 464.27
  Q 597.44 463.33 597.01 459.79
  Z"
/>
<path fill="#238af2" d="
  M 309.56 496.83
  L 309.62 498.12
  Q 309.64 498.61 309.38 499.02
  C 307.80 501.49 309.94 507.21 311.09 509.37
  C 311.59 510.32 311.45 511.22 311.44 512.23
  Q 311.44 512.71 311.18 513.11
  Q 307.74 518.46 306.16 522.98
  Q 305.79 524.03 304.95 524.50
  Q 303.84 525.12 302.55 525.13
  Q 300.97 525.14 299.48 525.99
  Q 298.11 526.77 296.22 526.94
  C 293.00 527.23 290.39 526.29 287.95 524.29
  Q 285.77 522.49 282.91 522.17
  Q 282.18 522.09 281.79 521.47
  L 276.65 513.49
  A 20.22 19.80 79.8 0 1 297.98 491.69
  A 20.24 19.83 79.9 0 1 309.56 496.83
  Z"
/>
<ellipse fill="#1570e1" cx="0.00" cy="0.00" transform="translate(734.18,511.98) rotate(-33.0)" rx="20.45" ry="20.08"/>
<path fill="#1857ba" d="
  M 309.56 496.83
  A 20.22 19.80 79.9 0 1 315.75 516.23
  A 20.22 19.84 80.0 0 1 308.88 527.59
  A 20.22 19.81 78.2 0 1 292.03 531.50
  A 20.22 19.76 78.3 0 1 286.15 529.05
  A 20.22 19.82 78.6 0 1 276.65 513.49
  L 281.79 521.47
  Q 282.18 522.09 282.91 522.17
  Q 285.77 522.49 287.95 524.29
  C 290.39 526.29 293.00 527.23 296.22 526.94
  Q 298.11 526.77 299.48 525.99
  Q 300.97 525.14 302.55 525.13
  Q 303.84 525.12 304.95 524.50
  Q 305.79 524.03 306.16 522.98
  Q 307.74 518.46 311.18 513.11
  Q 311.44 512.71 311.44 512.23
  C 311.45 511.22 311.59 510.32 311.09 509.37
  C 309.94 507.21 307.80 501.49 309.38 499.02
  Q 309.64 498.61 309.62 498.12
  L 309.56 496.83
  Z"
/>
<path fill="#1570e1" d="
  M 419.43 555.39
  Q 420.60 555.31 421.20 556.22
  Q 421.49 556.66 421.00 556.66
  Q 420.95 556.66 420.90 556.67
  Q 420.65 556.75 420.78 556.98
  Q 421.15 557.65 421.88 557.63
  Q 422.24 557.62 422.15 557.97
  Q 422.13 558.03 422.15 558.09
  Q 422.24 558.41 422.52 558.22
  Q 422.74 558.06 422.73 557.79
  Q 422.68 557.02 423.25 557.53
  Q 423.81 558.01 423.90 558.62
  Q 424.00 559.21 424.57 559.06
  Q 425.01 558.96 425.45 559.01
  A 1.01 0.99 -64.0 0 0 426.29 558.71
  Q 426.70 558.27 427.31 558.31
  Q 430.33 558.51 432.93 559.54
  Q 433.34 559.70 433.79 559.67
  Q 435.01 559.57 436.06 560.07
  Q 436.50 560.28 436.82 560.65
  Q 437.90 561.90 439.60 561.22
  Q 439.98 561.07 440.29 561.35
  Q 440.91 561.91 441.67 561.56
  Q 442.01 561.40 442.35 561.56
  Q 442.48 561.62 442.61 561.68
  Q 442.77 561.77 442.96 561.76
  Q 445.49 561.60 447.92 561.61
  Q 448.40 561.61 448.71 561.96
  Q 448.84 562.10 448.90 562.26
  Q 449.06 562.68 449.50 562.72
  Q 451.39 562.91 452.77 563.76
  C 454.22 564.66 454.76 566.97 456.47 567.28
  Q 457.04 567.38 457.31 567.88
  Q 457.41 568.07 457.33 568.19
  Q 457.05 568.61 457.56 568.62
  Q 457.70 568.62 457.84 568.61
  Q 458.16 568.58 458.38 568.82
  L 460.13 570.75
  Q 460.47 571.13 460.95 571.32
  Q 461.73 571.61 461.61 572.44
  Q 461.53 572.93 462.00 573.11
  Q 462.37 573.25 462.91 572.98
  L 513.77 660.44
  Q 514.51 663.27 516.17 665.13
  Q 515.79 675.21 516.02 685.51
  Q 516.17 692.30 515.90 699.49
  Q 515.64 706.49 515.70 713.50
  Q 515.71 715.29 516.77 716.76
  Q 516.43 717.57 515.97 717.74
  A 0.63 0.62 -23.7 0 1 515.21 717.45
  Q 508.58 705.30 504.60 698.67
  Q 461.71 627.21 419.43 555.39
  Z"
/>
<circle fill="#e79e26" cx="737.66" cy="564.57" r="4.25"/>
<circle fill="#e79e26" cx="294.57" cy="564.70" r="4.33"/>
<path fill="#fdcf5e" d="
  M 354.81 576.55
  Q 354.27 578.75 355.58 580.76
  Q 357.41 583.56 357.59 584.10
  Q 358.87 587.82 358.43 591.70
  Q 358.07 594.88 356.30 597.25
  Q 354.63 599.49 353.03 601.76
  Q 351.69 603.65 348.73 605.48
  Q 345.89 607.22 343.17 609.42
  Q 339.03 610.21 336.24 609.54
  Q 334.77 609.19 331.03 607.46
  Q 328.01 606.06 326.32 603.92
  Q 321.32 597.63 320.79 588.83
  C 320.63 586.27 322.38 581.10 323.83 578.96
  Q 328.64 571.86 337.13 570.66
  Q 347.77 569.15 354.81 576.55
  Z"
/>
<path fill="#fdcf5e" d="
  M 702.51 573.81
  Q 703.59 575.92 701.74 576.59
  Q 701.30 576.75 701.16 577.20
  Q 701.01 577.68 700.62 577.89
  Q 699.12 578.67 697.19 578.41
  Q 696.71 578.34 696.32 578.63
  L 692.80 581.18
  Q 692.37 581.49 692.18 581.98
  Q 691.51 583.72 690.20 584.51
  Q 689.73 584.79 689.57 585.33
  Q 689.17 586.71 688.06 587.45
  Q 685.86 588.93 684.64 591.62
  Q 683.49 594.15 681.45 595.93
  Q 681.13 596.22 681.02 596.63
  L 679.65 601.82
  Q 679.53 602.26 679.18 602.53
  Q 678.04 603.43 676.43 603.74
  Q 670.41 595.87 672.23 586.98
  C 672.92 583.56 675.76 578.12 678.60 575.71
  Q 683.46 571.58 689.00 570.76
  Q 696.35 569.68 702.51 573.81
  Z"
/>
<path fill="#d67f1a" d="
  M 702.51 573.81
  Q 714.27 585.31 709.35 598.29
  C 707.06 604.34 703.06 607.24 697.00 609.00
  Q 684.96 612.48 676.43 603.74
  Q 678.04 603.43 679.18 602.53
  Q 679.53 602.26 679.65 601.82
  L 681.02 596.63
  Q 681.13 596.22 681.45 595.93
  Q 683.49 594.15 684.64 591.62
  Q 685.86 588.93 688.06 587.45
  Q 689.17 586.71 689.57 585.33
  Q 689.73 584.79 690.20 584.51
  Q 691.51 583.72 692.18 581.98
  Q 692.37 581.49 692.80 581.18
  L 696.32 578.63
  Q 696.71 578.34 697.19 578.41
  Q 699.12 578.67 700.62 577.89
  Q 701.01 577.68 701.16 577.20
  Q 701.30 576.75 701.74 576.59
  Q 703.59 575.92 702.51 573.81
  Z"
/>
<path fill="#d67f1a" d="
  M 354.81 576.55
  Q 363.72 585.98 358.33 597.60
  Q 355.07 604.64 349.55 608.07
  Q 347.42 609.40 343.17 609.42
  Q 345.89 607.22 348.73 605.48
  Q 351.69 603.65 353.03 601.76
  Q 354.63 599.49 356.30 597.25
  Q 358.07 594.88 358.43 591.70
  Q 358.87 587.82 357.59 584.10
  Q 357.41 583.56 355.58 580.76
  Q 354.27 578.75 354.81 576.55
  Z"
/>
<ellipse fill="#192c41" cx="0.00" cy="0.00" transform="translate(383.13,635.29) rotate(128.1)" rx="7.70" ry="7.47"/>
<circle fill="#192c41" cx="648.06" cy="635.37" r="7.63"/>
<rect fill="#fdcf5e" x="-6.13" y="-6.25" transform="translate(403.32,681.96) rotate(0.9)" width="12.26" height="12.50" rx="5.23"/>
<circle fill="#e79e26" cx="628.65" cy="681.92" r="6.48"/>
<ellipse fill="#e79e26" cx="0.00" cy="0.00" transform="translate(429.68,704.81) rotate(87.5)" rx="4.62" ry="4.12"/>
<circle fill="#e79e26" cx="601.84" cy="704.91" r="4.44"/>
</svg>
