<?xml version="1.0" encoding="UTF-8" standalone="no"?>
<!DOCTYPE svg PUBLIC "-//W3C//DTD SVG 1.1//EN" "http://www.w3.org/Graphics/SVG/1.1/DTD/svg11.dtd">
<svg xmlns="http://www.w3.org/2000/svg" version="1.1" viewBox="0.00 0.00 1448.00 1448.00">
<g stroke-width="2.00" fill="none" stroke-linecap="butt">
<path stroke="#1c7be6" vector-effect="non-scaling-stroke" d="
  M 750.55 312.14
  L 742.35 319.69"
/>
<path stroke="#1c7be6" vector-effect="non-scaling-stroke" d="
  M 692.45 296.67
  L 692.48 288.67"
/>
<path stroke="#1c7be6" vector-effect="non-scaling-stroke" d="
  M 727.45 350.79
  Q 727.38 351.11 727.36 351.45
  Q 727.35 351.76 727.50 352.04
  Q 730.45 357.31 730.65 363.61
  Q 731.17 379.72 731.07 393.64
  Q 731.01 402.90 730.24 410.50
  Q 729.26 420.27 734.74 424.00"
/>
<path stroke="#90ada9" vector-effect="non-scaling-stroke" d="
  M 734.74 424.00
  Q 732.02 424.32 728.57 423.81
  Q 726.70 423.52 724.93 423.83
  Q 722.89 424.18 721.25 424.28"
/>
<path stroke="#1c7be6" vector-effect="non-scaling-stroke" d="
  M 721.25 424.28
  Q 713.23 423.55 706.79 430.02
  Q 701.73 435.11 700.44 441.85"
/>
<path stroke="#1e5b99" vector-effect="non-scaling-stroke" d="
  M 700.44 441.85
  Q 691.95 459.37 702.74 474.24
  Q 708.98 482.85 719.35 487.09"
/>
<path stroke="#1c7be6" vector-effect="non-scaling-stroke" d="
  M 719.35 487.09
  Q 720.12 487.76 722.13 488.35
  Q 723.66 488.81 727.78 491.23
  Q 729.61 492.30 729.52 495.00
  Q 728.99 510.94 728.58 549.50
  Q 728.57 550.52 728.28 551.73"
/>
<path stroke="#86bcec" vector-effect="non-scaling-stroke" d="
  M 728.28 551.73
  Q 660.18 524.56 591.99 497.68
  Q 581.84 493.68 578.38 492.61
  Q 574.49 491.42 573.61 493.79"
/>
<path stroke="#1e5b99" vector-effect="non-scaling-stroke" d="
  M 573.61 493.79
  Q 527.70 475.52 481.44 457.27
  Q 478.16 455.97 475.90 456.20
  Q 473.24 456.46 470.27 457.72"
/>
<path stroke="#8b7e50" vector-effect="non-scaling-stroke" d="
  M 746.39 429.07
  Q 747.66 431.12 748.95 432.76
  Q 756.65 442.56 755.01 454.60
  A 0.97 0.97 0.0 0 1 753.57 455.31
  Q 745.84 450.98 737.77 448.45
  Q 733.52 447.11 729.19 448.44
  Q 728.68 448.60 728.54 449.12
  Q 728.36 449.82 728.66 450.46
  Q 728.92 451.02 729.96 451.33
  Q 732.43 452.07 734.78 453.05"
/>
<path stroke="#90ada9" vector-effect="non-scaling-stroke" d="
  M 734.78 453.05
  Q 736.15 454.08 738.23 454.41"
/>
<path stroke="#8b7e50" vector-effect="non-scaling-stroke" d="
  M 738.23 454.41
  L 740.30 455.29"
/>
<path stroke="#90ada9" vector-effect="non-scaling-stroke" d="
  M 740.30 455.29
  Q 741.68 456.36 743.19 456.50"
/>
<path stroke="#8b7e50" vector-effect="non-scaling-stroke" d="
  M 743.19 456.50
  Q 747.05 458.05 750.79 459.85
  Q 755.57 462.15 758.35 463.29
  Q 798.96 479.89 810.00 485.00
  Q 824.05 491.50 832.85 505.72"
/>
<path stroke="#e9a83e" vector-effect="non-scaling-stroke" d="
  M 832.85 505.72
  Q 833.37 508.68 833.21 511.50
  Q 832.50 524.21 831.88 537.11
  C 831.72 540.48 832.16 543.41 832.50 546.68
  Q 832.82 549.76 832.68 553.53
  Q 831.84 575.19 831.11 597.10
  C 830.99 600.63 829.85 604.01 830.17 607.54
  Q 831.35 620.52 832.36 633.53
  C 832.46 634.84 832.92 635.94 834.04 636.70
  C 835.57 637.74 839.80 639.96 841.82 639.19"
/>
<path stroke="#8b7e50" vector-effect="non-scaling-stroke" d="
  M 841.82 639.19
  Q 842.06 639.99 842.97 640.25"
/>
<path stroke="#e9a83e" vector-effect="non-scaling-stroke" d="
  M 842.97 640.25
  L 846.04 648.56
  A 1.17 1.17 0.0 0 1 844.79 650.12
  L 844.05 650.02"
/>
<path stroke="#8b948c" vector-effect="non-scaling-stroke" d="
  M 844.05 650.02
  L 841.51 648.42"
/>
<path stroke="#90ada9" vector-effect="non-scaling-stroke" d="
  M 841.51 648.42
  Q 831.59 643.97 822.80 650.81"
/>
<path stroke="#8b7e50" vector-effect="non-scaling-stroke" d="
  M 822.80 650.81
  Q 812.60 654.32 812.07 664.48
  Q 811.71 671.38 812.27 696.24
  Q 812.40 702.30 816.11 708.17"
/>
<path stroke="#e9a83e" vector-effect="non-scaling-stroke" d="
  M 816.11 708.17
  Q 784.36 761.66 763.31 798.02
  Q 748.59 823.42 736.69 841.20
  Q 732.29 847.77 731.08 851.46
  Q 729.55 856.09 729.47 863.26
  C 729.31 878.37 729.63 893.49 729.13 908.58
  Q 728.66 922.62 728.77 927.25
  Q 728.89 932.44 731.31 937.35"
/>
<path stroke="#8b948c" vector-effect="non-scaling-stroke" d="
  M 731.31 937.35
  Q 730.47 938.83 729.36 938.48"
/>
<path stroke="#889e9e" vector-effect="non-scaling-stroke" d="
  M 729.36 938.48
  L 687.28 865.88"
/>
<path stroke="#90ada9" vector-effect="non-scaling-stroke" d="
  M 687.28 865.88
  Q 687.20 865.16 686.88 864.62
  Q 614.94 741.57 543.08 618.46
  Q 542.60 617.64 542.70 616.91"
/>
<path stroke="#8b7e50" vector-effect="non-scaling-stroke" d="
  M 542.70 616.91
  L 544.54 617.11"
/>
<path stroke="#f1b744" vector-effect="non-scaling-stroke" d="
  M 544.54 617.11
  L 589.09 617.09
  A 2.03 2.01 76.1 0 1 590.88 618.18
  C 598.59 633.01 605.99 648.15 615.17 662.53
  Q 626.73 680.60 637.56 700.30
  C 645.73 715.14 654.41 729.39 662.65 744.09
  Q 673.74 763.88 685.62 782.86
  Q 707.21 817.37 726.78 846.26
  Q 727.66 847.56 728.56 848.20
  A 1.22 1.22 0.0 0 0 730.49 847.20
  L 730.21 793.00"
/>
<path stroke="#8b7e50" vector-effect="non-scaling-stroke" d="
  M 730.21 793.00
  Q 767.93 722.41 804.83 652.00
  Q 808.51 644.97 815.29 634.66
  C 816.43 632.92 817.24 630.97 818.35 629.25
  Q 819.74 627.09 819.87 629.65
  Q 820.05 633.04 819.87 636.69
  Q 819.79 638.28 821.38 638.41
  L 822.90 638.53
  Q 824.30 638.64 824.31 637.23
  Q 824.73 577.89 824.71 522.61
  Q 824.71 517.01 823.37 513.44
  C 818.80 501.24 806.27 495.98 795.15 490.98
  Q 762.37 476.27 730.34 463.59
  C 727.29 462.38 724.41 460.68 721.62 458.92
  C 720.12 457.98 718.95 459.27 719.18 460.87
  Q 719.31 461.77 720.22 461.75
  C 722.70 461.72 723.90 462.86 724.83 464.91
  Q 725.27 465.88 726.02 466.54"
/>
<path stroke="#90ada9" vector-effect="non-scaling-stroke" d="
  M 726.02 466.54
  Q 727.76 467.82 730.80 467.34"
/>
<path stroke="#8b7e50" vector-effect="non-scaling-stroke" d="
  M 730.80 467.34
  L 731.78 467.28
  Q 732.57 467.23 732.62 468.02
  L 732.70 469.43
  A 0.81 0.80 82.6 0 1 732.06 470.27
  L 728.44 471.04"
/>
<path stroke="#90ada9" vector-effect="non-scaling-stroke" d="
  M 728.44 471.04
  L 721.32 471.05"
/>
<path stroke="#8b7e50" vector-effect="non-scaling-stroke" d="
  M 721.32 471.05
  C 711.12 469.53 703.10 462.80 701.61 452.31
  Q 701.21 449.48 701.47 442.17"
/>
<path stroke="#1e5b99" vector-effect="non-scaling-stroke" d="
  M 983.22 455.64
  L 1002.25 463.27"
/>
<path stroke="#1e5b99" vector-effect="non-scaling-stroke" d="
  M 1011.14 473.13
  Q 1009.95 475.21 1008.05 475.99"
/>
<path stroke="#1e5b99" vector-effect="non-scaling-stroke" d="
  M 990.42 483.00
  Q 966.50 492.21 942.76 501.91
  Q 938.56 503.62 931.92 506.18
  Q 924.70 508.95 921.12 510.63
  Q 920.23 511.05 920.27 512.99"
/>
<path stroke="#243a52" vector-effect="non-scaling-stroke" d="
  M 920.24 578.40
  Q 919.10 579.31 920.92 580.29
  Q 921.64 580.67 922.66 580.68
  Q 982.04 581.05 1041.42 580.37
  Q 1041.79 580.36 1042.09 580.14
  Q 1042.30 579.98 1042.51 579.95"
/>
<path stroke="#1e5b99" vector-effect="non-scaling-stroke" d="
  M 1053.47 595.87
  Q 1038.28 623.07 1022.83 650.52
  Q 1019.93 655.66 1017.77 657.77
  C 1013.35 662.06 1007.98 663.98 1001.63 663.92
  Q 996.51 663.88 991.65 664.08
  Q 988.93 664.20 986.51 665.70
  Q 983.08 667.83 981.43 670.42
  C 974.05 682.02 967.17 694.51 960.11 706.55
  Q 921.88 771.82 883.49 836.99
  Q 820.81 943.37 755.71 1053.34
  Q 754.08 1056.09 748.70 1065.77
  Q 744.33 1073.62 741.09 1077.84
  Q 740.25 1078.94 736.86 1082.37"
/>
<path stroke="#243a52" vector-effect="non-scaling-stroke" d="
  M 720.79 1082.97
  Q 722.62 1083.13 721.01 1082.14
  Q 720.58 1081.88 720.34 1081.44
  Q 718.12 1077.53 715.75 1073.72
  Q 714.47 1071.68 711.30 1065.89
  Q 708.90 1061.53 705.80 1057.53"
/>
<path stroke="#243a52" vector-effect="non-scaling-stroke" d="
  M 705.37 1057.04
  Q 698.97 1044.46 694.15 1036.86
  Q 691.85 1033.23 690.01 1029.94
  Q 688.02 1026.41 685.96 1022.97
  Q 675.49 1005.41 664.93 987.30
  Q 656.99 973.70 647.63 958.03
  Q 642.51 949.45 637.50 940.78
  Q 618.45 907.83 598.54 875.38"
/>
<path stroke="#243a52" vector-effect="non-scaling-stroke" d="
  M 588.75 858.72
  Q 574.99 833.75 559.93 809.55"
/>
<path stroke="#243a52" vector-effect="non-scaling-stroke" d="
  M 557.96 806.50
  Q 550.07 791.22 547.52 787.28
  Q 543.91 781.71 542.29 778.67
  C 541.36 776.94 540.23 775.51 539.21 773.73
  Q 528.15 754.67 514.75 732.13
  Q 514.71 732.05 504.87 715.28
  Q 497.50 702.71 489.65 690.43"
/>
<path stroke="#1e5b99" vector-effect="non-scaling-stroke" d="
  M 489.54 690.17
  Q 482.08 676.91 479.40 672.36
  Q 478.88 671.46 477.80 670.51"
/>
<path stroke="#1e5b99" vector-effect="non-scaling-stroke" d="
  M 477.80 670.51
  Q 477.72 669.81 477.38 669.37
  Q 474.42 665.42 470.09 664.62"
/>
<path stroke="#1e5b99" vector-effect="non-scaling-stroke" d="
  M 456.76 664.44
  Q 454.48 663.85 451.79 664.17"
/>
<path stroke="#243a52" vector-effect="non-scaling-stroke" d="
  M 418.61 618.86
  Q 418.27 615.78 415.60 613.57"
/>
<path stroke="#1e5b99" vector-effect="non-scaling-stroke" d="
  M 408.36 600.71
  Q 407.98 597.29 407.38 594.50
  Q 406.68 591.29 408.74 585.32"
/>
<path stroke="#243a52" vector-effect="non-scaling-stroke" d="
  M 415.12 580.56
  Q 425.71 580.89 436.12 580.90
  Q 486.97 580.95 537.82 580.73
  Q 538.56 580.72 539.07 580.37
  Q 540.38 579.44 539.31 578.85"
/>
<path stroke="#1e5b99" vector-effect="non-scaling-stroke" d="
  M 539.30 512.83
  Q 539.14 510.83 538.11 510.39
  Q 535.23 509.17 525.45 505.31
  Q 519.90 503.12 514.21 501.29"
/>
<path stroke="#1e5b99" vector-effect="non-scaling-stroke" d="
  M 512.84 500.69
  L 473.76 485.27"
/>
<path stroke="#243a52" vector-effect="non-scaling-stroke" d="
  M 456.70 462.66
  Q 459.46 462.70 461.45 460.99"
/>
<path stroke="#818c93" vector-effect="non-scaling-stroke" d="
  M 573.61 493.79
  L 607.29 507.68"
/>
<path stroke="#243a52" vector-effect="non-scaling-stroke" d="
  M 607.29 507.68
  L 610.96 512.62
  A 0.63 0.63 0.0 0 1 610.56 513.62
  L 603.47 514.89
  A 2.04 2.02 3.6 0 0 601.90 516.26
  L 599.30 524.19
  A 3.58 3.57 20.0 0 0 601.37 528.62
  C 613.98 533.71 627.15 538.58 639.40 544.12
  Q 672.09 558.89 704.21 572.17
  C 712.17 575.45 719.38 579.40 727.00 583.06
  A 1.62 1.62 0.0 0 0 729.32 581.59
  L 729.17 556.89"
/>
<path stroke="#818c93" vector-effect="non-scaling-stroke" d="
  M 729.17 556.89
  Q 729.94 556.27 729.87 555.82"
/>
<path stroke="#174b8e" vector-effect="non-scaling-stroke" d="
  M 729.87 555.82
  Q 772.45 538.53 815.01 521.30
  C 817.27 520.39 818.79 518.63 817.20 516.33
  Q 811.94 508.75 803.17 503.50
  Q 782.24 490.95 759.43 481.24
  Q 756.35 479.92 752.64 480.55
  Q 750.06 480.98 746.31 482.89
  Q 733.57 489.37 719.35 487.09"
/>
<path stroke="#1e5b99" vector-effect="non-scaling-stroke" d="
  M 721.32 471.05
  Q 724.77 472.20 728.44 471.04"
/>
<path stroke="#1e5b99" vector-effect="non-scaling-stroke" d="
  M 730.80 467.34
  L 726.02 466.54"
/>
<path stroke="#806434" vector-effect="non-scaling-stroke" d="
  M 730.21 793.00
  Q 713.48 764.91 704.34 746.93
  Q 671.76 682.90 638.05 619.46
  C 637.24 617.93 636.21 617.04 634.51 617.06
  Q 613.32 617.24 591.58 616.74
  C 590.38 616.71 589.15 617.08 588.07 617.08
  Q 566.30 617.10 544.54 617.11"
/>
<path stroke="#1e5b99" vector-effect="non-scaling-stroke" d="
  M 542.70 616.91
  Q 519.36 616.56 496.00 616.90
  Q 494.66 616.92 495.07 618.54
  A 1.98 1.91 23.5 0 0 495.29 619.07
  L 604.54 804.29"
/>
<path stroke="#174b8e" vector-effect="non-scaling-stroke" d="
  M 604.54 804.29
  Q 657.66 895.46 712.43 985.62
  Q 716.41 992.17 719.51 998.19
  Q 722.86 1004.71 726.00 1011.09"
/>
<path stroke="#19417c" vector-effect="non-scaling-stroke" d="
  M 726.00 1011.09
  C 727.25 1014.66 730.33 1015.69 732.42 1012.19
  Q 848.98 815.98 965.46 619.92
  A 2.13 2.13 0.0 0 0 963.61 616.71
  L 918.31 617.26"
/>
<path stroke="#77552e" vector-effect="non-scaling-stroke" d="
  M 918.31 617.26
  Q 885.26 617.16 852.87 617.29
  C 850.10 617.30 845.93 616.75 845.91 620.89
  Q 845.88 630.00 845.45 639.02
  Q 845.42 639.54 844.96 639.79
  Q 844.10 640.27 842.97 640.25"
/>
<path stroke="#77552e" vector-effect="non-scaling-stroke" d="
  M 841.82 639.19
  Q 840.09 637.05 840.06 635.00
  Q 839.52 604.07 839.93 560.23"
/>
<path stroke="#243a52" vector-effect="non-scaling-stroke" d="
  M 839.93 560.23
  C 847.87 557.97 855.21 556.29 863.54 553.12
  Q 869.28 550.94 875.51 547.84
  Q 890.06 540.62 904.52 534.55
  C 910.26 532.15 911.71 526.33 911.97 520.66
  A 2.10 2.10 0.0 0 0 910.36 518.53
  C 909.60 518.36 908.25 518.49 907.52 518.79
  Q 893.64 524.54 879.12 529.06
  Q 870.03 531.89 861.16 535.71
  Q 850.46 540.32 839.60 545.46"
/>
<path stroke="#77552e" vector-effect="non-scaling-stroke" d="
  M 839.60 545.46
  Q 839.91 532.13 839.31 520.49
  Q 839.14 517.09 837.80 513.99
  Q 835.88 509.52 832.85 505.72"
/>
<path stroke="#1e5b99" vector-effect="non-scaling-stroke" d="
  M 743.19 456.50
  Q 741.97 455.55 740.30 455.29"
/>
<path stroke="#1e5b99" vector-effect="non-scaling-stroke" d="
  M 738.23 454.41
  Q 736.54 453.19 734.78 453.05"
/>
<path stroke="#1c7be6" vector-effect="non-scaling-stroke" d="
  M 963.74 446.95
  Q 963.53 447.27 963.76 447.39
  Q 970.00 450.72 976.84 452.70"
/>
<path stroke="#1c7be6" vector-effect="non-scaling-stroke" d="
  M 983.22 455.26
  Q 983.04 455.52 983.22 455.64"
/>
<path stroke="#174b8e" vector-effect="non-scaling-stroke" d="
  M 983.22 455.64
  Q 981.64 455.23 980.77 455.58
  Q 911.34 483.60 841.77 511.58
  A 2.07 2.07 0.0 0 1 839.10 510.48
  Q 832.44 495.19 817.13 486.02
  Q 809.42 481.40 804.24 479.43
  Q 786.78 472.79 769.15 464.80
  C 766.96 463.81 765.52 462.12 765.60 459.68
  C 765.94 448.94 760.68 441.91 753.93 434.32
  Q 750.82 430.82 746.39 429.07"
/>
<path stroke="#889e9e" vector-effect="non-scaling-stroke" d="
  M 746.39 429.07
  Q 741.91 425.10 734.74 424.00"
/>
<path stroke="#7eace1" vector-effect="non-scaling-stroke" d="
  M 729.87 555.82
  Q 729.61 553.18 728.28 551.73"
/>
<path stroke="#889e9e" vector-effect="non-scaling-stroke" d="
  M 721.25 424.28
  Q 712.52 427.59 707.00 433.00
  Q 703.32 436.60 701.47 442.17"
/>
<path stroke="#174b8e" vector-effect="non-scaling-stroke" d="
  M 701.47 442.17
  L 700.44 441.85"
/>
<path stroke="#8c9ba5" vector-effect="non-scaling-stroke" d="
  M 729.17 556.89
  L 607.29 507.68"
/>
<path stroke="#1e71d5" vector-effect="non-scaling-stroke" d="
  M 841.51 648.42
  Q 840.40 651.23 839.02 653.76
  C 836.93 657.62 833.24 660.03 830.96 663.66
  Q 830.12 664.99 830.08 666.93
  Q 829.65 685.09 828.97 702.98
  Q 828.96 703.14 828.83 703.25
  Q 828.73 703.33 828.63 703.41"
/>
<path stroke="#1e5b99" vector-effect="non-scaling-stroke" d="
  M 828.63 703.41
  Q 822.80 697.53 822.74 689.50
  Q 822.67 680.59 822.80 650.81"
/>
<path stroke="#82643f" vector-effect="non-scaling-stroke" d="
  M 839.60 545.46
  L 839.93 560.23"
/>
<path stroke="#1761ca" vector-effect="non-scaling-stroke" d="
  M 726.00 1011.09
  Q 731.19 1012.28 730.39 1008.12
  Q 728.98 1000.85 729.05 997.13
  Q 729.40 976.11 729.57 953.56
  Q 729.61 947.68 728.60 940.63
  Q 728.45 939.60 729.36 938.48"
/>
<path stroke="#776b6a" vector-effect="non-scaling-stroke" d="
  M 731.31 937.35
  L 918.31 617.26"
/>
<path stroke="#77552e" vector-effect="non-scaling-stroke" d="
  M 816.11 708.17
  Q 819.98 711.60 824.89 713.55
  C 834.35 717.31 843.80 714.38 850.44 706.88
  Q 852.57 704.48 853.01 701.31
  Q 854.67 689.13 854.10 676.44
  Q 853.85 670.77 853.87 665.82
  C 853.91 658.29 852.22 653.45 844.90 650.93"
/>
<path stroke="#776b6a" vector-effect="non-scaling-stroke" d="
  M 844.90 650.93
  L 844.05 650.02"
/>
<path stroke="#1c7be6" vector-effect="non-scaling-stroke" d="
  M 687.28 865.88
  Q 687.10 865.89 686.94 865.87
  Q 686.78 865.86 686.65 865.76
  C 683.35 863.25 679.81 860.67 678.17 856.75
  Q 676.13 851.89 674.02 847.64
  Q 672.20 843.99 665.79 837.87
  Q 665.43 837.53 665.42 837.02
  C 665.41 835.52 665.21 834.26 664.16 833.11
  Q 660.22 828.83 658.43 823.15
  C 657.86 821.34 656.56 820.20 655.33 818.84
  Q 654.97 818.44 654.84 817.91
  Q 654.24 815.51 652.36 814.17
  A 1.38 1.33 13.1 0 1 651.81 813.32
  Q 651.16 810.09 649.06 806.95
  Q 648.72 806.45 648.50 807.01
  Q 647.41 809.77 649.37 812.04
  A 2.07 2.07 0.0 0 1 649.68 814.26
  L 646.28 821.58
  A 2.03 2.03 0.0 0 1 642.60 821.59
  L 642.21 820.75
  A 0.70 0.70 0.0 0 0 641.05 820.59
  Q 640.55 821.15 640.43 821.90
  Q 640.32 822.64 639.57 822.63
  Q 632.94 822.54 626.24 822.80
  C 621.10 822.99 618.59 820.53 615.84 816.65
  C 614.81 815.19 613.07 814.34 612.37 812.71
  A 1.83 1.80 2.1 0 0 611.51 811.80
  C 609.24 810.64 609.82 807.97 608.63 806.41
  Q 606.89 804.14 604.54 804.29"
/>
<path stroke="#19417c" vector-effect="non-scaling-stroke" d="
  M 844.90 650.93
  Q 844.46 650.79 844.06 651.13
  Q 843.71 651.42 843.70 651.89
  Q 842.94 674.84 842.14 697.09
  Q 841.95 702.33 837.85 704.36
  Q 832.73 706.89 828.63 703.41"
/>
<path stroke="#1e5b99" vector-effect="non-scaling-stroke" d="
  M 531.02 371.58
  Q 529.51 371.82 528.53 371.41"
/>
<path stroke="#1e5b99" vector-effect="non-scaling-stroke" d="
  M 539.61 377.72
  Q 542.19 386.85 536.05 391.98"
/>
<path stroke="#1e5b99" vector-effect="non-scaling-stroke" d="
  M 536.05 391.98
  Q 532.32 394.45 530.25 394.12
  Q 528.20 393.79 526.59 394.06"
/>
<path stroke="#1e5b99" vector-effect="non-scaling-stroke" d="
  M 518.71 387.33
  Q 519.00 386.39 518.07 385.29"
/>
<path stroke="#243a52" vector-effect="non-scaling-stroke" d="
  M 518.10 380.72
  Q 520.43 374.23 526.46 371.83"
/>
<path stroke="#1e5b99" vector-effect="non-scaling-stroke" d="
  M 930.97 371.54
  Q 928.96 372.15 927.71 371.65"
/>
<path stroke="#243a52" vector-effect="non-scaling-stroke" d="
  M 932.21 371.79
  Q 932.12 371.96 932.21 372.09
  Q 932.27 372.18 932.44 372.23
  Q 938.52 373.87 940.15 379.90"
/>
<path stroke="#1e5b99" vector-effect="non-scaling-stroke" d="
  M 940.15 379.90
  Q 941.94 390.76 932.26 393.76
  Q 930.93 394.17 929.14 394.01
  Q 927.59 393.87 925.98 393.78"
/>
<path stroke="#243a52" vector-effect="non-scaling-stroke" d="
  M 918.28 380.08
  Q 921.25 373.84 926.38 372.34
  A 0.30 0.29 -88.1 0 0 926.59 372.14
  Q 926.66 371.91 926.54 371.82"
/>
<path stroke="#2969aa" vector-effect="non-scaling-stroke" d="
  M 940.38 379.75
  Q 940.27 379.83 940.15 379.90"
/>
<path stroke="#1e71d5" vector-effect="non-scaling-stroke" d="
  M 425.98 693.02
  Q 425.30 693.68 423.90 693.14
  Q 422.70 692.67 422.00 692.61
  Q 417.00 692.21 411.67 692.67"
/>
<path stroke="#1e71d5" vector-effect="non-scaling-stroke" d="
  M 434.03 751.30
  L 426.91 754.41"
/>
<path stroke="#1e71d5" vector-effect="non-scaling-stroke" d="
  M 420.12 755.49
  Q 417.36 754.96 414.62 755.39"
/>
<path stroke="#1c7be6" vector-effect="non-scaling-stroke" d="
  M 1038.80 755.55
  L 1029.82 755.44"
/>
<path stroke="#243a52" vector-effect="non-scaling-stroke" d="
  M 540.75 887.09
  L 536.18 889.16
  Q 535.72 889.37 535.43 889.78
  Q 534.33 891.30 532.60 891.89"
/>
<path stroke="#1e5b99" vector-effect="non-scaling-stroke" d="
  M 543.83 887.01
  Q 550.18 888.36 552.81 893.66
  C 553.73 895.51 553.26 897.47 553.40 899.43
  Q 553.56 901.58 552.56 903.54
  Q 550.18 908.23 544.35 909.89"
/>
<path stroke="#1e5b99" vector-effect="non-scaling-stroke" d="
  M 536.63 908.64
  Q 534.88 906.42 532.70 905.02"
/>
<path stroke="#243a52" vector-effect="non-scaling-stroke" d="
  M 530.93 900.22
  L 531.82 893.65"
/>
<path stroke="#1e5b99" vector-effect="non-scaling-stroke" d="
  M 920.05 887.57
  L 913.68 887.55"
/>
<path stroke="#243a52" vector-effect="non-scaling-stroke" d="
  M 920.22 887.77
  Q 920.18 888.06 920.40 888.11
  Q 926.75 889.66 929.23 896.30"
/>
<path stroke="#243a52" vector-effect="non-scaling-stroke" d="
  M 929.20 901.39
  C 928.13 902.64 927.95 903.99 926.86 905.20
  Q 925.93 906.24 925.04 907.35"
/>
<path stroke="#1e5b99" vector-effect="non-scaling-stroke" d="
  M 915.95 909.76
  L 909.14 907.28"
/>
<path stroke="#243a52" vector-effect="non-scaling-stroke" d="
  M 907.05 905.08
  L 904.96 899.96"
/>
<path stroke="#1e5b99" vector-effect="non-scaling-stroke" d="
  M 904.96 899.96
  L 904.58 896.98"
/>
<path stroke="#1e5b99" vector-effect="non-scaling-stroke" d="
  M 905.10 895.78
  L 906.99 891.75"
/>
<path stroke="#2969aa" vector-effect="non-scaling-stroke" d="
  M 904.96 899.96
  Q 904.89 899.97 904.82 899.98"
/>
<path stroke="#f2dfa3" vector-effect="non-scaling-stroke" d="
  M 722.70 428.58
  C 714.23 430.79 702.36 440.08 705.28 450.55
  C 706.20 453.82 710.48 454.15 712.40 451.67
  Q 717.76 444.73 724.48 438.88
  C 726.94 436.73 727.69 433.86 726.61 430.69
  C 726.03 429.00 724.45 428.12 722.70 428.58"
/>
<path stroke="#243a52" vector-effect="non-scaling-stroke" d="
  M 727.27 607.99
  Q 728.40 608.25 729.49 607.99
  C 741.15 605.18 751.26 600.39 761.35 594.20
  C 763.02 593.18 765.00 594.11 766.94 592.89
  Q 772.10 589.66 776.90 588.01
  C 789.71 583.61 801.19 577.31 813.41 571.42
  C 819.73 568.37 823.81 563.94 819.39 556.74
  A 1.72 1.72 0.0 0 0 817.33 556.03
  Q 808.49 559.28 800.26 563.80
  C 797.83 565.14 795.25 564.29 792.66 565.40
  Q 783.74 569.20 775.17 572.65
  C 771.58 574.09 767.75 574.88 764.20 576.25
  Q 750.66 581.51 736.84 588.35
  Q 732.15 590.67 722.62 592.00"
/>
<path stroke="#1e5b99" vector-effect="non-scaling-stroke" d="
  M 722.62 592.00
  Q 636.92 556.48 551.25 521.23
  Q 550.54 520.93 550.21 520.98
  A 0.94 0.92 -1.2 0 0 549.40 521.81
  Q 548.97 526.14 548.98 531.04
  C 548.99 533.02 549.81 534.30 551.65 535.08
  Q 638.31 571.75 725.15 608.48
  C 725.93 608.81 726.64 608.47 727.27 607.99"
/>
<path stroke="#2969aa" vector-effect="non-scaling-stroke" d="
  M 722.62 592.00
  Q 729.13 594.15 729.91 601.75
  Q 730.35 606.10 727.27 607.99"
/>
</g>
<path fill="#146bdb" d="
  M 750.55 312.14
  L 742.35 319.69
  L 733.67 323.75
  Q 733.20 323.97 732.69 323.84
  Q 731.67 323.57 730.89 324.20
  Q 730.47 324.54 729.92 324.53
  Q 726.27 324.46 722.48 324.56
  Q 719.55 324.63 716.49 323.75
  Q 712.93 322.73 710.74 321.72
  Q 707.63 320.27 704.56 318.06
  Q 701.54 315.88 699.48 313.26
  Q 695.72 308.48 693.68 302.81
  Q 693.47 302.24 693.46 301.64
  Q 693.45 301.19 693.11 300.88
  Q 692.73 300.54 692.78 300.04
  Q 692.94 298.04 692.45 296.67
  L 692.48 288.67
  Q 692.75 285.94 693.71 283.21
  Q 695.23 278.93 697.69 275.16
  Q 700.16 271.39 703.69 268.63
  Q 709.23 264.30 716.01 262.37
  C 717.07 262.06 718.36 262.44 719.10 261.82
  Q 719.50 261.48 720.02 261.48
  L 729.18 261.48
  Q 729.68 261.48 730.10 261.75
  C 731.26 262.49 732.09 261.76 733.19 262.63
  A 1.42 1.40 61.0 0 0 734.18 262.92
  C 734.60 262.88 734.84 262.78 735.26 262.94
  Q 751.57 269.16 756.28 285.87
  C 756.66 287.23 756.20 288.92 756.94 289.94
  Q 757.26 290.38 757.26 290.93
  L 757.26 295.08
  Q 757.26 295.76 756.86 296.31
  C 756.28 297.09 756.62 298.29 756.45 299.29
  Q 755.18 306.74 750.55 312.14
  Z"
/>
<path fill="#238af1" d="
  M 692.48 288.67
  L 692.45 296.67
  Q 691.60 292.51 692.48 288.67
  Z"
/>
<path fill="#e69d27" d="
  M 603.94 355.76
  Q 602.44 355.88 600.91 355.47
  Q 582.97 350.62 577.76 332.66
  Q 577.01 330.09 577.00 326.25
  Q 576.99 323.97 576.98 321.92
  Q 576.97 319.53 577.51 317.39
  Q 582.05 299.33 600.32 293.75
  C 601.86 293.28 603.35 293.59 604.71 293.03
  C 606.35 292.35 609.40 292.70 611.27 292.70
  A 1.78 1.71 -29.1 0 1 612.14 292.93
  C 613.38 293.64 614.90 293.26 616.39 293.69
  Q 634.01 298.80 639.16 315.84
  Q 640.17 319.20 640.06 322.66
  Q 639.99 325.01 640.06 327.32
  Q 640.13 329.48 639.55 331.71
  Q 634.81 350.10 616.33 355.46
  Q 615.20 355.78 614.05 355.71
  C 612.73 355.62 612.25 356.43 611.03 356.45
  Q 608.27 356.48 605.35 356.43
  Q 604.96 356.42 604.73 356.12
  Q 604.44 355.72 603.94 355.76
  Z"
/>
<path fill="#d57f1b" d="
  M 844.24 356.51
  C 843.35 356.44 842.54 356.55 841.67 356.27
  Q 826.93 351.49 821.15 337.02
  Q 820.39 335.11 820.39 333.04
  Q 820.38 332.64 820.18 332.29
  Q 820.10 332.16 820.01 332.04
  A 1.07 1.06 -65.7 0 1 819.75 331.34
  Q 819.72 326.78 819.73 322.10
  C 819.74 321.66 819.90 321.46 820.12 321.12
  Q 820.22 320.98 820.24 320.81
  C 821.01 316.03 823.01 312.24 825.78 308.37
  Q 827.68 305.71 830.15 303.69
  Q 833.84 300.66 837.07 299.34
  Q 839.46 298.36 842.13 297.51
  C 846.12 296.24 850.96 296.85 855.10 296.82
  A 1.84 1.81 -28.2 0 1 856.09 297.11
  C 856.95 297.67 857.77 297.38 858.68 297.68
  Q 873.93 302.73 878.99 317.85
  Q 879.31 318.81 879.27 319.74
  Q 879.24 320.50 879.69 321.09
  Q 880.01 321.50 880.01 322.03
  L 880.01 331.76
  A 2.06 2.04 -32.8 0 1 879.82 332.62
  Q 879.44 333.46 879.24 334.40
  Q 877.84 340.88 874.21 345.13
  Q 873.45 346.02 872.77 346.99
  Q 872.02 348.07 871.04 348.93
  Q 865.21 354.05 857.73 356.36
  Q 857.21 356.52 856.66 356.43
  Q 855.73 356.27 854.99 356.82
  A 1.63 1.61 26.4 0 1 854.02 357.14
  Q 849.71 357.14 845.60 357.10
  Q 845.27 357.10 844.96 356.96
  Q 844.78 356.88 844.66 356.73
  A 0.64 0.60 70.8 0 0 844.24 356.51
  Z"
/>
<path fill="#238af1" d="
  M 750.55 312.14
  Q 747.68 316.90 742.35 319.69
  L 750.55 312.14
  Z"
/>
<path fill="#238af1" d="
  M 727.45 350.79
  Q 727.38 351.11 727.36 351.45
  Q 727.35 351.76 727.50 352.04
  Q 730.45 357.31 730.65 363.61
  Q 731.17 379.72 731.07 393.64
  Q 731.01 402.90 730.24 410.50
  Q 729.26 420.27 734.74 424.00
  Q 732.02 424.32 728.57 423.81
  Q 726.70 423.52 724.93 423.83
  Q 722.89 424.18 721.25 424.28
  Q 713.23 423.55 706.79 430.02
  Q 701.73 435.11 700.44 441.85
  Q 691.95 459.37 702.74 474.24
  Q 708.98 482.85 719.35 487.09
  Q 720.12 487.76 722.13 488.35
  Q 723.66 488.81 727.78 491.23
  Q 729.61 492.30 729.52 495.00
  Q 728.99 510.94 728.58 549.50
  Q 728.57 550.52 728.28 551.73
  Q 660.18 524.56 591.99 497.68
  Q 581.84 493.68 578.38 492.61
  Q 574.49 491.42 573.61 493.79
  Q 527.70 475.52 481.44 457.27
  Q 478.16 455.97 475.90 456.20
  Q 473.24 456.46 470.27 457.72
  Q 473.47 456.22 476.71 454.97
  Q 482.13 452.87 483.23 452.42
  Q 604.49 401.69 725.78 351.04
  Q 726.57 350.71 727.45 350.79
  Z"
/>
<path fill="#146bdb" d="
  M 727.45 350.79
  Q 729.72 350.71 731.98 350.75
  Q 734.17 350.78 736.34 351.68
  Q 850.25 398.81 963.74 446.95
  Q 963.53 447.27 963.76 447.39
  Q 970.00 450.72 976.84 452.70
  L 983.22 455.26
  Q 983.04 455.52 983.22 455.64
  Q 981.64 455.23 980.77 455.58
  Q 911.34 483.60 841.77 511.58
  A 2.07 2.07 0.0 0 1 839.10 510.48
  Q 832.44 495.19 817.13 486.02
  Q 809.42 481.40 804.24 479.43
  Q 786.78 472.79 769.15 464.80
  C 766.96 463.81 765.52 462.12 765.60 459.68
  C 765.94 448.94 760.68 441.91 753.93 434.32
  Q 750.82 430.82 746.39 429.07
  Q 741.91 425.10 734.74 424.00
  Q 729.26 420.27 730.24 410.50
  Q 731.01 402.90 731.07 393.64
  Q 731.17 379.72 730.65 363.61
  Q 730.45 357.31 727.50 352.04
  Q 727.35 351.76 727.36 351.45
  Q 727.38 351.11 727.45 350.79
  Z"
/>
<path fill="#238af1" d="
  M 531.02 371.58
  Q 529.51 371.82 528.53 371.41
  Q 529.38 370.74 531.02 371.58
  Z"
/>
<path fill="#238af1" d="
  M 930.97 371.54
  Q 928.96 372.15 927.71 371.65
  Q 928.86 370.35 930.97 371.54
  Z"
/>
<path fill="#192b40" d="
  M 528.53 371.41
  Q 529.51 371.82 531.02 371.58
  Q 536.74 372.13 539.61 377.72
  Q 542.19 386.85 536.05 391.98
  Q 532.32 394.45 530.25 394.12
  Q 528.20 393.79 526.59 394.06
  Q 520.30 392.35 518.71 387.33
  Q 519.00 386.39 518.07 385.29
  L 518.10 380.72
  Q 520.43 374.23 526.46 371.83
  L 528.53 371.41
  Z"
/>
<path fill="#192b40" d="
  M 927.71 371.65
  Q 928.96 372.15 930.97 371.54
  Q 931.55 371.82 932.21 371.79
  Q 932.12 371.96 932.21 372.09
  Q 932.27 372.18 932.44 372.23
  Q 938.52 373.87 940.15 379.90
  Q 941.94 390.76 932.26 393.76
  Q 930.93 394.17 929.14 394.01
  Q 927.59 393.87 925.98 393.78
  Q 920.88 392.36 918.80 387.54
  Q 918.15 386.03 918.18 383.86
  Q 918.21 381.79 918.28 380.08
  Q 921.25 373.84 926.38 372.34
  A 0.30 0.29 -88.1 0 0 926.59 372.14
  Q 926.66 371.91 926.54 371.82
  L 927.71 371.65
  Z"
/>
<path fill="#2f4863" d="
  M 526.46 371.83
  Q 520.43 374.23 518.10 380.72
  Q 519.04 373.37 526.46 371.83
  Z"
/>
<path fill="#2f4863" d="
  M 926.54 371.82
  Q 926.66 371.91 926.59 372.14
  A 0.30 0.29 -88.1 0 1 926.38 372.34
  Q 921.25 373.84 918.28 380.08
  Q 919.70 373.52 926.20 371.73
  Q 926.25 371.72 926.30 371.74
  Q 926.42 371.78 926.54 371.82
  Z"
/>
<path fill="#2f4863" d="
  M 932.21 371.79
  Q 933.39 371.55 933.87 371.87
  Q 935.64 373.04 937.43 374.13
  Q 937.84 374.37 938.08 374.79
  Q 938.93 376.30 939.90 377.66
  C 940.38 378.34 940.35 378.95 940.38 379.75
  Q 940.27 379.83 940.15 379.90
  Q 938.52 373.87 932.44 372.23
  Q 932.27 372.18 932.21 372.09
  Q 932.12 371.96 932.21 371.79
  Z"
/>
<path fill="#238af1" d="
  M 539.61 377.72
  Q 542.28 382.88 539.60 388.12
  C 539.11 389.07 538.35 389.57 538.04 390.60
  Q 537.89 391.12 537.40 391.35
  L 536.05 391.98
  Q 542.19 386.85 539.61 377.72
  Z"
/>
<path fill="#238af1" d="
  M 940.15 379.90
  Q 940.27 379.83 940.38 379.75
  Q 940.62 379.90 940.77 380.05
  Q 940.91 380.19 940.94 380.48
  Q 941.89 389.87 933.72 393.68
  Q 933.23 393.91 932.69 393.88
  C 931.62 393.82 931.16 394.51 930.07 394.55
  Q 928.03 394.62 925.98 393.78
  Q 927.59 393.87 929.14 394.01
  Q 930.93 394.17 932.26 393.76
  Q 941.94 390.76 940.15 379.90
  Z"
/>
<path fill="#238af1" d="
  M 518.07 385.29
  Q 519.00 386.39 518.71 387.33
  Q 517.82 386.61 518.07 385.29
  Z"
/>
<path fill="#238af1" d="
  M 536.05 391.98
  Q 535.68 392.57 535.32 392.76
  Q 530.69 395.30 526.59 394.06
  Q 528.20 393.79 530.25 394.12
  Q 532.32 394.45 536.05 391.98
  Z"
/>
<path fill="#146bdb" d="
  M 721.25 424.28
  Q 712.52 427.59 707.00 433.00
  Q 703.32 436.60 701.47 442.17
  L 700.44 441.85
  Q 701.73 435.11 706.79 430.02
  Q 713.23 423.55 721.25 424.28
  Z"
/>
<path fill="#fcd060" d="
  M 734.74 424.00
  Q 741.91 425.10 746.39 429.07
  Q 747.66 431.12 748.95 432.76
  Q 756.65 442.56 755.01 454.60
  A 0.97 0.97 0.0 0 1 753.57 455.31
  Q 745.84 450.98 737.77 448.45
  Q 733.52 447.11 729.19 448.44
  Q 728.68 448.60 728.54 449.12
  Q 728.36 449.82 728.66 450.46
  Q 728.92 451.02 729.96 451.33
  Q 732.43 452.07 734.78 453.05
  Q 736.15 454.08 738.23 454.41
  L 740.30 455.29
  Q 741.68 456.36 743.19 456.50
  Q 747.05 458.05 750.79 459.85
  Q 755.57 462.15 758.35 463.29
  Q 798.96 479.89 810.00 485.00
  Q 824.05 491.50 832.85 505.72
  Q 833.37 508.68 833.21 511.50
  Q 832.50 524.21 831.88 537.11
  C 831.72 540.48 832.16 543.41 832.50 546.68
  Q 832.82 549.76 832.68 553.53
  Q 831.84 575.19 831.11 597.10
  C 830.99 600.63 829.85 604.01 830.17 607.54
  Q 831.35 620.52 832.36 633.53
  C 832.46 634.84 832.92 635.94 834.04 636.70
  C 835.57 637.74 839.80 639.96 841.82 639.19
  Q 842.06 639.99 842.97 640.25
  L 846.04 648.56
  A 1.17 1.17 0.0 0 1 844.79 650.12
  L 844.05 650.02
  L 841.51 648.42
  Q 831.59 643.97 822.80 650.81
  Q 812.60 654.32 812.07 664.48
  Q 811.71 671.38 812.27 696.24
  Q 812.40 702.30 816.11 708.17
  Q 784.36 761.66 763.31 798.02
  Q 748.59 823.42 736.69 841.20
  Q 732.29 847.77 731.08 851.46
  Q 729.55 856.09 729.47 863.26
  C 729.31 878.37 729.63 893.49 729.13 908.58
  Q 728.66 922.62 728.77 927.25
  Q 728.89 932.44 731.31 937.35
  Q 730.47 938.83 729.36 938.48
  L 687.28 865.88
  Q 687.20 865.16 686.88 864.62
  Q 614.94 741.57 543.08 618.46
  Q 542.60 617.64 542.70 616.91
  L 544.54 617.11
  L 589.09 617.09
  A 2.03 2.01 76.1 0 1 590.88 618.18
  C 598.59 633.01 605.99 648.15 615.17 662.53
  Q 626.73 680.60 637.56 700.30
  C 645.73 715.14 654.41 729.39 662.65 744.09
  Q 673.74 763.88 685.62 782.86
  Q 707.21 817.37 726.78 846.26
  Q 727.66 847.56 728.56 848.20
  A 1.22 1.22 0.0 0 0 730.49 847.20
  L 730.21 793.00
  Q 767.93 722.41 804.83 652.00
  Q 808.51 644.97 815.29 634.66
  C 816.43 632.92 817.24 630.97 818.35 629.25
  Q 819.74 627.09 819.87 629.65
  Q 820.05 633.04 819.87 636.69
  Q 819.79 638.28 821.38 638.41
  L 822.90 638.53
  Q 824.30 638.64 824.31 637.23
  Q 824.73 577.89 824.71 522.61
  Q 824.71 517.01 823.37 513.44
  C 818.80 501.24 806.27 495.98 795.15 490.98
  Q 762.37 476.27 730.34 463.59
  C 727.29 462.38 724.41 460.68 721.62 458.92
  C 720.12 457.98 718.95 459.27 719.18 460.87
  Q 719.31 461.77 720.22 461.75
  C 722.70 461.72 723.90 462.86 724.83 464.91
  Q 725.27 465.88 726.02 466.54
  Q 727.76 467.82 730.80 467.34
  L 731.78 467.28
  Q 732.57 467.23 732.62 468.02
  L 732.70 469.43
  A 0.81 0.80 82.6 0 1 732.06 470.27
  L 728.44 471.04
  L 721.32 471.05
  C 711.12 469.53 703.10 462.80 701.61 452.31
  Q 701.21 449.48 701.47 442.17
  Q 703.32 436.60 707.00 433.00
  Q 712.52 427.59 721.25 424.28
  Q 722.89 424.18 724.93 423.83
  Q 726.70 423.52 728.57 423.81
  Q 732.02 424.32 734.74 424.00
  Z
  M 722.70 428.58
  C 714.23 430.79 702.36 440.08 705.28 450.55
  C 706.20 453.82 710.48 454.15 712.40 451.67
  Q 717.76 444.73 724.48 438.88
  C 726.94 436.73 727.69 433.86 726.61 430.69
  C 726.03 429.00 724.45 428.12 722.70 428.58
  Z"
/>
<path fill="#e8ede6" d="
  M 705.28 450.55
  C 702.36 440.08 714.23 430.79 722.70 428.58
  C 724.45 428.12 726.03 429.00 726.61 430.69
  C 727.69 433.86 726.94 436.73 724.48 438.88
  Q 717.76 444.73 712.40 451.67
  C 710.48 454.15 706.20 453.82 705.28 450.55
  Z"
/>
<path fill="#192b40" d="
  M 983.22 455.64
  L 1002.25 463.27
  L 1010.19 466.52
  Q 1010.66 466.71 1010.88 467.18
  Q 1012.18 469.86 1011.57 472.68
  Q 1011.39 473.53 1011.14 473.13
  Q 1009.95 475.21 1008.05 475.99
  L 990.42 483.00
  Q 966.50 492.21 942.76 501.91
  Q 938.56 503.62 931.92 506.18
  Q 924.70 508.95 921.12 510.63
  Q 920.23 511.05 920.27 512.99
  L 920.24 578.40
  Q 919.10 579.31 920.92 580.29
  Q 921.64 580.67 922.66 580.68
  Q 982.04 581.05 1041.42 580.37
  Q 1041.79 580.36 1042.09 580.14
  Q 1042.30 579.98 1042.51 579.95
  Q 1055.13 582.39 1053.47 595.87
  Q 1038.28 623.07 1022.83 650.52
  Q 1019.93 655.66 1017.77 657.77
  C 1013.35 662.06 1007.98 663.98 1001.63 663.92
  Q 996.51 663.88 991.65 664.08
  Q 988.93 664.20 986.51 665.70
  Q 983.08 667.83 981.43 670.42
  C 974.05 682.02 967.17 694.51 960.11 706.55
  Q 921.88 771.82 883.49 836.99
  Q 820.81 943.37 755.71 1053.34
  Q 754.08 1056.09 748.70 1065.77
  Q 744.33 1073.62 741.09 1077.84
  Q 740.25 1078.94 736.86 1082.37
  Q 730.33 1085.48 720.79 1082.97
  Q 722.62 1083.13 721.01 1082.14
  Q 720.58 1081.88 720.34 1081.44
  Q 718.12 1077.53 715.75 1073.72
  Q 714.47 1071.68 711.30 1065.89
  Q 708.90 1061.53 705.80 1057.53
  Q 705.68 1058.00 705.37 1057.04
  Q 698.97 1044.46 694.15 1036.86
  Q 691.85 1033.23 690.01 1029.94
  Q 688.02 1026.41 685.96 1022.97
  Q 675.49 1005.41 664.93 987.30
  Q 656.99 973.70 647.63 958.03
  Q 642.51 949.45 637.50 940.78
  Q 618.45 907.83 598.54 875.38
  L 588.75 858.72
  Q 574.99 833.75 559.93 809.55
  Q 558.58 808.60 557.96 806.50
  Q 550.07 791.22 547.52 787.28
  Q 543.91 781.71 542.29 778.67
  C 541.36 776.94 540.23 775.51 539.21 773.73
  Q 528.15 754.67 514.75 732.13
  Q 514.71 732.05 504.87 715.28
  Q 497.50 702.71 489.65 690.43
  Q 489.59 690.30 489.54 690.17
  Q 482.08 676.91 479.40 672.36
  Q 478.88 671.46 477.80 670.51
  Q 477.72 669.81 477.38 669.37
  Q 474.42 665.42 470.09 664.62
  L 456.76 664.44
  Q 454.48 663.85 451.79 664.17
  C 444.91 663.10 440.33 658.22 437.21 652.38
  Q 428.15 635.38 418.61 618.86
  Q 418.27 615.78 415.60 613.57
  Q 411.03 607.31 408.36 600.71
  Q 407.98 597.29 407.38 594.50
  Q 406.68 591.29 408.74 585.32
  Q 411.61 581.63 415.12 580.56
  Q 425.71 580.89 436.12 580.90
  Q 486.97 580.95 537.82 580.73
  Q 538.56 580.72 539.07 580.37
  Q 540.38 579.44 539.31 578.85
  L 539.30 512.83
  Q 539.14 510.83 538.11 510.39
  Q 535.23 509.17 525.45 505.31
  Q 519.90 503.12 514.21 501.29
  Q 513.29 501.17 512.84 500.69
  L 473.76 485.27
  Q 464.06 481.72 454.52 477.69
  Q 451.73 476.52 450.12 475.17
  Q 448.01 473.41 447.52 470.81
  Q 447.15 468.84 448.39 466.44
  A 1.45 1.44 2.5 0 1 449.10 465.79
  L 456.70 462.66
  Q 459.46 462.70 461.45 460.99
  L 470.27 457.72
  Q 473.24 456.46 475.90 456.20
  Q 478.16 455.97 481.44 457.27
  Q 527.70 475.52 573.61 493.79
  L 607.29 507.68
  L 610.96 512.62
  A 0.63 0.63 0.0 0 1 610.56 513.62
  L 603.47 514.89
  A 2.04 2.02 3.6 0 0 601.90 516.26
  L 599.30 524.19
  A 3.58 3.57 20.0 0 0 601.37 528.62
  C 613.98 533.71 627.15 538.58 639.40 544.12
  Q 672.09 558.89 704.21 572.17
  C 712.17 575.45 719.38 579.40 727.00 583.06
  A 1.62 1.62 0.0 0 0 729.32 581.59
  L 729.17 556.89
  Q 729.94 556.27 729.87 555.82
  Q 772.45 538.53 815.01 521.30
  C 817.27 520.39 818.79 518.63 817.20 516.33
  Q 811.94 508.75 803.17 503.50
  Q 782.24 490.95 759.43 481.24
  Q 756.35 479.92 752.64 480.55
  Q 750.06 480.98 746.31 482.89
  Q 733.57 489.37 719.35 487.09
  Q 708.98 482.85 702.74 474.24
  Q 691.95 459.37 700.44 441.85
  L 701.47 442.17
  Q 701.21 449.48 701.61 452.31
  C 703.10 462.80 711.12 469.53 721.32 471.05
  Q 724.77 472.20 728.44 471.04
  L 732.06 470.27
  A 0.81 0.80 82.6 0 0 732.70 469.43
  L 732.62 468.02
  Q 732.57 467.23 731.78 467.28
  L 730.80 467.34
  L 726.02 466.54
  Q 725.27 465.88 724.83 464.91
  C 723.90 462.86 722.70 461.72 720.22 461.75
  Q 719.31 461.77 719.18 460.87
  C 718.95 459.27 720.12 457.98 721.62 458.92
  C 724.41 460.68 727.29 462.38 730.34 463.59
  Q 762.37 476.27 795.15 490.98
  C 806.27 495.98 818.80 501.24 823.37 513.44
  Q 824.71 517.01 824.71 522.61
  Q 824.73 577.89 824.31 637.23
  Q 824.30 638.64 822.90 638.53
  L 821.38 638.41
  Q 819.79 638.28 819.87 636.69
  Q 820.05 633.04 819.87 629.65
  Q 819.74 627.09 818.35 629.25
  C 817.24 630.97 816.43 632.92 815.29 634.66
  Q 808.51 644.97 804.83 652.00
  Q 767.93 722.41 730.21 793.00
  Q 713.48 764.91 704.34 746.93
  Q 671.76 682.90 638.05 619.46
  C 637.24 617.93 636.21 617.04 634.51 617.06
  Q 613.32 617.24 591.58 616.74
  C 590.38 616.71 589.15 617.08 588.07 617.08
  Q 566.30 617.10 544.54 617.11
  L 542.70 616.91
  Q 519.36 616.56 496.00 616.90
  Q 494.66 616.92 495.07 618.54
  A 1.98 1.91 23.5 0 0 495.29 619.07
  L 604.54 804.29
  Q 657.66 895.46 712.43 985.62
  Q 716.41 992.17 719.51 998.19
  Q 722.86 1004.71 726.00 1011.09
  C 727.25 1014.66 730.33 1015.69 732.42 1012.19
  Q 848.98 815.98 965.46 619.92
  A 2.13 2.13 0.0 0 0 963.61 616.71
  L 918.31 617.26
  Q 885.26 617.16 852.87 617.29
  C 850.10 617.30 845.93 616.75 845.91 620.89
  Q 845.88 630.00 845.45 639.02
  Q 845.42 639.54 844.96 639.79
  Q 844.10 640.27 842.97 640.25
  Q 842.06 639.99 841.82 639.19
  Q 840.09 637.05 840.06 635.00
  Q 839.52 604.07 839.93 560.23
  C 847.87 557.97 855.21 556.29 863.54 553.12
  Q 869.28 550.94 875.51 547.84
  Q 890.06 540.62 904.52 534.55
  C 910.26 532.15 911.71 526.33 911.97 520.66
  A 2.10 2.10 0.0 0 0 910.36 518.53
  C 909.60 518.36 908.25 518.49 907.52 518.79
  Q 893.64 524.54 879.12 529.06
  Q 870.03 531.89 861.16 535.71
  Q 850.46 540.32 839.60 545.46
  Q 839.91 532.13 839.31 520.49
  Q 839.14 517.09 837.80 513.99
  Q 835.88 509.52 832.85 505.72
  Q 824.05 491.50 810.00 485.00
  Q 798.96 479.89 758.35 463.29
  Q 755.57 462.15 750.79 459.85
  Q 747.05 458.05 743.19 456.50
  Q 741.97 455.55 740.30 455.29
  L 738.23 454.41
  Q 736.54 453.19 734.78 453.05
  Q 732.43 452.07 729.96 451.33
  Q 728.92 451.02 728.66 450.46
  Q 728.36 449.82 728.54 449.12
  Q 728.68 448.60 729.19 448.44
  Q 733.52 447.11 737.77 448.45
  Q 745.84 450.98 753.57 455.31
  A 0.97 0.97 0.0 0 0 755.01 454.60
  Q 756.65 442.56 748.95 432.76
  Q 747.66 431.12 746.39 429.07
  Q 750.82 430.82 753.93 434.32
  C 760.68 441.91 765.94 448.94 765.60 459.68
  C 765.52 462.12 766.96 463.81 769.15 464.80
  Q 786.78 472.79 804.24 479.43
  Q 809.42 481.40 817.13 486.02
  Q 832.44 495.19 839.10 510.48
  A 2.07 2.07 0.0 0 0 841.77 511.58
  Q 911.34 483.60 980.77 455.58
  Q 981.64 455.23 983.22 455.64
  Z
  M 727.27 607.99
  Q 728.40 608.25 729.49 607.99
  C 741.15 605.18 751.26 600.39 761.35 594.20
  C 763.02 593.18 765.00 594.11 766.94 592.89
  Q 772.10 589.66 776.90 588.01
  C 789.71 583.61 801.19 577.31 813.41 571.42
  C 819.73 568.37 823.81 563.94 819.39 556.74
  A 1.72 1.72 0.0 0 0 817.33 556.03
  Q 808.49 559.28 800.26 563.80
  C 797.83 565.14 795.25 564.29 792.66 565.40
  Q 783.74 569.20 775.17 572.65
  C 771.58 574.09 767.75 574.88 764.20 576.25
  Q 750.66 581.51 736.84 588.35
  Q 732.15 590.67 722.62 592.00
  Q 636.92 556.48 551.25 521.23
  Q 550.54 520.93 550.21 520.98
  A 0.94 0.92 -1.2 0 0 549.40 521.81
  Q 548.97 526.14 548.98 531.04
  C 548.99 533.02 549.81 534.30 551.65 535.08
  Q 638.31 571.75 725.15 608.48
  C 725.93 608.81 726.64 608.47 727.27 607.99
  Z"
/>
<path fill="#238af1" d="
  M 963.74 446.95
  L 976.84 452.70
  Q 970.00 450.72 963.76 447.39
  Q 963.53 447.27 963.74 446.95
  Z"
/>
<path fill="#238af1" d="
  M 734.78 453.05
  Q 736.54 453.19 738.23 454.41
  Q 736.15 454.08 734.78 453.05
  Z"
/>
<path fill="#238af1" d="
  M 740.30 455.29
  Q 741.97 455.55 743.19 456.50
  Q 741.68 456.36 740.30 455.29
  Z"
/>
<path fill="#238af1" d="
  M 983.22 455.26
  L 1002.25 463.27
  L 983.22 455.64
  Q 983.04 455.52 983.22 455.26
  Z"
/>
<path fill="#2f4863" d="
  M 461.45 460.99
  Q 459.46 462.70 456.70 462.66
  L 461.45 460.99
  Z"
/>
<path fill="#238af1" d="
  M 726.02 466.54
  L 730.80 467.34
  Q 727.76 467.82 726.02 466.54
  Z"
/>
<path fill="#238af1" d="
  M 721.32 471.05
  L 728.44 471.04
  Q 724.77 472.20 721.32 471.05
  Z"
/>
<path fill="#238af1" d="
  M 1011.14 473.13
  Q 1011.20 475.41 1008.05 475.99
  Q 1009.95 475.21 1011.14 473.13
  Z"
/>
<path fill="#146bdb" d="
  M 729.87 555.82
  Q 729.61 553.18 728.28 551.73
  Q 728.57 550.52 728.58 549.50
  Q 728.99 510.94 729.52 495.00
  Q 729.61 492.30 727.78 491.23
  Q 723.66 488.81 722.13 488.35
  Q 720.12 487.76 719.35 487.09
  Q 733.57 489.37 746.31 482.89
  Q 750.06 480.98 752.64 480.55
  Q 756.35 479.92 759.43 481.24
  Q 782.24 490.95 803.17 503.50
  Q 811.94 508.75 817.20 516.33
  C 818.79 518.63 817.27 520.39 815.01 521.30
  Q 772.45 538.53 729.87 555.82
  Z"
/>
<path fill="#238af1" d="
  M 990.42 483.00
  Q 957.96 496.34 925.37 509.36
  Q 924.16 509.84 922.11 510.90
  C 921.15 511.40 920.88 512.15 920.27 512.99
  Q 920.23 511.05 921.12 510.63
  Q 924.70 508.95 931.92 506.18
  Q 938.56 503.62 942.76 501.91
  Q 966.50 492.21 990.42 483.00
  Z"
/>
<path fill="#238af1" d="
  M 473.76 485.27
  L 512.84 500.69
  L 473.76 485.27
  Z"
/>
<path fill="#e8ede6" d="
  M 728.28 551.73
  Q 729.61 553.18 729.87 555.82
  Q 729.94 556.27 729.17 556.89
  L 607.29 507.68
  L 573.61 493.79
  Q 574.49 491.42 578.38 492.61
  Q 581.84 493.68 591.99 497.68
  Q 660.18 524.56 728.28 551.73
  Z"
/>
<path fill="#238af1" d="
  M 514.21 501.29
  Q 519.90 503.12 525.45 505.31
  Q 535.23 509.17 538.11 510.39
  Q 539.14 510.83 539.30 512.83
  Q 537.29 510.42 535.13 509.61
  Q 524.64 505.62 514.21 501.29
  Z"
/>
<path fill="#d57f1b" d="
  M 832.85 505.72
  Q 835.88 509.52 837.80 513.99
  Q 839.14 517.09 839.31 520.49
  Q 839.91 532.13 839.60 545.46
  L 839.93 560.23
  Q 839.52 604.07 840.06 635.00
  Q 840.09 637.05 841.82 639.19
  C 839.80 639.96 835.57 637.74 834.04 636.70
  C 832.92 635.94 832.46 634.84 832.36 633.53
  Q 831.35 620.52 830.17 607.54
  C 829.85 604.01 830.99 600.63 831.11 597.10
  Q 831.84 575.19 832.68 553.53
  Q 832.82 549.76 832.50 546.68
  C 832.16 543.41 831.72 540.48 831.88 537.11
  Q 832.50 524.21 833.21 511.50
  Q 833.37 508.68 832.85 505.72
  Z"
/>
<path fill="#2f4863" d="
  M 607.29 507.68
  L 729.17 556.89
  L 729.32 581.59
  A 1.62 1.62 0.0 0 1 727.00 583.06
  C 719.38 579.40 712.17 575.45 704.21 572.17
  Q 672.09 558.89 639.40 544.12
  C 627.15 538.58 613.98 533.71 601.37 528.62
  A 3.58 3.57 20.0 0 1 599.30 524.19
  L 601.90 516.26
  A 2.04 2.02 3.6 0 1 603.47 514.89
  L 610.56 513.62
  A 0.63 0.63 0.0 0 0 610.96 512.62
  L 607.29 507.68
  Z"
/>
<path fill="#2f4863" d="
  M 839.93 560.23
  L 839.60 545.46
  Q 850.46 540.32 861.16 535.71
  Q 870.03 531.89 879.12 529.06
  Q 893.64 524.54 907.52 518.79
  C 908.25 518.49 909.60 518.36 910.36 518.53
  A 2.10 2.10 0.0 0 1 911.97 520.66
  C 911.71 526.33 910.26 532.15 904.52 534.55
  Q 890.06 540.62 875.51 547.84
  Q 869.28 550.94 863.54 553.12
  C 855.21 556.29 847.87 557.97 839.93 560.23
  Z"
/>
<path fill="#238af1" d="
  M 722.62 592.00
  Q 729.13 594.15 729.91 601.75
  Q 730.35 606.10 727.27 607.99
  C 726.64 608.47 725.93 608.81 725.15 608.48
  Q 638.31 571.75 551.65 535.08
  C 549.81 534.30 548.99 533.02 548.98 531.04
  Q 548.97 526.14 549.40 521.81
  A 0.94 0.92 -1.2 0 1 550.21 520.98
  Q 550.54 520.93 551.25 521.23
  Q 636.92 556.48 722.62 592.00
  Z"
/>
<rect fill="#d57f1b" x="-8.58" y="-8.60" transform="translate(438.48,531.59) rotate(2.4)" width="17.16" height="17.20" rx="7.79"/>
<path fill="#e69d27" d="
  M 462.36 529.53
  Q 462.55 529.16 462.52 528.75
  A 1.17 1.15 -26.7 0 1 462.80 527.92
  Q 465.21 525.05 467.31 524.00
  Q 471.37 521.98 475.99 523.76
  A 1.69 1.69 0.0 0 1 476.68 524.26
  Q 477.19 524.87 477.98 525.08
  Q 478.48 525.21 478.78 525.63
  Q 480.90 528.60 480.59 532.31
  Q 480.31 535.77 477.73 537.93
  Q 474.56 540.60 469.76 540.34
  Q 467.22 540.20 465.24 538.61
  Q 462.95 536.76 462.09 533.76
  Q 461.40 531.39 462.36 529.53
  Z"
/>
<path fill="#e69d27" d="
  M 984.88 523.39
  Q 987.60 522.47 990.13 523.24
  C 991.66 523.71 993.01 523.36 994.34 524.18
  Q 996.39 525.45 996.96 528.12
  Q 998.13 533.60 995.61 537.80
  Q 994.75 539.25 992.60 539.52
  Q 991.99 539.60 991.49 539.95
  Q 990.49 540.67 989.58 539.84
  Q 989.22 539.51 988.72 539.51
  L 984.18 539.51
  Q 983.57 539.51 983.17 539.06
  C 982.22 537.99 980.91 537.10 980.50 535.66
  Q 979.00 530.35 980.99 526.60
  Q 982.20 524.30 984.88 523.39
  Z"
/>
<circle fill="#d57f1b" cx="1020.36" cy="531.59" r="8.92"/>
<path fill="#2f4863" d="
  M 727.27 607.99
  Q 730.35 606.10 729.91 601.75
  Q 729.13 594.15 722.62 592.00
  Q 732.15 590.67 736.84 588.35
  Q 750.66 581.51 764.20 576.25
  C 767.75 574.88 771.58 574.09 775.17 572.65
  Q 783.74 569.20 792.66 565.40
  C 795.25 564.29 797.83 565.14 800.26 563.80
  Q 808.49 559.28 817.33 556.03
  A 1.72 1.72 0.0 0 1 819.39 556.74
  C 823.81 563.94 819.73 568.37 813.41 571.42
  C 801.19 577.31 789.71 583.61 776.90 588.01
  Q 772.10 589.66 766.94 592.89
  C 765.00 594.11 763.02 593.18 761.35 594.20
  C 751.26 600.39 741.15 605.18 729.49 607.99
  Q 728.40 608.25 727.27 607.99
  Z"
/>
<path fill="#2f4863" d="
  M 920.24 578.40
  C 920.39 579.08 921.03 579.55 921.76 579.55
  Q 981.00 579.57 1040.25 579.56
  Q 1041.05 579.56 1042.51 579.95
  Q 1042.30 579.98 1042.09 580.14
  Q 1041.79 580.36 1041.42 580.37
  Q 982.04 581.05 922.66 580.68
  Q 921.64 580.67 920.92 580.29
  Q 919.10 579.31 920.24 578.40
  Z"
/>
<path fill="#2f4863" d="
  M 539.31 578.85
  Q 540.38 579.44 539.07 580.37
  Q 538.56 580.72 537.82 580.73
  Q 486.97 580.95 436.12 580.90
  Q 425.71 580.89 415.12 580.56
  Q 416.64 579.63 418.51 579.63
  Q 478.13 579.55 537.75 579.54
  Q 538.58 579.54 539.31 578.85
  Z"
/>
<path fill="#238af1" d="
  M 408.74 585.32
  Q 406.68 591.29 407.38 594.50
  Q 407.98 597.29 408.36 600.71
  Q 405.54 591.68 408.74 585.32
  Z"
/>
<path fill="#238af1" d="
  M 1053.47 595.87
  Q 1052.10 599.44 1051.14 601.13
  Q 1029.64 638.98 1022.16 652.50
  C 1015.66 664.25 1005.34 665.06 993.26 664.41
  Q 990.05 664.23 987.85 665.49
  Q 983.09 668.22 981.07 671.67
  Q 870.29 860.81 757.07 1051.83
  Q 752.72 1059.17 748.19 1067.44
  Q 746.25 1070.99 741.51 1077.78
  Q 739.67 1080.40 736.86 1082.37
  Q 740.25 1078.94 741.09 1077.84
  Q 744.33 1073.62 748.70 1065.77
  Q 754.08 1056.09 755.71 1053.34
  Q 820.81 943.37 883.49 836.99
  Q 921.88 771.82 960.11 706.55
  C 967.17 694.51 974.05 682.02 981.43 670.42
  Q 983.08 667.83 986.51 665.70
  Q 988.93 664.20 991.65 664.08
  Q 996.51 663.88 1001.63 663.92
  C 1007.98 663.98 1013.35 662.06 1017.77 657.77
  Q 1019.93 655.66 1022.83 650.52
  Q 1038.28 623.07 1053.47 595.87
  Z"
/>
<path fill="#2f4863" d="
  M 418.61 618.86
  L 415.60 613.57
  Q 418.27 615.78 418.61 618.86
  Z"
/>
<path fill="#238af1" d="
  M 542.70 616.91
  Q 542.60 617.64 543.08 618.46
  Q 614.94 741.57 686.88 864.62
  Q 687.20 865.16 687.28 865.88
  Q 687.10 865.89 686.94 865.87
  Q 686.78 865.86 686.65 865.76
  C 683.35 863.25 679.81 860.67 678.17 856.75
  Q 676.13 851.89 674.02 847.64
  Q 672.20 843.99 665.79 837.87
  Q 665.43 837.53 665.42 837.02
  C 665.41 835.52 665.21 834.26 664.16 833.11
  Q 660.22 828.83 658.43 823.15
  C 657.86 821.34 656.56 820.20 655.33 818.84
  Q 654.97 818.44 654.84 817.91
  Q 654.24 815.51 652.36 814.17
  A 1.38 1.33 13.1 0 1 651.81 813.32
  Q 651.16 810.09 649.06 806.95
  Q 648.72 806.45 648.50 807.01
  Q 647.41 809.77 649.37 812.04
  A 2.07 2.07 0.0 0 1 649.68 814.26
  L 646.28 821.58
  A 2.03 2.03 0.0 0 1 642.60 821.59
  L 642.21 820.75
  A 0.70 0.70 0.0 0 0 641.05 820.59
  Q 640.55 821.15 640.43 821.90
  Q 640.32 822.64 639.57 822.63
  Q 632.94 822.54 626.24 822.80
  C 621.10 822.99 618.59 820.53 615.84 816.65
  C 614.81 815.19 613.07 814.34 612.37 812.71
  A 1.83 1.80 2.1 0 0 611.51 811.80
  C 609.24 810.64 609.82 807.97 608.63 806.41
  Q 606.89 804.14 604.54 804.29
  L 495.29 619.07
  A 1.98 1.91 23.5 0 1 495.07 618.54
  Q 494.66 616.92 496.00 616.90
  Q 519.36 616.56 542.70 616.91
  Z"
/>
<path fill="#e69d27" d="
  M 730.21 793.00
  L 730.49 847.20
  A 1.22 1.22 0.0 0 1 728.56 848.20
  Q 727.66 847.56 726.78 846.26
  Q 707.21 817.37 685.62 782.86
  Q 673.74 763.88 662.65 744.09
  C 654.41 729.39 645.73 715.14 637.56 700.30
  Q 626.73 680.60 615.17 662.53
  C 605.99 648.15 598.59 633.01 590.88 618.18
  A 2.03 2.01 76.1 0 0 589.09 617.09
  L 544.54 617.11
  Q 566.30 617.10 588.07 617.08
  C 589.15 617.08 590.38 616.71 591.58 616.74
  Q 613.32 617.24 634.51 617.06
  C 636.21 617.04 637.24 617.93 638.05 619.46
  Q 671.76 682.90 704.34 746.93
  Q 713.48 764.91 730.21 793.00
  Z"
/>
<path fill="#1957b8" d="
  M 726.00 1011.09
  Q 731.19 1012.28 730.39 1008.12
  Q 728.98 1000.85 729.05 997.13
  Q 729.40 976.11 729.57 953.56
  Q 729.61 947.68 728.60 940.63
  Q 728.45 939.60 729.36 938.48
  Q 730.47 938.83 731.31 937.35
  L 918.31 617.26
  L 963.61 616.71
  A 2.13 2.13 0.0 0 1 965.46 619.92
  Q 848.98 815.98 732.42 1012.19
  C 730.33 1015.69 727.25 1014.66 726.00 1011.09
  Z"
/>
<path fill="#d57f1b" d="
  M 918.31 617.26
  L 731.31 937.35
  Q 728.89 932.44 728.77 927.25
  Q 728.66 922.62 729.13 908.58
  C 729.63 893.49 729.31 878.37 729.47 863.26
  Q 729.55 856.09 731.08 851.46
  Q 732.29 847.77 736.69 841.20
  Q 748.59 823.42 763.31 798.02
  Q 784.36 761.66 816.11 708.17
  Q 819.98 711.60 824.89 713.55
  C 834.35 717.31 843.80 714.38 850.44 706.88
  Q 852.57 704.48 853.01 701.31
  Q 854.67 689.13 854.10 676.44
  Q 853.85 670.77 853.87 665.82
  C 853.91 658.29 852.22 653.45 844.90 650.93
  L 844.05 650.02
  L 844.79 650.12
  A 1.17 1.17 0.0 0 0 846.04 648.56
  L 842.97 640.25
  Q 844.10 640.27 844.96 639.79
  Q 845.42 639.54 845.45 639.02
  Q 845.88 630.00 845.91 620.89
  C 845.93 616.75 850.10 617.30 852.87 617.29
  Q 885.26 617.16 918.31 617.26
  Z"
/>
<path fill="#238af1" d="
  M 841.51 648.42
  Q 840.40 651.23 839.02 653.76
  C 836.93 657.62 833.24 660.03 830.96 663.66
  Q 830.12 664.99 830.08 666.93
  Q 829.65 685.09 828.97 702.98
  Q 828.96 703.14 828.83 703.25
  Q 828.73 703.33 828.63 703.41
  Q 822.80 697.53 822.74 689.50
  Q 822.67 680.59 822.80 650.81
  Q 831.59 643.97 841.51 648.42
  Z"
/>
<path fill="#1957b8" d="
  M 841.51 648.42
  L 844.05 650.02
  L 844.90 650.93
  Q 844.46 650.79 844.06 651.13
  Q 843.71 651.42 843.70 651.89
  Q 842.94 674.84 842.14 697.09
  Q 841.95 702.33 837.85 704.36
  Q 832.73 706.89 828.63 703.41
  Q 828.73 703.33 828.83 703.25
  Q 828.96 703.14 828.97 702.98
  Q 829.65 685.09 830.08 666.93
  Q 830.12 664.99 830.96 663.66
  C 833.24 660.03 836.93 657.62 839.02 653.76
  Q 840.40 651.23 841.51 648.42
  Z"
/>
<path fill="#192b40" d="
  M 822.80 650.81
  Q 822.67 680.59 822.74 689.50
  Q 822.80 697.53 828.63 703.41
  Q 832.73 706.89 837.85 704.36
  Q 841.95 702.33 842.14 697.09
  Q 842.94 674.84 843.70 651.89
  Q 843.71 651.42 844.06 651.13
  Q 844.46 650.79 844.90 650.93
  C 852.22 653.45 853.91 658.29 853.87 665.82
  Q 853.85 670.77 854.10 676.44
  Q 854.67 689.13 853.01 701.31
  Q 852.57 704.48 850.44 706.88
  C 843.80 714.38 834.35 717.31 824.89 713.55
  Q 819.98 711.60 816.11 708.17
  Q 812.40 702.30 812.27 696.24
  Q 811.71 671.38 812.07 664.48
  Q 812.60 654.32 822.80 650.81
  Z"
/>
<path fill="#238af1" d="
  M 456.76 664.44
  L 451.79 664.17
  Q 454.48 663.85 456.76 664.44
  Z"
/>
<path fill="#238af1" d="
  M 477.80 670.51
  Q 474.59 666.27 470.09 664.62
  Q 474.42 665.42 477.38 669.37
  Q 477.72 669.81 477.80 670.51
  Z"
/>
<path fill="#238af1" d="
  M 477.80 670.51
  Q 478.88 671.46 479.40 672.36
  Q 482.08 676.91 489.54 690.17
  L 477.80 670.51
  Z"
/>
<path fill="#2f4863" d="
  M 489.65 690.43
  Q 497.50 702.71 504.87 715.28
  Q 514.71 732.05 514.75 732.13
  Q 528.15 754.67 539.21 773.73
  C 540.23 775.51 541.36 776.94 542.29 778.67
  Q 543.91 781.71 547.52 787.28
  Q 550.07 791.22 557.96 806.50
  L 489.65 690.43
  Z"
/>
<path fill="#238af1" d="
  M 425.98 693.02
  Q 425.30 693.68 423.90 693.14
  Q 422.70 692.67 422.00 692.61
  Q 417.00 692.21 411.67 692.67
  Q 418.77 691.15 425.98 693.02
  Z"
/>
<path fill="#146bdb" d="
  M 1038.80 755.55
  L 1029.82 755.44
  Q 1028.12 755.32 1026.40 754.82
  Q 1020.37 753.09 1015.48 749.83
  C 1013.37 748.41 1010.31 745.47 1008.93 743.34
  Q 1007.72 741.48 1006.47 739.55
  Q 1005.05 737.36 1004.09 733.51
  A 1.68 1.65 14.9 0 0 1003.62 732.72
  Q 1003.52 732.63 1003.44 732.53
  A 0.37 0.34 37.7 0 1 1003.38 732.17
  Q 1003.79 731.12 1003.12 730.26
  A 1.67 1.62 26.7 0 1 1002.77 729.25
  L 1002.77 718.22
  Q 1002.78 717.50 1003.19 716.91
  C 1003.72 716.17 1003.46 714.98 1003.88 713.91
  Q 1006.22 707.91 1009.03 704.42
  Q 1009.87 703.37 1010.74 702.20
  Q 1011.48 701.20 1012.36 700.52
  Q 1013.99 699.25 1015.59 697.96
  Q 1017.28 696.60 1019.32 695.61
  Q 1021.39 694.61 1023.30 693.64
  A 1.17 1.17 0.0 0 1 1023.98 693.51
  Q 1024.71 693.59 1025.13 693.06
  A 0.87 0.85 -66.1 0 1 1025.92 692.75
  Q 1027.04 692.93 1028.05 692.37
  A 2.24 2.24 0.0 0 1 1029.19 692.08
  Q 1034.55 692.17 1039.66 692.09
  C 1040.47 692.08 1040.74 692.41 1041.40 692.73
  Q 1041.83 692.94 1042.31 692.85
  C 1043.15 692.71 1044.02 693.29 1044.91 693.54
  Q 1048.00 694.41 1050.91 696.18
  Q 1062.41 703.14 1065.76 716.63
  Q 1065.92 717.28 1065.85 717.93
  Q 1065.78 718.56 1066.19 719.05
  Q 1066.53 719.48 1066.53 720.02
  L 1066.54 727.01
  Q 1066.54 727.52 1066.31 727.97
  Q 1065.96 728.69 1065.87 729.48
  Q 1065.17 735.52 1062.08 740.43
  Q 1055.11 751.52 1042.88 754.89
  Q 1041.86 755.17 1040.75 755.16
  Q 1039.64 755.16 1038.80 755.55
  Z"
/>
<path fill="#1957b8" d="
  M 425.98 693.02
  Q 430.64 694.16 434.91 696.76
  C 437.74 698.48 440.08 701.22 442.56 703.63
  Q 443.23 704.28 443.89 705.36
  Q 444.35 706.11 445.10 707.20
  Q 446.85 709.73 448.02 714.34
  Q 448.14 714.84 448.47 715.24
  Q 448.90 715.78 448.68 716.43
  Q 448.48 717.04 448.91 717.53
  Q 449.07 717.72 449.17 717.95
  Q 449.28 718.23 449.30 718.55
  Q 449.74 726.31 449.25 728.98
  Q 446.56 743.82 434.03 751.30
  L 426.91 754.41
  Q 426.01 754.32 424.99 754.89
  Q 424.56 755.13 424.07 755.17
  L 420.12 755.49
  Q 417.36 754.96 414.62 755.39
  L 411.27 755.17
  A 1.40 1.39 67.5 0 1 410.43 754.82
  Q 409.87 754.34 409.09 754.46
  Q 408.53 754.55 408.00 754.35
  Q 404.25 752.90 400.56 750.89
  C 399.55 750.34 399.17 749.36 398.14 748.96
  Q 397.52 748.72 397.01 748.26
  Q 392.00 743.75 388.97 737.74
  C 388.29 736.38 388.20 735.06 387.30 733.80
  Q 386.94 733.30 387.02 732.69
  Q 387.17 731.66 386.58 730.82
  Q 386.26 730.35 386.26 729.79
  L 386.26 718.01
  A 1.33 1.32 -25.2 0 1 386.57 717.16
  Q 387.07 716.57 387.04 715.70
  Q 387.02 714.87 387.34 714.03
  Q 390.43 705.71 395.91 700.49
  Q 400.05 696.56 405.77 694.26
  Q 406.00 694.17 406.26 694.18
  Q 406.49 694.20 406.70 694.09
  Q 409.15 692.83 411.67 692.67
  Q 417.00 692.21 422.00 692.61
  Q 422.70 692.67 423.90 693.14
  Q 425.30 693.68 425.98 693.02
  Z"
/>
<path fill="#238af1" d="
  M 434.03 751.30
  L 426.91 754.41
  L 434.03 751.30
  Z"
/>
<path fill="#238af1" d="
  M 420.12 755.49
  Q 417.35 756.56 414.62 755.39
  Q 417.36 754.96 420.12 755.49
  Z"
/>
<path fill="#238af1" d="
  M 1038.80 755.55
  Q 1034.21 756.53 1029.82 755.44
  L 1038.80 755.55
  Z"
/>
<circle fill="#e69d27" cx="1043.02" cy="798.86" r="9.11"/>
<circle fill="#d57f1b" cx="417.60" cy="799.30" r="8.28"/>
<path fill="#d57f1b" d="
  M 487.35 799.65
  Q 487.52 799.60 487.71 799.56
  Q 487.95 799.52 488.17 799.60
  Q 490.17 800.34 492.18 801.10
  Q 497.42 803.08 499.59 805.17
  Q 501.10 806.63 502.56 807.53
  A 1.82 1.78 3.4 0 1 503.25 808.29
  C 503.93 809.71 505.16 810.45 506.03 811.73
  Q 509.61 817.01 511.42 823.11
  C 511.92 824.81 511.40 826.60 512.11 827.99
  C 512.83 829.40 512.65 833.12 512.03 834.58
  C 511.55 835.69 511.84 836.91 511.53 838.18
  Q 506.87 856.93 488.34 862.32
  Q 487.00 862.71 485.63 862.72
  Q 484.30 862.73 483.05 863.08
  C 481.52 863.51 479.15 863.67 477.62 862.96
  C 476.62 862.49 475.30 862.78 474.11 862.52
  Q 466.04 860.69 459.74 855.25
  Q 457.51 853.32 455.29 850.24
  Q 453.41 847.63 452.14 845.04
  Q 450.81 842.32 449.84 838.30
  Q 449.39 836.44 449.37 834.66
  C 449.36 833.08 448.62 831.62 448.90 830.14
  Q 449.26 828.25 449.38 826.23
  Q 449.50 824.33 450.06 822.36
  Q 454.85 805.38 471.84 799.88
  C 472.94 799.53 474.19 799.89 474.97 799.29
  Q 475.43 798.94 476.00 798.95
  L 485.28 798.95
  Q 485.77 798.95 486.15 799.26
  Q 486.36 799.44 486.61 799.58
  Q 486.96 799.77 487.35 799.65
  Z"
/>
<path fill="#146bdb" d="
  M 604.54 804.29
  Q 606.89 804.14 608.63 806.41
  C 609.82 807.97 609.24 810.64 611.51 811.80
  A 1.83 1.80 2.1 0 1 612.37 812.71
  C 613.07 814.34 614.81 815.19 615.84 816.65
  C 618.59 820.53 621.10 822.99 626.24 822.80
  Q 632.94 822.54 639.57 822.63
  Q 640.32 822.64 640.43 821.90
  Q 640.55 821.15 641.05 820.59
  A 0.70 0.70 0.0 0 1 642.21 820.75
  L 642.60 821.59
  A 2.03 2.03 0.0 0 0 646.28 821.58
  L 649.68 814.26
  A 2.07 2.07 0.0 0 0 649.37 812.04
  Q 647.41 809.77 648.50 807.01
  Q 648.72 806.45 649.06 806.95
  Q 651.16 810.09 651.81 813.32
  A 1.38 1.33 13.1 0 0 652.36 814.17
  Q 654.24 815.51 654.84 817.91
  Q 654.97 818.44 655.33 818.84
  C 656.56 820.20 657.86 821.34 658.43 823.15
  Q 660.22 828.83 664.16 833.11
  C 665.21 834.26 665.41 835.52 665.42 837.02
  Q 665.43 837.53 665.79 837.87
  Q 672.20 843.99 674.02 847.64
  Q 676.13 851.89 678.17 856.75
  C 679.81 860.67 683.35 863.25 686.65 865.76
  Q 686.78 865.86 686.94 865.87
  Q 687.10 865.89 687.28 865.88
  L 729.36 938.48
  Q 728.45 939.60 728.60 940.63
  Q 729.61 947.68 729.57 953.56
  Q 729.40 976.11 729.05 997.13
  Q 728.98 1000.85 730.39 1008.12
  Q 731.19 1012.28 726.00 1011.09
  Q 722.86 1004.71 719.51 998.19
  Q 716.41 992.17 712.43 985.62
  Q 657.66 895.46 604.54 804.29
  Z"
/>
<path fill="#d57f1b" d="
  M 982.41 807.16
  Q 988.37 808.02 992.94 811.32
  Q 1001.64 817.58 1004.54 828.14
  C 1004.96 829.66 1004.77 831.09 1004.87 832.62
  Q 1004.92 833.28 1005.28 833.83
  Q 1005.87 834.71 1005.24 835.51
  A 1.71 1.70 -27.6 0 0 1004.88 836.64
  Q 1005.01 840.19 1004.04 843.11
  Q 999.26 857.51 985.20 861.85
  Q 981.97 862.85 978.70 862.75
  Q 975.23 862.64 972.08 862.72
  Q 971.52 862.73 971.07 862.41
  C 970.26 861.83 969.36 862.06 968.39 861.74
  Q 956.36 857.89 950.77 845.43
  Q 949.35 842.25 949.33 839.14
  Q 949.32 838.68 949.00 838.35
  A 1.01 0.99 24.0 0 1 948.73 837.67
  C 948.74 835.67 948.32 832.30 949.14 830.52
  C 949.56 829.62 949.36 828.60 949.66 827.55
  Q 953.44 814.46 965.04 809.06
  Q 967.05 808.12 969.08 807.69
  Q 970.56 807.37 971.97 806.93
  C 974.66 806.10 978.38 806.51 981.12 806.52
  Q 981.58 806.52 981.91 806.89
  A 0.81 0.80 73.1 0 0 982.41 807.16
  Z"
/>
<path fill="#2f4863" d="
  M 588.75 858.72
  L 559.93 809.55
  Q 574.99 833.75 588.75 858.72
  Z"
/>
<path fill="#2f4863" d="
  M 705.37 1057.04
  L 598.54 875.38
  Q 618.45 907.83 637.50 940.78
  Q 642.51 949.45 647.63 958.03
  Q 656.99 973.70 664.93 987.30
  Q 675.49 1005.41 685.96 1022.97
  Q 688.02 1026.41 690.01 1029.94
  Q 691.85 1033.23 694.15 1036.86
  Q 698.97 1044.46 705.37 1057.04
  Z"
/>
<path fill="#2f4863" d="
  M 540.75 887.09
  L 536.18 889.16
  Q 535.72 889.37 535.43 889.78
  Q 534.33 891.30 532.60 891.89
  Q 535.75 886.93 540.75 887.09
  Z"
/>
<path fill="#192b40" d="
  M 540.75 887.09
  L 543.83 887.01
  Q 550.18 888.36 552.81 893.66
  C 553.73 895.51 553.26 897.47 553.40 899.43
  Q 553.56 901.58 552.56 903.54
  Q 550.18 908.23 544.35 909.89
  Q 539.54 910.26 536.63 908.64
  Q 534.88 906.42 532.70 905.02
  L 531.38 902.51
  A 1.54 1.53 35.4 0 1 531.22 901.58
  Q 531.37 900.59 530.93 900.22
  L 531.82 893.65
  L 532.60 891.89
  Q 534.33 891.30 535.43 889.78
  Q 535.72 889.37 536.18 889.16
  L 540.75 887.09
  Z"
/>
<path fill="#238af1" d="
  M 543.83 887.01
  Q 548.29 887.31 551.17 890.54
  Q 553.64 893.31 553.95 897.59
  Q 554.67 907.26 544.35 909.89
  Q 550.18 908.23 552.56 903.54
  Q 553.56 901.58 553.40 899.43
  C 553.26 897.47 553.73 895.51 552.81 893.66
  Q 550.18 888.36 543.83 887.01
  Z"
/>
<path fill="#238af1" d="
  M 920.05 887.57
  L 913.68 887.55
  Q 916.80 886.26 920.05 887.57
  Z"
/>
<path fill="#192b40" d="
  M 920.05 887.57
  Q 920.17 887.53 920.22 887.77
  Q 920.18 888.06 920.40 888.11
  Q 926.75 889.66 929.23 896.30
  L 929.20 901.39
  C 928.13 902.64 927.95 903.99 926.86 905.20
  Q 925.93 906.24 925.04 907.35
  Q 924.22 908.37 922.79 908.96
  Q 922.27 909.17 921.71 909.17
  Q 921.26 909.17 920.92 909.50
  Q 920.53 909.86 920.01 909.85
  L 915.95 909.76
  L 909.14 907.28
  Q 907.81 906.41 907.05 905.08
  L 904.96 899.96
  L 904.58 896.98
  L 905.10 895.78
  L 906.99 891.75
  Q 909.49 888.08 913.68 887.55
  L 920.05 887.57
  Z"
/>
<path fill="#2f4863" d="
  M 920.22 887.77
  Q 921.33 887.52 922.45 888.09
  Q 928.20 890.99 929.23 896.30
  Q 926.75 889.66 920.40 888.11
  Q 920.18 888.06 920.22 887.77
  Z"
/>
<path fill="#238af1" d="
  M 906.99 891.75
  L 905.10 895.78
  Q 904.92 893.37 906.99 891.75
  Z"
/>
<path fill="#2f4863" d="
  M 531.82 893.65
  L 530.93 900.22
  Q 529.73 897.30 531.82 893.65
  Z"
/>
<path fill="#238af1" d="
  M 904.58 896.98
  L 904.96 899.96
  Q 904.89 899.97 904.82 899.98
  Q 903.72 899.16 904.58 896.98
  Z"
/>
<path fill="#2f4863" d="
  M 904.82 899.98
  Q 904.89 899.97 904.96 899.96
  L 907.05 905.08
  Q 904.83 903.48 904.82 899.98
  Z"
/>
<path fill="#2f4863" d="
  M 929.20 901.39
  Q 929.23 902.65 928.42 903.99
  Q 926.98 906.38 925.04 907.35
  Q 925.93 906.24 926.86 905.20
  C 927.95 903.99 928.13 902.64 929.20 901.39
  Z"
/>
<path fill="#238af1" d="
  M 532.70 905.02
  Q 534.88 906.42 536.63 908.64
  Q 534.13 907.49 532.70 905.02
  Z"
/>
<path fill="#238af1" d="
  M 909.14 907.28
  L 915.95 909.76
  Q 912.03 909.79 909.14 907.28
  Z"
/>
<path fill="#e69d27" d="
  M 569.07 954.06
  Q 570.63 953.18 572.62 953.77
  Q 577.48 955.21 579.52 958.66
  C 580.52 960.34 580.42 961.80 581.06 963.53
  Q 581.32 964.26 580.93 964.93
  Q 580.36 965.91 580.43 967.05
  A 1.82 1.82 0.0 0 1 580.17 968.09
  Q 578.72 970.58 576.37 972.47
  Q 574.64 973.86 572.49 973.68
  C 570.44 973.52 568.64 973.99 566.66 973.06
  C 563.20 971.43 560.76 968.29 561.00 964.44
  C 561.10 962.64 560.63 960.72 561.70 959.12
  C 563.10 957.03 565.77 954.09 568.45 954.21
  Q 568.78 954.23 569.07 954.06
  Z"
/>
<circle fill="#e69d27" cx="888.57" cy="963.81" r="10.14"/>
<path fill="#e69d27" d="
  M 850.75 1004.88
  C 849.58 1004.78 848.55 1004.99 847.50 1004.25
  Q 841.77 1000.23 843.73 993.25
  Q 844.20 991.54 845.65 990.37
  Q 847.84 988.58 850.22 988.31
  Q 856.36 987.63 859.32 992.56
  Q 860.97 995.30 860.59 998.12
  Q 860.16 1001.35 857.41 1003.56
  Q 855.65 1004.97 853.84 1004.82
  Q 853.10 1004.76 852.70 1005.39
  Q 852.35 1005.92 851.93 1005.47
  Q 851.46 1004.94 850.75 1004.88
  Z"
/>
<path fill="#e69d27" d="
  M 614.50 992.63
  Q 614.72 992.99 614.93 993.35
  Q 615.14 993.72 615.13 994.13
  Q 615.11 996.49 615.12 998.93
  C 615.13 1000.97 613.77 1002.69 612.21 1003.83
  C 609.94 1005.48 607.82 1004.68 605.26 1004.91
  C 601.82 1005.21 598.26 1002.05 598.45 998.50
  Q 598.56 996.33 598.48 994.33
  Q 598.46 993.83 598.69 993.38
  L 599.94 991.00
  A 3.75 3.72 12.9 0 1 603.13 989.01
  Q 606.82 988.89 610.26 988.98
  C 611.50 989.02 613.96 990.09 614.43 991.60
  Q 614.47 991.75 614.42 991.89
  Q 614.28 992.28 614.50 992.63
  Z"
/>
<path fill="#2f4863" d="
  M 720.79 1082.97
  L 705.80 1057.53
  Q 708.90 1061.53 711.30 1065.89
  Q 714.47 1071.68 715.75 1073.72
  Q 718.12 1077.53 720.34 1081.44
  Q 720.58 1081.88 721.01 1082.14
  Q 722.62 1083.13 720.79 1082.97
  Z"
/>
</svg>
