<?xml version="1.0" encoding="UTF-8" standalone="no"?>
<!DOCTYPE svg PUBLIC "-//W3C//DTD SVG 1.1//EN" "http://www.w3.org/Graphics/SVG/1.1/DTD/svg11.dtd">
<svg xmlns="http://www.w3.org/2000/svg" version="1.1" viewBox="0.00 0.00 480.00 480.00">
<g stroke-width="2.00" fill="none" stroke-linecap="butt">
<path stroke="#4b5ab6" vector-effect="non-scaling-stroke" d="
  M 424.80 131.69
  L 360.31 168.35"
/>
<path stroke="#aeb5e0" vector-effect="non-scaling-stroke" d="
  M 360.31 168.35
  Q 355.94 161.29 352.41 156.58
  C 307.12 96.18 222.74 81.81 160.64 124.78
  C 101.69 165.57 82.57 243.95 117.28 307.39"
/>
<path stroke="#4250aa" vector-effect="non-scaling-stroke" d="
  M 117.28 307.39
  L 52.56 344.23"
/>
<path stroke="#9ca4d5" vector-effect="non-scaling-stroke" d="
  M 360.31 168.35
  Q 360.47 168.32 360.36 168.68
  Q 360.26 168.99 359.97 169.15
  L 299.68 203.39"
/>
<path stroke="#aeb5e0" vector-effect="non-scaling-stroke" d="
  M 299.68 203.39
  C 282.51 176.28 250.97 163.98 220.18 172.89
  C 199.33 178.93 182.14 195.06 174.60 214.90
  Q 163.52 244.07 178.08 272.70"
/>
<path stroke="#949ac9" vector-effect="non-scaling-stroke" d="
  M 178.08 272.70
  C 204.33 320.57 271.48 323.04 300.14 275.79"
/>
<path stroke="#9ca4d5" vector-effect="non-scaling-stroke" d="
  M 300.14 275.79
  Q 300.08 275.62 300.29 275.55
  A 0.44 0.41 50.0 0 1 300.64 275.59
  L 361.51 309.51"
/>
<path stroke="#949ac9" vector-effect="non-scaling-stroke" d="
  M 361.51 309.51
  C 337.65 350.65 295.25 377.15 248.00 379.76
  C 193.98 382.75 143.87 354.87 117.28 307.39"
/>
<path stroke="#313f9f" vector-effect="non-scaling-stroke" d="
  M 426.94 345.15
  Q 394.66 327.27 362.48 309.58
  Q 362.24 309.45 362.01 309.45
  Q 361.77 309.46 361.51 309.51"
/>
<path stroke="#313f9f" vector-effect="non-scaling-stroke" d="
  M 300.14 275.79
  Q 300.08 275.24 299.72 275.05
  Q 282.53 265.68 235.73 239.83"
/>
<path stroke="#4b5ab6" vector-effect="non-scaling-stroke" d="
  M 235.73 239.83
  L 299.68 203.39"
/>
<path stroke="#4250aa" vector-effect="non-scaling-stroke" d="
  M 235.73 239.83
  L 178.08 272.70"
/>
</g>
<path fill="#5c6bc0" d="
  M 424.80 131.69
  L 360.31 168.35
  Q 355.94 161.29 352.41 156.58
  C 307.12 96.18 222.74 81.81 160.64 124.78
  C 101.69 165.57 82.57 243.95 117.28 307.39
  L 52.56 344.23
  Q 50.01 339.52 50.01 337.00
  Q 49.99 242.04 50.01 147.07
  Q 50.01 140.95 51.33 137.62
  Q 54.20 130.40 60.57 126.83
  Q 142.28 81.10 227.23 33.37
  C 233.03 30.11 239.97 28.88 246.02 30.72
  Q 249.32 31.72 254.66 34.71
  Q 337.52 81.06 419.41 126.81
  Q 421.92 128.22 424.80 131.69
  Z"
/>
<path fill="#ffffff" d="
  M 360.31 168.35
  Q 360.47 168.32 360.36 168.68
  Q 360.26 168.99 359.97 169.15
  L 299.68 203.39
  C 282.51 176.28 250.97 163.98 220.18 172.89
  C 199.33 178.93 182.14 195.06 174.60 214.90
  Q 163.52 244.07 178.08 272.70
  C 204.33 320.57 271.48 323.04 300.14 275.79
  Q 300.08 275.62 300.29 275.55
  A 0.44 0.41 50.0 0 1 300.64 275.59
  L 361.51 309.51
  C 337.65 350.65 295.25 377.15 248.00 379.76
  C 193.98 382.75 143.87 354.87 117.28 307.39
  C 82.57 243.95 101.69 165.57 160.64 124.78
  C 222.74 81.81 307.12 96.18 352.41 156.58
  Q 355.94 161.29 360.31 168.35
  Z"
/>
<path fill="#3949ab" d="
  M 424.80 131.69
  Q 430.00 137.39 430.00 144.00
  Q 430.00 240.25 430.00 336.50
  Q 430.00 340.54 426.94 345.15
  Q 394.66 327.27 362.48 309.58
  Q 362.24 309.45 362.01 309.45
  Q 361.77 309.46 361.51 309.51
  L 300.64 275.59
  A 0.44 0.41 50.0 0 0 300.29 275.55
  Q 300.08 275.62 300.14 275.79
  Q 300.08 275.24 299.72 275.05
  Q 282.53 265.68 235.73 239.83
  L 299.68 203.39
  L 359.97 169.15
  Q 360.26 168.99 360.36 168.68
  Q 360.47 168.32 360.31 168.35
  L 424.80 131.69
  Z"
/>
<path fill="#5c6bc0" d="
  M 299.68 203.39
  L 235.73 239.83
  L 178.08 272.70
  Q 163.52 244.07 174.60 214.90
  C 182.14 195.06 199.33 178.93 220.18 172.89
  C 250.97 163.98 282.51 176.28 299.68 203.39
  Z"
/>
<path fill="#283593" d="
  M 235.73 239.83
  Q 282.53 265.68 299.72 275.05
  Q 300.08 275.24 300.14 275.79
  C 271.48 323.04 204.33 320.57 178.08 272.70
  L 235.73 239.83
  Z"
/>
<path fill="#283593" d="
  M 117.28 307.39
  C 143.87 354.87 193.98 382.75 248.00 379.76
  C 295.25 377.15 337.65 350.65 361.51 309.51
  Q 361.77 309.46 362.01 309.45
  Q 362.24 309.45 362.48 309.58
  Q 394.66 327.27 426.94 345.15
  Q 423.60 350.24 419.01 352.82
  Q 334.59 400.22 251.05 447.10
  Q 243.86 451.13 236.24 449.68
  Q 232.28 448.92 223.18 443.82
  Q 141.53 397.99 59.88 352.15
  Q 55.28 349.57 52.56 344.23
  L 117.28 307.39
  Z"
/>
</svg>
