<?xml version="1.0" encoding="UTF-8" standalone="no"?>
<!DOCTYPE svg PUBLIC "-//W3C//DTD SVG 1.1//EN" "http://www.w3.org/Graphics/SVG/1.1/DTD/svg11.dtd">
<svg xmlns="http://www.w3.org/2000/svg" version="1.1" viewBox="0.00 0.00 480.00 480.00">
<g stroke-width="2.00" fill="none" stroke-linecap="butt">
<path stroke="#81bbde" vector-effect="non-scaling-stroke" d="
  M 240.24 129.99
  L 239.87 130.02"
/>
<path stroke="#78b3d6" vector-effect="non-scaling-stroke" d="
  M 239.87 130.02
  L 148.51 130.05
  Q 148.01 130.05 148.04 130.55
  L 150.96 169.46
  A 0.58 0.57 -2.1 0 0 151.54 169.99
  L 240.06 170.01"
/>
<path stroke="#0389d1" vector-effect="non-scaling-stroke" d="
  M 240.06 170.01
  L 240.24 209.99"
/>
<path stroke="#81bbde" vector-effect="non-scaling-stroke" d="
  M 240.24 209.99
  L 239.87 210.02"
/>
<path stroke="#78b3d6" vector-effect="non-scaling-stroke" d="
  M 239.87 210.02
  L 194.26 210.03
  Q 194.00 210.03 194.02 210.29
  L 195.97 249.47
  A 0.55 0.54 88.3 0 0 196.51 249.99
  L 240.27 249.93"
/>
<path stroke="#0389d1" vector-effect="non-scaling-stroke" d="
  M 240.27 249.93
  L 240.23 308.90"
/>
<path stroke="#81bbde" vector-effect="non-scaling-stroke" d="
  M 240.23 308.90
  Q 240.42 308.66 239.96 308.95"
/>
<path stroke="#78b3d6" vector-effect="non-scaling-stroke" d="
  M 239.96 308.95
  L 199.47 295.11
  Q 198.99 294.94 198.97 294.44
  L 198.04 270.63
  A 0.66 0.66 0.0 0 0 197.38 270.00
  L 158.25 270.00
  A 0.24 0.24 0.0 0 0 158.01 270.25
  L 160.98 324.73
  Q 161.00 324.96 161.22 325.04
  L 239.47 350.81
  Q 239.49 350.81 239.52 350.81
  Q 239.65 350.77 239.78 350.74"
/>
<path stroke="#81bbde" vector-effect="non-scaling-stroke" d="
  M 239.78 350.74
  Q 240.02 350.78 240.04 351.00"
/>
<path stroke="#0389d1" vector-effect="non-scaling-stroke" d="
  M 240.04 351.00
  L 240.04 398.58
  A 0.34 0.33 -7.4 0 0 240.46 398.90
  L 351.48 367.18
  Q 351.99 367.04 352.03 366.51
  L 376.95 80.49
  Q 376.99 80.00 376.50 80.00
  L 240.45 80.00
  A 0.44 0.44 0.0 0 0 240.01 80.45
  L 240.24 129.99"
/>
<path stroke="#81cdf2" vector-effect="non-scaling-stroke" d="
  M 240.04 351.00
  L 318.51 325.13
  Q 318.97 324.98 319.00 324.50
  L 330.92 130.50
  A 0.49 0.48 2.2 0 0 330.43 129.98
  L 240.24 129.99"
/>
<path stroke="#f7f7f7" vector-effect="non-scaling-stroke" d="
  M 239.78 350.74
  L 239.96 308.95"
/>
<path stroke="#81cdf2" vector-effect="non-scaling-stroke" d="
  M 240.23 308.90
  L 280.54 295.10
  Q 281.00 294.95 281.03 294.46
  L 283.95 250.69
  Q 283.99 250.08 283.38 250.08
  L 240.27 249.93"
/>
<path stroke="#f7f7f7" vector-effect="non-scaling-stroke" d="
  M 240.27 249.93
  L 239.87 210.02"
/>
<path stroke="#81cdf2" vector-effect="non-scaling-stroke" d="
  M 240.24 209.99
  L 285.73 209.97
  Q 286.00 209.97 286.02 209.71
  L 288.96 170.54
  Q 288.99 170.04 288.49 170.03
  L 240.96 169.85"
/>
<path stroke="#f7f7f7" vector-effect="non-scaling-stroke" d="
  M 239.87 130.02
  Q 240.16 149.71 239.93 169.25
  Q 239.93 169.97 240.96 169.85"
/>
<path stroke="#79c5ea" vector-effect="non-scaling-stroke" d="
  M 240.96 169.85
  L 240.06 170.01"
/>
</g>
<path fill="#0277bd" d="
  M 99.99 389.72
  L 70.05 50.36
  A 0.33 0.33 0.0 0 1 70.38 50.00
  L 409.62 50.00
  A 0.33 0.33 0.0 0 1 409.95 50.36
  L 380.00 389.79
  A 0.33 0.33 0.0 0 1 379.76 390.08
  L 240.18 429.95
  A 0.33 0.33 0.0 0 1 240.00 429.95
  L 100.23 390.01
  A 0.33 0.33 0.0 0 1 99.99 389.72
  Z
  M 240.24 129.99
  L 239.87 130.02
  L 148.51 130.05
  Q 148.01 130.05 148.04 130.55
  L 150.96 169.46
  A 0.58 0.57 -2.1 0 0 151.54 169.99
  L 240.06 170.01
  L 240.24 209.99
  L 239.87 210.02
  L 194.26 210.03
  Q 194.00 210.03 194.02 210.29
  L 195.97 249.47
  A 0.55 0.54 88.3 0 0 196.51 249.99
  L 240.27 249.93
  L 240.23 308.90
  Q 240.42 308.66 239.96 308.95
  L 199.47 295.11
  Q 198.99 294.94 198.97 294.44
  L 198.04 270.63
  A 0.66 0.66 0.0 0 0 197.38 270.00
  L 158.25 270.00
  A 0.24 0.24 0.0 0 0 158.01 270.25
  L 160.98 324.73
  Q 161.00 324.96 161.22 325.04
  L 239.47 350.81
  Q 239.49 350.81 239.52 350.81
  Q 239.65 350.77 239.78 350.74
  Q 240.02 350.78 240.04 351.00
  L 240.04 398.58
  A 0.34 0.33 -7.4 0 0 240.46 398.90
  L 351.48 367.18
  Q 351.99 367.04 352.03 366.51
  L 376.95 80.49
  Q 376.99 80.00 376.50 80.00
  L 240.45 80.00
  A 0.44 0.44 0.0 0 0 240.01 80.45
  L 240.24 129.99
  Z"
/>
<path fill="#039be5" d="
  M 240.04 351.00
  L 318.51 325.13
  Q 318.97 324.98 319.00 324.50
  L 330.92 130.50
  A 0.49 0.48 2.2 0 0 330.43 129.98
  L 240.24 129.99
  L 240.01 80.45
  A 0.44 0.44 0.0 0 1 240.45 80.00
  L 376.50 80.00
  Q 376.99 80.00 376.95 80.49
  L 352.03 366.51
  Q 351.99 367.04 351.48 367.18
  L 240.46 398.90
  A 0.34 0.33 -7.4 0 1 240.04 398.58
  L 240.04 351.00
  Z"
/>
<path fill="#eeeeee" d="
  M 239.87 130.02
  Q 240.16 149.71 239.93 169.25
  Q 239.93 169.97 240.96 169.85
  L 240.06 170.01
  L 151.54 169.99
  A 0.58 0.57 -2.1 0 1 150.96 169.46
  L 148.04 130.55
  Q 148.01 130.05 148.51 130.05
  L 239.87 130.02
  Z"
/>
<path fill="#ffffff" d="
  M 239.87 130.02
  L 240.24 129.99
  L 330.43 129.98
  A 0.49 0.48 2.2 0 1 330.92 130.50
  L 319.00 324.50
  Q 318.97 324.98 318.51 325.13
  L 240.04 351.00
  Q 240.02 350.78 239.78 350.74
  L 239.96 308.95
  Q 240.42 308.66 240.23 308.90
  L 280.54 295.10
  Q 281.00 294.95 281.03 294.46
  L 283.95 250.69
  Q 283.99 250.08 283.38 250.08
  L 240.27 249.93
  L 239.87 210.02
  L 240.24 209.99
  L 285.73 209.97
  Q 286.00 209.97 286.02 209.71
  L 288.96 170.54
  Q 288.99 170.04 288.49 170.03
  L 240.96 169.85
  Q 239.93 169.97 239.93 169.25
  Q 240.16 149.71 239.87 130.02
  Z"
/>
<path fill="#039be5" d="
  M 240.96 169.85
  L 288.49 170.03
  Q 288.99 170.04 288.96 170.54
  L 286.02 209.71
  Q 286.00 209.97 285.73 209.97
  L 240.24 209.99
  L 240.06 170.01
  L 240.96 169.85
  Z"
/>
<path fill="#eeeeee" d="
  M 239.87 210.02
  L 240.27 249.93
  L 196.51 249.99
  A 0.55 0.54 88.3 0 1 195.97 249.47
  L 194.02 210.29
  Q 194.00 210.03 194.26 210.03
  L 239.87 210.02
  Z"
/>
<path fill="#039be5" d="
  M 240.23 308.90
  L 240.27 249.93
  L 283.38 250.08
  Q 283.99 250.08 283.95 250.69
  L 281.03 294.46
  Q 281.00 294.95 280.54 295.10
  L 240.23 308.90
  Z"
/>
<path fill="#eeeeee" d="
  M 239.96 308.95
  L 239.78 350.74
  Q 239.65 350.77 239.52 350.81
  Q 239.49 350.81 239.47 350.81
  L 161.22 325.04
  Q 161.00 324.96 160.98 324.73
  L 158.01 270.25
  A 0.24 0.24 0.0 0 1 158.25 270.00
  L 197.38 270.00
  A 0.66 0.66 0.0 0 1 198.04 270.63
  L 198.97 294.44
  Q 198.99 294.94 199.47 295.11
  L 239.96 308.95
  Z"
/>
</svg>
