<?xml version="1.0" encoding="UTF-8"?>
<svg version="1.1" xmlns="http://www.w3.org/2000/svg" width="64" height="64">
<path d="M0 0 C3.1328125 -0.38818359 3.1328125 -0.38818359 7.125 -0.3984375 C7.8277002 -0.40130768 8.53040039 -0.40417786 9.25439453 -0.40713501 C10.74056809 -0.40917714 12.22676843 -0.40363678 13.71289062 -0.39111328 C15.99149508 -0.37505992 18.2683259 -0.39095499 20.546875 -0.41015625 C21.98958726 -0.40817384 23.43229841 -0.40433021 24.875 -0.3984375 C26.19242188 -0.39505371 27.50984375 -0.39166992 28.8671875 -0.38818359 C30.41792969 -0.19603271 30.41792969 -0.19603271 32 0 C34.1519437 3.22791555 34.20086443 4.28400809 34 8 C33.01 8.33 32.02 8.66 31 9 C30.505 6.03 30.505 6.03 30 3 C20.76 3 11.52 3 2 3 C2 7.29 2 11.58 2 16 C11.24 16 20.48 16 30 16 C30.33 14.02 30.66 12.04 31 10 C31.99 10.33 32.98 10.66 34 11 C33.6875 14.375 33.6875 14.375 33 18 C29.36804504 20.42130331 27.61650652 20.21022785 23.3125 20.125 C22.13300781 20.10695313 20.95351563 20.08890625 19.73828125 20.0703125 C18.83464844 20.04710938 17.93101563 20.02390625 17 20 C17 20.99 17 21.98 17 23 C19.31 23.33 21.62 23.66 24 24 C24.625 27.375 24.625 27.375 25 31 C23 33 23 33 19.875 33.125 C18.92625 33.08375 17.9775 33.0425 17 33 C17 34.65 17 36.3 17 38 C18.32 38.66 19.64 39.32 21 40 C21 40.66 21 41.32 21 42 C26.61 42 32.22 42 38 42 C38 39.03 38 36.06 38 33 C36.68 32.34 35.36 31.68 34 31 C34.33 28.69 34.66 26.38 35 24 C38.375 23.375 38.375 23.375 42 23 C44 25 44 25 44.25 28 C44 31 44 31 42 33 C41.57446839 35.62976524 41.57446839 35.62976524 41.4375 38.5625 C41.09722222 43.90277778 41.09722222 43.90277778 40 45 C38.63283803 45.13226999 37.25959334 45.20316884 35.88671875 45.24609375 C35.05076172 45.27896484 34.21480469 45.31183594 33.35351562 45.34570312 C31.58800762 45.40649351 29.82237713 45.46383262 28.05664062 45.51757812 C27.21681641 45.55173828 26.37699219 45.58589844 25.51171875 45.62109375 C24.74303467 45.6461499 23.97435059 45.67120605 23.18237305 45.69702148 C20.77569726 46.03113992 19.10110181 46.80598179 17 48 C17 49.98 17 51.96 17 54 C18.7015625 53.9690625 18.7015625 53.9690625 20.4375 53.9375 C24 54 24 54 25 55 C25.07179964 56.51928038 25.08392007 58.04167482 25.0625 59.5625 C25.05347656 60.38878906 25.04445312 61.21507812 25.03515625 62.06640625 C25.02355469 62.70449219 25.01195312 63.34257813 25 64 C22.36 64 19.72 64 17 64 C17 63.34 17 62.68 17 62 C18.65 62 20.3 62 22 62 C22 60.35 22 58.7 22 57 C18.04 57 14.08 57 10 57 C10 58.65 10 60.3 10 62 C11.65 62 13.3 62 15 62 C15 62.66 15 63.32 15 64 C12.36 64 9.72 64 7 64 C7 63.01 7 62.02 7 61 C5.92878906 61.01160156 4.85757812 61.02320313 3.75390625 61.03515625 C2.35677257 61.04453299 0.95963701 61.05363331 -0.4375 61.0625 C-1.14455078 61.07087891 -1.85160156 61.07925781 -2.58007812 61.08789062 C-4.38693559 61.09653588 -6.19387603 61.05220011 -8 61 C-10.30791219 58.69208781 -9.45993977 53.1275504 -9.62109375 50.00390625 C-9.70217553 46.88912046 -9.70217553 46.88912046 -12 45 C-11.44444444 40.44444444 -11.44444444 40.44444444 -10 39 C-9.74994614 36.04182893 -9.74994614 36.04182893 -10 33 C-10.66 32.34 -11.32 31.68 -12 31 C-12.125 28.375 -12.125 28.375 -12 26 C-11.34 26 -10.68 26 -10 26 C-9.67 27.32 -9.34 28.64 -9 30 C-8.01 29.67 -7.02 29.34 -6 29 C-6 28.34 -6 27.68 -6 27 C-7.32 26.34 -8.64 25.68 -10 25 C-9.67 24.34 -9.34 23.68 -9 23 C-6.0625 23.375 -6.0625 23.375 -3 24 C-2.67 24.66 -2.34 25.32 -2 26 C-0.56344146 26.08131463 0.8744483 26.13933559 2.3125 26.1875 C3.11300781 26.22230469 3.91351563 26.25710937 4.73828125 26.29296875 C7.51744543 25.93297339 8.15396951 25.01385144 10 23 C12.6875 22.8125 12.6875 22.8125 15 23 C15 22.01 15 21.02 15 20 C14.10796875 20.04640625 13.2159375 20.0928125 12.296875 20.140625 C11.12640625 20.17671875 9.9559375 20.2128125 8.75 20.25 C7.00976562 20.31960937 7.00976562 20.31960937 5.234375 20.390625 C2 20 2 20 -0.3984375 18.39453125 C-2.50391232 15.24658964 -2.4691295 13.1984013 -2.375 9.4375 C-2.35566406 7.73400391 -2.35566406 7.73400391 -2.3359375 5.99609375 C-2 3 -2 3 0 0 Z M11 26 C10.67 27.32 10.34 28.64 10 30 C12.24512262 31.12256131 13.51456649 31.13413762 16 31.125 C16.70125 31.12757812 17.4025 31.13015625 18.125 31.1328125 C20.09153775 31.11377236 20.09153775 31.11377236 22 30 C21.67 28.68 21.34 27.36 21 26 C17.7 26 14.4 26 11 26 Z M38 26 C38 27.32 38 28.64 38 30 C38.99 30 39.98 30 41 30 C41 28.68 41 27.36 41 26 C40.01 26 39.02 26 38 26 Z M-4.5625 31.1875 C-6.19638668 32.95163275 -6.19638668 32.95163275 -6.4375 35.5 C-6.24291764 38.06265022 -6.24291764 38.06265022 -4.4375 39.5 C-3.963125 39.995 -3.48875 40.49 -3 41 C-3.24453124 44.34192692 -3.60543557 45.60543557 -6 48 C-6.24287489 50.44012949 -6.24287489 50.44012949 -6.125 53.125 C-6.08375 54.73375 -6.0425 56.3425 -6 58 C-1.71 58 2.58 58 7 58 C7.33 57.01 7.66 56.02 8 55 C11.465 54.505 11.465 54.505 15 54 C15.2502157 51.08365871 15.2502157 51.08365871 15 48 C14.01 47.34 13.02 46.68 12 46 C11.625 43 11.625 43 12 40 C12.99 39.34 13.98 38.68 15 38 C15.25030977 35.41619823 15.25030977 35.41619823 15 33 C13.865625 32.690625 12.73125 32.38125 11.5625 32.0625 C8 31 8 31 7 30 C2.90575802 29.56815298 -0.79527629 29.4417134 -4.5625 31.1875 Z M-8 41 C-8 42.32 -8 43.64 -8 45 C-7.34 44.67 -6.68 44.34 -6 44 C-6.33 43.01 -6.66 42.02 -7 41 C-7.33 41 -7.66 41 -8 41 Z M15 41 C14.67 42.32 14.34 43.64 14 45 C15.32 45 16.64 45 18 45 C17.67 43.68 17.34 42.36 17 41 C16.34 41 15.68 41 15 41 Z " fill="#FFFFFF" transform="translate(16,0)"/>
<path d="M0 0 C2.46800047 1.15173355 4.04783565 2.04783565 6 4 C5.68134222 7.29279709 4.45484649 8.86535088 2 11 C1.01 10.67 0.02 10.34 -1 10 C-0.62875 9.2575 -0.2575 8.515 0.125 7.75 C1.29515863 5.05716353 1.29515863 5.05716353 0.125 2.6875 C-0.24625 2.130625 -0.6175 1.57375 -1 1 C-0.67 0.67 -0.34 0.34 0 0 Z " fill="#FFFFFF" transform="translate(36,4)"/>
<path d="M0 0 C0.99 0.33 1.98 0.66 3 1 C2.62875 1.7425 2.2575 2.485 1.875 3.25 C0.70484137 5.94283647 0.70484137 5.94283647 1.875 8.3125 C2.431875 9.1478125 2.431875 9.1478125 3 10 C-1 10 -1 10 -2.8125 8.75 C-4 7 -4 7 -3.875 5 C-2.90943569 2.79299586 -1.80627247 1.57067171 0 0 Z " fill="#FFFFFF" transform="translate(26,4)"/>
<path d="M0 0 C0.99 0 1.98 0 3 0 C2.67 3.63 2.34 7.26 2 11 C1.01 11 0.02 11 -1 11 C-0.67 7.37 -0.34 3.74 0 0 Z " fill="#FFFFFF" transform="translate(31,4)"/>
</svg>
