<?xml version="1.0" encoding="UTF-8" standalone="no"?>
<!DOCTYPE svg PUBLIC "-//W3C//DTD SVG 1.1//EN" "http://www.w3.org/Graphics/SVG/1.1/DTD/svg11.dtd">
<svg xmlns="http://www.w3.org/2000/svg" version="1.1" viewBox="0.00 0.00 94.00 94.00">
<g stroke-width="2.00" fill="none" stroke-linecap="butt">
<path stroke="#eaebef" vector-effect="non-scaling-stroke" d="
  M 19.93 15.79
  Q 22.84 17.02 25.00 17.06
  Q 31.41 17.19 37.86 17.31
  Q 39.27 17.34 40.52 17.78
  Q 41.90 18.27 43.38 18.07
  A 1.10 1.10 0.0 0 1 44.34 18.41
  Q 46.91 21.15 50.82 21.14
  A 1.63 1.61 63.4 0 1 51.81 21.48
  C 53.13 22.52 54.29 23.53 55.82 24.24
  Q 57.13 24.84 58.32 25.63
  Q 59.50 26.41 60.84 26.98
  Q 65.16 28.80 69.37 30.86
  Q 70.93 31.62 76.65 31.31"
/>
<path stroke="#cbc9cd" vector-effect="non-scaling-stroke" d="
  M 76.65 31.31
  Q 63.25 40.76 50.14 49.90
  Q 48.55 51.01 46.02 50.67
  Q 44.34 50.45 42.36 49.05
  Q 25.05 36.83 7.73 24.67"
/>
<path stroke="#eaebef" vector-effect="non-scaling-stroke" d="
  M 7.73 24.67
  Q 7.31 24.02 6.65 23.90
  Q 6.14 23.81 6.05 23.30
  L 5.91 22.54"
/>
<path stroke="#c3c1c5" vector-effect="non-scaling-stroke" d="
  M 7.73 24.67
  Q 7.30 24.53 7.17 24.62
  A 0.90 0.90 0.0 0 0 7.06 25.99
  Q 7.87 26.79 8.96 27.24
  Q 12.17 28.58 16.02 32.51
  Q 16.23 32.72 16.50 32.82
  Q 16.75 32.91 17.02 32.86
  Q 17.49 32.78 17.88 33.05
  L 28.16 40.36
  Q 28.56 40.65 28.74 41.10
  Q 29.24 42.28 30.49 42.53
  Q 31.52 42.74 32.44 43.29
  C 34.09 44.30 34.76 45.90 36.54 46.67
  Q 39.43 47.92 41.38 49.75
  Q 43.79 52.00 46.80 51.64
  Q 47.30 51.58 47.78 51.75
  L 50.72 52.79
  Q 52.00 53.25 51.03 52.29
  L 50.57 51.82
  Q 50.07 51.32 50.65 50.91
  L 82.48 28.40
  Q 82.90 28.10 83.40 27.95
  Q 84.43 27.63 84.87 26.56
  Q 85.28 25.55 84.37 26.15
  L 76.65 31.31"
/>
</g>
<path fill="#f2f3f7" d="
  M 19.93 15.79
  Q 22.84 17.02 25.00 17.06
  Q 31.41 17.19 37.86 17.31
  Q 39.27 17.34 40.52 17.78
  Q 41.90 18.27 43.38 18.07
  A 1.10 1.10 0.0 0 1 44.34 18.41
  Q 46.91 21.15 50.82 21.14
  A 1.63 1.61 63.4 0 1 51.81 21.48
  C 53.13 22.52 54.29 23.53 55.82 24.24
  Q 57.13 24.84 58.32 25.63
  Q 59.50 26.41 60.84 26.98
  Q 65.16 28.80 69.37 30.86
  Q 70.93 31.62 76.65 31.31
  Q 63.25 40.76 50.14 49.90
  Q 48.55 51.01 46.02 50.67
  Q 44.34 50.45 42.36 49.05
  Q 25.05 36.83 7.73 24.67
  Q 7.31 24.02 6.65 23.90
  Q 6.14 23.81 6.05 23.30
  L 5.91 22.54
  C 6.06 19.35 5.12 15.89 9.76 15.82
  Q 14.87 15.75 19.93 15.79
  Z"
/>
<path fill="#e2e2e7" d="
  M 19.93 15.79
  L 84.52 15.78
  A 3.16 3.15 0.0 0 1 87.68 18.93
  L 87.75 74.64
  A 3.40 3.40 0.0 0 1 84.35 78.04
  L 9.07 77.91
  A 3.11 3.11 0.0 0 1 5.97 74.80
  L 5.91 22.54
  L 6.05 23.30
  Q 6.14 23.81 6.65 23.90
  Q 7.31 24.02 7.73 24.67
  Q 7.30 24.53 7.17 24.62
  A 0.90 0.90 0.0 0 0 7.06 25.99
  Q 7.87 26.79 8.96 27.24
  Q 12.17 28.58 16.02 32.51
  Q 16.23 32.72 16.50 32.82
  Q 16.75 32.91 17.02 32.86
  Q 17.49 32.78 17.88 33.05
  L 28.16 40.36
  Q 28.56 40.65 28.74 41.10
  Q 29.24 42.28 30.49 42.53
  Q 31.52 42.74 32.44 43.29
  C 34.09 44.30 34.76 45.90 36.54 46.67
  Q 39.43 47.92 41.38 49.75
  Q 43.79 52.00 46.80 51.64
  Q 47.30 51.58 47.78 51.75
  L 50.72 52.79
  Q 52.00 53.25 51.03 52.29
  L 50.57 51.82
  Q 50.07 51.32 50.65 50.91
  L 82.48 28.40
  Q 82.90 28.10 83.40 27.95
  Q 84.43 27.63 84.87 26.56
  Q 85.28 25.55 84.37 26.15
  L 76.65 31.31
  Q 70.93 31.62 69.37 30.86
  Q 65.16 28.80 60.84 26.98
  Q 59.50 26.41 58.32 25.63
  Q 57.13 24.84 55.82 24.24
  C 54.29 23.53 53.13 22.52 51.81 21.48
  A 1.63 1.61 63.4 0 0 50.82 21.14
  Q 46.91 21.15 44.34 18.41
  A 1.10 1.10 0.0 0 0 43.38 18.07
  Q 41.90 18.27 40.52 17.78
  Q 39.27 17.34 37.86 17.31
  Q 31.41 17.19 25.00 17.06
  Q 22.84 17.02 19.93 15.79
  Z"
/>
<path fill="#a49fa3" d="
  M 7.73 24.67
  Q 25.05 36.83 42.36 49.05
  Q 44.34 50.45 46.02 50.67
  Q 48.55 51.01 50.14 49.90
  Q 63.25 40.76 76.65 31.31
  L 84.37 26.15
  Q 85.28 25.55 84.87 26.56
  Q 84.43 27.63 83.40 27.95
  Q 82.90 28.10 82.48 28.40
  L 50.65 50.91
  Q 50.07 51.32 50.57 51.82
  L 51.03 52.29
  Q 52.00 53.25 50.72 52.79
  L 47.78 51.75
  Q 47.30 51.58 46.80 51.64
  Q 43.79 52.00 41.38 49.75
  Q 39.43 47.92 36.54 46.67
  C 34.76 45.90 34.09 44.30 32.44 43.29
  Q 31.52 42.74 30.49 42.53
  Q 29.24 42.28 28.74 41.10
  Q 28.56 40.65 28.16 40.36
  L 17.88 33.05
  Q 17.49 32.78 17.02 32.86
  Q 16.75 32.91 16.50 32.82
  Q 16.23 32.72 16.02 32.51
  Q 12.17 28.58 8.96 27.24
  Q 7.87 26.79 7.06 25.99
  A 0.90 0.90 0.0 0 1 7.17 24.62
  Q 7.30 24.53 7.73 24.67
  Z"
/>
</svg>
