<?xml version="1.0" encoding="UTF-8"?>
<svg version="1.1" xmlns="http://www.w3.org/2000/svg" width="64" height="64">
<path d="M0 0 C0.7314473 -0.00807175 1.46289459 -0.01614349 2.21650696 -0.02445984 C3.7656519 -0.03828238 5.31482706 -0.04901272 6.86401367 -0.05688477 C8.43799856 -0.06837607 10.01194535 -0.08878279 11.58569336 -0.1184082 C27.95640165 -0.42644529 27.95640165 -0.42644529 34.55078125 4.23828125 C38.86057803 9.65315413 39.71830026 13.95196716 39.7890625 20.6875 C39.79713425 21.4189473 39.80520599 22.15039459 39.81352234 22.90400696 C39.82734488 24.4531519 39.83807522 26.00232706 39.84594727 27.55151367 C39.85743857 29.12549856 39.87784529 30.69944535 39.9074707 32.27319336 C40.21550779 48.64390165 40.21550779 48.64390165 35.55078125 55.23828125 C31.10990732 58.77285438 27.57240469 60.38167416 21.92578125 60.36328125 C20.73082031 60.36714844 20.73082031 60.36714844 19.51171875 60.37109375 C17.55078125 60.23828125 17.55078125 60.23828125 16.55078125 59.23828125 C16.45161555 57.61570581 16.41998348 55.98888294 16.41796875 54.36328125 C16.41667969 53.3784375 16.41539063 52.39359375 16.4140625 51.37890625 C16.41792969 50.3425 16.42179687 49.30609375 16.42578125 48.23828125 C16.41998047 46.68367188 16.41998047 46.68367188 16.4140625 45.09765625 C16.41535156 44.1128125 16.41664062 43.12796875 16.41796875 42.11328125 C16.41909668 41.20320313 16.42022461 40.293125 16.42138672 39.35546875 C16.55078125 37.23828125 16.55078125 37.23828125 17.55078125 36.23828125 C19.55036489 36.19747342 21.55123379 36.19573769 23.55078125 36.23828125 C23.88078125 34.58828125 24.21078125 32.93828125 24.55078125 31.23828125 C21.91078125 31.23828125 19.27078125 31.23828125 16.55078125 31.23828125 C16.46946662 29.80172271 16.41144566 28.36383295 16.36328125 26.92578125 C16.31107422 25.72501953 16.31107422 25.72501953 16.2578125 24.5 C16.55078125 22.23828125 16.55078125 22.23828125 17.86328125 20.45703125 C20.37073737 18.64609072 22.54998151 19.03822793 25.55078125 19.23828125 C25.55078125 17.91828125 25.55078125 16.59828125 25.55078125 15.23828125 C23.73745971 15.54597832 21.9251378 15.85957189 20.11328125 16.17578125 C19.10394531 16.34980469 18.09460937 16.52382813 17.0546875 16.703125 C14.62203745 16.98579222 14.62203745 16.98579222 13.55078125 18.23828125 C13.34189417 20.23431331 13.18302648 22.23571066 13.05078125 24.23828125 C12.66189236 30.12717014 12.66189236 30.12717014 11.55078125 31.23828125 C9.21780692 31.27921062 6.883729 31.28069848 4.55078125 31.23828125 C4.55078125 32.88828125 4.55078125 34.53828125 4.55078125 36.23828125 C6.25234375 36.20734375 6.25234375 36.20734375 7.98828125 36.17578125 C11.55078125 36.23828125 11.55078125 36.23828125 12.55078125 37.23828125 C12.64980232 38.77609716 12.68157692 40.31837569 12.68359375 41.859375 C12.68552734 43.26219727 12.68552734 43.26219727 12.6875 44.69335938 C12.68363281 45.67755859 12.67976563 46.66175781 12.67578125 47.67578125 C12.68158203 49.1462793 12.68158203 49.1462793 12.6875 50.64648438 C12.68621094 51.58298828 12.68492188 52.51949219 12.68359375 53.484375 C12.68246582 54.34732178 12.68133789 55.21026855 12.68017578 56.09936523 C12.55078125 58.23828125 12.55078125 58.23828125 11.55078125 60.23828125 C8.54978537 60.34718836 5.55281747 60.4260168 2.55078125 60.48828125 C1.29201172 60.53855469 1.29201172 60.53855469 0.0078125 60.58984375 C-5.94540311 60.68214167 -10.53383502 59.73837472 -15.44921875 56.23828125 C-19.75901553 50.82340837 -20.61673776 46.52459534 -20.6875 39.7890625 C-20.69557175 39.0576152 -20.70364349 38.32616791 -20.71195984 37.57255554 C-20.72578238 36.0234106 -20.73651272 34.47423544 -20.74438477 32.92504883 C-20.75587607 31.35106394 -20.77628279 29.77711715 -20.8059082 28.20336914 C-21.11394529 11.83266085 -21.11394529 11.83266085 -16.44921875 5.23828125 C-11.03434587 0.92848447 -6.73553284 0.07076224 0 0 Z M-15.23681641 9.4140625 C-16.82001299 13.10202425 -16.87976256 16.48186923 -16.84765625 20.42578125 C-16.85052643 21.20590576 -16.85339661 21.98603027 -16.85635376 22.78979492 C-16.85838878 24.43376393 -16.85289827 26.07775745 -16.84033203 27.72167969 C-16.8242694 30.23037126 -16.84019879 32.73745196 -16.859375 35.24609375 C-16.85739247 36.84765979 -16.85354858 38.44922483 -16.84765625 40.05078125 C-16.85372894 40.79674561 -16.85980164 41.54270996 -16.86605835 42.3112793 C-16.80575232 46.80231232 -16.19279918 49.65526265 -13.44921875 53.23828125 C-9.12680133 56.88112299 -4.99957536 56.5997367 0.36328125 56.42578125 C3.06515625 56.36390625 5.76703125 56.30203125 8.55078125 56.23828125 C8.55078125 50.62828125 8.55078125 45.01828125 8.55078125 39.23828125 C6.24078125 39.23828125 3.93078125 39.23828125 1.55078125 39.23828125 C1.55078125 35.60828125 1.55078125 31.97828125 1.55078125 28.23828125 C3.86078125 28.23828125 6.17078125 28.23828125 8.55078125 28.23828125 C8.57205078 27.24248047 8.57205078 27.24248047 8.59375 26.2265625 C8.83029982 21.84719415 9.11053811 18.93414943 11.48828125 15.17578125 C16.78887885 11.82234195 22.43213861 12.23828125 28.55078125 12.23828125 C28.55078125 15.86828125 28.55078125 19.49828125 28.55078125 23.23828125 C25.91078125 23.23828125 23.27078125 23.23828125 20.55078125 23.23828125 C20.55078125 24.88828125 20.55078125 26.53828125 20.55078125 28.23828125 C22.86078125 28.56828125 25.17078125 28.89828125 27.55078125 29.23828125 C27.22078125 32.53828125 26.89078125 35.83828125 26.55078125 39.23828125 C24.57078125 39.23828125 22.59078125 39.23828125 20.55078125 39.23828125 C20.55078125 44.84828125 20.55078125 50.45828125 20.55078125 56.23828125 C27.46201104 56.49873048 27.46201104 56.49873048 32.55078125 53.23828125 C35.79568769 49.01764743 35.9910843 45.19350899 35.94921875 40.05078125 C35.95352402 38.88059448 35.95352402 38.88059448 35.95791626 37.68676758 C35.95995128 36.04279857 35.95446077 34.39880505 35.94189453 32.75488281 C35.9258319 30.24619124 35.94176129 27.73911054 35.9609375 25.23046875 C35.95895497 23.62890271 35.95511108 22.02733767 35.94921875 20.42578125 C35.95529144 19.67981689 35.96136414 18.93385254 35.96762085 18.1652832 C35.90735767 13.677441 35.4250854 10.73675142 32.55078125 7.23828125 C28.44839956 3.86781012 24.47015828 3.79827005 19.36328125 3.83984375 C18.19309448 3.83553848 18.19309448 3.83553848 16.99926758 3.83114624 C15.35529857 3.82911122 13.71130505 3.83460173 12.06738281 3.84716797 C9.55869124 3.8632306 7.05161054 3.84730121 4.54296875 3.828125 C2.94140271 3.83010753 1.33983767 3.83395142 -0.26171875 3.83984375 C-1.38066528 3.83073471 -1.38066528 3.83073471 -2.5222168 3.82144165 C-8.27564016 3.89869918 -11.56641934 4.94662483 -15.23681641 9.4140625 Z " fill="#FFFFFF" transform="translate(22.44921875,1.76171875)"/>
</svg>
