<?xml version="1.0" encoding="UTF-8" standalone="no"?>
<!DOCTYPE svg PUBLIC "-//W3C//DTD SVG 1.1//EN" "http://www.w3.org/Graphics/SVG/1.1/DTD/svg11.dtd">
<svg xmlns="http://www.w3.org/2000/svg" version="1.1" viewBox="0.00 0.00 94.00 94.00">
<g stroke-width="2.00" fill="none" stroke-linecap="butt">
<path stroke="#ed9c84" vector-effect="non-scaling-stroke" d="
  M 83.29 14.18
  Q 82.86 14.15 82.42 13.95"
/>
<path stroke="#ea9881" vector-effect="non-scaling-stroke" d="
  M 82.42 13.95
  Q 81.46 13.33 80.75 13.23
  Q 71.07 11.79 61.29 12.61"
/>
<path stroke="#fbb896" vector-effect="non-scaling-stroke" d="
  M 61.29 12.61
  Q 38.49 12.43 15.72 13.32
  C 13.99 13.39 12.24 14.04 10.36 14.12"
/>
<path stroke="#dd4628" vector-effect="non-scaling-stroke" d="
  M 55.39 76.57
  Q 54.83 75.40 54.00 75.49
  Q 51.63 75.76 50.49 75.72"
/>
<path stroke="#ea5c37" vector-effect="non-scaling-stroke" d="
  M 50.49 75.72
  Q 51.53 74.95 52.78 74.58
  Q 53.25 74.45 53.33 73.96
  Q 53.71 71.35 53.75 68.75
  Q 53.88 61.38 53.85 53.56
  Q 53.84 51.70 53.48 49.99
  Q 53.12 48.29 52.54 46.56
  A 2.24 2.22 -2.9 0 0 50.89 45.09
  Q 47.83 44.44 44.64 44.67
  Q 43.01 44.79 41.35 44.88
  Q 38.20 45.05 37.21 46.78"
/>
<path stroke="#dd4628" vector-effect="non-scaling-stroke" d="
  M 82.42 13.95
  L 82.48 14.45
  Q 82.54 14.97 82.07 15.21
  Q 81.07 15.73 80.19 16.51
  Q 75.26 20.87 70.37 25.87
  Q 70.08 26.17 70.02 26.61
  A 1.00 1.00 0.0 0 1 69.75 27.18
  Q 67.90 29.11 66.39 31.07
  Q 65.60 32.11 64.57 32.76
  Q 63.46 33.47 62.73 34.53
  Q 61.22 36.71 59.52 38.55
  Q 59.10 39.02 58.78 38.47
  Q 57.90 36.93 56.54 35.67
  A 1.33 1.30 -71.6 0 1 56.11 34.79
  Q 55.98 33.18 56.92 31.60
  Q 57.04 31.40 56.91 31.21
  Q 56.49 30.58 56.63 29.83
  Q 57.33 26.12 57.33 23.16
  Q 57.34 20.71 55.37 19.16
  Q 54.36 18.37 53.21 18.31
  C 51.25 18.23 49.74 17.48 47.68 17.73
  Q 45.29 18.02 42.75 17.82
  Q 42.24 17.78 41.85 18.11
  Q 41.51 18.40 41.06 18.36
  Q 39.20 18.19 37.37 18.75
  Q 36.90 18.89 36.59 19.28
  Q 36.09 19.92 35.26 20.08
  A 0.68 0.66 -0.1 0 0 34.74 20.59
  Q 33.87 24.30 34.40 28.09
  Q 34.46 28.51 34.27 28.92
  Q 34.07 29.38 33.58 29.34
  Q 33.05 29.29 32.78 29.74
  Q 32.50 30.20 32.43 30.72
  Q 32.40 31.00 32.24 31.21
  Q 32.01 31.50 31.67 31.35
  A 0.19 0.18 -71.2 0 0 31.41 31.48
  Q 30.90 34.07 32.73 36.22
  Q 32.90 36.42 32.69 36.60
  L 32.47 36.79
  A 0.31 0.30 -38.1 0 1 32.03 36.74
  Q 30.41 34.55 29.29 32.09
  Q 28.07 29.41 26.09 27.08
  Q 25.59 26.49 24.92 26.08
  Q 24.18 25.62 23.76 24.98
  Q 23.18 24.06 22.22 23.46
  Q 21.35 22.91 20.49 22.37
  Q 19.68 21.86 18.98 21.10
  Q 17.54 19.50 15.55 19.59"
/>
<path stroke="#eb623a" vector-effect="non-scaling-stroke" d="
  M 9.73 15.29
  L 61.29 12.61"
/>
<path stroke="#e75834" vector-effect="non-scaling-stroke" d="
  M 50.49 75.72
  L 46.19 77.76"
/>
<path stroke="#f87849" vector-effect="non-scaling-stroke" d="
  M 46.19 77.76
  Q 50.00 75.33 50.14 71.75
  Q 50.43 64.62 48.61 57.15
  Q 48.24 55.68 47.56 54.34
  Q 46.93 53.11 45.27 52.65
  Q 43.99 52.31 42.66 52.20
  A 0.49 0.48 88.6 0 0 42.14 52.75
  Q 42.24 53.46 41.54 53.75
  Q 41.09 53.94 40.78 54.32
  L 39.57 55.83
  Q 39.46 55.97 39.44 55.97
  Q 39.24 56.01 39.21 55.87
  Q 39.08 55.36 39.14 55.89
  Q 39.23 56.82 38.76 57.59
  Q 38.48 58.04 38.42 58.56
  Q 37.92 62.89 37.85 67.66
  C 37.82 69.43 37.29 70.92 37.36 72.75
  Q 37.45 75.21 37.36 83.54"
/>
<path stroke="#eb623a" vector-effect="non-scaling-stroke" d="
  M 46.19 77.76
  Q 41.15 80.57 37.35 84.43"
/>
</g>
<path fill="#faeddd" d="
  M 83.29 14.18
  Q 82.86 14.15 82.42 13.95
  Q 81.46 13.33 80.75 13.23
  Q 71.07 11.79 61.29 12.61
  Q 38.49 12.43 15.72 13.32
  C 13.99 13.39 12.24 14.04 10.36 14.12
  Q 11.33 12.16 13.37 11.85
  Q 20.21 10.81 27.94 10.63
  C 45.07 10.22 63.77 9.80 80.00 11.74
  Q 82.46 12.03 83.29 14.18
  Z"
/>
<path fill="#d94225" d="
  M 82.42 13.95
  L 82.48 14.45
  Q 82.54 14.97 82.07 15.21
  Q 81.07 15.73 80.19 16.51
  Q 75.26 20.87 70.37 25.87
  Q 70.08 26.17 70.02 26.61
  A 1.00 1.00 0.0 0 1 69.75 27.18
  Q 67.90 29.11 66.39 31.07
  Q 65.60 32.11 64.57 32.76
  Q 63.46 33.47 62.73 34.53
  Q 61.22 36.71 59.52 38.55
  Q 59.10 39.02 58.78 38.47
  Q 57.90 36.93 56.54 35.67
  A 1.33 1.30 -71.6 0 1 56.11 34.79
  Q 55.98 33.18 56.92 31.60
  Q 57.04 31.40 56.91 31.21
  Q 56.49 30.58 56.63 29.83
  Q 57.33 26.12 57.33 23.16
  Q 57.34 20.71 55.37 19.16
  Q 54.36 18.37 53.21 18.31
  C 51.25 18.23 49.74 17.48 47.68 17.73
  Q 45.29 18.02 42.75 17.82
  Q 42.24 17.78 41.85 18.11
  Q 41.51 18.40 41.06 18.36
  Q 39.20 18.19 37.37 18.75
  Q 36.90 18.89 36.59 19.28
  Q 36.09 19.92 35.26 20.08
  A 0.68 0.66 -0.1 0 0 34.74 20.59
  Q 33.87 24.30 34.40 28.09
  Q 34.46 28.51 34.27 28.92
  Q 34.07 29.38 33.58 29.34
  Q 33.05 29.29 32.78 29.74
  Q 32.50 30.20 32.43 30.72
  Q 32.40 31.00 32.24 31.21
  Q 32.01 31.50 31.67 31.35
  A 0.19 0.18 -71.2 0 0 31.41 31.48
  Q 30.90 34.07 32.73 36.22
  Q 32.90 36.42 32.69 36.60
  L 32.47 36.79
  A 0.31 0.30 -38.1 0 1 32.03 36.74
  Q 30.41 34.55 29.29 32.09
  Q 28.07 29.41 26.09 27.08
  Q 25.59 26.49 24.92 26.08
  Q 24.18 25.62 23.76 24.98
  Q 23.18 24.06 22.22 23.46
  Q 21.35 22.91 20.49 22.37
  Q 19.68 21.86 18.98 21.10
  Q 17.54 19.50 15.55 19.59
  L 9.73 15.29
  L 61.29 12.61
  Q 71.07 11.79 80.75 13.23
  Q 81.46 13.33 82.42 13.95
  Z"
/>
<path fill="#fc824f" d="
  M 61.29 12.61
  L 9.73 15.29
  Q 10.53 15.41 10.36 14.12
  C 12.24 14.04 13.99 13.39 15.72 13.32
  Q 38.49 12.43 61.29 12.61
  Z"
/>
<path fill="#e04a2a" d="
  M 82.42 13.95
  Q 82.86 14.15 83.29 14.18
  C 83.85 17.53 80.54 17.00 79.08 18.68
  Q 67.93 31.47 56.90 44.24
  A 1.50 1.48 -24.9 0 0 56.54 45.21
  Q 56.51 59.75 56.52 74.50
  Q 56.52 75.45 55.39 76.57
  Q 54.83 75.40 54.00 75.49
  Q 51.63 75.76 50.49 75.72
  Q 51.53 74.95 52.78 74.58
  Q 53.25 74.45 53.33 73.96
  Q 53.71 71.35 53.75 68.75
  Q 53.88 61.38 53.85 53.56
  Q 53.84 51.70 53.48 49.99
  Q 53.12 48.29 52.54 46.56
  A 2.24 2.22 -2.9 0 0 50.89 45.09
  Q 47.83 44.44 44.64 44.67
  Q 43.01 44.79 41.35 44.88
  Q 38.20 45.05 37.21 46.78
  Q 37.52 44.97 36.22 43.50
  Q 25.92 31.83 15.55 19.59
  Q 17.54 19.50 18.98 21.10
  Q 19.68 21.86 20.49 22.37
  Q 21.35 22.91 22.22 23.46
  Q 23.18 24.06 23.76 24.98
  Q 24.18 25.62 24.92 26.08
  Q 25.59 26.49 26.09 27.08
  Q 28.07 29.41 29.29 32.09
  Q 30.41 34.55 32.03 36.74
  A 0.31 0.30 -38.1 0 0 32.47 36.79
  L 32.69 36.60
  Q 32.90 36.42 32.73 36.22
  Q 30.90 34.07 31.41 31.48
  A 0.19 0.18 -71.2 0 1 31.67 31.35
  Q 32.01 31.50 32.24 31.21
  Q 32.40 31.00 32.43 30.72
  Q 32.50 30.20 32.78 29.74
  Q 33.05 29.29 33.58 29.34
  Q 34.07 29.38 34.27 28.92
  Q 34.46 28.51 34.40 28.09
  Q 33.87 24.30 34.74 20.59
  A 0.68 0.66 -0.1 0 1 35.26 20.08
  Q 36.09 19.92 36.59 19.28
  Q 36.90 18.89 37.37 18.75
  Q 39.20 18.19 41.06 18.36
  Q 41.51 18.40 41.85 18.11
  Q 42.24 17.78 42.75 17.82
  Q 45.29 18.02 47.68 17.73
  C 49.74 17.48 51.25 18.23 53.21 18.31
  Q 54.36 18.37 55.37 19.16
  Q 57.34 20.71 57.33 23.16
  Q 57.33 26.12 56.63 29.83
  Q 56.49 30.58 56.91 31.21
  Q 57.04 31.40 56.92 31.60
  Q 55.98 33.18 56.11 34.79
  A 1.33 1.30 -71.6 0 0 56.54 35.67
  Q 57.90 36.93 58.78 38.47
  Q 59.10 39.02 59.52 38.55
  Q 61.22 36.71 62.73 34.53
  Q 63.46 33.47 64.57 32.76
  Q 65.60 32.11 66.39 31.07
  Q 67.90 29.11 69.75 27.18
  A 1.00 1.00 0.0 0 0 70.02 26.61
  Q 70.08 26.17 70.37 25.87
  Q 75.26 20.87 80.19 16.51
  Q 81.07 15.73 82.07 15.21
  Q 82.54 14.97 82.48 14.45
  L 82.42 13.95
  Z"
/>
<path fill="#f46d43" d="
  M 50.49 75.72
  L 46.19 77.76
  Q 50.00 75.33 50.14 71.75
  Q 50.43 64.62 48.61 57.15
  Q 48.24 55.68 47.56 54.34
  Q 46.93 53.11 45.27 52.65
  Q 43.99 52.31 42.66 52.20
  A 0.49 0.48 88.6 0 0 42.14 52.75
  Q 42.24 53.46 41.54 53.75
  Q 41.09 53.94 40.78 54.32
  L 39.57 55.83
  Q 39.46 55.97 39.44 55.97
  Q 39.24 56.01 39.21 55.87
  Q 39.08 55.36 39.14 55.89
  Q 39.23 56.82 38.76 57.59
  Q 38.48 58.04 38.42 58.56
  Q 37.92 62.89 37.85 67.66
  C 37.82 69.43 37.29 70.92 37.36 72.75
  Q 37.45 75.21 37.36 83.54
  L 37.21 46.78
  Q 38.20 45.05 41.35 44.88
  Q 43.01 44.79 44.64 44.67
  Q 47.83 44.44 50.89 45.09
  A 2.24 2.22 -2.9 0 1 52.54 46.56
  Q 53.12 48.29 53.48 49.99
  Q 53.84 51.70 53.85 53.56
  Q 53.88 61.38 53.75 68.75
  Q 53.71 71.35 53.33 73.96
  Q 53.25 74.45 52.78 74.58
  Q 51.53 74.95 50.49 75.72
  Z"
/>
<path fill="#fc824f" d="
  M 46.19 77.76
  Q 41.15 80.57 37.35 84.43
  Q 37.10 84.09 37.36 83.54
  Q 37.45 75.21 37.36 72.75
  C 37.29 70.92 37.82 69.43 37.85 67.66
  Q 37.92 62.89 38.42 58.56
  Q 38.48 58.04 38.76 57.59
  Q 39.23 56.82 39.14 55.89
  Q 39.08 55.36 39.21 55.87
  Q 39.24 56.01 39.44 55.97
  Q 39.46 55.97 39.57 55.83
  L 40.78 54.32
  Q 41.09 53.94 41.54 53.75
  Q 42.24 53.46 42.14 52.75
  A 0.49 0.48 88.6 0 1 42.66 52.20
  Q 43.99 52.31 45.27 52.65
  Q 46.93 53.11 47.56 54.34
  Q 48.24 55.68 48.61 57.15
  Q 50.43 64.62 50.14 71.75
  Q 50.00 75.33 46.19 77.76
  Z"
/>
<path fill="#d94225" d="
  M 55.39 76.57
  Q 48.27 82.63 39.24 84.93
  Q 37.59 85.35 37.35 84.43
  Q 41.15 80.57 46.19 77.76
  L 50.49 75.72
  Q 51.63 75.76 54.00 75.49
  Q 54.83 75.40 55.39 76.57
  Z"
/>
</svg>
