<?xml version="1.0" encoding="UTF-8"?>
<svg version="1.1" xmlns="http://www.w3.org/2000/svg" width="64" height="64">
<path d="M0 0 C2.375 1 2.375 1 3.94921875 2.5546875 C7.68845871 4.78257604 11.30283362 4.27892353 15.5625 4.125 C18.5027476 4.04756513 21.43303244 4.00590164 24.375 4 C26.66097799 6.28597799 25.62374594 13.01429335 25.62890625 16.29882812 C25.7008226 18.63232431 25.81720492 20.73150337 26.375 23 C28.77991892 25.39100386 28.77991892 25.39100386 31.375 27 C31.6875 30.25 31.6875 30.25 31.375 33 C27.91 33.495 27.91 33.495 24.375 34 C24.38023682 34.81267334 24.38547363 35.62534668 24.39086914 36.46264648 C24.41156994 40.12092322 24.42463803 43.77918767 24.4375 47.4375 C24.44587891 48.71689453 24.45425781 49.99628906 24.46289062 51.31445312 C24.46611328 52.52939453 24.46933594 53.74433594 24.47265625 54.99609375 C24.47789307 56.12200928 24.48312988 57.2479248 24.48852539 58.40795898 C24.375 61 24.375 61 23.375 62 C21.97151265 62.09860131 20.56319523 62.13078937 19.15625 62.1328125 C17.88201172 62.13474609 17.88201172 62.13474609 16.58203125 62.13671875 C15.24205078 62.13091797 15.24205078 62.13091797 13.875 62.125 C12.98167969 62.12886719 12.08835938 62.13273437 11.16796875 62.13671875 C10.31847656 62.13542969 9.46898437 62.13414063 8.59375 62.1328125 C7.80935547 62.13168457 7.02496094 62.13055664 6.21679688 62.12939453 C4.375 62 4.375 62 3.375 61 C3.30174832 58.13732433 3.28261795 55.299281 3.3125 52.4375 C3.31701172 51.63119141 3.32152344 50.82488281 3.32617188 49.99414062 C3.33799482 47.99606244 3.35593086 45.99802217 3.375 44 C0.735 44 -1.905 44 -4.625 44 C-4.61339844 45.21558594 -4.60179688 46.43117187 -4.58984375 47.68359375 C-4.58046722 49.26822764 -4.57136687 50.85286318 -4.5625 52.4375 C-4.55412109 53.23994141 -4.54574219 54.04238281 -4.53710938 54.86914062 C-4.5284857 56.91295221 -4.5727185 58.95683902 -4.625 61 C-6.18106751 62.55606751 -7.68457371 62.12970769 -9.84375 62.1328125 C-11.11798828 62.13474609 -11.11798828 62.13474609 -12.41796875 62.13671875 C-13.75794922 62.13091797 -13.75794922 62.13091797 -15.125 62.125 C-16.01832031 62.12886719 -16.91164063 62.13273437 -17.83203125 62.13671875 C-18.68152344 62.13542969 -19.53101563 62.13414063 -20.40625 62.1328125 C-21.19064453 62.13168457 -21.97503906 62.13055664 -22.78320312 62.12939453 C-24.625 62 -24.625 62 -25.625 61 C-25.71258003 59.00035018 -25.73196576 56.9976389 -25.72265625 54.99609375 C-25.71943359 53.78115234 -25.71621094 52.56621094 -25.71289062 51.31445312 C-25.70451172 50.03505859 -25.69613281 48.75566406 -25.6875 47.4375 C-25.68298828 46.15423828 -25.67847656 44.87097656 -25.67382812 43.54882812 C-25.66199545 40.36583978 -25.64551068 37.18294238 -25.625 34 C-27.935 33.67 -30.245 33.34 -32.625 33 C-32.953125 30.32421875 -32.953125 30.32421875 -32.625 27 C-30.421875 24.39453125 -30.421875 24.39453125 -27.375 21.8125 C-26.27297748 20.85860412 -25.17142876 19.90416062 -24.0703125 18.94921875 C-23.21614746 18.2229126 -23.21614746 18.2229126 -22.34472656 17.48193359 C-19.58111085 15.10045327 -16.92145847 12.60874127 -14.25 10.125 C-3.27873134 0 -3.27873134 0 0 0 Z M-7.625 11.4375 C-8.79627768 12.53839627 -9.96815968 13.63864992 -11.140625 14.73828125 C-11.72521484 15.28822754 -12.30980469 15.83817383 -12.91210938 16.40478516 C-16.14966472 19.41992008 -19.47684 22.33403975 -22.796875 25.2578125 C-24.70656151 26.88065268 -24.70656151 26.88065268 -25.625 29 C-24.305 29.33 -22.985 29.66 -21.625 30 C-21.295 38.91 -20.965 47.82 -20.625 57 C-16.995 57 -13.365 57 -9.625 57 C-9.295 51.39 -8.965 45.78 -8.625 40 C-3.345 40 1.935 40 7.375 40 C7.87 48.415 7.87 48.415 8.375 57 C12.005 57 15.635 57 19.375 57 C19.705 48.09 20.035 39.18 20.375 30 C21.695 29.34 23.015 28.68 24.375 28 C23.89417969 27.67386719 23.41335937 27.34773438 22.91796875 27.01171875 C20.55127334 23.92602726 20.80200473 20.55844033 20.6875 16.8125 C20.65333984 16.06291016 20.61917969 15.31332031 20.58398438 14.54101562 C20.50165706 12.69453162 20.43664719 10.84729006 20.375 9 C17.735 9 15.095 9 12.375 9 C12.045 10.32 11.715 11.64 11.375 13 C7.98936672 12.41086998 6.24734858 11.26432478 3.75 8.9375 C-1.36557633 4.19051323 -3.15372 7.17968592 -7.625 11.4375 Z " fill="#FFFFFF" transform="translate(32.625,1)"/>
</svg>
