<?xml version="1.0" encoding="UTF-8"?>
<svg version="1.1" xmlns="http://www.w3.org/2000/svg" width="64" height="64">
<path d="M0 0 C2.20838731 0.00850782 4.41418243 -0.02027097 6.62231445 -0.05200195 C8.03832931 -0.05361442 9.4543487 -0.05303556 10.87036133 -0.05004883 C12.1477417 -0.05190186 13.42512207 -0.05375488 14.74121094 -0.05566406 C19.8950993 0.67491748 22.88623712 2.71429296 26.12841797 6.74121094 C28.33519319 11.92215239 27.75921853 17.61831597 27.7265625 23.16552734 C27.71805468 25.37391465 27.74683347 27.57970978 27.77856445 29.7878418 C27.78017692 31.20385665 27.77959806 32.61987605 27.77661133 34.03588867 C27.77939087 35.95195923 27.77939087 35.95195923 27.78222656 37.90673828 C27.05164502 43.06062664 25.01226954 46.05176447 20.98535156 49.29394531 C15.80441011 51.50072054 10.10824653 50.92474587 4.56103516 50.89208984 C2.35264785 50.88358202 0.14685272 50.91236081 -2.0612793 50.9440918 C-3.47729415 50.94570426 -4.89331355 50.94512541 -6.30932617 50.94213867 C-8.22539673 50.94491821 -8.22539673 50.94491821 -10.18017578 50.94775391 C-15.33406414 50.21717237 -18.32520197 48.17779688 -21.56738281 44.15087891 C-23.77415804 38.96993746 -23.19818337 33.27377387 -23.16552734 27.7265625 C-23.15701952 25.51817519 -23.18579831 23.31238007 -23.2175293 21.10424805 C-23.21914176 19.68823319 -23.21856291 18.2722138 -23.21557617 16.85620117 C-23.2174292 15.5788208 -23.21928223 14.30144043 -23.22119141 12.98535156 C-22.49060987 7.8314632 -20.45123438 4.84032538 -16.42431641 1.59814453 C-11.24337496 -0.60863069 -5.54721137 -0.03265603 0 0 Z M-18.71948242 9.44604492 C-19.48411351 12.92731628 -19.48411351 12.92731628 -19.38354492 16.75854492 C-19.38832855 17.44988525 -19.39311218 18.14122559 -19.39804077 18.85351562 C-19.40142978 20.30918668 -19.39229692 21.76493488 -19.37133789 23.22045898 C-19.34454788 25.44061989 -19.37110889 27.65572753 -19.40307617 29.87573242 C-19.39977188 31.29501434 -19.39336523 32.71429313 -19.38354492 34.13354492 C-19.37790527 35.41616211 -19.37226563 36.6987793 -19.36645508 38.02026367 C-18.53795963 42.40722525 -17.33461089 43.86138851 -13.71948242 46.44604492 C-10.23821106 47.21067601 -10.23821106 47.21067601 -6.40698242 47.11010742 C-5.36997192 47.11728287 -5.36997192 47.11728287 -4.31201172 47.12460327 C-2.85634066 47.12799228 -1.40059247 47.11885942 0.05493164 47.09790039 C2.27509255 47.07111038 4.49020019 47.09767139 6.71020508 47.12963867 C8.129487 47.12633438 9.54876579 47.11992773 10.96801758 47.11010742 C12.25063477 47.10446777 13.53325195 47.09882812 14.85473633 47.09301758 C19.24169791 46.26452213 20.69586117 45.06117339 23.28051758 41.44604492 C24.04514867 37.96477356 24.04514867 37.96477356 23.94458008 34.13354492 C23.94936371 33.44220459 23.95414734 32.75086426 23.95907593 32.03857422 C23.96246494 30.58290316 23.95333208 29.12715497 23.93237305 27.67163086 C23.90558304 25.45146995 23.93214404 23.23636231 23.96411133 21.01635742 C23.96080704 19.5970755 23.95440039 18.17779671 23.94458008 16.75854492 C23.93894043 15.47592773 23.93330078 14.19331055 23.92749023 12.87182617 C23.09899478 8.48486459 21.89564604 7.03070133 18.28051758 4.44604492 C14.79924622 3.68141383 14.79924622 3.68141383 10.96801758 3.78198242 C10.27667725 3.77719879 9.58533691 3.77241516 8.87304688 3.76748657 C7.41737582 3.76409756 5.96162762 3.77323042 4.50610352 3.79418945 C2.28594261 3.82097946 0.07083497 3.79441846 -2.14916992 3.76245117 C-3.56845184 3.76575546 -4.98773063 3.77216211 -6.40698242 3.78198242 C-7.68959961 3.78762207 -8.9722168 3.79326172 -10.29370117 3.79907227 C-14.68066275 4.62756772 -16.13482601 5.83091646 -18.71948242 9.44604492 Z " fill="#FFFFFF" transform="translate(29.719482421875,6.553955078125)"/>
<path d="M0 0 C3.10354599 2.06903066 4.5785371 3.54595298 5.625 7.15625 C6.23078035 10.94237718 6.29559935 13.3201215 4.75 16.875 C0.23655676 22.35560965 0.23655676 22.35560965 -4.375 22.875 C-9.39659102 23.28259667 -11.7938619 21.86757235 -15.578125 18.6640625 C-18.16907936 15.63179174 -18.122487 11.86514521 -18 8 C-16.5797027 4.73331621 -14.73781644 2.2815137 -12 0 C-7.79914354 -1.40028549 -4.2744815 -1.06487083 0 0 Z M-14 8 C-14.83333333 11 -14.83333333 11 -14 14 C-11.54405875 17.32274404 -10.0743356 18.77618008 -6 19.625 C-1.9256644 18.77618008 -0.45594125 17.32274404 2 14 C2.83333333 11 2.83333333 11 2 8 C-0.45594125 4.67725596 -1.9256644 3.22381992 -6 2.375 C-10.0743356 3.22381992 -11.54405875 4.67725596 -14 8 Z " fill="#FFFFFF" transform="translate(38,21)"/>
<path d="M0 0 C0.99 0.33 1.98 0.66 3 1 C3 1.99 3 2.98 3 4 C2.01 4 1.02 4 0 4 C0 2.68 0 1.36 0 0 Z " fill="#FFFFFF" transform="translate(45,16)"/>
</svg>
