<?xml version="1.0" encoding="UTF-8" standalone="no"?>
<!DOCTYPE svg PUBLIC "-//W3C//DTD SVG 1.1//EN" "http://www.w3.org/Graphics/SVG/1.1/DTD/svg11.dtd">
<svg xmlns="http://www.w3.org/2000/svg" version="1.1" viewBox="0.00 0.00 480.00 480.00">
<g stroke-width="2.00" fill="none" stroke-linecap="butt">
<path stroke="#806b01" vector-effect="non-scaling-stroke" d="
  M 249.10 354.46
  Q 253.21 344.10 253.24 334.10
  Q 253.37 276.19 253.28 220.54
  Q 253.28 220.00 252.74 220.00
  L 220.52 220.00
  A 0.53 0.52 -0.0 0 0 219.99 220.52
  Q 220.02 273.47 219.98 326.89
  C 219.98 335.81 217.73 344.79 207.23 346.07
  C 194.90 347.57 185.80 341.29 179.84 330.77
  A 0.55 0.55 0.0 0 0 179.07 330.57
  L 153.64 346.13
  A 0.45 0.45 0.0 0 0 153.47 346.70
  Q 160.02 359.77 171.37 368.37
  Q 190.57 382.90 215.50 379.24
  C 230.80 376.99 243.37 368.90 249.10 354.46"
/>
<path stroke="#806b01" vector-effect="non-scaling-stroke" d="
  M 328.25 316.11
  C 337.93 320.21 347.89 325.81 345.88 338.38
  C 344.81 345.05 339.38 349.38 333.04 350.69
  C 314.30 354.53 304.47 344.30 295.60 329.82
  A 0.41 0.40 57.5 0 0 295.04 329.69
  L 270.32 346.11
  A 0.42 0.40 59.6 0 0 270.19 346.64
  C 279.90 365.52 295.88 376.91 316.50 379.38
  C 339.67 382.16 367.48 375.75 376.93 352.01
  C 380.38 343.34 380.75 332.99 378.88 323.90
  Q 375.72 308.50 362.42 298.61
  C 350.10 289.45 335.45 284.23 321.89 278.02
  Q 316.69 275.63 313.26 272.27
  C 306.87 266.01 307.90 254.50 316.14 250.09
  Q 321.75 247.09 329.53 248.52
  C 336.70 249.84 341.19 254.78 345.03 261.22
  Q 345.38 261.81 345.96 261.44
  L 370.20 245.95
  A 0.35 0.34 59.9 0 0 370.32 245.49
  Q 358.09 223.60 334.21 220.61
  C 318.61 218.65 302.05 221.37 290.48 231.96
  Q 278.56 242.87 277.49 259.37
  C 275.99 282.55 288.07 297.72 308.22 307.19
  Q 317.51 311.56 328.25 316.11"
/>
</g>
<path fill="#ffd600" d="
  M 420.00 419.58
  A 0.42 0.42 0.0 0 1 419.58 420.00
  L 60.42 420.00
  A 0.42 0.42 0.0 0 1 60.00 419.58
  L 60.00 60.42
  A 0.42 0.42 0.0 0 1 60.42 60.00
  L 419.58 60.00
  A 0.42 0.42 0.0 0 1 420.00 60.42
  L 420.00 419.58
  Z
  M 249.10 354.46
  Q 253.21 344.10 253.24 334.10
  Q 253.37 276.19 253.28 220.54
  Q 253.28 220.00 252.74 220.00
  L 220.52 220.00
  A 0.53 0.52 -0.0 0 0 219.99 220.52
  Q 220.02 273.47 219.98 326.89
  C 219.98 335.81 217.73 344.79 207.23 346.07
  C 194.90 347.57 185.80 341.29 179.84 330.77
  A 0.55 0.55 0.0 0 0 179.07 330.57
  L 153.64 346.13
  A 0.45 0.45 0.0 0 0 153.47 346.70
  Q 160.02 359.77 171.37 368.37
  Q 190.57 382.90 215.50 379.24
  C 230.80 376.99 243.37 368.90 249.10 354.46
  Z
  M 328.25 316.11
  C 337.93 320.21 347.89 325.81 345.88 338.38
  C 344.81 345.05 339.38 349.38 333.04 350.69
  C 314.30 354.53 304.47 344.30 295.60 329.82
  A 0.41 0.40 57.5 0 0 295.04 329.69
  L 270.32 346.11
  A 0.42 0.40 59.6 0 0 270.19 346.64
  C 279.90 365.52 295.88 376.91 316.50 379.38
  C 339.67 382.16 367.48 375.75 376.93 352.01
  C 380.38 343.34 380.75 332.99 378.88 323.90
  Q 375.72 308.50 362.42 298.61
  C 350.10 289.45 335.45 284.23 321.89 278.02
  Q 316.69 275.63 313.26 272.27
  C 306.87 266.01 307.90 254.50 316.14 250.09
  Q 321.75 247.09 329.53 248.52
  C 336.70 249.84 341.19 254.78 345.03 261.22
  Q 345.38 261.81 345.96 261.44
  L 370.20 245.95
  A 0.35 0.34 59.9 0 0 370.32 245.49
  Q 358.09 223.60 334.21 220.61
  C 318.61 218.65 302.05 221.37 290.48 231.96
  Q 278.56 242.87 277.49 259.37
  C 275.99 282.55 288.07 297.72 308.22 307.19
  Q 317.51 311.56 328.25 316.11
  Z"
/>
<path fill="#000001" d="
  M 249.10 354.46
  C 243.37 368.90 230.80 376.99 215.50 379.24
  Q 190.57 382.90 171.37 368.37
  Q 160.02 359.77 153.47 346.70
  A 0.45 0.45 0.0 0 1 153.64 346.13
  L 179.07 330.57
  A 0.55 0.55 0.0 0 1 179.84 330.77
  C 185.80 341.29 194.90 347.57 207.23 346.07
  C 217.73 344.79 219.98 335.81 219.98 326.89
  Q 220.02 273.47 219.99 220.52
  A 0.53 0.52 -0.0 0 1 220.52 220.00
  L 252.74 220.00
  Q 253.28 220.00 253.28 220.54
  Q 253.37 276.19 253.24 334.10
  Q 253.21 344.10 249.10 354.46
  Z"
/>
<path fill="#000001" d="
  M 345.88 338.38
  C 347.89 325.81 337.93 320.21 328.25 316.11
  Q 317.51 311.56 308.22 307.19
  C 288.07 297.72 275.99 282.55 277.49 259.37
  Q 278.56 242.87 290.48 231.96
  C 302.05 221.37 318.61 218.65 334.21 220.61
  Q 358.09 223.60 370.32 245.49
  A 0.35 0.34 59.9 0 1 370.20 245.95
  L 345.96 261.44
  Q 345.38 261.81 345.03 261.22
  C 341.19 254.78 336.70 249.84 329.53 248.52
  Q 321.75 247.09 316.14 250.09
  C 307.90 254.50 306.87 266.01 313.26 272.27
  Q 316.69 275.63 321.89 278.02
  C 335.45 284.23 350.10 289.45 362.42 298.61
  Q 375.72 308.50 378.88 323.90
  C 380.75 332.99 380.38 343.34 376.93 352.01
  C 367.48 375.75 339.67 382.16 316.50 379.38
  C 295.88 376.91 279.90 365.52 270.19 346.64
  A 0.42 0.40 59.6 0 1 270.32 346.11
  L 295.04 329.69
  A 0.41 0.40 57.5 0 1 295.60 329.82
  C 304.47 344.30 314.30 354.53 333.04 350.69
  C 339.38 349.38 344.81 345.05 345.88 338.38
  Z"
/>
</svg>
