<?xml version="1.0" encoding="UTF-8" standalone="no"?>
<!DOCTYPE svg PUBLIC "-//W3C//DTD SVG 1.1//EN" "http://www.w3.org/Graphics/SVG/1.1/DTD/svg11.dtd">
<svg xmlns="http://www.w3.org/2000/svg" version="1.1" viewBox="0.00 0.00 94.00 94.00">
<g stroke-width="2.00" fill="none" stroke-linecap="butt">
<path stroke="#14b5ee" vector-effect="non-scaling-stroke" d="
  M 76.03 45.49
  Q 75.86 45.66 75.60 45.65
  Q 75.41 45.65 75.19 45.48
  Q 71.99 42.91 69.28 39.95"
/>
<path stroke="#14c1f5" vector-effect="non-scaling-stroke" d="
  M 69.28 39.95
  L 61.08 31.90"
/>
<path stroke="#14d0fc" vector-effect="non-scaling-stroke" d="
  M 61.08 31.90
  Q 55.58 26.40 50.26 20.88
  Q 49.31 19.90 48.23 19.15
  Q 47.12 18.39 45.99 17.64
  A 1.26 1.25 31.0 0 0 44.21 18.08
  Q 44.01 18.45 43.53 18.47
  A 0.96 0.95 -64.9 0 0 43.04 18.65
  L 32.26 26.65"
/>
<path stroke="#14b5ee" vector-effect="non-scaling-stroke" d="
  M 32.26 26.65
  L 23.81 19.15"
/>
<path stroke="#156bc0" vector-effect="non-scaling-stroke" d="
  M 76.23 45.96
  C 74.54 48.27 72.92 50.41 70.89 52.42
  Q 55.98 67.22 40.58 82.60
  Q 38.91 84.27 36.88 85.78
  A 2.91 2.90 50.9 0 1 32.97 85.37
  Q 29.37 81.30 24.43 78.37"
/>
<path stroke="#14b5ee" vector-effect="non-scaling-stroke" d="
  M 23.66 74.46
  Q 24.35 74.82 25.00 74.44"
/>
<path stroke="#11b2f2" vector-effect="non-scaling-stroke" d="
  M 61.08 31.90
  Q 59.04 30.85 56.98 31.15
  Q 56.43 31.23 56.12 31.68
  Q 54.18 34.41 51.59 36.12
  Q 50.52 36.83 49.64 37.83
  A 2.94 2.70 -81.2 0 1 48.94 38.39
  Q 47.38 39.27 47.02 41.30"
/>
<path stroke="#11a6ec" vector-effect="non-scaling-stroke" d="
  M 47.02 41.30
  L 32.26 26.65"
/>
<path stroke="#1097e5" vector-effect="non-scaling-stroke" d="
  M 47.02 41.30
  Q 49.16 43.22 49.21 45.42"
/>
<path stroke="#1097e5" vector-effect="non-scaling-stroke" d="
  M 69.28 39.95
  L 66.04 38.15
  Q 65.66 37.94 65.26 38.11
  Q 62.82 39.12 61.51 41.76
  Q 61.38 42.03 61.07 42.07
  Q 60.57 42.12 60.23 42.49
  Q 55.70 47.37 51.02 51.81
  C 49.91 52.86 47.96 53.36 47.84 55.09
  Q 47.81 55.61 47.29 55.71
  Q 45.73 56.00 44.94 57.27
  A 1.17 1.14 -76.6 0 1 44.09 57.81
  Q 43.55 57.87 43.47 58.39
  Q 43.40 58.83 43.07 59.14
  L 39.02 62.83
  Q 38.70 63.12 38.30 63.26
  Q 37.45 63.56 37.12 64.41
  Q 36.99 64.73 36.65 64.79
  Q 35.07 65.10 34.26 66.69
  Q 34.08 67.06 33.70 67.21
  Q 33.33 67.36 33.05 67.65
  L 26.71 74.08
  Q 26.32 74.48 25.76 74.46
  L 25.00 74.44"
/>
<path stroke="#14c1f5" vector-effect="non-scaling-stroke" d="
  M 25.00 74.44
  Q 25.55 73.55 25.81 73.30
  Q 37.35 62.15 48.64 50.77
  Q 49.15 50.26 49.38 49.74
  Q 49.91 48.55 49.29 48.43"
/>
</g>
<path fill="#17dffe" d="
  M 76.03 45.49
  Q 75.86 45.66 75.60 45.65
  Q 75.41 45.65 75.19 45.48
  Q 71.99 42.91 69.28 39.95
  L 61.08 31.90
  Q 55.58 26.40 50.26 20.88
  Q 49.31 19.90 48.23 19.15
  Q 47.12 18.39 45.99 17.64
  A 1.26 1.25 31.0 0 0 44.21 18.08
  Q 44.01 18.45 43.53 18.47
  A 0.96 0.95 -64.9 0 0 43.04 18.65
  L 32.26 26.65
  L 23.81 19.15
  Q 22.92 18.30 23.55 16.65
  Q 23.96 15.56 24.78 14.74
  Q 28.08 11.41 31.71 7.80
  Q 35.34 4.20 38.95 7.80
  Q 56.48 25.33 74.99 43.75
  Q 75.58 44.34 76.03 45.49
  Z"
/>
<path fill="#11c1f9" d="
  M 61.08 31.90
  Q 59.04 30.85 56.98 31.15
  Q 56.43 31.23 56.12 31.68
  Q 54.18 34.41 51.59 36.12
  Q 50.52 36.83 49.64 37.83
  A 2.94 2.70 -81.2 0 1 48.94 38.39
  Q 47.38 39.27 47.02 41.30
  L 32.26 26.65
  L 43.04 18.65
  A 0.96 0.95 -64.9 0 1 43.53 18.47
  Q 44.01 18.45 44.21 18.08
  A 1.26 1.25 31.0 0 1 45.99 17.64
  Q 47.12 18.39 48.23 19.15
  Q 49.31 19.90 50.26 20.88
  Q 55.58 26.40 61.08 31.90
  Z"
/>
<path fill="#108ade" d="
  M 23.81 19.15
  L 32.26 26.65
  L 47.02 41.30
  Q 49.16 43.22 49.21 45.42
  Q 37.16 33.26 24.77 21.23
  Q 23.90 20.38 23.81 19.15
  Z"
/>
<path fill="#10a3eb" d="
  M 61.08 31.90
  L 69.28 39.95
  L 66.04 38.15
  Q 65.66 37.94 65.26 38.11
  Q 62.82 39.12 61.51 41.76
  Q 61.38 42.03 61.07 42.07
  Q 60.57 42.12 60.23 42.49
  Q 55.70 47.37 51.02 51.81
  C 49.91 52.86 47.96 53.36 47.84 55.09
  Q 47.81 55.61 47.29 55.71
  Q 45.73 56.00 44.94 57.27
  A 1.17 1.14 -76.6 0 1 44.09 57.81
  Q 43.55 57.87 43.47 58.39
  Q 43.40 58.83 43.07 59.14
  L 39.02 62.83
  Q 38.70 63.12 38.30 63.26
  Q 37.45 63.56 37.12 64.41
  Q 36.99 64.73 36.65 64.79
  Q 35.07 65.10 34.26 66.69
  Q 34.08 67.06 33.70 67.21
  Q 33.33 67.36 33.05 67.65
  L 26.71 74.08
  Q 26.32 74.48 25.76 74.46
  L 25.00 74.44
  Q 25.55 73.55 25.81 73.30
  Q 37.35 62.15 48.64 50.77
  Q 49.15 50.26 49.38 49.74
  Q 49.91 48.55 49.29 48.43
  Q 48.92 47.06 49.21 45.42
  Q 49.16 43.22 47.02 41.30
  Q 47.38 39.27 48.94 38.39
  A 2.94 2.70 -81.2 0 0 49.64 37.83
  Q 50.52 36.83 51.59 36.12
  Q 54.18 34.41 56.12 31.68
  Q 56.43 31.23 56.98 31.15
  Q 59.04 30.85 61.08 31.90
  Z"
/>
<path fill="#108ade" d="
  M 69.28 39.95
  Q 71.99 42.91 75.19 45.48
  Q 75.41 45.65 75.60 45.65
  Q 75.86 45.66 76.03 45.49
  Q 76.32 45.56 76.23 45.96
  C 74.54 48.27 72.92 50.41 70.89 52.42
  Q 55.98 67.22 40.58 82.60
  Q 38.91 84.27 36.88 85.78
  A 2.91 2.90 50.9 0 1 32.97 85.37
  Q 29.37 81.30 24.43 78.37
  Q 22.72 77.52 23.66 74.46
  Q 24.35 74.82 25.00 74.44
  L 25.76 74.46
  Q 26.32 74.48 26.71 74.08
  L 33.05 67.65
  Q 33.33 67.36 33.70 67.21
  Q 34.08 67.06 34.26 66.69
  Q 35.07 65.10 36.65 64.79
  Q 36.99 64.73 37.12 64.41
  Q 37.45 63.56 38.30 63.26
  Q 38.70 63.12 39.02 62.83
  L 43.07 59.14
  Q 43.40 58.83 43.47 58.39
  Q 43.55 57.87 44.09 57.81
  A 1.17 1.14 -76.6 0 0 44.94 57.27
  Q 45.73 56.00 47.29 55.71
  Q 47.81 55.61 47.84 55.09
  C 47.96 53.36 49.91 52.86 51.02 51.81
  Q 55.70 47.37 60.23 42.49
  Q 60.57 42.12 61.07 42.07
  Q 61.38 42.03 61.51 41.76
  Q 62.82 39.12 65.26 38.11
  Q 65.66 37.94 66.04 38.15
  L 69.28 39.95
  Z"
/>
<path fill="#194ca1" d="
  M 76.23 45.96
  Q 76.98 48.23 75.36 49.85
  Q 57.38 67.86 39.34 85.81
  C 37.19 87.95 35.16 88.99 32.61 86.88
  Q 28.23 83.27 24.43 78.37
  Q 29.37 81.30 32.97 85.37
  A 2.91 2.90 50.9 0 0 36.88 85.78
  Q 38.91 84.27 40.58 82.60
  Q 55.98 67.22 70.89 52.42
  C 72.92 50.41 74.54 48.27 76.23 45.96
  Z"
/>
<path fill="#17dffe" d="
  M 49.29 48.43
  Q 49.91 48.55 49.38 49.74
  Q 49.15 50.26 48.64 50.77
  Q 37.35 62.15 25.81 73.30
  Q 25.55 73.55 25.00 74.44
  Q 24.35 74.82 23.66 74.46
  L 49.29 48.43
  Z"
/>
</svg>
