<?xml version="1.0" encoding="UTF-8"?>
<svg version="1.1" xmlns="http://www.w3.org/2000/svg" width="64" height="64">
<path d="M0 0 C1.73189575 -0.00945648 1.73189575 -0.00945648 3.4987793 -0.019104 C4.75086182 -0.01505554 6.00294434 -0.01100708 7.29296875 -0.00683594 C8.57276611 -0.00874939 9.85256348 -0.01066284 11.17114258 -0.01263428 C13.88139668 -0.01558475 16.59151902 -0.01129049 19.30175781 -0.00195312 C22.77896106 0.00944154 26.25585557 0.00288163 29.73304749 -0.00909805 C33.04471279 -0.01805519 36.35629466 -0.01178729 39.66796875 -0.00683594 C41.54609253 -0.01290863 41.54609253 -0.01290863 43.4621582 -0.019104 C44.61675537 -0.01279968 45.77135254 -0.00649536 46.9609375 0 C47.98082764 0.00159119 49.00071777 0.00318237 50.05151367 0.00482178 C52.48046875 0.25878906 52.48046875 0.25878906 54.48046875 2.25878906 C54.73443604 4.68774414 54.73443604 4.68774414 54.73925781 7.77832031 C54.74556213 8.93291748 54.75186646 10.08751465 54.75836182 11.27709961 C54.75431335 12.52918213 54.75026489 13.78126465 54.74609375 15.07128906 C54.74896393 16.99098511 54.74896393 16.99098511 54.75189209 18.94946289 C54.75484257 21.65971699 54.7505483 24.36983933 54.74121094 27.08007812 C54.72981628 30.55728137 54.73637618 34.03417589 54.74835587 37.5113678 C54.757313 40.82303311 54.7510451 44.13461497 54.74609375 47.44628906 C54.75014221 48.69837158 54.75419067 49.9504541 54.75836182 51.24047852 C54.7520575 52.39507568 54.74575317 53.54967285 54.73925781 54.73925781 C54.73766663 55.75914795 54.73607544 56.77903809 54.73443604 57.82983398 C54.48046875 60.25878906 54.48046875 60.25878906 52.48046875 62.25878906 C50.05151367 62.51275635 50.05151367 62.51275635 46.9609375 62.51757812 C45.22904175 62.52703461 45.22904175 62.52703461 43.4621582 62.53668213 C42.21007568 62.53263367 40.95799316 62.52858521 39.66796875 62.52441406 C38.38817139 62.52632751 37.10837402 62.52824097 35.78979492 62.5302124 C33.07954082 62.53316288 30.36941848 62.52886862 27.65917969 62.51953125 C24.18197644 62.50813659 20.70508193 62.51469649 17.22789001 62.52667618 C13.91622471 62.53563331 10.60464284 62.52936542 7.29296875 62.52441406 C5.41484497 62.53048676 5.41484497 62.53048676 3.4987793 62.53668213 C2.34418213 62.53037781 1.18958496 62.52407349 0 62.51757812 C-1.01989014 62.51598694 -2.03978027 62.51439575 -3.09057617 62.51275635 C-5.51953125 62.25878906 -5.51953125 62.25878906 -7.51953125 60.25878906 C-7.77349854 57.82983398 -7.77349854 57.82983398 -7.77832031 54.73925781 C-7.78462463 53.58466064 -7.79092896 52.43006348 -7.79742432 51.24047852 C-7.79337585 49.988396 -7.78932739 48.73631348 -7.78515625 47.44628906 C-7.7870697 46.1664917 -7.78898315 44.88669434 -7.79095459 43.56811523 C-7.79390507 40.85786113 -7.7896108 38.1477388 -7.78027344 35.4375 C-7.76887878 31.96029676 -7.77543868 28.48340224 -7.78741837 25.00621033 C-7.7963755 21.69454502 -7.7901076 18.38296315 -7.78515625 15.07128906 C-7.78920471 13.81920654 -7.79325317 12.56712402 -7.79742432 11.27709961 C-7.79112 10.12250244 -7.78481567 8.96790527 -7.77832031 7.77832031 C-7.77672913 6.75843018 -7.77513794 5.73854004 -7.77349854 4.68774414 C-7.2506936 -0.31238684 -4.27581854 0.00667094 0 0 Z M-4.31192017 3.46640015 C-5.92519407 5.86089147 -5.90014826 7.44644496 -5.90771484 10.32519531 C-5.91717133 11.35636475 -5.92662781 12.38753418 -5.93637085 13.44995117 C-5.93029816 14.56249268 -5.92422546 15.67503418 -5.91796875 16.82128906 C-5.92083893 17.96412354 -5.92370911 19.10695801 -5.92666626 20.28442383 C-5.92870882 22.70199071 -5.92316563 25.11957405 -5.91064453 27.53710938 C-5.89459446 31.24418991 -5.91048766 34.95018007 -5.9296875 38.65722656 C-5.9277051 41.00358314 -5.9238615 43.34993904 -5.91796875 45.69628906 C-5.92404144 46.80883057 -5.93011414 47.92137207 -5.93637085 49.06762695 C-5.92691437 50.09879639 -5.91745789 51.12996582 -5.90771484 52.19238281 C-5.90532806 53.10044678 -5.90294128 54.00851074 -5.90048218 54.9440918 C-5.67949423 57.2899693 -5.67949423 57.2899693 -4.31192017 59.05117798 C-1.91742884 60.66445188 -0.33187535 60.63940607 2.546875 60.64697266 C3.57804443 60.65642914 4.60921387 60.66588562 5.67163086 60.67562866 C7.34044312 60.66651962 7.34044312 60.66651962 9.04296875 60.65722656 C10.18580322 60.66009674 11.3286377 60.66296692 12.50610352 60.66592407 C14.9236704 60.66796663 17.34125374 60.66242344 19.75878906 60.64990234 C23.4658696 60.63385227 27.17185975 60.64974547 30.87890625 60.66894531 C33.22526283 60.66696292 35.57161873 60.66311932 37.91796875 60.65722656 C39.03051025 60.66329926 40.14305176 60.66937195 41.28930664 60.67562866 C42.32047607 60.66617218 43.35164551 60.6567157 44.4140625 60.64697266 C45.32212646 60.64458588 46.23019043 60.6421991 47.16577148 60.63973999 C49.51164898 60.41875204 49.51164898 60.41875204 51.27285767 59.05117798 C52.88613157 56.65668666 52.86108576 55.07113316 52.86865234 52.19238281 C52.87810883 51.16121338 52.88756531 50.13004395 52.89730835 49.06762695 C52.89123566 47.95508545 52.88516296 46.84254395 52.87890625 45.69628906 C52.88321152 43.98203735 52.88321152 43.98203735 52.88760376 42.2331543 C52.88964632 39.81558741 52.88410313 37.39800407 52.87158203 34.98046875 C52.85553196 31.27338822 52.87142516 27.56739806 52.890625 23.86035156 C52.8886426 21.51399498 52.884799 19.16763908 52.87890625 16.82128906 C52.88497894 15.70874756 52.89105164 14.59620605 52.89730835 13.44995117 C52.88785187 12.41878174 52.87839539 11.3876123 52.86865234 10.32519531 C52.86507217 8.96309937 52.86507217 8.96309937 52.86141968 7.57348633 C52.64043173 5.22760883 52.64043173 5.22760883 51.27285767 3.46640015 C48.87836634 1.85312624 47.29281285 1.87817205 44.4140625 1.87060547 C43.38289307 1.86114899 42.35172363 1.8516925 41.28930664 1.84194946 C39.62049438 1.8510585 39.62049438 1.8510585 37.91796875 1.86035156 C36.77513428 1.85748138 35.6322998 1.85461121 34.45483398 1.85165405 C32.0372671 1.84961149 29.61968376 1.85515468 27.20214844 1.86767578 C23.4950679 1.88372585 19.78907775 1.86783265 16.08203125 1.84863281 C13.73567467 1.85061521 11.38931877 1.85445881 9.04296875 1.86035156 C7.93042725 1.85427887 6.81788574 1.84820618 5.67163086 1.84194946 C4.12487671 1.85613419 4.12487671 1.85613419 2.546875 1.87060547 C1.63881104 1.87299225 0.73074707 1.87537903 -0.20483398 1.87783813 C-2.55071148 2.09882608 -2.55071148 2.09882608 -4.31192017 3.46640015 Z " fill="#FFFFFF" transform="translate(8.51953125,0.7412109375)"/>
<path d="M0 0 C2.73828125 1.75390625 2.73828125 1.75390625 5 5 C5.61728801 9.28604655 5.46976358 13.49380029 5.3125 17.8125 C5.28994141 18.98232422 5.26738281 20.15214844 5.24414062 21.35742188 C5.18532091 24.23958769 5.10317141 27.11913681 5 30 C1.7 30 -1.6 30 -5 30 C-5 23.07 -5 16.14 -5 9 C-6.65 9.33 -8.3 9.66 -10 10 C-10.98142381 14.24733832 -11.30920379 18.47324533 -11.5625 22.8125 C-11.60568359 23.50537109 -11.64886719 24.19824219 -11.69335938 24.91210938 C-11.79861453 26.60788686 -11.89972863 28.30392052 -12 30 C-15.63 30 -19.26 30 -23 30 C-23 20.1 -23 10.2 -23 0 C-19.04 0 -15.08 0 -11 0 C-7.22426023 -1.25857992 -3.74622187 -1.30363032 0 0 Z M-12 5 C-11.01 5.33 -10.02 5.66 -9 6 C-7.02 6.66 -5.04 7.32 -3 8 C-2.67 14.6 -2.34 21.2 -2 28 C-0.35 28 1.3 28 3 28 C3.05447822 25.47886908 3.09389852 22.9589415 3.125 20.4375 C3.14175781 19.73302734 3.15851562 19.02855469 3.17578125 18.30273438 C3.21961275 13.54701628 2.67172223 9.51878499 1 5 C-4.04246113 0.99188987 -6.81943119 1.63963104 -12 5 Z M-20 3 C-20 11.25 -20 19.5 -20 28 C-18.35 28 -16.7 28 -15 28 C-14.93941406 26.90300781 -14.87882812 25.80601563 -14.81640625 24.67578125 C-14.73195502 23.22134346 -14.64730934 21.76691695 -14.5625 20.3125 C-14.52318359 19.59126953 -14.48386719 18.87003906 -14.44335938 18.12695312 C-14.21814322 14.33292718 -13.87160695 10.71348508 -13 7 C-13.99 7 -14.98 7 -16 7 C-16 5.68 -16 4.36 -16 3 C-17.32 3 -18.64 3 -20 3 Z " fill="#FFFFFF" transform="translate(48,23)"/>
<path d="M0 0 C2.97 0 5.94 0 9 0 C10 1 10 1 10.11352539 3.77563477 C10.10828857 4.98533936 10.10305176 6.19504395 10.09765625 7.44140625 C10.09443359 8.74658203 10.09121094 10.05175781 10.08789062 11.39648438 C10.07953401 12.7851569 10.07106905 14.17382877 10.0625 15.5625 C10.05748666 16.95507656 10.05292347 18.34765481 10.04882812 19.74023438 C10.03699434 23.1601987 10.0205088 26.58007844 10 30 C6.7 30 3.4 30 0 30 C0 20.1 0 10.2 0 0 Z M2 3 C2 11.25 2 19.5 2 28 C3.65 28 5.3 28 7 28 C7 19.75 7 11.5 7 3 C5.35 3 3.7 3 2 3 Z " fill="#FFFFFF" transform="translate(11,23)"/>
<path d="M0 0 C1.175625 0.0825 2.35125 0.165 3.5625 0.25 C5.5625 3.25 5.5625 3.25 5.25 5.875 C4.5625 8.25 4.5625 8.25 3.5625 9.25 C0.0625 9.375 0.0625 9.375 -3.4375 9.25 C-4.4375 8.25 -4.4375 8.25 -4.5625 4.75 C-4.40429688 0.3203125 -4.40429688 0.3203125 0 0 Z M-1.4375 3.25 C-1.4375 4.24 -1.4375 5.23 -1.4375 6.25 C-0.1175 5.92 1.2025 5.59 2.5625 5.25 C2.2325 4.59 1.9025 3.93 1.5625 3.25 C0.5725 3.25 -0.4175 3.25 -1.4375 3.25 Z " fill="#FFFFFF" transform="translate(15.4375,10.75)"/>
</svg>
