<?xml version="1.0" encoding="UTF-8" standalone="no"?>
<!DOCTYPE svg PUBLIC "-//W3C//DTD SVG 1.1//EN" "http://www.w3.org/Graphics/SVG/1.1/DTD/svg11.dtd">
<svg xmlns="http://www.w3.org/2000/svg" version="1.1" viewBox="0.00 0.00 338.00 339.00">
<g stroke-width="2.00" fill="none" stroke-linecap="butt">
<path stroke="#c4cbe6" vector-effect="non-scaling-stroke" d="
  M 221.03 134.69
  L 187.63 226.41"
/>
<path stroke="#bdcde1" vector-effect="non-scaling-stroke" d="
  M 187.63 226.41
  L 169.54 277.24"
/>
<path stroke="#b7cedd" vector-effect="non-scaling-stroke" d="
  M 169.54 277.24
  Q 169.05 278.06 168.89 277.73
  Q 167.95 275.83 167.29 273.84
  Q 166.11 270.26 166.10 270.24
  Q 157.04 245.54 148.09 220.74"
/>
<path stroke="#b3cfd9" vector-effect="non-scaling-stroke" d="
  M 148.09 220.74
  L 124.85 157.01"
/>
<path stroke="#aed0d5" vector-effect="non-scaling-stroke" d="
  M 124.85 157.01
  L 106.57 106.75"
/>
<path stroke="#a7d2d0" vector-effect="non-scaling-stroke" d="
  M 106.57 106.75
  L 75.53 21.92
  Q 75.34 21.39 74.78 21.39
  L 65.35 21.31"
/>
<path stroke="#a0d4ca" vector-effect="non-scaling-stroke" d="
  M 65.35 21.31
  L 35.26 21.18
  A 0.61 0.60 79.6 0 0 34.70 22.00
  L 58.08 83.04"
/>
<path stroke="#a7d2d0" vector-effect="non-scaling-stroke" d="
  M 58.08 83.04
  L 101.50 198.56"
/>
<path stroke="#aed0d5" vector-effect="non-scaling-stroke" d="
  M 101.50 198.56
  L 125.67 263.08"
/>
<path stroke="#b3cfd9" vector-effect="non-scaling-stroke" d="
  M 125.67 263.08
  Q 135.84 290.17 145.97 317.25
  Q 146.56 318.82 149.22 318.60"
/>
<path stroke="#b7cedd" vector-effect="non-scaling-stroke" d="
  M 149.22 318.60
  L 174.02 318.65"
/>
<path stroke="#bdcde1" vector-effect="non-scaling-stroke" d="
  M 174.02 318.65
  L 188.91 318.54
  A 2.83 2.83 0.0 0 0 191.55 316.69
  L 196.06 304.51"
/>
<path stroke="#c4cbe6" vector-effect="non-scaling-stroke" d="
  M 196.06 304.51
  L 226.37 224.52"
/>
<path stroke="#cac9eb" vector-effect="non-scaling-stroke" d="
  M 226.37 224.52
  L 302.57 23.03
  A 1.22 1.22 0.0 0 0 301.75 21.42
  Q 300.03 20.95 298.38 20.88
  Q 280.10 20.12 264.70 21.09
  Q 262.59 21.22 261.86 23.18
  Q 258.19 33.04 254.33 43.52
  Q 237.57 89.07 221.03 134.69"
/>
<path stroke="#8f95d2" vector-effect="non-scaling-stroke" d="
  M 226.37 224.52
  Q 225.43 223.66 225.57 223.06
  Q 225.66 222.65 225.39 222.33
  L 224.36 221.10
  Q 224.07 220.77 224.08 220.33
  L 224.17 210.01
  A 1.92 1.92 0.0 0 1 225.29 208.28
  Q 225.83 208.03 226.16 207.59
  Q 226.39 207.28 226.38 206.89
  Q 226.36 203.42 226.35 200.16
  Q 226.35 199.95 226.15 200.01
  L 225.80 200.12
  Q 225.65 200.17 225.65 200.33
  L 225.63 207.20
  A 0.44 0.44 0.0 0 1 225.18 207.63
  L 224.88 207.63
  Q 224.38 207.63 224.38 207.13
  L 224.85 153.90
  Q 224.85 153.57 225.10 153.35
  Q 225.26 153.21 225.38 153.03
  Q 225.73 152.48 225.66 151.84
  Q 225.31 148.36 226.10 145.24
  Q 226.59 143.29 226.55 141.19
  Q 226.52 139.03 226.88 137.08
  Q 226.99 136.50 226.77 135.95
  Q 226.39 134.99 226.91 134.06
  Q 227.19 133.58 227.11 133.03
  Q 226.80 130.95 227.49 129.10
  Q 227.68 128.59 227.22 128.30
  Q 226.35 127.74 226.63 126.90
  Q 226.85 126.25 226.40 125.73
  L 225.76 124.99
  A 0.46 0.46 0.0 0 0 224.95 125.25
  L 224.82 127.01
  Q 224.78 127.57 224.23 127.70
  Q 223.52 127.87 223.64 128.61
  A 0.91 0.89 -31.1 0 1 223.46 129.30
  Q 222.57 130.40 222.93 131.87
  Q 223.04 132.32 222.67 132.59
  Q 221.66 133.34 221.57 134.80
  Q 221.54 135.25 221.31 134.86
  Q 221.21 134.68 221.03 134.69"
/>
<path stroke="#8298c8" vector-effect="non-scaling-stroke" d="
  M 196.06 304.51
  Q 195.66 303.76 195.25 303.65
  Q 194.70 303.51 194.64 304.07
  Q 194.54 305.06 193.65 305.64
  Q 193.13 305.98 193.45 305.46
  Q 193.75 304.96 193.17 304.94
  Q 192.56 304.91 192.61 304.30
  Q 192.69 303.19 193.33 302.34
  A 1.39 1.38 -27.6 0 0 193.60 301.49
  Q 193.59 299.78 194.84 298.89
  A 0.80 0.80 0.0 0 0 195.14 297.99
  Q 194.74 296.77 193.56 296.09
  Q 193.22 295.89 193.15 295.50
  Q 192.74 293.32 194.02 291.84
  Q 194.32 291.49 194.39 291.03
  Q 194.66 289.42 194.02 288.07
  Q 193.79 287.59 193.84 287.05
  L 194.51 278.99
  A 0.68 0.67 86.6 0 1 195.05 278.38
  Q 195.24 278.35 195.41 278.26
  Q 196.12 277.90 196.12 277.11
  L 196.12 272.86
  Q 196.12 272.37 195.72 272.08
  Q 195.25 271.74 194.77 271.97
  Q 194.22 272.24 194.17 271.64
  Q 193.68 265.67 194.75 260.97
  Q 194.85 260.55 194.67 260.15
  Q 193.91 258.45 194.72 256.70
  C 195.27 255.53 195.39 253.96 194.72 252.82
  Q 194.14 251.84 194.06 250.62
  Q 193.88 248.08 194.81 246.06
  Q 195.54 244.49 195.14 242.93
  A 1.02 1.01 -32.6 0 1 195.34 242.03
  Q 195.77 241.51 195.46 240.94
  Q 195.23 240.51 195.51 240.12
  Q 196.48 238.79 196.41 237.06
  Q 196.39 236.53 196.10 236.08
  C 195.42 235.01 196.27 234.15 196.10 233.03
  Q 196.02 232.50 196.40 232.10
  Q 197.54 230.91 197.28 229.23
  Q 197.22 228.87 196.90 228.34
  Q 196.70 228.01 196.34 227.91
  Q 195.75 227.75 195.77 227.14
  Q 195.83 225.34 195.39 223.47
  A 1.24 1.24 0.0 0 1 195.55 222.52
  Q 196.62 220.86 195.56 219.08
  Q 195.29 218.64 195.39 218.13
  Q 195.52 217.41 196.10 217.04
  Q 196.55 216.75 196.26 216.30
  Q 196.08 216.04 196.08 215.72
  Q 196.09 215.23 196.36 214.82
  Q 197.05 213.77 196.11 212.99
  Q 195.36 212.36 194.42 212.86
  Q 193.91 213.14 193.79 212.56
  Q 193.76 212.38 193.51 212.45
  Q 193.19 212.54 193.09 212.87
  Q 192.77 214.01 192.91 215.10
  Q 192.94 215.39 192.66 215.36
  Q 192.48 215.35 192.31 215.40
  Q 191.96 215.49 191.84 215.83
  L 189.45 223.10
  Q 189.30 223.55 188.94 223.85
  Q 188.45 224.27 188.63 224.96
  Q 188.76 225.51 188.38 225.92
  Q 188.07 226.26 187.63 226.41"
/>
<path stroke="#759bbe" vector-effect="non-scaling-stroke" d="
  M 174.02 318.65
  Q 173.63 318.21 174.44 318.13
  A 0.79 0.76 -81.1 0 0 175.09 317.64
  Q 175.39 316.85 174.64 316.54
  Q 174.38 316.43 174.56 316.21
  Q 174.99 315.70 174.87 315.07
  Q 174.74 314.42 174.20 314.01
  Q 173.36 313.36 173.14 312.31
  Q 173.07 311.99 172.85 311.75
  Q 171.71 310.50 172.23 308.76
  Q 172.36 308.30 172.84 308.23
  L 175.24 307.91
  Q 175.65 307.86 175.56 307.45
  Q 175.22 306.06 175.42 304.75
  Q 175.50 304.20 174.95 304.16
  Q 174.71 304.14 174.54 304.00
  Q 174.14 303.65 174.14 303.12
  Q 174.09 292.56 174.10 282.00
  Q 174.10 279.72 173.10 278.41
  A 1.16 1.16 0.0 0 0 171.15 278.59
  Q 170.71 279.46 169.82 279.01
  A 0.26 0.26 0.0 0 1 169.80 278.56
  Q 170.32 278.22 169.54 277.24"
/>
<path stroke="#6b9eb6" vector-effect="non-scaling-stroke" d="
  M 148.09 220.74
  L 149.02 228.05
  Q 149.08 228.50 148.88 228.91
  Q 148.23 230.23 148.56 231.83
  Q 149.00 233.95 150.01 235.52
  Q 150.72 236.61 150.84 237.85
  Q 150.96 239.20 150.16 240.35
  Q 149.88 240.75 149.88 241.24
  L 149.92 248.70
  Q 149.92 249.21 150.21 249.64
  Q 152.15 252.55 149.94 255.36
  Q 149.75 255.61 149.48 255.78
  Q 149.27 255.91 149.03 255.85
  Q 148.34 255.67 148.33 256.38
  Q 148.14 275.28 148.38 292.04
  C 148.40 293.41 149.08 294.58 148.61 295.93
  C 148.21 297.04 148.52 298.30 148.96 299.35
  A 1.32 1.31 40.4 0 1 149.03 300.17
  Q 148.58 302.02 149.01 303.96
  Q 149.15 304.56 148.82 305.09
  Q 148.54 305.55 148.90 305.95
  A 0.75 0.74 -67.2 0 1 149.09 306.42
  L 149.12 307.34
  Q 149.14 307.76 149.54 307.85
  Q 151.02 308.20 150.47 309.77
  Q 150.29 310.28 150.56 310.75
  L 153.13 315.24
  Q 153.37 315.65 153.41 316.13
  L 153.55 317.81
  Q 153.60 318.37 153.04 318.40
  L 149.22 318.60"
/>
<path stroke="#61a0ae" vector-effect="non-scaling-stroke" d="
  M 124.85 157.01
  Q 124.93 158.99 125.88 160.81
  Q 126.07 161.16 126.07 161.55
  Q 126.32 193.89 125.94 223.61
  Q 125.86 230.17 126.37 234.91
  Q 126.41 235.28 126.68 235.61
  Q 126.88 235.86 127.19 235.90
  Q 127.75 235.98 127.85 236.53
  Q 128.28 238.82 127.26 240.59
  Q 127.01 241.03 127.07 241.52
  Q 128.15 251.55 128.79 261.50
  Q 128.85 262.48 128.57 263.75
  Q 128.46 264.23 127.97 264.34
  Q 127.72 264.39 127.44 264.34
  Q 126.95 264.25 126.83 263.76
  Q 126.60 262.87 125.67 263.08"
/>
<path stroke="#56a3a5" vector-effect="non-scaling-stroke" d="
  M 106.57 106.75
  L 105.87 117.30
  Q 105.83 117.83 106.18 118.22
  Q 106.52 118.61 106.88 119.01
  Q 107.51 119.71 106.61 119.95
  Q 106.47 119.98 106.38 120.10
  A 1.47 1.43 -26.4 0 0 106.08 120.95
  Q 105.73 148.15 105.90 178.80
  Q 105.91 179.96 104.78 179.66
  Q 104.32 179.54 104.06 180.11
  Q 103.84 180.58 103.85 181.10
  Q 103.94 185.02 103.83 189.24
  Q 103.79 190.60 104.46 191.72
  Q 105.19 192.97 105.78 194.36
  Q 105.86 194.54 105.85 194.74
  Q 105.83 195.00 105.63 195.17
  Q 105.32 195.42 105.54 195.75
  Q 106.45 197.05 105.35 198.38
  A 0.95 0.95 0.0 0 0 105.38 199.63
  Q 106.76 201.16 105.63 203.01
  Q 105.10 203.89 104.99 202.87
  Q 104.89 202.04 104.20 202.37
  A 0.08 0.07 -18.6 0 1 104.10 202.33
  Q 104.08 202.22 104.11 202.12
  Q 104.30 201.59 103.77 201.50
  Q 102.63 201.30 102.71 200.04
  Q 102.76 199.44 102.43 199.05
  Q 102.11 198.67 101.50 198.56"
/>
<path stroke="#48a79b" vector-effect="non-scaling-stroke" d="
  M 65.35 21.31
  Q 63.20 22.41 62.49 24.25
  Q 62.28 24.79 62.68 25.20
  Q 63.02 25.55 62.80 26.00
  Q 62.57 26.48 62.64 27.00
  Q 62.84 28.50 63.71 29.37
  Q 63.92 29.58 63.70 29.76
  Q 63.59 29.85 63.47 29.86
  Q 62.83 29.89 63.13 30.46
  Q 64.11 32.32 63.88 34.58
  A 0.84 0.81 70.6 0 1 63.66 35.06
  Q 63.21 35.53 63.56 36.04
  Q 63.96 36.62 63.89 37.32
  Q 63.44 42.21 63.66 47.35
  Q 63.66 47.49 63.55 47.56
  Q 63.42 47.65 63.28 47.67
  Q 62.67 47.75 63.23 48.00
  Q 63.89 48.29 63.89 49.07
  Q 63.85 55.50 63.87 61.93
  Q 63.88 62.52 63.60 63.05
  Q 63.34 63.56 62.84 63.78
  Q 62.40 63.97 62.39 64.45
  Q 62.35 71.00 61.94 76.61
  Q 61.81 78.43 60.77 80.00
  Q 60.49 80.42 60.48 80.92
  Q 60.44 82.88 58.08 83.04"
/>
</g>
<path fill="#ffffff" d="
  M 0.00 0.00
  L 338.00 0.00
  L 338.00 339.00
  L 0.00 339.00
  L 0.00 0.00
  Z
  M 221.03 134.69
  L 187.63 226.41
  L 169.54 277.24
  Q 169.05 278.06 168.89 277.73
  Q 167.95 275.83 167.29 273.84
  Q 166.11 270.26 166.10 270.24
  Q 157.04 245.54 148.09 220.74
  L 124.85 157.01
  L 106.57 106.75
  L 75.53 21.92
  Q 75.34 21.39 74.78 21.39
  L 65.35 21.31
  L 35.26 21.18
  A 0.61 0.60 79.6 0 0 34.70 22.00
  L 58.08 83.04
  L 101.50 198.56
  L 125.67 263.08
  Q 135.84 290.17 145.97 317.25
  Q 146.56 318.82 149.22 318.60
  L 174.02 318.65
  L 188.91 318.54
  A 2.83 2.83 0.0 0 0 191.55 316.69
  L 196.06 304.51
  L 226.37 224.52
  L 302.57 23.03
  A 1.22 1.22 0.0 0 0 301.75 21.42
  Q 300.03 20.95 298.38 20.88
  Q 280.10 20.12 264.70 21.09
  Q 262.59 21.22 261.86 23.18
  Q 258.19 33.04 254.33 43.52
  Q 237.57 89.07 221.03 134.69
  Z"
/>
<path fill="#9593d7" d="
  M 226.37 224.52
  Q 225.43 223.66 225.57 223.06
  Q 225.66 222.65 225.39 222.33
  L 224.36 221.10
  Q 224.07 220.77 224.08 220.33
  L 224.17 210.01
  A 1.92 1.92 0.0 0 1 225.29 208.28
  Q 225.83 208.03 226.16 207.59
  Q 226.39 207.28 226.38 206.89
  Q 226.36 203.42 226.35 200.16
  Q 226.35 199.95 226.15 200.01
  L 225.80 200.12
  Q 225.65 200.17 225.65 200.33
  L 225.63 207.20
  A 0.44 0.44 0.0 0 1 225.18 207.63
  L 224.88 207.63
  Q 224.38 207.63 224.38 207.13
  L 224.85 153.90
  Q 224.85 153.57 225.10 153.35
  Q 225.26 153.21 225.38 153.03
  Q 225.73 152.48 225.66 151.84
  Q 225.31 148.36 226.10 145.24
  Q 226.59 143.29 226.55 141.19
  Q 226.52 139.03 226.88 137.08
  Q 226.99 136.50 226.77 135.95
  Q 226.39 134.99 226.91 134.06
  Q 227.19 133.58 227.11 133.03
  Q 226.80 130.95 227.49 129.10
  Q 227.68 128.59 227.22 128.30
  Q 226.35 127.74 226.63 126.90
  Q 226.85 126.25 226.40 125.73
  L 225.76 124.99
  A 0.46 0.46 0.0 0 0 224.95 125.25
  L 224.82 127.01
  Q 224.78 127.57 224.23 127.70
  Q 223.52 127.87 223.64 128.61
  A 0.91 0.89 -31.1 0 1 223.46 129.30
  Q 222.57 130.40 222.93 131.87
  Q 223.04 132.32 222.67 132.59
  Q 221.66 133.34 221.57 134.80
  Q 221.54 135.25 221.31 134.86
  Q 221.21 134.68 221.03 134.69
  Q 237.57 89.07 254.33 43.52
  Q 258.19 33.04 261.86 23.18
  Q 262.59 21.22 264.70 21.09
  Q 280.10 20.12 298.38 20.88
  Q 300.03 20.95 301.75 21.42
  A 1.22 1.22 0.0 0 1 302.57 23.03
  L 226.37 224.52
  Z"
/>
<path fill="#41a895" d="
  M 65.35 21.31
  Q 63.20 22.41 62.49 24.25
  Q 62.28 24.79 62.68 25.20
  Q 63.02 25.55 62.80 26.00
  Q 62.57 26.48 62.64 27.00
  Q 62.84 28.50 63.71 29.37
  Q 63.92 29.58 63.70 29.76
  Q 63.59 29.85 63.47 29.86
  Q 62.83 29.89 63.13 30.46
  Q 64.11 32.32 63.88 34.58
  A 0.84 0.81 70.6 0 1 63.66 35.06
  Q 63.21 35.53 63.56 36.04
  Q 63.96 36.62 63.89 37.32
  Q 63.44 42.21 63.66 47.35
  Q 63.66 47.49 63.55 47.56
  Q 63.42 47.65 63.28 47.67
  Q 62.67 47.75 63.23 48.00
  Q 63.89 48.29 63.89 49.07
  Q 63.85 55.50 63.87 61.93
  Q 63.88 62.52 63.60 63.05
  Q 63.34 63.56 62.84 63.78
  Q 62.40 63.97 62.39 64.45
  Q 62.35 71.00 61.94 76.61
  Q 61.81 78.43 60.77 80.00
  Q 60.49 80.42 60.48 80.92
  Q 60.44 82.88 58.08 83.04
  L 34.70 22.00
  A 0.61 0.60 79.6 0 1 35.26 21.18
  L 65.35 21.31
  Z"
/>
<path fill="#4fa5a0" d="
  M 106.57 106.75
  L 105.87 117.30
  Q 105.83 117.83 106.18 118.22
  Q 106.52 118.61 106.88 119.01
  Q 107.51 119.71 106.61 119.95
  Q 106.47 119.98 106.38 120.10
  A 1.47 1.43 -26.4 0 0 106.08 120.95
  Q 105.73 148.15 105.90 178.80
  Q 105.91 179.96 104.78 179.66
  Q 104.32 179.54 104.06 180.11
  Q 103.84 180.58 103.85 181.10
  Q 103.94 185.02 103.83 189.24
  Q 103.79 190.60 104.46 191.72
  Q 105.19 192.97 105.78 194.36
  Q 105.86 194.54 105.85 194.74
  Q 105.83 195.00 105.63 195.17
  Q 105.32 195.42 105.54 195.75
  Q 106.45 197.05 105.35 198.38
  A 0.95 0.95 0.0 0 0 105.38 199.63
  Q 106.76 201.16 105.63 203.01
  Q 105.10 203.89 104.99 202.87
  Q 104.89 202.04 104.20 202.37
  A 0.08 0.07 -18.6 0 1 104.10 202.33
  Q 104.08 202.22 104.11 202.12
  Q 104.30 201.59 103.77 201.50
  Q 102.63 201.30 102.71 200.04
  Q 102.76 199.44 102.43 199.05
  Q 102.11 198.67 101.50 198.56
  L 58.08 83.04
  Q 60.44 82.88 60.48 80.92
  Q 60.49 80.42 60.77 80.00
  Q 61.81 78.43 61.94 76.61
  Q 62.35 71.00 62.39 64.45
  Q 62.40 63.97 62.84 63.78
  Q 63.34 63.56 63.60 63.05
  Q 63.88 62.52 63.87 61.93
  Q 63.85 55.50 63.89 49.07
  Q 63.89 48.29 63.23 48.00
  Q 62.67 47.75 63.28 47.67
  Q 63.42 47.65 63.55 47.56
  Q 63.66 47.49 63.66 47.35
  Q 63.44 42.21 63.89 37.32
  Q 63.96 36.62 63.56 36.04
  Q 63.21 35.53 63.66 35.06
  A 0.84 0.81 70.6 0 0 63.88 34.58
  Q 64.11 32.32 63.13 30.46
  Q 62.83 29.89 63.47 29.86
  Q 63.59 29.85 63.70 29.76
  Q 63.92 29.58 63.71 29.37
  Q 62.84 28.50 62.64 27.00
  Q 62.57 26.48 62.80 26.00
  Q 63.02 25.55 62.68 25.20
  Q 62.28 24.79 62.49 24.25
  Q 63.20 22.41 65.35 21.31
  L 74.78 21.39
  Q 75.34 21.39 75.53 21.92
  L 106.57 106.75
  Z"
/>
<path fill="#5ca0aa" d="
  M 106.57 106.75
  L 124.85 157.01
  Q 124.93 158.99 125.88 160.81
  Q 126.07 161.16 126.07 161.55
  Q 126.32 193.89 125.94 223.61
  Q 125.86 230.17 126.37 234.91
  Q 126.41 235.28 126.68 235.61
  Q 126.88 235.86 127.19 235.90
  Q 127.75 235.98 127.85 236.53
  Q 128.28 238.82 127.26 240.59
  Q 127.01 241.03 127.07 241.52
  Q 128.15 251.55 128.79 261.50
  Q 128.85 262.48 128.57 263.75
  Q 128.46 264.23 127.97 264.34
  Q 127.72 264.39 127.44 264.34
  Q 126.95 264.25 126.83 263.76
  Q 126.60 262.87 125.67 263.08
  L 101.50 198.56
  Q 102.11 198.67 102.43 199.05
  Q 102.76 199.44 102.71 200.04
  Q 102.63 201.30 103.77 201.50
  Q 104.30 201.59 104.11 202.12
  Q 104.08 202.22 104.10 202.33
  A 0.08 0.07 -18.6 0 0 104.20 202.37
  Q 104.89 202.04 104.99 202.87
  Q 105.10 203.89 105.63 203.01
  Q 106.76 201.16 105.38 199.63
  A 0.95 0.95 0.0 0 1 105.35 198.38
  Q 106.45 197.05 105.54 195.75
  Q 105.32 195.42 105.63 195.17
  Q 105.83 195.00 105.85 194.74
  Q 105.86 194.54 105.78 194.36
  Q 105.19 192.97 104.46 191.72
  Q 103.79 190.60 103.83 189.24
  Q 103.94 185.02 103.85 181.10
  Q 103.84 180.58 104.06 180.11
  Q 104.32 179.54 104.78 179.66
  Q 105.91 179.96 105.90 178.80
  Q 105.73 148.15 106.08 120.95
  A 1.47 1.43 -26.4 0 1 106.38 120.10
  Q 106.47 119.98 106.61 119.95
  Q 107.51 119.71 106.88 119.01
  Q 106.52 118.61 106.18 118.22
  Q 105.83 117.83 105.87 117.30
  L 106.57 106.75
  Z"
/>
<path fill="#8896cd" d="
  M 226.37 224.52
  L 196.06 304.51
  Q 195.66 303.76 195.25 303.65
  Q 194.70 303.51 194.64 304.07
  Q 194.54 305.06 193.65 305.64
  Q 193.13 305.98 193.45 305.46
  Q 193.75 304.96 193.17 304.94
  Q 192.56 304.91 192.61 304.30
  Q 192.69 303.19 193.33 302.34
  A 1.39 1.38 -27.6 0 0 193.60 301.49
  Q 193.59 299.78 194.84 298.89
  A 0.80 0.80 0.0 0 0 195.14 297.99
  Q 194.74 296.77 193.56 296.09
  Q 193.22 295.89 193.15 295.50
  Q 192.74 293.32 194.02 291.84
  Q 194.32 291.49 194.39 291.03
  Q 194.66 289.42 194.02 288.07
  Q 193.79 287.59 193.84 287.05
  L 194.51 278.99
  A 0.68 0.67 86.6 0 1 195.05 278.38
  Q 195.24 278.35 195.41 278.26
  Q 196.12 277.90 196.12 277.11
  L 196.12 272.86
  Q 196.12 272.37 195.72 272.08
  Q 195.25 271.74 194.77 271.97
  Q 194.22 272.24 194.17 271.64
  Q 193.68 265.67 194.75 260.97
  Q 194.85 260.55 194.67 260.15
  Q 193.91 258.45 194.72 256.70
  C 195.27 255.53 195.39 253.96 194.72 252.82
  Q 194.14 251.84 194.06 250.62
  Q 193.88 248.08 194.81 246.06
  Q 195.54 244.49 195.14 242.93
  A 1.02 1.01 -32.6 0 1 195.34 242.03
  Q 195.77 241.51 195.46 240.94
  Q 195.23 240.51 195.51 240.12
  Q 196.48 238.79 196.41 237.06
  Q 196.39 236.53 196.10 236.08
  C 195.42 235.01 196.27 234.15 196.10 233.03
  Q 196.02 232.50 196.40 232.10
  Q 197.54 230.91 197.28 229.23
  Q 197.22 228.87 196.90 228.34
  Q 196.70 228.01 196.34 227.91
  Q 195.75 227.75 195.77 227.14
  Q 195.83 225.34 195.39 223.47
  A 1.24 1.24 0.0 0 1 195.55 222.52
  Q 196.62 220.86 195.56 219.08
  Q 195.29 218.64 195.39 218.13
  Q 195.52 217.41 196.10 217.04
  Q 196.55 216.75 196.26 216.30
  Q 196.08 216.04 196.08 215.72
  Q 196.09 215.23 196.36 214.82
  Q 197.05 213.77 196.11 212.99
  Q 195.36 212.36 194.42 212.86
  Q 193.91 213.14 193.79 212.56
  Q 193.76 212.38 193.51 212.45
  Q 193.19 212.54 193.09 212.87
  Q 192.77 214.01 192.91 215.10
  Q 192.94 215.39 192.66 215.36
  Q 192.48 215.35 192.31 215.40
  Q 191.96 215.49 191.84 215.83
  L 189.45 223.10
  Q 189.30 223.55 188.94 223.85
  Q 188.45 224.27 188.63 224.96
  Q 188.76 225.51 188.38 225.92
  Q 188.07 226.26 187.63 226.41
  L 221.03 134.69
  Q 221.21 134.68 221.31 134.86
  Q 221.54 135.25 221.57 134.80
  Q 221.66 133.34 222.67 132.59
  Q 223.04 132.32 222.93 131.87
  Q 222.57 130.40 223.46 129.30
  A 0.91 0.89 -31.1 0 0 223.64 128.61
  Q 223.52 127.87 224.23 127.70
  Q 224.78 127.57 224.82 127.01
  L 224.95 125.25
  A 0.46 0.46 0.0 0 1 225.76 124.99
  L 226.40 125.73
  Q 226.85 126.25 226.63 126.90
  Q 226.35 127.74 227.22 128.30
  Q 227.68 128.59 227.49 129.10
  Q 226.80 130.95 227.11 133.03
  Q 227.19 133.58 226.91 134.06
  Q 226.39 134.99 226.77 135.95
  Q 226.99 136.50 226.88 137.08
  Q 226.52 139.03 226.55 141.19
  Q 226.59 143.29 226.10 145.24
  Q 225.31 148.36 225.66 151.84
  Q 225.73 152.48 225.38 153.03
  Q 225.26 153.21 225.10 153.35
  Q 224.85 153.57 224.85 153.90
  L 224.38 207.13
  Q 224.38 207.63 224.88 207.63
  L 225.18 207.63
  A 0.44 0.44 0.0 0 0 225.63 207.20
  L 225.65 200.33
  Q 225.65 200.17 225.80 200.12
  L 226.15 200.01
  Q 226.35 199.95 226.35 200.16
  Q 226.36 203.42 226.38 206.89
  Q 226.39 207.28 226.16 207.59
  Q 225.83 208.03 225.29 208.28
  A 1.92 1.92 0.0 0 0 224.17 210.01
  L 224.08 220.33
  Q 224.07 220.77 224.36 221.10
  L 225.39 222.33
  Q 225.66 222.65 225.57 223.06
  Q 225.43 223.66 226.37 224.52
  Z"
/>
<path fill="#669fb2" d="
  M 124.85 157.01
  L 148.09 220.74
  L 149.02 228.05
  Q 149.08 228.50 148.88 228.91
  Q 148.23 230.23 148.56 231.83
  Q 149.00 233.95 150.01 235.52
  Q 150.72 236.61 150.84 237.85
  Q 150.96 239.20 150.16 240.35
  Q 149.88 240.75 149.88 241.24
  L 149.92 248.70
  Q 149.92 249.21 150.21 249.64
  Q 152.15 252.55 149.94 255.36
  Q 149.75 255.61 149.48 255.78
  Q 149.27 255.91 149.03 255.85
  Q 148.34 255.67 148.33 256.38
  Q 148.14 275.28 148.38 292.04
  C 148.40 293.41 149.08 294.58 148.61 295.93
  C 148.21 297.04 148.52 298.30 148.96 299.35
  A 1.32 1.31 40.4 0 1 149.03 300.17
  Q 148.58 302.02 149.01 303.96
  Q 149.15 304.56 148.82 305.09
  Q 148.54 305.55 148.90 305.95
  A 0.75 0.74 -67.2 0 1 149.09 306.42
  L 149.12 307.34
  Q 149.14 307.76 149.54 307.85
  Q 151.02 308.20 150.47 309.77
  Q 150.29 310.28 150.56 310.75
  L 153.13 315.24
  Q 153.37 315.65 153.41 316.13
  L 153.55 317.81
  Q 153.60 318.37 153.04 318.40
  L 149.22 318.60
  Q 146.56 318.82 145.97 317.25
  Q 135.84 290.17 125.67 263.08
  Q 126.60 262.87 126.83 263.76
  Q 126.95 264.25 127.44 264.34
  Q 127.72 264.39 127.97 264.34
  Q 128.46 264.23 128.57 263.75
  Q 128.85 262.48 128.79 261.50
  Q 128.15 251.55 127.07 241.52
  Q 127.01 241.03 127.26 240.59
  Q 128.28 238.82 127.85 236.53
  Q 127.75 235.98 127.19 235.90
  Q 126.88 235.86 126.68 235.61
  Q 126.41 235.28 126.37 234.91
  Q 125.86 230.17 125.94 223.61
  Q 126.32 193.89 126.07 161.55
  Q 126.07 161.16 125.88 160.81
  Q 124.93 158.99 124.85 157.01
  Z"
/>
<path fill="#7b9ac2" d="
  M 196.06 304.51
  L 191.55 316.69
  A 2.83 2.83 0.0 0 1 188.91 318.54
  L 174.02 318.65
  Q 173.63 318.21 174.44 318.13
  A 0.79 0.76 -81.1 0 0 175.09 317.64
  Q 175.39 316.85 174.64 316.54
  Q 174.38 316.43 174.56 316.21
  Q 174.99 315.70 174.87 315.07
  Q 174.74 314.42 174.20 314.01
  Q 173.36 313.36 173.14 312.31
  Q 173.07 311.99 172.85 311.75
  Q 171.71 310.50 172.23 308.76
  Q 172.36 308.30 172.84 308.23
  L 175.24 307.91
  Q 175.65 307.86 175.56 307.45
  Q 175.22 306.06 175.42 304.75
  Q 175.50 304.20 174.95 304.16
  Q 174.71 304.14 174.54 304.00
  Q 174.14 303.65 174.14 303.12
  Q 174.09 292.56 174.10 282.00
  Q 174.10 279.72 173.10 278.41
  A 1.16 1.16 0.0 0 0 171.15 278.59
  Q 170.71 279.46 169.82 279.01
  A 0.26 0.26 0.0 0 1 169.80 278.56
  Q 170.32 278.22 169.54 277.24
  L 187.63 226.41
  Q 188.07 226.26 188.38 225.92
  Q 188.76 225.51 188.63 224.96
  Q 188.45 224.27 188.94 223.85
  Q 189.30 223.55 189.45 223.10
  L 191.84 215.83
  Q 191.96 215.49 192.31 215.40
  Q 192.48 215.35 192.66 215.36
  Q 192.94 215.39 192.91 215.10
  Q 192.77 214.01 193.09 212.87
  Q 193.19 212.54 193.51 212.45
  Q 193.76 212.38 193.79 212.56
  Q 193.91 213.14 194.42 212.86
  Q 195.36 212.36 196.11 212.99
  Q 197.05 213.77 196.36 214.82
  Q 196.09 215.23 196.08 215.72
  Q 196.08 216.04 196.26 216.30
  Q 196.55 216.75 196.10 217.04
  Q 195.52 217.41 195.39 218.13
  Q 195.29 218.64 195.56 219.08
  Q 196.62 220.86 195.55 222.52
  A 1.24 1.24 0.0 0 0 195.39 223.47
  Q 195.83 225.34 195.77 227.14
  Q 195.75 227.75 196.34 227.91
  Q 196.70 228.01 196.90 228.34
  Q 197.22 228.87 197.28 229.23
  Q 197.54 230.91 196.40 232.10
  Q 196.02 232.50 196.10 233.03
  C 196.27 234.15 195.42 235.01 196.10 236.08
  Q 196.39 236.53 196.41 237.06
  Q 196.48 238.79 195.51 240.12
  Q 195.23 240.51 195.46 240.94
  Q 195.77 241.51 195.34 242.03
  A 1.02 1.01 -32.6 0 0 195.14 242.93
  Q 195.54 244.49 194.81 246.06
  Q 193.88 248.08 194.06 250.62
  Q 194.14 251.84 194.72 252.82
  C 195.39 253.96 195.27 255.53 194.72 256.70
  Q 193.91 258.45 194.67 260.15
  Q 194.85 260.55 194.75 260.97
  Q 193.68 265.67 194.17 271.64
  Q 194.22 272.24 194.77 271.97
  Q 195.25 271.74 195.72 272.08
  Q 196.12 272.37 196.12 272.86
  L 196.12 277.11
  Q 196.12 277.90 195.41 278.26
  Q 195.24 278.35 195.05 278.38
  A 0.68 0.67 86.6 0 0 194.51 278.99
  L 193.84 287.05
  Q 193.79 287.59 194.02 288.07
  Q 194.66 289.42 194.39 291.03
  Q 194.32 291.49 194.02 291.84
  Q 192.74 293.32 193.15 295.50
  Q 193.22 295.89 193.56 296.09
  Q 194.74 296.77 195.14 297.99
  A 0.80 0.80 0.0 0 1 194.84 298.89
  Q 193.59 299.78 193.60 301.49
  A 1.39 1.38 -27.6 0 1 193.33 302.34
  Q 192.69 303.19 192.61 304.30
  Q 192.56 304.91 193.17 304.94
  Q 193.75 304.96 193.45 305.46
  Q 193.13 305.98 193.65 305.64
  Q 194.54 305.06 194.64 304.07
  Q 194.70 303.51 195.25 303.65
  Q 195.66 303.76 196.06 304.51
  Z"
/>
<path fill="#6f9cba" d="
  M 148.09 220.74
  Q 157.04 245.54 166.10 270.24
  Q 166.11 270.26 167.29 273.84
  Q 167.95 275.83 168.89 277.73
  Q 169.05 278.06 169.54 277.24
  Q 170.32 278.22 169.80 278.56
  A 0.26 0.26 0.0 0 0 169.82 279.01
  Q 170.71 279.46 171.15 278.59
  A 1.16 1.16 0.0 0 1 173.10 278.41
  Q 174.10 279.72 174.10 282.00
  Q 174.09 292.56 174.14 303.12
  Q 174.14 303.65 174.54 304.00
  Q 174.71 304.14 174.95 304.16
  Q 175.50 304.20 175.42 304.75
  Q 175.22 306.06 175.56 307.45
  Q 175.65 307.86 175.24 307.91
  L 172.84 308.23
  Q 172.36 308.30 172.23 308.76
  Q 171.71 310.50 172.85 311.75
  Q 173.07 311.99 173.14 312.31
  Q 173.36 313.36 174.20 314.01
  Q 174.74 314.42 174.87 315.07
  Q 174.99 315.70 174.56 316.21
  Q 174.38 316.43 174.64 316.54
  Q 175.39 316.85 175.09 317.64
  A 0.79 0.76 -81.1 0 1 174.44 318.13
  Q 173.63 318.21 174.02 318.65
  L 149.22 318.60
  L 153.04 318.40
  Q 153.60 318.37 153.55 317.81
  L 153.41 316.13
  Q 153.37 315.65 153.13 315.24
  L 150.56 310.75
  Q 150.29 310.28 150.47 309.77
  Q 151.02 308.20 149.54 307.85
  Q 149.14 307.76 149.12 307.34
  L 149.09 306.42
  A 0.75 0.74 -67.2 0 0 148.90 305.95
  Q 148.54 305.55 148.82 305.09
  Q 149.15 304.56 149.01 303.96
  Q 148.58 302.02 149.03 300.17
  A 1.32 1.31 40.4 0 0 148.96 299.35
  C 148.52 298.30 148.21 297.04 148.61 295.93
  C 149.08 294.58 148.40 293.41 148.38 292.04
  Q 148.14 275.28 148.33 256.38
  Q 148.34 255.67 149.03 255.85
  Q 149.27 255.91 149.48 255.78
  Q 149.75 255.61 149.94 255.36
  Q 152.15 252.55 150.21 249.64
  Q 149.92 249.21 149.92 248.70
  L 149.88 241.24
  Q 149.88 240.75 150.16 240.35
  Q 150.96 239.20 150.84 237.85
  Q 150.72 236.61 150.01 235.52
  Q 149.00 233.95 148.56 231.83
  Q 148.23 230.23 148.88 228.91
  Q 149.08 228.50 149.02 228.05
  L 148.09 220.74
  Z"
/>
</svg>
