<?xml version="1.0" encoding="UTF-8" standalone="no"?>
<!DOCTYPE svg PUBLIC "-//W3C//DTD SVG 1.1//EN" "http://www.w3.org/Graphics/SVG/1.1/DTD/svg11.dtd">
<svg xmlns="http://www.w3.org/2000/svg" version="1.1" viewBox="0.00 0.00 341.00 333.00">
<g stroke-width="2.00" fill="none" stroke-linecap="butt">
<path stroke="#a6a7dd" vector-effect="non-scaling-stroke" d="
  M 236.11 198.82
  Q 235.39 197.28 235.30 195.70
  Q 235.23 194.53 234.77 193.72
  C 234.08 192.52 233.39 191.35 234.10 189.94
  Q 234.33 189.47 234.13 188.99
  Q 233.23 186.84 233.80 184.35
  Q 233.92 183.81 233.78 183.28
  Q 233.05 180.61 232.96 177.70
  Q 232.93 176.91 233.44 176.34
  A 1.47 1.43 69.9 0 0 233.81 175.51
  Q 234.27 170.46 233.95 165.37
  C 233.84 163.54 234.30 161.78 234.10 159.93
  Q 233.89 158.01 233.96 156.00
  Q 234.09 152.53 234.05 151.54
  A 65.48 20.04 -84.3 0 1 233.88 142.86
  Q 233.90 137.55 233.85 132.02
  Q 233.85 130.97 233.51 130.00
  Q 233.34 129.52 233.50 129.04
  Q 233.66 128.54 233.30 128.12
  Q 232.98 127.76 232.90 127.28
  Q 232.46 124.46 232.89 121.84
  Q 233.25 119.71 233.22 117.44
  Q 233.20 115.27 233.27 113.05
  Q 233.29 112.52 233.10 112.03
  L 232.67 110.91
  Q 232.46 110.34 232.81 109.86
  Q 233.57 108.82 232.70 107.90
  Q 232.37 107.54 232.47 107.07
  Q 232.66 106.22 232.12 105.57
  Q 232.07 105.51 232.13 105.46
  Q 232.25 105.34 232.41 105.28
  Q 232.79 105.12 232.77 104.71
  L 232.69 102.48"
/>
<path stroke="#9aaad3" vector-effect="non-scaling-stroke" d="
  M 207.04 275.85
  Q 206.26 274.69 206.72 273.64
  Q 206.92 273.20 206.65 272.79
  Q 205.74 271.36 205.86 270.40
  Q 206.57 265.10 205.77 260.40
  Q 205.48 258.68 205.74 257.11
  Q 206.02 255.42 205.93 253.73
  Q 205.78 251.17 205.91 248.73
  Q 206.12 244.68 206.11 240.25
  Q 206.11 239.97 205.98 239.72
  Q 205.81 239.38 205.88 239.00
  Q 206.35 236.32 205.93 232.60
  Q 205.57 229.43 207.71 226.64
  Q 208.01 226.24 208.01 225.74
  Q 208.02 219.11 207.20 212.98
  Q 207.14 212.54 206.82 212.25
  Q 205.64 211.17 206.24 209.52
  Q 206.62 208.44 207.19 207.37
  Q 207.76 206.31 207.65 205.00
  Q 207.48 203.02 207.48 201.16
  Q 207.48 200.44 206.75 200.39
  Q 206.47 200.37 206.24 200.21
  Q 205.80 199.92 205.75 199.39
  Q 205.33 194.86 205.94 190.90
  Q 206.67 186.16 206.27 181.06
  Q 206.24 180.64 205.82 180.72
  Q 205.22 180.83 204.94 180.17
  A 0.69 0.68 -27.4 0 1 205.21 179.32
  Q 205.58 179.08 205.72 178.65
  Q 205.77 178.52 205.63 178.49
  Q 205.57 178.48 205.55 178.53
  Q 205.39 178.88 205.39 178.50
  Q 205.39 178.18 205.21 177.99"
/>
<path stroke="#8eadca" vector-effect="non-scaling-stroke" d="
  M 172.52 315.47
  Q 173.06 312.88 172.23 309.60
  Q 172.06 308.92 172.42 308.33
  Q 172.81 307.70 172.67 307.02
  Q 172.40 305.77 172.58 304.50
  Q 172.88 302.25 173.04 300.25
  A 1.21 1.20 29.1 0 0 172.80 299.42
  Q 171.91 298.22 172.86 296.88
  Q 173.20 296.41 173.20 295.83
  L 173.20 279.00
  Q 173.20 278.52 172.93 278.01
  Q 172.34 276.90 172.69 275.79
  Q 172.88 275.18 172.26 275.03
  Q 170.80 274.70 170.50 273.51"
/>
<path stroke="#84afc2" vector-effect="non-scaling-stroke" d="
  M 152.65 226.99
  Q 152.00 226.87 151.63 227.22
  Q 151.20 227.63 150.86 227.23
  Q 150.71 227.05 150.53 227.20
  Q 149.21 228.27 149.10 229.04
  Q 148.76 231.29 148.26 233.28
  Q 148.14 233.75 148.25 234.23
  Q 148.38 234.76 148.19 235.27
  Q 147.95 235.98 147.96 236.69
  Q 148.19 253.93 147.75 273.66
  Q 147.69 275.93 147.50 278.24
  C 147.32 280.39 146.37 281.82 146.75 284.16
  Q 147.08 286.20 146.06 288.05
  Q 145.83 288.48 145.91 288.96
  Q 146.04 289.77 146.15 290.63
  Q 146.28 291.73 146.15 292.78
  Q 145.80 295.71 145.67 298.83
  Q 145.66 299.13 145.45 299.35
  Q 145.35 299.45 145.22 299.51
  Q 144.95 299.62 144.96 299.93
  Q 144.99 301.26 144.64 302.53
  Q 144.53 302.89 144.22 302.67
  Q 144.09 302.58 143.99 302.71
  Q 143.88 302.85 143.87 303.04
  Q 143.84 303.73 144.46 304.05
  Q 145.68 304.67 144.65 305.78
  Q 144.30 306.16 144.71 306.52
  Q 145.24 306.98 145.28 307.68
  L 145.46 310.48"
/>
<path stroke="#7bb1bb" vector-effect="non-scaling-stroke" d="
  M 123.09 145.84
  Q 120.89 145.98 120.54 147.75
  Q 119.89 151.05 119.59 156.74
  Q 119.51 158.35 119.61 159.75
  Q 119.71 161.26 119.60 162.76
  Q 119.44 165.02 119.30 167.26
  Q 119.07 170.89 119.24 173.60
  Q 120.13 188.00 119.62 201.77
  Q 119.34 209.28 119.37 216.64
  C 119.38 219.13 118.71 221.53 118.70 224.01
  Q 118.69 227.00 117.00 229.98
  Q 116.86 230.23 117.04 230.45
  Q 117.61 231.16 117.24 232.13
  Q 117.20 232.23 117.09 232.26
  Q 117.03 232.28 117.00 232.23
  Q 116.80 231.97 116.61 232.26
  Q 116.43 232.53 116.16 232.76"
/>
<path stroke="#70b4b3" vector-effect="non-scaling-stroke" d="
  M 99.78 81.91
  Q 98.72 82.52 98.55 83.84
  A 0.09 0.08 6.7 0 1 98.45 83.91
  Q 97.95 83.84 97.77 84.28
  Q 97.58 84.73 98.03 84.94
  Q 98.57 85.20 98.39 85.76
  Q 98.23 86.24 98.29 86.74
  Q 98.63 89.73 98.53 92.71
  Q 98.51 93.30 98.29 93.75
  Q 98.03 94.27 97.81 94.82
  A 1.49 1.45 50.5 0 0 97.74 95.69
  Q 98.21 97.77 97.51 99.78
  Q 97.36 100.23 97.52 100.68
  Q 98.21 102.58 96.69 103.54
  Q 96.28 103.80 96.11 104.25
  Q 95.80 105.03 95.83 106.22
  Q 95.91 109.03 96.23 111.75
  Q 96.29 112.25 96.09 112.70
  Q 95.81 113.36 95.83 114.09
  Q 96.02 122.46 95.68 130.82
  C 95.61 132.53 96.05 134.17 95.88 135.92
  Q 95.60 139.02 95.74 142.22
  Q 96.05 149.50 95.79 156.79
  Q 95.78 157.03 95.97 158.16
  Q 96.09 158.81 95.83 159.58
  A 0.76 0.54 61.6 0 0 95.81 159.75
  L 95.92 165.48
  Q 95.92 165.90 96.19 166.23
  Q 96.45 166.55 96.16 166.84
  Q 95.75 167.24 95.88 167.80
  Q 96.10 168.80 95.35 169.48
  Q 94.85 169.92 95.01 170.58
  Q 95.44 172.29 94.56 173.73
  Q 94.29 174.17 94.62 174.57
  Q 95.27 175.37 94.88 176.25"
/>
</g>
<path fill="#ada5e2" d="
  M 236.11 198.82
  Q 235.39 197.28 235.30 195.70
  Q 235.23 194.53 234.77 193.72
  C 234.08 192.52 233.39 191.35 234.10 189.94
  Q 234.33 189.47 234.13 188.99
  Q 233.23 186.84 233.80 184.35
  Q 233.92 183.81 233.78 183.28
  Q 233.05 180.61 232.96 177.70
  Q 232.93 176.91 233.44 176.34
  A 1.47 1.43 69.9 0 0 233.81 175.51
  Q 234.27 170.46 233.95 165.37
  C 233.84 163.54 234.30 161.78 234.10 159.93
  Q 233.89 158.01 233.96 156.00
  Q 234.09 152.53 234.05 151.54
  A 65.48 20.04 -84.3 0 1 233.88 142.86
  Q 233.90 137.55 233.85 132.02
  Q 233.85 130.97 233.51 130.00
  Q 233.34 129.52 233.50 129.04
  Q 233.66 128.54 233.30 128.12
  Q 232.98 127.76 232.90 127.28
  Q 232.46 124.46 232.89 121.84
  Q 233.25 119.71 233.22 117.44
  Q 233.20 115.27 233.27 113.05
  Q 233.29 112.52 233.10 112.03
  L 232.67 110.91
  Q 232.46 110.34 232.81 109.86
  Q 233.57 108.82 232.70 107.90
  Q 232.37 107.54 232.47 107.07
  Q 232.66 106.22 232.12 105.57
  Q 232.07 105.51 232.13 105.46
  Q 232.25 105.34 232.41 105.28
  Q 232.79 105.12 232.77 104.71
  L 232.69 102.48
  L 263.21 18.90
  A 1.51 1.50 9.8 0 1 264.61 17.92
  Q 282.19 17.81 299.00 17.79
  Q 301.23 17.79 302.91 18.01
  A 1.13 1.13 0.0 0 1 303.81 19.53
  L 236.11 198.82
  Z"
/>
<path fill="#6ab5ae" d="
  M 99.78 81.91
  Q 98.72 82.52 98.55 83.84
  A 0.09 0.08 6.7 0 1 98.45 83.91
  Q 97.95 83.84 97.77 84.28
  Q 97.58 84.73 98.03 84.94
  Q 98.57 85.20 98.39 85.76
  Q 98.23 86.24 98.29 86.74
  Q 98.63 89.73 98.53 92.71
  Q 98.51 93.30 98.29 93.75
  Q 98.03 94.27 97.81 94.82
  A 1.49 1.45 50.5 0 0 97.74 95.69
  Q 98.21 97.77 97.51 99.78
  Q 97.36 100.23 97.52 100.68
  Q 98.21 102.58 96.69 103.54
  Q 96.28 103.80 96.11 104.25
  Q 95.80 105.03 95.83 106.22
  Q 95.91 109.03 96.23 111.75
  Q 96.29 112.25 96.09 112.70
  Q 95.81 113.36 95.83 114.09
  Q 96.02 122.46 95.68 130.82
  C 95.61 132.53 96.05 134.17 95.88 135.92
  Q 95.60 139.02 95.74 142.22
  Q 96.05 149.50 95.79 156.79
  Q 95.78 157.03 95.97 158.16
  Q 96.09 158.81 95.83 159.58
  A 0.76 0.54 61.6 0 0 95.81 159.75
  L 95.92 165.48
  Q 95.92 165.90 96.19 166.23
  Q 96.45 166.55 96.16 166.84
  Q 95.75 167.24 95.88 167.80
  Q 96.10 168.80 95.35 169.48
  Q 94.85 169.92 95.01 170.58
  Q 95.44 172.29 94.56 173.73
  Q 94.29 174.17 94.62 174.57
  Q 95.27 175.37 94.88 176.25
  L 35.50 18.71
  A 0.50 0.50 0.0 0 1 35.97 18.03
  L 75.76 18.01
  A 1.08 1.07 -10.1 0 1 76.77 18.71
  L 99.78 81.91
  Z"
/>
<path fill="#76b2b7" d="
  M 99.78 81.91
  L 123.09 145.84
  Q 120.89 145.98 120.54 147.75
  Q 119.89 151.05 119.59 156.74
  Q 119.51 158.35 119.61 159.75
  Q 119.71 161.26 119.60 162.76
  Q 119.44 165.02 119.30 167.26
  Q 119.07 170.89 119.24 173.60
  Q 120.13 188.00 119.62 201.77
  Q 119.34 209.28 119.37 216.64
  C 119.38 219.13 118.71 221.53 118.70 224.01
  Q 118.69 227.00 117.00 229.98
  Q 116.86 230.23 117.04 230.45
  Q 117.61 231.16 117.24 232.13
  Q 117.20 232.23 117.09 232.26
  Q 117.03 232.28 117.00 232.23
  Q 116.80 231.97 116.61 232.26
  Q 116.43 232.53 116.16 232.76
  L 94.88 176.25
  Q 95.27 175.37 94.62 174.57
  Q 94.29 174.17 94.56 173.73
  Q 95.44 172.29 95.01 170.58
  Q 94.85 169.92 95.35 169.48
  Q 96.10 168.80 95.88 167.80
  Q 95.75 167.24 96.16 166.84
  Q 96.45 166.55 96.19 166.23
  Q 95.92 165.90 95.92 165.48
  L 95.81 159.75
  A 0.76 0.54 61.6 0 1 95.83 159.58
  Q 96.09 158.81 95.97 158.16
  Q 95.78 157.03 95.79 156.79
  Q 96.05 149.50 95.74 142.22
  Q 95.60 139.02 95.88 135.92
  C 96.05 134.17 95.61 132.53 95.68 130.82
  Q 96.02 122.46 95.83 114.09
  Q 95.81 113.36 96.09 112.70
  Q 96.29 112.25 96.23 111.75
  Q 95.91 109.03 95.83 106.22
  Q 95.80 105.03 96.11 104.25
  Q 96.28 103.80 96.69 103.54
  Q 98.21 102.58 97.52 100.68
  Q 97.36 100.23 97.51 99.78
  Q 98.21 97.77 97.74 95.69
  A 1.49 1.45 50.5 0 1 97.81 94.82
  Q 98.03 94.27 98.29 93.75
  Q 98.51 93.30 98.53 92.71
  Q 98.63 89.73 98.29 86.74
  Q 98.23 86.24 98.39 85.76
  Q 98.57 85.20 98.03 84.94
  Q 97.58 84.73 97.77 84.28
  Q 97.95 83.84 98.45 83.91
  A 0.09 0.08 6.7 0 0 98.55 83.84
  Q 98.72 82.52 99.78 81.91
  Z"
/>
<path fill="#9fa8d7" d="
  M 232.69 102.48
  L 232.77 104.71
  Q 232.79 105.12 232.41 105.28
  Q 232.25 105.34 232.13 105.46
  Q 232.07 105.51 232.12 105.57
  Q 232.66 106.22 232.47 107.07
  Q 232.37 107.54 232.70 107.90
  Q 233.57 108.82 232.81 109.86
  Q 232.46 110.34 232.67 110.91
  L 233.10 112.03
  Q 233.29 112.52 233.27 113.05
  Q 233.20 115.27 233.22 117.44
  Q 233.25 119.71 232.89 121.84
  Q 232.46 124.46 232.90 127.28
  Q 232.98 127.76 233.30 128.12
  Q 233.66 128.54 233.50 129.04
  Q 233.34 129.52 233.51 130.00
  Q 233.85 130.97 233.85 132.02
  Q 233.90 137.55 233.88 142.86
  A 65.48 20.04 -84.3 0 0 234.05 151.54
  Q 234.09 152.53 233.96 156.00
  Q 233.89 158.01 234.10 159.93
  C 234.30 161.78 233.84 163.54 233.95 165.37
  Q 234.27 170.46 233.81 175.51
  A 1.47 1.43 69.9 0 1 233.44 176.34
  Q 232.93 176.91 232.96 177.70
  Q 233.05 180.61 233.78 183.28
  Q 233.92 183.81 233.80 184.35
  Q 233.23 186.84 234.13 188.99
  Q 234.33 189.47 234.10 189.94
  C 233.39 191.35 234.08 192.52 234.77 193.72
  Q 235.23 194.53 235.30 195.70
  Q 235.39 197.28 236.11 198.82
  L 207.04 275.85
  Q 206.26 274.69 206.72 273.64
  Q 206.92 273.20 206.65 272.79
  Q 205.74 271.36 205.86 270.40
  Q 206.57 265.10 205.77 260.40
  Q 205.48 258.68 205.74 257.11
  Q 206.02 255.42 205.93 253.73
  Q 205.78 251.17 205.91 248.73
  Q 206.12 244.68 206.11 240.25
  Q 206.11 239.97 205.98 239.72
  Q 205.81 239.38 205.88 239.00
  Q 206.35 236.32 205.93 232.60
  Q 205.57 229.43 207.71 226.64
  Q 208.01 226.24 208.01 225.74
  Q 208.02 219.11 207.20 212.98
  Q 207.14 212.54 206.82 212.25
  Q 205.64 211.17 206.24 209.52
  Q 206.62 208.44 207.19 207.37
  Q 207.76 206.31 207.65 205.00
  Q 207.48 203.02 207.48 201.16
  Q 207.48 200.44 206.75 200.39
  Q 206.47 200.37 206.24 200.21
  Q 205.80 199.92 205.75 199.39
  Q 205.33 194.86 205.94 190.90
  Q 206.67 186.16 206.27 181.06
  Q 206.24 180.64 205.82 180.72
  Q 205.22 180.83 204.94 180.17
  A 0.69 0.68 -27.4 0 1 205.21 179.32
  Q 205.58 179.08 205.72 178.65
  Q 205.77 178.52 205.63 178.49
  Q 205.57 178.48 205.55 178.53
  Q 205.39 178.88 205.39 178.50
  Q 205.39 178.18 205.21 177.99
  L 232.69 102.48
  Z"
/>
<path fill="#80b0bf" d="
  M 123.09 145.84
  L 152.65 226.99
  Q 152.00 226.87 151.63 227.22
  Q 151.20 227.63 150.86 227.23
  Q 150.71 227.05 150.53 227.20
  Q 149.21 228.27 149.10 229.04
  Q 148.76 231.29 148.26 233.28
  Q 148.14 233.75 148.25 234.23
  Q 148.38 234.76 148.19 235.27
  Q 147.95 235.98 147.96 236.69
  Q 148.19 253.93 147.75 273.66
  Q 147.69 275.93 147.50 278.24
  C 147.32 280.39 146.37 281.82 146.75 284.16
  Q 147.08 286.20 146.06 288.05
  Q 145.83 288.48 145.91 288.96
  Q 146.04 289.77 146.15 290.63
  Q 146.28 291.73 146.15 292.78
  Q 145.80 295.71 145.67 298.83
  Q 145.66 299.13 145.45 299.35
  Q 145.35 299.45 145.22 299.51
  Q 144.95 299.62 144.96 299.93
  Q 144.99 301.26 144.64 302.53
  Q 144.53 302.89 144.22 302.67
  Q 144.09 302.58 143.99 302.71
  Q 143.88 302.85 143.87 303.04
  Q 143.84 303.73 144.46 304.05
  Q 145.68 304.67 144.65 305.78
  Q 144.30 306.16 144.71 306.52
  Q 145.24 306.98 145.28 307.68
  L 145.46 310.48
  L 116.16 232.76
  Q 116.43 232.53 116.61 232.26
  Q 116.80 231.97 117.00 232.23
  Q 117.03 232.28 117.09 232.26
  Q 117.20 232.23 117.24 232.13
  Q 117.61 231.16 117.04 230.45
  Q 116.86 230.23 117.00 229.98
  Q 118.69 227.00 118.70 224.01
  C 118.71 221.53 119.38 219.13 119.37 216.64
  Q 119.34 209.28 119.62 201.77
  Q 120.13 188.00 119.24 173.60
  Q 119.07 170.89 119.30 167.26
  Q 119.44 165.02 119.60 162.76
  Q 119.71 161.26 119.61 159.75
  Q 119.51 158.35 119.59 156.74
  Q 119.89 151.05 120.54 147.75
  Q 120.89 145.98 123.09 145.84
  Z"
/>
<path fill="#94abcf" d="
  M 205.21 177.99
  Q 205.39 178.18 205.39 178.50
  Q 205.39 178.88 205.55 178.53
  Q 205.57 178.48 205.63 178.49
  Q 205.77 178.52 205.72 178.65
  Q 205.58 179.08 205.21 179.32
  A 0.69 0.68 -27.4 0 0 204.94 180.17
  Q 205.22 180.83 205.82 180.72
  Q 206.24 180.64 206.27 181.06
  Q 206.67 186.16 205.94 190.90
  Q 205.33 194.86 205.75 199.39
  Q 205.80 199.92 206.24 200.21
  Q 206.47 200.37 206.75 200.39
  Q 207.48 200.44 207.48 201.16
  Q 207.48 203.02 207.65 205.00
  Q 207.76 206.31 207.19 207.37
  Q 206.62 208.44 206.24 209.52
  Q 205.64 211.17 206.82 212.25
  Q 207.14 212.54 207.20 212.98
  Q 208.02 219.11 208.01 225.74
  Q 208.01 226.24 207.71 226.64
  Q 205.57 229.43 205.93 232.60
  Q 206.35 236.32 205.88 239.00
  Q 205.81 239.38 205.98 239.72
  Q 206.11 239.97 206.11 240.25
  Q 206.12 244.68 205.91 248.73
  Q 205.78 251.17 205.93 253.73
  Q 206.02 255.42 205.74 257.11
  Q 205.48 258.68 205.77 260.40
  Q 206.57 265.10 205.86 270.40
  Q 205.74 271.36 206.65 272.79
  Q 206.92 273.20 206.72 273.64
  Q 206.26 274.69 207.04 275.85
  L 192.36 314.75
  A 1.16 1.16 0.0 0 1 191.27 315.51
  L 172.52 315.47
  Q 173.06 312.88 172.23 309.60
  Q 172.06 308.92 172.42 308.33
  Q 172.81 307.70 172.67 307.02
  Q 172.40 305.77 172.58 304.50
  Q 172.88 302.25 173.04 300.25
  A 1.21 1.20 29.1 0 0 172.80 299.42
  Q 171.91 298.22 172.86 296.88
  Q 173.20 296.41 173.20 295.83
  L 173.20 279.00
  Q 173.20 278.52 172.93 278.01
  Q 172.34 276.90 172.69 275.79
  Q 172.88 275.18 172.26 275.03
  Q 170.80 274.70 170.50 273.51
  L 205.21 177.99
  Z"
/>
<path fill="#88aec5" d="
  M 152.65 226.99
  Q 159.77 246.58 166.94 266.15
  Q 168.09 269.28 169.05 272.47
  Q 169.68 274.55 170.50 273.51
  Q 170.80 274.70 172.26 275.03
  Q 172.88 275.18 172.69 275.79
  Q 172.34 276.90 172.93 278.01
  Q 173.20 278.52 173.20 279.00
  L 173.20 295.83
  Q 173.20 296.41 172.86 296.88
  Q 171.91 298.22 172.80 299.42
  A 1.21 1.20 29.1 0 1 173.04 300.25
  Q 172.88 302.25 172.58 304.50
  Q 172.40 305.77 172.67 307.02
  Q 172.81 307.70 172.42 308.33
  Q 172.06 308.92 172.23 309.60
  Q 173.06 312.88 172.52 315.47
  L 148.12 315.39
  Q 147.62 315.39 147.34 314.97
  Q 146.02 313.00 145.46 310.48
  L 145.28 307.68
  Q 145.24 306.98 144.71 306.52
  Q 144.30 306.16 144.65 305.78
  Q 145.68 304.67 144.46 304.05
  Q 143.84 303.73 143.87 303.04
  Q 143.88 302.85 143.99 302.71
  Q 144.09 302.58 144.22 302.67
  Q 144.53 302.89 144.64 302.53
  Q 144.99 301.26 144.96 299.93
  Q 144.95 299.62 145.22 299.51
  Q 145.35 299.45 145.45 299.35
  Q 145.66 299.13 145.67 298.83
  Q 145.80 295.71 146.15 292.78
  Q 146.28 291.73 146.15 290.63
  Q 146.04 289.77 145.91 288.96
  Q 145.83 288.48 146.06 288.05
  Q 147.08 286.20 146.75 284.16
  C 146.37 281.82 147.32 280.39 147.50 278.24
  Q 147.69 275.93 147.75 273.66
  Q 148.19 253.93 147.96 236.69
  Q 147.95 235.98 148.19 235.27
  Q 148.38 234.76 148.25 234.23
  Q 148.14 233.75 148.26 233.28
  Q 148.76 231.29 149.10 229.04
  Q 149.21 228.27 150.53 227.20
  Q 150.71 227.05 150.86 227.23
  Q 151.20 227.63 151.63 227.22
  Q 152.00 226.87 152.65 226.99
  Z"
/>
</svg>
