<?xml version="1.0" encoding="UTF-8"?>
<svg version="1.1" xmlns="http://www.w3.org/2000/svg" width="64" height="64">
<path d="M0 0 C1.8569751 -0.00472824 1.8569751 -0.00472824 3.75146484 -0.009552 C5.11295609 -0.00776222 6.47444701 -0.00571127 7.8359375 -0.00341797 C9.22216814 -0.00409106 10.60839867 -0.00506113 11.99462891 -0.00631714 C14.90333172 -0.00779387 17.81200387 -0.00564037 20.72070312 -0.00097656 C24.45690348 0.00472073 28.19303202 0.00144159 31.92922974 -0.00454903 C34.79273016 -0.00815532 37.65621343 -0.00701574 40.51971436 -0.00442123 C41.89768482 -0.00375215 43.27565682 -0.00457973 44.65362549 -0.00690079 C46.57637504 -0.00942839 48.49913002 -0.0048957 50.421875 0 C52.06615479 0.00119339 52.06615479 0.00119339 53.74365234 0.00241089 C56.2109375 0.12939453 56.2109375 0.12939453 57.2109375 1.12939453 C57.3121067 4.22020918 57.35062308 7.28822008 57.34375 10.37939453 C57.34470673 11.3078418 57.34566345 12.23628906 57.34664917 13.19287109 C57.34733105 15.15999418 57.34547622 17.12711949 57.34130859 19.09423828 C57.33596045 22.11642479 57.34125332 25.13846268 57.34765625 28.16064453 C57.34699547 30.06689486 57.34571431 31.9731451 57.34375 33.87939453 C57.34577423 34.78979492 57.34779846 35.70019531 57.34988403 36.63818359 C57.32588719 43.01444485 57.32588719 43.01444485 56.2109375 44.12939453 C54.28331933 44.22860316 52.35204396 44.25738818 50.421875 44.25878906 C49.1838916 44.26194122 47.9459082 44.26509338 46.67041016 44.26834106 C45.30891891 44.26655128 43.94742799 44.26450033 42.5859375 44.26220703 C41.19970686 44.26288012 39.81347633 44.26385019 38.42724609 44.2651062 C35.51854328 44.26658293 32.60987113 44.26442943 29.70117188 44.25976562 C25.96497152 44.25406834 22.22884298 44.25734748 18.49264526 44.26333809 C15.62914484 44.26694438 12.76566157 44.2658048 9.90216064 44.2632103 C8.52419018 44.26254122 7.14621818 44.2633688 5.76824951 44.26568985 C3.84549996 44.26821745 1.92274498 44.26368477 0 44.25878906 C-1.64427979 44.25759567 -1.64427979 44.25759567 -3.32177734 44.25637817 C-5.7890625 44.12939453 -5.7890625 44.12939453 -6.7890625 43.12939453 C-6.8902317 40.03857988 -6.92874808 36.97056898 -6.921875 33.87939453 C-6.92283173 32.95094727 -6.92378845 32.0225 -6.92477417 31.06591797 C-6.92545605 29.09879489 -6.92360122 27.13166957 -6.91943359 25.16455078 C-6.91408545 22.14236427 -6.91937832 19.12032639 -6.92578125 16.09814453 C-6.92512047 14.1918942 -6.92383931 12.28564396 -6.921875 10.37939453 C-6.92389923 9.46899414 -6.92592346 8.55859375 -6.92800903 7.62060547 C-6.89934798 0.00500743 -6.89934798 0.00500743 0 0 Z M0.2109375 4.12939453 C4.44364011 8.36209714 8.87527632 11.85569079 13.6484375 15.44189453 C14.49470703 16.09996094 15.34097656 16.75802734 16.21289062 17.43603516 C17.03595703 18.05285156 17.85902344 18.66966797 18.70703125 19.30517578 C19.45138428 19.87147705 20.1957373 20.43777832 20.96264648 21.02124023 C23.16769775 22.33584203 23.16769775 22.33584203 25.70874023 21.99682617 C28.4822085 21.03535357 30.40208608 19.83299672 32.75 18.07470703 C33.57757813 17.45982422 34.40515625 16.84494141 35.2578125 16.21142578 C36.10859375 15.56560547 36.959375 14.91978516 37.8359375 14.25439453 C38.69445313 13.61630859 39.55296875 12.97822266 40.4375 12.32080078 C43.91766439 9.71611524 47.12991853 7.2104135 50.2109375 4.12939453 C33.7109375 4.12939453 17.2109375 4.12939453 0.2109375 4.12939453 Z M-3.7890625 6.12939453 C-3.7890625 16.35939453 -3.7890625 26.58939453 -3.7890625 37.12939453 C0.36707895 32.97325308 3.81162131 28.88413722 7.34375 24.23876953 C9.2109375 22.12939453 9.2109375 22.12939453 12.2109375 21.12939453 C9.20018634 27.01999463 5.30275052 31.82392557 1.0390625 36.87158203 C-0.89394176 38.7747372 -0.89394176 38.7747372 -0.7890625 40.12939453 C16.3709375 40.12939453 33.5309375 40.12939453 51.2109375 40.12939453 C47.29922254 34.90137996 47.29922254 34.90137996 43.34765625 29.70361328 C42.63029297 28.7696875 42.63029297 28.7696875 41.8984375 27.81689453 C41.16173828 26.86363281 41.16173828 26.86363281 40.41015625 25.89111328 C39.2109375 24.12939453 39.2109375 24.12939453 38.2109375 21.12939453 C42.9656502 23.49819924 45.42499376 26.62202017 48.4609375 30.81689453 C50.02256613 32.94043866 51.60203776 35.04080431 53.2109375 37.12939453 C53.5409375 37.12939453 53.8709375 37.12939453 54.2109375 37.12939453 C54.2109375 26.89939453 54.2109375 16.66939453 54.2109375 6.12939453 C47.55588839 10.56609394 41.21579468 15.09363611 34.98632812 20.06884766 C31.15367143 23.0282408 28.2486875 25.10792685 23.2109375 25.12939453 C21.25390625 24.37158203 21.25390625 24.37158203 19.3984375 23.00439453 C18.64949219 22.46298828 17.90054687 21.92158203 17.12890625 21.36376953 C15.68451172 20.25775391 15.68451172 20.25775391 14.2109375 19.12939453 C13.19507568 18.35499023 13.19507568 18.35499023 12.15869141 17.56494141 C9.06070118 15.2026656 5.96396123 12.83943787 2.88745117 10.44921875 C2.16920166 9.89250488 1.45095215 9.33579102 0.7109375 8.76220703 C0.06125 8.2557666 -0.5884375 7.74932617 -1.2578125 7.22753906 C-2.61044794 6.0322643 -2.61044794 6.0322643 -3.7890625 6.12939453 Z " fill="#FFFFFF" transform="translate(6.7890625,9.87060546875)"/>
</svg>
