<?xml version="1.0" encoding="UTF-8" standalone="no"?>
<!DOCTYPE svg PUBLIC "-//W3C//DTD SVG 1.1//EN" "http://www.w3.org/Graphics/SVG/1.1/DTD/svg11.dtd">
<svg xmlns="http://www.w3.org/2000/svg" version="1.1" viewBox="0.00 0.00 94.00 94.00">
<g stroke-width="2.00" fill="none" stroke-linecap="butt">
<path stroke="#1b95ec" vector-effect="non-scaling-stroke" d="
  M 56.79 12.13
  Q 43.68 12.66 30.76 13.33
  Q 30.70 13.33 30.26 13.42
  Q 29.38 13.60 28.82 12.02"
/>
<path stroke="#1d65ee" vector-effect="non-scaling-stroke" d="
  M 76.44 12.03
  L 66.32 13.50
  Q 65.82 13.57 65.44 13.89
  L 58.49 19.63
  Q 58.16 19.90 57.75 20.02
  Q 56.78 20.29 56.68 21.30
  Q 56.63 21.77 56.32 22.13
  Q 54.51 24.18 52.19 25.26
  A 2.11 1.98 -82.8 0 0 51.39 25.92
  Q 50.73 26.84 49.74 27.24
  Q 49.25 27.44 49.00 27.89
  Q 48.71 28.44 48.19 28.67
  C 47.04 29.19 46.05 29.89 44.91 30.43
  Q 44.74 30.51 44.67 30.69
  Q 44.61 30.84 44.68 31.03
  Q 44.76 31.25 44.53 31.21
  Q 41.48 30.70 42.37 32.42"
/>
<path stroke="#39a7f1" vector-effect="non-scaling-stroke" d="
  M 42.37 32.42
  L 28.70 32.38"
/>
<path stroke="#33d2ed" vector-effect="non-scaling-stroke" d="
  M 46.30 34.46
  Q 46.32 35.20 45.50 35.25
  Q 35.87 35.93 27.51 35.49"
/>
<path stroke="#3cdbef" stroke-opacity="0.996" vector-effect="non-scaling-stroke" d="
  M 27.51 35.49
  L 29.82 35.06
  Q 30.77 34.89 29.81 34.81
  Q 26.50 34.54 22.74 35.21"
/>
<path stroke="#33d2ed" vector-effect="non-scaling-stroke" d="
  M 22.74 35.21
  C 19.56 35.48 16.23 35.03 13.11 35.91
  Q 12.83 35.99 11.38 36.07
  Q 10.20 36.15 9.88 37.38
  Q 9.34 39.49 7.75 39.85"
/>
<path stroke="#176dea" vector-effect="non-scaling-stroke" d="
  M 86.46 19.00
  Q 84.05 19.04 82.15 21.51
  Q 82.04 21.65 81.86 21.63
  Q 81.72 21.62 81.59 21.63
  Q 81.29 21.64 81.05 21.81
  Q 79.06 23.20 77.49 25.30
  Q 75.72 27.67 73.27 29.39
  Q 72.82 29.71 72.54 30.19
  Q 72.08 31.02 71.20 31.26
  Q 70.67 31.40 70.29 31.79
  Q 67.85 34.24 65.07 36.42
  Q 64.28 37.04 63.65 37.88
  Q 63.03 38.71 62.29 39.41
  Q 60.98 40.64 59.87 42.46
  Q 59.61 42.88 59.12 42.95
  Q 58.58 43.02 58.25 43.48
  Q 56.88 45.36 55.27 47.24
  Q 54.88 47.69 54.87 47.10
  Q 54.87 46.96 54.88 46.82
  Q 54.97 45.92 54.63 46.75
  Q 54.53 46.99 54.49 47.25
  Q 54.04 50.17 52.66 52.43
  Q 51.83 53.80 51.20 55.27
  Q 50.54 56.81 49.35 57.79
  Q 46.45 60.18 43.27 60.08
  Q 42.44 60.05 43.18 60.43
  L 45.04 61.37"
/>
<path stroke="#144de8" vector-effect="non-scaling-stroke" d="
  M 41.04 61.37
  Q 40.62 61.19 40.09 61.23"
/>
<path stroke="#1558e9" vector-effect="non-scaling-stroke" d="
  M 40.09 61.23
  Q 39.42 60.94 39.32 60.48
  Q 39.21 59.89 39.80 59.84
  Q 40.69 59.75 41.17 58.91
  A 1.44 1.44 0.0 0 1 42.19 58.20
  Q 45.29 57.68 46.28 55.40
  Q 46.47 54.94 46.96 54.84
  Q 47.28 54.77 47.31 54.51
  Q 47.34 54.24 47.47 53.99
  Q 48.15 52.63 48.89 51.21
  Q 49.12 50.77 49.52 50.50
  C 51.01 49.50 51.02 46.99 51.41 45.35
  Q 51.53 44.83 51.91 44.45
  Q 52.25 44.10 52.22 43.54
  A 1.23 1.20 21.4 0 0 51.85 42.72
  L 51.23 42.13
  Q 50.79 41.71 51.03 41.15
  Q 51.70 39.60 51.46 37.88
  Q 51.38 37.35 50.96 37.02
  Q 50.08 36.33 49.08 36.36
  Q 48.52 36.37 48.05 36.07
  Q 47.90 35.97 47.82 35.81
  Q 47.51 35.17 46.99 35.71
  Q 46.80 35.91 46.56 35.94"
/>
<path stroke="#1790ea" vector-effect="non-scaling-stroke" d="
  M 46.56 35.94
  L 46.30 34.46"
/>
<path stroke="#35a2ef" vector-effect="non-scaling-stroke" d="
  M 46.30 34.46
  Q 45.82 32.50 42.37 32.42"
/>
<path stroke="#1388e8" vector-effect="non-scaling-stroke" d="
  M 46.56 35.94
  Q 46.22 37.89 44.52 38.14
  Q 40.03 38.77 35.58 38.67"
/>
<path stroke="#11a0dc" vector-effect="non-scaling-stroke" d="
  M 35.58 38.67
  L 31.34 38.27"
/>
<path stroke="#14ade8" vector-effect="non-scaling-stroke" d="
  M 31.34 38.27
  Q 29.90 37.17 27.10 38.13"
/>
<path stroke="#13b2e8" vector-effect="non-scaling-stroke" d="
  M 27.10 38.13
  Q 27.12 37.92 27.24 37.82
  Q 27.40 37.68 27.44 37.47
  Q 27.48 37.27 27.28 37.27
  Q 26.65 37.27 27.21 36.99
  Q 27.42 36.88 27.62 36.74
  Q 28.00 36.49 28.46 36.51
  Q 31.20 36.59 34.24 36.58
  Q 35.25 36.57 36.18 36.35
  Q 37.27 36.08 38.30 36.49
  Q 38.75 36.67 39.22 36.54
  L 40.25 36.28
  Q 41.07 36.07 40.23 36.08
  L 25.84 36.18
  Q 25.44 36.18 25.39 36.58
  Q 25.23 37.68 24.54 38.65
  Q 24.27 39.04 24.26 39.52
  L 24.20 44.78
  Q 24.19 45.38 23.64 45.60
  Q 22.70 45.99 22.09 46.89
  Q 21.78 47.35 21.30 47.65
  L 17.41 50.00
  Q 16.88 50.32 16.27 50.39
  Q 13.59 50.67 11.18 51.90
  Q 10.35 52.32 10.15 51.40
  Q 9.75 49.61 8.44 48.14
  Q 8.12 47.77 8.14 47.28
  Q 8.20 45.83 7.59 46.42"
/>
<path stroke="#1cc9e9" vector-effect="non-scaling-stroke" d="
  M 22.74 35.21
  L 27.51 35.49"
/>
<path stroke="#148ae8" vector-effect="non-scaling-stroke" d="
  M 86.48 29.38
  Q 85.51 29.70 84.59 30.66
  Q 84.25 31.02 84.17 31.50
  Q 84.02 32.34 83.22 32.35
  Q 82.71 32.36 82.28 32.64
  Q 77.94 35.42 74.21 40.14
  Q 72.82 41.90 70.85 43.63
  Q 68.62 45.59 66.55 47.17
  Q 63.15 49.76 60.45 54.50
  Q 60.07 55.16 59.48 55.69
  Q 59.27 55.87 59.05 55.74
  Q 58.66 55.52 58.42 55.90
  L 56.06 59.57
  Q 55.75 60.05 56.27 60.27
  Q 56.96 60.56 57.01 61.38"
/>
<path stroke="#1045e6" vector-effect="non-scaling-stroke" d="
  M 40.09 61.23
  L 37.20 61.27
  Q 36.67 61.28 36.65 60.75
  L 36.58 59.18
  Q 36.57 58.76 36.88 58.48
  Q 37.35 58.05 37.93 57.92
  A 5.00 4.59 -77.7 0 0 40.94 55.80
  Q 42.00 54.17 43.52 53.21
  Q 43.91 52.96 44.16 52.58
  Q 45.29 50.78 46.33 49.12
  Q 46.93 48.15 46.82 46.91
  C 46.65 44.88 47.24 43.11 45.02 41.86
  Q 44.64 41.64 44.26 41.89
  Q 44.00 42.05 43.73 41.93
  Q 42.10 41.19 40.78 39.98
  Q 40.42 39.64 39.92 39.61
  L 30.04 38.92"
/>
<path stroke="#0f67dc" vector-effect="non-scaling-stroke" d="
  M 30.04 38.92
  L 35.58 38.67"
/>
<path stroke="#129ee7" vector-effect="non-scaling-stroke" d="
  M 27.10 38.13
  Q 25.76 38.49 25.98 38.87"
/>
<path stroke="#0e5cda" vector-effect="non-scaling-stroke" d="
  M 30.04 38.92
  Q 29.31 39.22 28.63 39.03"
/>
<path stroke="#108cdc" vector-effect="non-scaling-stroke" d="
  M 31.34 38.27
  Q 29.21 37.91 27.52 38.77"
/>
<path stroke="#33d2ed" vector-effect="non-scaling-stroke" d="
  M 23.07 15.76
  Q 22.48 16.14 22.52 16.34
  Q 22.79 17.64 21.72 16.82
  Q 19.02 14.75 17.27 16.31
  A 1.52 1.52 0.0 0 1 16.58 16.65
  Q 15.29 16.89 14.10 17.17
  Q 13.12 17.40 12.51 16.65
  A 1.49 1.49 0.0 0 0 9.96 17.05
  Q 9.55 18.10 8.20 17.80"
/>
<path stroke="#11a0dc" vector-effect="non-scaling-stroke" d="
  M 24.37 19.32
  Q 23.21 19.89 22.86 19.27
  Q 22.77 19.11 22.87 18.96
  Q 22.94 18.84 22.94 18.71
  Q 22.92 17.54 22.39 18.58
  Q 22.27 18.82 21.96 18.77
  Q 21.62 18.70 21.56 19.04
  Q 21.47 19.55 20.84 19.73
  Q 17.02 20.83 13.28 20.73
  Q 12.71 20.71 12.15 20.78
  L 7.86 21.28"
/>
<path stroke="#11a9dd" vector-effect="non-scaling-stroke" d="
  M 86.10 71.70
  Q 85.03 74.05 80.41 73.42
  Q 80.16 73.38 80.06 73.62
  Q 79.96 73.84 79.72 73.85
  Q 77.48 73.88 75.35 73.88
  A 2.16 2.11 -56.9 0 0 74.45 74.08
  Q 72.87 74.84 71.53 73.78
  Q 71.28 73.58 70.96 73.59
  Q 70.76 73.59 70.81 73.79
  A 0.17 0.16 -77.9 0 1 70.55 73.96
  Q 69.71 73.28 69.93 71.74"
/>
<path stroke="#1bbbe9" stroke-opacity="0.996" vector-effect="non-scaling-stroke" d="
  M 24.48 72.67
  Q 18.44 74.33 14.76 73.90
  Q 10.55 73.41 9.18 70.56"
/>
<path stroke="#19b2de" stroke-opacity="0.996" vector-effect="non-scaling-stroke" d="
  M 9.18 70.56
  Q 9.26 69.54 9.08 69.44"
/>
<path stroke="#0f9adc" stroke-opacity="0.996" vector-effect="non-scaling-stroke" d="
  M 9.18 70.56
  Q 9.31 71.13 8.52 72.77
  A 0.52 0.51 -70.4 0 0 8.86 73.49
  Q 9.14 73.56 9.00 73.75
  Q 8.64 74.21 9.12 74.54
  Q 10.48 75.50 11.97 75.80
  Q 12.37 75.89 12.74 76.07
  Q 13.25 76.33 13.61 75.89
  A 0.90 0.89 -62.9 0 1 14.55 75.58
  Q 16.75 76.20 18.77 75.54
  Q 19.23 75.38 19.67 75.58
  Q 22.36 76.76 24.25 76.14"
/>
<path stroke="#19a9dd" stroke-opacity="0.996" vector-effect="non-scaling-stroke" d="
  M 45.03 72.73
  Q 42.26 73.58 39.12 73.73
  Q 37.11 73.83 34.47 74.28
  Q 31.87 74.72 29.72 74.32
  Q 28.82 74.16 28.62 71.97"
/>
<path stroke="#11a0dc" vector-effect="non-scaling-stroke" d="
  M 65.74 74.67
  Q 64.17 75.64 63.00 75.37
  C 61.27 74.96 59.28 74.49 57.49 75.05
  Q 54.33 76.03 50.87 74.40
  Q 50.70 74.33 50.52 74.36
  L 50.12 74.43
  Q 49.65 74.52 49.39 74.12
  L 49.17 73.79"
/>
</g>
<path fill="#14c0e8" d="
  M 56.79 12.13
  Q 43.68 12.66 30.76 13.33
  Q 30.70 13.33 30.26 13.42
  Q 29.38 13.60 28.82 12.02
  Q 42.64 11.32 56.79 12.13
  Z"
/>
<path fill="#216af0" d="
  M 56.79 12.13
  Q 65.88 11.38 76.44 12.03
  L 66.32 13.50
  Q 65.82 13.57 65.44 13.89
  L 58.49 19.63
  Q 58.16 19.90 57.75 20.02
  Q 56.78 20.29 56.68 21.30
  Q 56.63 21.77 56.32 22.13
  Q 54.51 24.18 52.19 25.26
  A 2.11 1.98 -82.8 0 0 51.39 25.92
  Q 50.73 26.84 49.74 27.24
  Q 49.25 27.44 49.00 27.89
  Q 48.71 28.44 48.19 28.67
  C 47.04 29.19 46.05 29.89 44.91 30.43
  Q 44.74 30.51 44.67 30.69
  Q 44.61 30.84 44.68 31.03
  Q 44.76 31.25 44.53 31.21
  Q 41.48 30.70 42.37 32.42
  L 28.70 32.38
  L 28.82 12.02
  Q 29.38 13.60 30.26 13.42
  Q 30.70 13.33 30.76 13.33
  Q 43.68 12.66 56.79 12.13
  Z"
/>
<path fill="#1960eb" d="
  M 76.44 12.03
  L 84.87 11.80
  A 1.59 1.59 0.0 0 1 86.50 13.40
  L 86.46 19.00
  Q 84.05 19.04 82.15 21.51
  Q 82.04 21.65 81.86 21.63
  Q 81.72 21.62 81.59 21.63
  Q 81.29 21.64 81.05 21.81
  Q 79.06 23.20 77.49 25.30
  Q 75.72 27.67 73.27 29.39
  Q 72.82 29.71 72.54 30.19
  Q 72.08 31.02 71.20 31.26
  Q 70.67 31.40 70.29 31.79
  Q 67.85 34.24 65.07 36.42
  Q 64.28 37.04 63.65 37.88
  Q 63.03 38.71 62.29 39.41
  Q 60.98 40.64 59.87 42.46
  Q 59.61 42.88 59.12 42.95
  Q 58.58 43.02 58.25 43.48
  Q 56.88 45.36 55.27 47.24
  Q 54.88 47.69 54.87 47.10
  Q 54.87 46.96 54.88 46.82
  Q 54.97 45.92 54.63 46.75
  Q 54.53 46.99 54.49 47.25
  Q 54.04 50.17 52.66 52.43
  Q 51.83 53.80 51.20 55.27
  Q 50.54 56.81 49.35 57.79
  Q 46.45 60.18 43.27 60.08
  Q 42.44 60.05 43.18 60.43
  L 45.04 61.37
  L 41.04 61.37
  Q 40.62 61.19 40.09 61.23
  Q 39.42 60.94 39.32 60.48
  Q 39.21 59.89 39.80 59.84
  Q 40.69 59.75 41.17 58.91
  A 1.44 1.44 0.0 0 1 42.19 58.20
  Q 45.29 57.68 46.28 55.40
  Q 46.47 54.94 46.96 54.84
  Q 47.28 54.77 47.31 54.51
  Q 47.34 54.24 47.47 53.99
  Q 48.15 52.63 48.89 51.21
  Q 49.12 50.77 49.52 50.50
  C 51.01 49.50 51.02 46.99 51.41 45.35
  Q 51.53 44.83 51.91 44.45
  Q 52.25 44.10 52.22 43.54
  A 1.23 1.20 21.4 0 0 51.85 42.72
  L 51.23 42.13
  Q 50.79 41.71 51.03 41.15
  Q 51.70 39.60 51.46 37.88
  Q 51.38 37.35 50.96 37.02
  Q 50.08 36.33 49.08 36.36
  Q 48.52 36.37 48.05 36.07
  Q 47.90 35.97 47.82 35.81
  Q 47.51 35.17 46.99 35.71
  Q 46.80 35.91 46.56 35.94
  L 46.30 34.46
  Q 45.82 32.50 42.37 32.42
  Q 41.48 30.70 44.53 31.21
  Q 44.76 31.25 44.68 31.03
  Q 44.61 30.84 44.67 30.69
  Q 44.74 30.51 44.91 30.43
  C 46.05 29.89 47.04 29.19 48.19 28.67
  Q 48.71 28.44 49.00 27.89
  Q 49.25 27.44 49.74 27.24
  Q 50.73 26.84 51.39 25.92
  A 2.11 1.98 -82.8 0 1 52.19 25.26
  Q 54.51 24.18 56.32 22.13
  Q 56.63 21.77 56.68 21.30
  Q 56.78 20.29 57.75 20.02
  Q 58.16 19.90 58.49 19.63
  L 65.44 13.89
  Q 65.82 13.57 66.32 13.50
  L 76.44 12.03
  Z"
/>
<path fill="#52e4f3" fill-opacity="0.996" d="
  M 23.07 15.76
  Q 22.48 16.14 22.52 16.34
  Q 22.79 17.64 21.72 16.82
  Q 19.02 14.75 17.27 16.31
  A 1.52 1.52 0.0 0 1 16.58 16.65
  Q 15.29 16.89 14.10 17.17
  Q 13.12 17.40 12.51 16.65
  A 1.49 1.49 0.0 0 0 9.96 17.05
  Q 9.55 18.10 8.20 17.80
  A 8.29 8.28 4.1 0 1 14.75 12.12
  A 8.32 8.29 68.5 0 1 23.07 15.76
  Z"
/>
<path fill="#14c0e8" d="
  M 23.07 15.76
  A 8.44 8.44 0.0 0 1 24.37 19.32
  Q 23.21 19.89 22.86 19.27
  Q 22.77 19.11 22.87 18.96
  Q 22.94 18.84 22.94 18.71
  Q 22.92 17.54 22.39 18.58
  Q 22.27 18.82 21.96 18.77
  Q 21.62 18.70 21.56 19.04
  Q 21.47 19.55 20.84 19.73
  Q 17.02 20.83 13.28 20.73
  Q 12.71 20.71 12.15 20.78
  L 7.86 21.28
  A 8.49 8.35 -39.9 0 1 8.20 17.80
  Q 9.55 18.10 9.96 17.05
  A 1.49 1.49 0.0 0 1 12.51 16.65
  Q 13.12 17.40 14.10 17.17
  Q 15.29 16.89 16.58 16.65
  A 1.52 1.52 0.0 0 0 17.27 16.31
  Q 19.02 14.75 21.72 16.82
  Q 22.79 17.64 22.52 16.34
  Q 22.48 16.14 23.07 15.76
  Z"
/>
<path fill="#0d7fd0" fill-opacity="0.996" d="
  M 24.37 19.32
  A 8.31 8.31 0.0 0 1 14.75 28.51
  A 8.32 8.32 0.0 0 1 7.86 21.28
  L 12.15 20.78
  Q 12.71 20.71 13.28 20.73
  Q 17.02 20.83 20.84 19.73
  Q 21.47 19.55 21.56 19.04
  Q 21.62 18.70 21.96 18.77
  Q 22.27 18.82 22.39 18.58
  Q 22.92 17.54 22.94 18.71
  Q 22.94 18.84 22.87 18.96
  Q 22.77 19.11 22.86 19.27
  Q 23.21 19.89 24.37 19.32
  Z"
/>
<path fill="#157ae8" d="
  M 86.46 19.00
  L 86.48 29.38
  Q 85.51 29.70 84.59 30.66
  Q 84.25 31.02 84.17 31.50
  Q 84.02 32.34 83.22 32.35
  Q 82.71 32.36 82.28 32.64
  Q 77.94 35.42 74.21 40.14
  Q 72.82 41.90 70.85 43.63
  Q 68.62 45.59 66.55 47.17
  Q 63.15 49.76 60.45 54.50
  Q 60.07 55.16 59.48 55.69
  Q 59.27 55.87 59.05 55.74
  Q 58.66 55.52 58.42 55.90
  L 56.06 59.57
  Q 55.75 60.05 56.27 60.27
  Q 56.96 60.56 57.01 61.38
  L 45.04 61.37
  L 43.18 60.43
  Q 42.44 60.05 43.27 60.08
  Q 46.45 60.18 49.35 57.79
  Q 50.54 56.81 51.20 55.27
  Q 51.83 53.80 52.66 52.43
  Q 54.04 50.17 54.49 47.25
  Q 54.53 46.99 54.63 46.75
  Q 54.97 45.92 54.88 46.82
  Q 54.87 46.96 54.87 47.10
  Q 54.88 47.69 55.27 47.24
  Q 56.88 45.36 58.25 43.48
  Q 58.58 43.02 59.12 42.95
  Q 59.61 42.88 59.87 42.46
  Q 60.98 40.64 62.29 39.41
  Q 63.03 38.71 63.65 37.88
  Q 64.28 37.04 65.07 36.42
  Q 67.85 34.24 70.29 31.79
  Q 70.67 31.40 71.20 31.26
  Q 72.08 31.02 72.54 30.19
  Q 72.82 29.71 73.27 29.39
  Q 75.72 27.67 77.49 25.30
  Q 79.06 23.20 81.05 21.81
  Q 81.29 21.64 81.59 21.63
  Q 81.72 21.62 81.86 21.63
  Q 82.04 21.65 82.15 21.51
  Q 84.05 19.04 86.46 19.00
  Z"
/>
<path fill="#1399e7" d="
  M 86.48 29.38
  L 86.48 59.73
  A 1.64 1.64 0.0 0 1 84.84 61.37
  L 57.01 61.38
  Q 56.96 60.56 56.27 60.27
  Q 55.75 60.05 56.06 59.57
  L 58.42 55.90
  Q 58.66 55.52 59.05 55.74
  Q 59.27 55.87 59.48 55.69
  Q 60.07 55.16 60.45 54.50
  Q 63.15 49.76 66.55 47.17
  Q 68.62 45.59 70.85 43.63
  Q 72.82 41.90 74.21 40.14
  Q 77.94 35.42 82.28 32.64
  Q 82.71 32.36 83.22 32.35
  Q 84.02 32.34 84.17 31.50
  Q 84.25 31.02 84.59 30.66
  Q 85.51 29.70 86.48 29.38
  Z"
/>
<path fill="#52e4f3" fill-opacity="0.996" d="
  M 28.70 32.38
  L 42.37 32.42
  Q 45.82 32.50 46.30 34.46
  Q 46.32 35.20 45.50 35.25
  Q 35.87 35.93 27.51 35.49
  L 29.82 35.06
  Q 30.77 34.89 29.81 34.81
  Q 26.50 34.54 22.74 35.21
  C 19.56 35.48 16.23 35.03 13.11 35.91
  Q 12.83 35.99 11.38 36.07
  Q 10.20 36.15 9.88 37.38
  Q 9.34 39.49 7.75 39.85
  Q 8.97 33.32 15.50 32.36
  Q 18.27 31.95 28.70 32.38
  Z"
/>
<path fill="#14c0e8" d="
  M 46.30 34.46
  L 46.56 35.94
  Q 46.22 37.89 44.52 38.14
  Q 40.03 38.77 35.58 38.67
  L 31.34 38.27
  Q 29.90 37.17 27.10 38.13
  Q 27.12 37.92 27.24 37.82
  Q 27.40 37.68 27.44 37.47
  Q 27.48 37.27 27.28 37.27
  Q 26.65 37.27 27.21 36.99
  Q 27.42 36.88 27.62 36.74
  Q 28.00 36.49 28.46 36.51
  Q 31.20 36.59 34.24 36.58
  Q 35.25 36.57 36.18 36.35
  Q 37.27 36.08 38.30 36.49
  Q 38.75 36.67 39.22 36.54
  L 40.25 36.28
  Q 41.07 36.07 40.23 36.08
  L 25.84 36.18
  Q 25.44 36.18 25.39 36.58
  Q 25.23 37.68 24.54 38.65
  Q 24.27 39.04 24.26 39.52
  L 24.20 44.78
  Q 24.19 45.38 23.64 45.60
  Q 22.70 45.99 22.09 46.89
  Q 21.78 47.35 21.30 47.65
  L 17.41 50.00
  Q 16.88 50.32 16.27 50.39
  Q 13.59 50.67 11.18 51.90
  Q 10.35 52.32 10.15 51.40
  Q 9.75 49.61 8.44 48.14
  Q 8.12 47.77 8.14 47.28
  Q 8.20 45.83 7.59 46.42
  L 7.75 39.85
  Q 9.34 39.49 9.88 37.38
  Q 10.20 36.15 11.38 36.07
  Q 12.83 35.99 13.11 35.91
  C 16.23 35.03 19.56 35.48 22.74 35.21
  L 27.51 35.49
  Q 35.87 35.93 45.50 35.25
  Q 46.32 35.20 46.30 34.46
  Z"
/>
<path fill="#25d2ea" fill-opacity="0.996" d="
  M 27.51 35.49
  L 22.74 35.21
  Q 26.50 34.54 29.81 34.81
  Q 30.77 34.89 29.82 35.06
  L 27.51 35.49
  Z"
/>
<path fill="#1150e7" d="
  M 40.09 61.23
  L 37.20 61.27
  Q 36.67 61.28 36.65 60.75
  L 36.58 59.18
  Q 36.57 58.76 36.88 58.48
  Q 37.35 58.05 37.93 57.92
  A 5.00 4.59 -77.7 0 0 40.94 55.80
  Q 42.00 54.17 43.52 53.21
  Q 43.91 52.96 44.16 52.58
  Q 45.29 50.78 46.33 49.12
  Q 46.93 48.15 46.82 46.91
  C 46.65 44.88 47.24 43.11 45.02 41.86
  Q 44.64 41.64 44.26 41.89
  Q 44.00 42.05 43.73 41.93
  Q 42.10 41.19 40.78 39.98
  Q 40.42 39.64 39.92 39.61
  L 30.04 38.92
  L 35.58 38.67
  Q 40.03 38.77 44.52 38.14
  Q 46.22 37.89 46.56 35.94
  Q 46.80 35.91 46.99 35.71
  Q 47.51 35.17 47.82 35.81
  Q 47.90 35.97 48.05 36.07
  Q 48.52 36.37 49.08 36.36
  Q 50.08 36.33 50.96 37.02
  Q 51.38 37.35 51.46 37.88
  Q 51.70 39.60 51.03 41.15
  Q 50.79 41.71 51.23 42.13
  L 51.85 42.72
  A 1.23 1.20 21.4 0 1 52.22 43.54
  Q 52.25 44.10 51.91 44.45
  Q 51.53 44.83 51.41 45.35
  C 51.02 46.99 51.01 49.50 49.52 50.50
  Q 49.12 50.77 48.89 51.21
  Q 48.15 52.63 47.47 53.99
  Q 47.34 54.24 47.31 54.51
  Q 47.28 54.77 46.96 54.84
  Q 46.47 54.94 46.28 55.40
  Q 45.29 57.68 42.19 58.20
  A 1.44 1.44 0.0 0 0 41.17 58.91
  Q 40.69 59.75 39.80 59.84
  Q 39.21 59.89 39.32 60.48
  Q 39.42 60.94 40.09 61.23
  Z"
/>
<path fill="#11a3e7" fill-opacity="0.996" d="
  M 27.10 38.13
  Q 25.76 38.49 25.98 38.87
  Q 24.48 38.79 24.49 40.00
  Q 24.54 49.76 24.49 59.36
  A 2.33 2.33 0.0 0 1 22.29 61.68
  Q 15.88 62.05 9.90 61.67
  A 2.44 2.44 0.0 0 1 7.61 59.23
  L 7.59 46.42
  Q 8.20 45.83 8.14 47.28
  Q 8.12 47.77 8.44 48.14
  Q 9.75 49.61 10.15 51.40
  Q 10.35 52.32 11.18 51.90
  Q 13.59 50.67 16.27 50.39
  Q 16.88 50.32 17.41 50.00
  L 21.30 47.65
  Q 21.78 47.35 22.09 46.89
  Q 22.70 45.99 23.64 45.60
  Q 24.19 45.38 24.20 44.78
  L 24.26 39.52
  Q 24.27 39.04 24.54 38.65
  Q 25.23 37.68 25.39 36.58
  Q 25.44 36.18 25.84 36.18
  L 40.23 36.08
  Q 41.07 36.07 40.25 36.28
  L 39.22 36.54
  Q 38.75 36.67 38.30 36.49
  Q 37.27 36.08 36.18 36.35
  Q 35.25 36.57 34.24 36.58
  Q 31.20 36.59 28.46 36.51
  Q 28.00 36.49 27.62 36.74
  Q 27.42 36.88 27.21 36.99
  Q 26.65 37.27 27.28 37.27
  Q 27.48 37.27 27.44 37.47
  Q 27.40 37.68 27.24 37.82
  Q 27.12 37.92 27.10 38.13
  Z"
/>
<path fill="#1399e7" d="
  M 31.34 38.27
  Q 29.21 37.91 27.52 38.77
  Q 26.88 38.96 25.98 38.87
  Q 25.76 38.49 27.10 38.13
  Q 29.90 37.17 31.34 38.27
  Z"
/>
<path fill="#0d7fd0" fill-opacity="0.996" d="
  M 31.34 38.27
  L 35.58 38.67
  L 30.04 38.92
  Q 29.31 39.22 28.63 39.03
  L 27.52 38.77
  Q 29.21 37.91 31.34 38.27
  Z"
/>
<path fill="#0e3ae4" d="
  M 28.63 39.03
  Q 29.31 39.22 30.04 38.92
  L 39.92 39.61
  Q 40.42 39.64 40.78 39.98
  Q 42.10 41.19 43.73 41.93
  Q 44.00 42.05 44.26 41.89
  Q 44.64 41.64 45.02 41.86
  C 47.24 43.11 46.65 44.88 46.82 46.91
  Q 46.93 48.15 46.33 49.12
  Q 45.29 50.78 44.16 52.58
  Q 43.91 52.96 43.52 53.21
  Q 42.00 54.17 40.94 55.80
  A 5.00 4.59 -77.7 0 1 37.93 57.92
  Q 37.35 58.05 36.88 58.48
  Q 36.57 58.76 36.58 59.18
  L 36.65 60.75
  Q 36.67 61.28 37.20 61.27
  L 40.09 61.23
  Q 40.62 61.19 41.04 61.37
  L 30.65 61.37
  A 1.99 1.98 -0.0 0 1 28.66 59.39
  L 28.63 39.03
  Z"
/>
<path fill="#14c0e8" d="
  M 86.10 71.70
  Q 85.03 74.05 80.41 73.42
  Q 80.16 73.38 80.06 73.62
  Q 79.96 73.84 79.72 73.85
  Q 77.48 73.88 75.35 73.88
  A 2.16 2.11 -56.9 0 0 74.45 74.08
  Q 72.87 74.84 71.53 73.78
  Q 71.28 73.58 70.96 73.59
  Q 70.76 73.59 70.81 73.79
  A 0.17 0.16 -77.9 0 1 70.55 73.96
  Q 69.71 73.28 69.93 71.74
  A 8.46 8.32 60.6 0 1 79.25 65.53
  A 8.47 8.32 63.5 0 1 86.10 71.70
  Z"
/>
<path fill="#25d2ea" fill-opacity="0.996" d="
  M 24.48 72.67
  Q 18.44 74.33 14.76 73.90
  Q 10.55 73.41 9.18 70.56
  Q 9.26 69.54 9.08 69.44
  A 8.38 8.37 -69.6 0 1 17.49 65.58
  A 8.37 8.37 0.0 0 1 24.48 72.67
  Z"
/>
<path fill="#25d2ea" fill-opacity="0.996" d="
  M 45.03 72.73
  Q 42.26 73.58 39.12 73.73
  Q 37.11 73.83 34.47 74.28
  Q 31.87 74.72 29.72 74.32
  Q 28.82 74.16 28.62 71.97
  A 8.36 8.35 13.0 0 1 38.60 65.73
  A 8.34 8.34 0.0 0 1 45.03 72.73
  Z"
/>
<path fill="#14c0e8" d="
  M 65.74 74.67
  Q 64.17 75.64 63.00 75.37
  C 61.27 74.96 59.28 74.49 57.49 75.05
  Q 54.33 76.03 50.87 74.40
  Q 50.70 74.33 50.52 74.36
  L 50.12 74.43
  Q 49.65 74.52 49.39 74.12
  L 49.17 73.79
  A 8.41 8.28 79.8 0 1 51.14 68.39
  A 8.43 8.31 75.4 0 1 60.66 66.10
  A 8.42 8.30 77.9 0 1 65.74 74.67
  Z"
/>
<path fill="#0d91d1" fill-opacity="0.996" d="
  M 9.08 69.44
  Q 9.26 69.54 9.18 70.56
  Q 9.31 71.13 8.52 72.77
  A 0.52 0.51 -70.4 0 0 8.86 73.49
  Q 9.14 73.56 9.00 73.75
  Q 8.64 74.21 9.12 74.54
  Q 10.48 75.50 11.97 75.80
  Q 12.37 75.89 12.74 76.07
  Q 13.25 76.33 13.61 75.89
  A 0.90 0.89 -62.9 0 1 14.55 75.58
  Q 16.75 76.20 18.77 75.54
  Q 19.23 75.38 19.67 75.58
  Q 22.36 76.76 24.25 76.14
  A 8.40 8.38 83.0 0 1 20.37 81.12
  A 8.39 8.38 -40.4 0 1 10.92 80.36
  A 8.37 8.37 0.0 0 1 9.08 69.44
  Z"
/>
<path fill="#11a3e7" fill-opacity="0.996" d="
  M 9.18 70.56
  Q 10.55 73.41 14.76 73.90
  Q 18.44 74.33 24.48 72.67
  A 8.23 8.23 0.0 0 1 24.25 76.14
  Q 22.36 76.76 19.67 75.58
  Q 19.23 75.38 18.77 75.54
  Q 16.75 76.20 14.55 75.58
  A 0.90 0.89 -62.9 0 0 13.61 75.89
  Q 13.25 76.33 12.74 76.07
  Q 12.37 75.89 11.97 75.80
  Q 10.48 75.50 9.12 74.54
  Q 8.64 74.21 9.00 73.75
  Q 9.14 73.56 8.86 73.49
  A 0.52 0.51 -70.4 0 1 8.52 72.77
  Q 9.31 71.13 9.18 70.56
  Z"
/>
<path fill="#0d91d1" fill-opacity="0.996" d="
  M 86.10 71.70
  A 8.46 8.32 61.5 0 1 84.17 79.70
  A 8.47 8.32 60.5 0 1 73.89 81.12
  A 8.46 8.32 63.3 0 1 69.93 71.74
  Q 69.71 73.28 70.55 73.96
  A 0.17 0.16 -77.9 0 0 70.81 73.79
  Q 70.76 73.59 70.96 73.59
  Q 71.28 73.58 71.53 73.78
  Q 72.87 74.84 74.45 74.08
  A 2.16 2.11 -56.9 0 1 75.35 73.88
  Q 77.48 73.88 79.72 73.85
  Q 79.96 73.84 80.06 73.62
  Q 80.16 73.38 80.41 73.42
  Q 85.03 74.05 86.10 71.70
  Z"
/>
<path fill="#0d7fd0" fill-opacity="0.996" d="
  M 28.62 71.97
  Q 28.82 74.16 29.72 74.32
  Q 31.87 74.72 34.47 74.28
  Q 37.11 73.83 39.12 73.73
  Q 42.26 73.58 45.03 72.73
  A 8.34 8.33 -17.0 0 1 40.42 81.38
  A 8.37 8.36 -40.0 0 1 31.85 80.64
  A 8.37 8.36 -65.5 0 1 28.62 71.97
  Z"
/>
<path fill="#0d7fd0" fill-opacity="0.996" d="
  M 49.17 73.79
  L 49.39 74.12
  Q 49.65 74.52 50.12 74.43
  L 50.52 74.36
  Q 50.70 74.33 50.87 74.40
  Q 54.33 76.03 57.49 75.05
  C 59.28 74.49 61.27 74.96 63.00 75.37
  Q 64.17 75.64 65.74 74.67
  A 8.41 8.30 79.3 0 1 61.19 81.42
  A 8.45 8.31 74.9 0 1 52.76 80.78
  A 8.43 8.31 74.6 0 1 49.17 73.79
  Z"
/>
</svg>
