<?xml version="1.0" encoding="UTF-8"?>
<svg version="1.1" xmlns="http://www.w3.org/2000/svg" width="64" height="64">
<path d="M0 0 C0.99 0.33 1.98 0.66 3 1 C4.1875 4.5625 4.1875 4.5625 5 8 C6.41655793 8.0272415 7.83327045 8.04650467 9.25 8.0625 C10.43335937 8.07990234 10.43335937 8.07990234 11.640625 8.09765625 C13.90691002 8.00385306 15.8288895 7.63241063 18 7 C18.66 8.98 19.32 10.96 20 13 C22.31 13.33 24.62 13.66 27 14 C26.56852759 16.50254 26.35368939 17.70072437 24.375 19.375 C23.92125 19.91125 23.4675 20.4475 23 21 C23.23283149 24.14921909 23.23283149 24.14921909 24 27 C21.29729362 28.00100236 20.31576034 28.1412612 17.625 26.9375 C14.13336814 25.69048862 12.33980114 26.60194371 9 28 C9 27.01 9 26.02 9 25 C8.443125 24.87625 7.88625 24.7525 7.3125 24.625 C5 24 5 24 2.6875 22.6875 C-0.46277064 21.88161681 -1.00439893 22.22840922 -3.75 23.75 C-7.01178511 25.62287638 -7.01178511 25.62287638 -8 28 C-12 27 -12 27 -13.875 26.3125 C-16.93029617 25.86319174 -19.16483788 26.90459645 -22 28 C-23 26 -23 26 -22.3125 23.125 C-21.61829462 19.89728194 -21.61829462 19.89728194 -23.9375 17.625 C-24.618125 17.08875 -25.29875 16.5525 -26 16 C-25.67 15.01 -25.34 14.02 -25 13 C-22.69 13 -20.38 13 -18 13 C-17.67 11.35 -17.34 9.7 -17 8 C-15.0625 7.4375 -15.0625 7.4375 -13 7 C-12.67 7.33 -12.34 7.66 -12 8 C-7.87773363 8.01110745 -7.87773363 8.01110745 -4 7 C-2.06047198 4.77194716 -1.20084173 2.75192896 0 0 Z M0 6 C-0.33 7.32 -0.66 8.64 -1 10 C-2.65 10.33 -4.3 10.66 -6 11 C-5.01 12.485 -5.01 12.485 -4 14 C-3.875 17.1875 -3.875 17.1875 -4 20 C-2.329375 19.7215625 -2.329375 19.7215625 -0.625 19.4375 C3 19 3 19 5 20 C5.309375 18.88625 5.61875 17.7725 5.9375 16.625 C7 13 7 13 8 11 C6.8553125 10.5978125 6.8553125 10.5978125 5.6875 10.1875 C3.12619116 9.05575888 1.80307062 8.08776599 0 6 Z M-15 12 C-15.33 13.32 -15.66 14.64 -16 16 C-17.32 16.33 -18.64 16.66 -20 17 C-19.34 18.98 -18.68 20.96 -18 23 C-15.69 23 -13.38 23 -11 23 C-10.67 21.35 -10.34 19.7 -10 18 C-9.01 18 -8.02 18 -7 18 C-7.33 16.68 -7.66 15.36 -8 14 C-8.33 14.66 -8.66 15.32 -9 16 C-10.875 15.6875 -10.875 15.6875 -13 15 C-13.66 14.01 -14.32 13.02 -15 12 Z M16 12 C15.67 13.32 15.34 14.64 15 16 C13.68 16.33 12.36 16.66 11 17 C11.66 18.98 12.32 20.96 13 23 C15.31 23 17.62 23 20 23 C20.2165625 21.824375 20.2165625 21.824375 20.4375 20.625 C21 18 21 18 22 16 C21.38125 15.896875 20.7625 15.79375 20.125 15.6875 C18 15 18 15 16 12 Z M8 15 C8.33 15.99 8.66 16.98 9 18 C9.66 16.68 10.32 15.36 11 14 C9.7763932 13.9254644 9.7763932 13.9254644 8 15 Z M9 20 C10 22 10 22 10 22 Z " fill="#FFFFFF" transform="translate(32,4)"/>
<path d="M0 0 C4.06631456 -0.25414466 6.98625246 -0.16442561 10.75 1.4375 C14.9674603 3.20850384 18.94299182 3.43804543 23.484375 3.59375 C26 4 26 4 28.01953125 5.6484375 C28.67308594 6.09445313 29.32664062 6.54046875 30 7 C32.48886236 6.44917904 32.48886236 6.44917904 34.9375 5.125 C38.78518747 3.23386458 40.85211121 2.70202119 45 4 C46.8125 5.375 46.8125 5.375 48 7 C48 7.99 48 8.98 48 10 C44.29269605 12.01250366 40.5757137 14.00544891 36.84887695 15.98144531 C35.58437572 16.65528605 34.32259193 17.33425361 33.0637207 18.01855469 C31.24612984 19.00539072 29.41933078 19.97293556 27.58984375 20.9375 C26.49534912 21.52402344 25.40085449 22.11054687 24.27319336 22.71484375 C18.02877344 25.16659481 12.80472181 23.90239141 6.5625 22 C5.32628906 21.62875 4.09007812 21.2575 2.81640625 20.875 C1.88699219 20.58625 0.95757812 20.2975 0 20 C0 19.01 0 18.02 0 17 C8.12903226 17.68645161 8.12903226 17.68645161 12.125 19.125 C18.92685238 21.19512898 24.13880565 18.16925169 30.08007812 15.00195312 C31.02302734 14.48568359 31.96597656 13.96941406 32.9375 13.4375 C33.90751953 12.91736328 34.87753906 12.39722656 35.87695312 11.86132812 C38.25657454 10.58360037 40.63049595 9.29636487 43 8 C42.34 7.67 41.68 7.34 41 7 C38.67092836 7.92626762 36.40695869 8.90679226 34.125 9.9375 C27.28644719 12.88382279 21.489162 13.75310009 14 13 C14 12.01 14 11.02 14 10 C17.63 9.67 21.26 9.34 25 9 C25 8.67 25 8.34 25 8 C23.93072266 7.94392578 23.93072266 7.94392578 22.83984375 7.88671875 C14.05192151 7.28351009 14.05192151 7.28351009 10.25 5.5 C6.77966869 3.89830862 3.78306433 3.38602697 0 3 C0 2.01 0 1.02 0 0 Z " fill="#FFFFFF" transform="translate(15,36)"/>
<path d="M0 0 C3.96 0 7.92 0 12 0 C13.21445591 2.42891182 13.12924198 4.00719443 13.1328125 6.71875 C13.13474609 8.11673828 13.13474609 8.11673828 13.13671875 9.54296875 C13.13285156 10.51878906 13.12898437 11.49460937 13.125 12.5 C13.12886719 13.47582031 13.13273438 14.45164062 13.13671875 15.45703125 C13.13542969 16.38902344 13.13414063 17.32101563 13.1328125 18.28125 C13.13168457 19.13783203 13.13055664 19.99441406 13.12939453 20.87695312 C13 23 13 23 12 25 C8.04 25 4.08 25 0 25 C0 24.01 0 23.02 0 22 C0.639375 21.896875 1.27875 21.79375 1.9375 21.6875 C2.9584375 21.3471875 2.9584375 21.3471875 4 21 C4.33 20.01 4.66 19.02 5 18 C5.99 18 6.98 18 8 18 C8 18.99 8 19.98 8 21 C8.66 21.33 9.32 21.66 10 22 C10 15.73 10 9.46 10 3 C6.7 3 3.4 3 0 3 C0 2.01 0 1.02 0 0 Z " fill="#FFFFFF" transform="translate(1,34)"/>
</svg>
