<?xml version="1.0" encoding="UTF-8" standalone="no"?>
<!DOCTYPE svg PUBLIC "-//W3C//DTD SVG 1.1//EN" "http://www.w3.org/Graphics/SVG/1.1/DTD/svg11.dtd">
<svg xmlns="http://www.w3.org/2000/svg" version="1.1" viewBox="0.00 0.00 50.00 50.00">
<g stroke-width="2.00" fill="none" stroke-linecap="butt">
<path stroke="#597eef" vector-effect="non-scaling-stroke" d="
  M 20.09 11.34
  Q 19.95 9.46 19.20 8.04
  Q 19.14 7.92 19.01 7.99
  Q 18.91 8.04 18.77 7.96
  Q 15.38 6.04 12.16 4.11"
/>
<path stroke="#5374db" vector-effect="non-scaling-stroke" d="
  M 14.70 8.47
  Q 12.67 7.58 12.19 9.50
  Q 11.65 11.63 12.30 15.74"
/>
<path stroke="#4b6aca" vector-effect="non-scaling-stroke" d="
  M 36.67 15.22
  Q 36.48 16.05 36.00 16.14
  Q 34.96 16.34 34.00 16.75"
/>
<path stroke="#597eef" vector-effect="non-scaling-stroke" d="
  M 34.00 16.75
  L 26.43 11.91"
/>
<path stroke="#5374db" vector-effect="non-scaling-stroke" d="
  M 34.00 16.75
  Q 36.20 19.62 36.15 21.25
  Q 36.04 25.39 36.54 29.63"
/>
<path stroke="#5374db" vector-effect="non-scaling-stroke" d="
  M 14.61 21.74
  L 12.74 22.08
  Q 12.23 22.18 11.77 21.92
  Q 11.44 21.74 11.12 21.99
  Q 10.55 22.43 11.27 22.55
  Q 11.55 22.59 11.77 22.77
  Q 12.15 23.10 12.17 23.61
  Q 12.26 26.22 12.41 29.18
  C 12.59 32.66 15.47 34.30 18.24 35.73
  Q 20.17 36.72 19.80 39.32"
/>
<path stroke="#5374db" vector-effect="non-scaling-stroke" d="
  M 38.73 35.45
  Q 37.56 35.68 36.63 36.45
  Q 36.22 36.78 36.25 37.30
  L 36.73 45.59"
/>
<path stroke="#597eef" vector-effect="non-scaling-stroke" d="
  M 26.91 39.58
  Q 28.25 42.10 31.57 43.32
  A 0.95 0.93 -53.8 0 0 32.46 43.17
  Q 33.21 42.57 33.71 41.50"
/>
</g>
<path fill="#5174de" d="
  M 20.09 11.34
  Q 19.95 9.46 19.20 8.04
  Q 19.14 7.92 19.01 7.99
  Q 18.91 8.04 18.77 7.96
  Q 15.38 6.04 12.16 4.11
  L 14.29 2.80
  Q 14.74 2.52 15.20 2.78
  L 21.78 6.55
  Q 22.23 6.81 22.39 7.31
  Q 23.36 10.29 20.09 11.34
  Z"
/>
<path fill="#6088ff" d="
  M 12.16 4.11
  Q 15.38 6.04 18.77 7.96
  Q 18.91 8.04 19.01 7.99
  Q 19.14 7.92 19.20 8.04
  Q 19.95 9.46 20.09 11.34
  L 14.70 8.47
  Q 12.67 7.58 12.19 9.50
  Q 11.65 11.63 12.30 15.74
  Q 11.04 15.66 9.88 14.60
  Q 9.52 14.27 9.52 13.77
  L 9.52 6.14
  Q 9.52 5.53 10.06 5.24
  L 12.16 4.11
  Z"
/>
<path fill="#4560b6" d="
  M 14.70 8.47
  L 14.66 14.00
  A 0.87 0.86 76.5 0 1 14.19 14.77
  L 12.30 15.74
  Q 11.65 11.63 12.19 9.50
  Q 12.67 7.58 14.70 8.47
  Z"
/>
<path fill="#5174de" d="
  M 36.67 15.22
  Q 36.48 16.05 36.00 16.14
  Q 34.96 16.34 34.00 16.75
  L 26.43 11.91
  L 27.98 10.85
  Q 28.42 10.54 28.88 10.81
  L 36.67 15.22
  Z"
/>
<path fill="#6088ff" d="
  M 26.43 11.91
  L 34.00 16.75
  Q 36.20 19.62 36.15 21.25
  Q 36.04 25.39 36.54 29.63
  Q 35.33 29.73 34.11 28.58
  Q 33.69 28.19 33.73 27.61
  C 33.92 24.71 34.00 22.29 32.59 19.63
  C 31.46 17.50 28.51 16.49 26.56 15.28
  Q 26.17 15.04 26.08 14.60
  Q 25.72 12.90 26.43 11.91
  Z"
/>
<path fill="#4560b6" d="
  M 36.67 15.22
  C 39.64 18.37 39.10 23.40 38.94 27.95
  A 1.10 1.08 72.4 0 1 38.52 28.77
  Q 37.78 29.34 36.54 29.63
  Q 36.04 25.39 36.15 21.25
  Q 36.20 19.62 34.00 16.75
  Q 34.96 16.34 36.00 16.14
  Q 36.48 16.05 36.67 15.22
  Z"
/>
<path fill="#6088ff" d="
  M 14.61 21.74
  L 12.74 22.08
  Q 12.23 22.18 11.77 21.92
  Q 11.44 21.74 11.12 21.99
  Q 10.55 22.43 11.27 22.55
  Q 11.55 22.59 11.77 22.77
  Q 12.15 23.10 12.17 23.61
  Q 12.26 26.22 12.41 29.18
  C 12.59 32.66 15.47 34.30 18.24 35.73
  Q 20.17 36.72 19.80 39.32
  L 11.61 34.59
  Q 11.20 34.35 11.02 33.92
  C 10.31 32.25 9.43 30.80 9.48 28.88
  Q 9.56 25.47 9.52 22.35
  Q 9.51 21.80 9.91 21.43
  Q 12.37 19.04 14.61 21.74
  Z"
/>
<path fill="#4560b6" d="
  M 14.61 21.74
  L 14.64 26.82
  A 2.90 2.81 34.3 0 0 14.87 27.94
  L 16.21 30.98
  Q 16.45 31.51 16.95 31.80
  L 21.69 34.49
  A 1.87 1.87 0.0 0 1 22.59 35.71
  Q 23.22 38.66 19.80 39.32
  Q 20.17 36.72 18.24 35.73
  C 15.47 34.30 12.59 32.66 12.41 29.18
  Q 12.26 26.22 12.17 23.61
  Q 12.15 23.10 11.77 22.77
  Q 11.55 22.59 11.27 22.55
  Q 10.55 22.43 11.12 21.99
  Q 11.44 21.74 11.77 21.92
  Q 12.23 22.18 12.74 22.08
  L 14.61 21.74
  Z"
/>
<path fill="#6088ff" d="
  M 38.73 35.45
  Q 37.56 35.68 36.63 36.45
  Q 36.22 36.78 36.25 37.30
  L 36.73 45.59
  L 34.24 47.19
  Q 33.79 47.48 33.33 47.21
  L 26.60 43.32
  Q 26.16 43.06 26.05 42.57
  Q 25.59 40.42 26.91 39.58
  Q 28.25 42.10 31.57 43.32
  A 0.95 0.93 -53.8 0 0 32.46 43.17
  Q 33.21 42.57 33.71 41.50
  L 33.80 36.21
  Q 33.81 35.72 34.17 35.37
  Q 36.43 33.19 38.73 35.45
  Z"
/>
<path fill="#4560b6" d="
  M 38.73 35.45
  Q 39.13 39.30 38.99 43.40
  C 38.94 44.94 38.05 45.26 36.73 45.59
  L 36.25 37.30
  Q 36.22 36.78 36.63 36.45
  Q 37.56 35.68 38.73 35.45
  Z"
/>
<path fill="#5174de" d="
  M 33.71 41.50
  Q 33.21 42.57 32.46 43.17
  A 0.95 0.93 -53.8 0 1 31.57 43.32
  Q 28.25 42.10 26.91 39.58
  L 28.05 38.82
  Q 28.50 38.52 28.97 38.79
  L 33.71 41.50
  Z"
/>
</svg>
