<?xml version="1.0" encoding="UTF-8"?>
<svg version="1.1" xmlns="http://www.w3.org/2000/svg" width="64" height="64">
<path d="M0 0 C0.86936691 -0.00570007 1.73873383 -0.01140015 2.63444519 -0.01727295 C4.47446477 -0.02671778 6.31450123 -0.03325488 8.15454102 -0.03710938 C10.95945019 -0.04680237 13.76362254 -0.0778251 16.56835938 -0.109375 C18.35806858 -0.11590668 20.14778301 -0.1211565 21.9375 -0.125 C23.18935844 -0.1435202 23.18935844 -0.1435202 24.46650696 -0.16241455 C29.45209045 -0.14349164 32.844704 0.44892953 37.16796875 3.203125 C42.13032698 8.5678366 42.33545428 12.98550838 42.37109375 20.03515625 C42.37679382 20.90452316 42.3824939 21.77389008 42.3883667 22.66960144 C42.39781153 24.50962102 42.40434863 26.34965748 42.40820312 28.18969727 C42.41789612 30.99460644 42.44891885 33.79877879 42.48046875 36.60351562 C42.48700043 38.39322483 42.49225025 40.18293926 42.49609375 41.97265625 C42.50844055 42.80722855 42.52078735 43.64180084 42.5335083 44.50166321 C42.51458539 49.4872467 41.92216422 52.87986025 39.16796875 57.203125 C33.80325715 62.16548323 29.38558537 62.37061053 22.3359375 62.40625 C21.03188713 62.41480011 21.03188713 62.41480011 19.70149231 62.42352295 C17.86147273 62.43296778 16.02143627 62.43950488 14.18139648 62.44335938 C11.37648731 62.45305237 8.57231496 62.4840751 5.76757812 62.515625 C3.97786892 62.52215668 2.18815449 62.5274065 0.3984375 62.53125 C-0.85342094 62.5497702 -0.85342094 62.5497702 -2.13056946 62.56866455 C-7.11615295 62.54974164 -10.5087665 61.95732047 -14.83203125 59.203125 C-19.79438948 53.8384134 -19.99951678 49.42074162 -20.03515625 42.37109375 C-20.04085632 41.50172684 -20.0465564 40.63235992 -20.0524292 39.73664856 C-20.06187403 37.89662898 -20.06841113 36.05659252 -20.07226562 34.21655273 C-20.08195862 31.41164356 -20.11298135 28.60747121 -20.14453125 25.80273438 C-20.15106293 24.01302517 -20.15631275 22.22331074 -20.16015625 20.43359375 C-20.17250305 19.59902145 -20.18484985 18.76444916 -20.1975708 17.90458679 C-20.17864789 12.9190033 -19.58622672 9.52638975 -16.83203125 5.203125 C-11.46731965 0.24076677 -7.04964787 0.03563947 0 0 Z M-15.18603516 9.92236328 C-16.19335465 13.47881781 -16.15765979 17.028075 -16.16796875 20.6953125 C-16.17462555 21.51887238 -16.18128235 22.34243225 -16.18814087 23.19094849 C-16.19825128 24.9308245 -16.20295839 26.67073917 -16.20263672 28.41064453 C-16.20700498 31.06217908 -16.2433259 33.71204157 -16.28125 36.36328125 C-16.28711965 38.057286 -16.29108805 39.75129862 -16.29296875 41.4453125 C-16.30733978 42.23300018 -16.32171082 43.02068787 -16.33651733 43.83224487 C-16.29350472 49.05690427 -15.36184819 52.10686129 -11.83203125 56.203125 C-8.22978846 59.0401086 -3.73067342 58.52671945 0.66015625 58.5390625 C1.48371613 58.5457193 2.307276 58.5523761 3.15579224 58.55923462 C4.89566825 58.56934503 6.63558292 58.57405214 8.37548828 58.57373047 C11.02702283 58.57809873 13.67688532 58.61441965 16.328125 58.65234375 C18.02212975 58.6582134 19.71614237 58.6621818 21.41015625 58.6640625 C22.59168777 58.68561905 22.59168777 58.68561905 23.79708862 58.70761108 C29.02174802 58.66459847 32.07170504 57.73294194 36.16796875 54.203125 C39.00495235 50.60088221 38.4915632 46.10176717 38.50390625 41.7109375 C38.51056305 40.88737762 38.51721985 40.06381775 38.52407837 39.21530151 C38.53418878 37.4754255 38.53889589 35.73551083 38.53857422 33.99560547 C38.54294248 31.34407092 38.5792634 28.69420843 38.6171875 26.04296875 C38.62305715 24.348964 38.62702555 22.65495138 38.62890625 20.9609375 C38.64327728 20.17324982 38.65764832 19.38556213 38.67245483 18.57400513 C38.62944222 13.34934573 37.69778569 10.29938871 34.16796875 6.203125 C30.56572596 3.3661414 26.06661092 3.87953055 21.67578125 3.8671875 C20.85222137 3.8605307 20.0286615 3.8538739 19.18014526 3.84701538 C17.44026925 3.83690497 15.70035458 3.83219786 13.96044922 3.83251953 C11.30891467 3.82815127 8.65905218 3.79183035 6.0078125 3.75390625 C4.31380775 3.7480366 2.61979513 3.7440682 0.92578125 3.7421875 C0.13809357 3.72781647 -0.64959412 3.71344543 -1.46115112 3.69863892 C-7.3207575 3.7468788 -11.39309354 5.10629857 -15.18603516 9.92236328 Z " fill="#FFFFFF" transform="translate(20.83203125,0.796875)"/>
<path d="M0 0 C3.27863088 -0.26545733 5.57350125 -0.21894086 8.75 0.71484375 C12.77121227 4.27801065 15.86328818 8.19378967 18.75 12.71484375 C18.75 13.37484375 18.75 14.03484375 18.75 14.71484375 C23.33716587 10.27102681 27.53762713 5.51255876 31.75 0.71484375 C32.74 1.04484375 33.73 1.37484375 34.75 1.71484375 C33.87429445 6.12270133 31.43803513 9.02194558 28.6875 12.46484375 C28.21505859 13.06683594 27.74261719 13.66882813 27.25585938 14.2890625 C26.09309599 15.76894318 24.9223234 17.24252471 23.75 18.71484375 C29.00878139 25.77268193 34.37450675 32.74582484 39.75 39.71484375 C37.75 42.71484375 37.75 42.71484375 35.5 43.4296875 C32.22136912 43.69514483 29.92649875 43.64862836 26.75 42.71484375 C22.72878773 39.15167685 19.63671182 35.23589783 16.75 30.71484375 C16.75 30.05484375 16.75 29.39484375 16.75 28.71484375 C12.16283413 33.15866069 7.96237287 37.91712874 3.75 42.71484375 C2.76 42.38484375 1.77 42.05484375 0.75 41.71484375 C1.62570555 37.30698617 4.06196487 34.40774192 6.8125 30.96484375 C7.28494141 30.36285156 7.75738281 29.76085937 8.24414062 29.140625 C9.40690401 27.66074432 10.5776766 26.18716279 11.75 24.71484375 C6.49121861 17.65700557 1.12549325 10.68386266 -4.25 3.71484375 C-2.25 0.71484375 -2.25 0.71484375 0 0 Z M2.75 4.71484375 C5.83653896 9.54269888 9.28577179 13.92891938 12.9375 18.33984375 C18.40309808 24.99724693 23.65796451 31.76757053 28.75 38.71484375 C30.73 38.21984375 30.73 38.21984375 32.75 37.71484375 C31.93917969 36.72226562 31.12835938 35.7296875 30.29296875 34.70703125 C24.66814297 27.80985228 19.06483953 20.89784152 13.5625 13.90234375 C13.10576904 13.32274902 12.64903809 12.7431543 12.1784668 12.14599609 C10.27387112 9.7159073 8.46382713 7.28558445 6.75 4.71484375 C5.43 4.71484375 4.11 4.71484375 2.75 4.71484375 Z " fill="#FFFFFF" transform="translate(14.25,10.28515625)"/>
</svg>
