<?xml version="1.0" encoding="UTF-8" standalone="no"?>
<!DOCTYPE svg PUBLIC "-//W3C//DTD SVG 1.1//EN" "http://www.w3.org/Graphics/SVG/1.1/DTD/svg11.dtd">
<svg xmlns="http://www.w3.org/2000/svg" version="1.1" viewBox="0.00 0.00 188.00 188.00">
<g stroke-width="2.00" fill="none" stroke-linecap="butt">
<path stroke="#6ef0f3" vector-effect="non-scaling-stroke" d="
  M 143.78 31.88
  Q 142.69 31.67 143.67 33.48"
/>
<path stroke="#03e1e9" vector-effect="non-scaling-stroke" d="
  M 143.67 33.48
  L 141.27 32.04"
/>
<path stroke="#03ebf1" vector-effect="non-scaling-stroke" d="
  M 141.27 32.04
  L 135.66 27.93"
/>
<path stroke="#02f7fc" vector-effect="non-scaling-stroke" d="
  M 135.66 27.93
  L 128.91 24.00
  A 1.16 1.05 87.1 0 1 128.52 23.61
  Q 127.90 22.59 126.66 22.63
  A 2.12 2.12 0.0 0 1 125.62 22.40
  Q 121.30 20.20 116.76 18.78
  Q 116.53 18.71 116.29 18.73
  Q 115.95 18.77 115.58 18.75
  Q 114.67 18.69 115.46 19.15
  Q 116.02 19.48 116.82 19.30
  Q 116.92 19.28 116.87 19.37
  Q 116.84 19.43 116.76 19.41
  Q 115.45 19.09 114.58 20.00
  Q 114.20 20.40 113.67 20.53
  Q 110.61 21.28 107.62 22.01
  Q 104.86 22.68 101.57 23.93
  Q 98.05 25.28 94.35 26.47
  Q 94.07 26.55 93.90 26.79
  Q 93.64 27.14 93.21 27.29
  Q 89.83 28.47 86.07 29.62
  Q 85.30 29.85 84.69 30.36
  C 83.66 31.23 82.39 31.13 81.20 31.76
  Q 76.34 34.33 71.28 36.56
  Q 67.73 38.13 66.27 40.03
  Q 65.55 40.96 64.37 41.40
  Q 63.02 41.91 61.75 42.17
  C 60.35 42.46 59.13 43.08 57.87 43.71
  Q 56.65 44.32 54.98 44.45
  Q 53.33 44.58 51.60 45.06
  Q 51.38 45.12 51.25 45.30
  Q 51.15 45.44 51.11 45.60
  Q 50.98 46.11 50.46 46.18
  Q 49.64 46.28 49.16 45.89
  A 2.93 2.89 45.9 0 0 45.53 45.81
  Q 43.55 47.34 41.49 48.50
  Q 39.44 49.66 37.39 51.04
  Q 35.44 52.36 32.86 53.45
  Q 32.42 53.64 32.12 53.98
  Q 31.81 54.32 31.41 54.58
  Q 28.81 56.31 26.30 58.13
  Q 25.90 58.42 25.80 58.91
  Q 25.53 60.21 24.40 60.73
  A 1.65 1.62 5.7 0 0 23.73 61.27
  Q 22.68 62.67 21.35 63.82
  C 20.10 64.88 19.74 66.15 19.23 67.66"
/>
<path stroke="#03ebf1" vector-effect="non-scaling-stroke" d="
  M 19.23 67.66
  Q 18.25 72.81 15.74 76.22"
/>
<path stroke="#70d4dd" vector-effect="non-scaling-stroke" d="
  M 143.67 33.48
  L 151.98 41.24"
/>
<path stroke="#08b5c8" vector-effect="non-scaling-stroke" d="
  M 151.98 41.24
  Q 150.19 42.40 151.50 43.58
  A 2.14 2.09 -80.1 0 1 152.04 44.37
  Q 152.63 45.94 154.07 46.64
  Q 154.52 46.86 154.74 47.32
  Q 155.63 49.22 156.05 50.90
  Q 156.26 51.71 155.51 51.34
  Q 155.38 51.27 155.26 51.18
  Q 154.64 50.72 154.00 51.16
  L 152.66 52.08
  Q 152.21 52.39 151.67 52.51
  Q 150.66 52.73 150.02 53.54
  Q 149.46 54.25 148.65 54.68
  Q 145.57 56.33 142.27 57.37
  Q 142.18 57.40 142.09 57.40
  Q 141.98 57.41 142.04 57.17
  Q 142.04 57.14 142.01 57.15
  L 130.61 61.08"
/>
<path stroke="#80dbe5" vector-effect="non-scaling-stroke" d="
  M 130.61 61.08
  C 129.41 59.86 128.49 59.14 126.80 60.10
  Q 120.41 63.73 116.38 69.98"
/>
<path stroke="#08b5c8" vector-effect="non-scaling-stroke" d="
  M 116.38 69.98
  Q 115.59 69.89 114.62 70.61
  A 1.89 1.87 21.8 0 1 113.74 70.98
  Q 110.41 71.44 107.15 72.85
  Q 104.85 73.84 103.40 74.11
  Q 101.51 74.45 99.53 74.60
  A 3.78 3.77 -23.7 0 1 96.54 73.44
  Q 94.92 71.71 93.12 69.96
  Q 91.81 68.69 90.89 67.34
  Q 89.88 65.87 88.85 64.38
  C 87.93 63.06 87.89 61.70 87.02 60.40
  Q 85.60 58.26 84.08 55.77"
/>
<path stroke="#06abbe" vector-effect="non-scaling-stroke" d="
  M 84.08 55.77
  Q 84.08 54.81 83.25 54.31
  Q 82.78 54.03 82.68 54.57
  Q 82.48 55.61 82.74 56.72"
/>
<path stroke="#03a0b0" vector-effect="non-scaling-stroke" d="
  M 82.74 56.72
  Q 82.62 56.72 82.49 56.71"
/>
<path stroke="#70d4dd" vector-effect="non-scaling-stroke" d="
  M 82.49 56.71
  L 82.52 51.48"
/>
<path stroke="#70dee5" vector-effect="non-scaling-stroke" d="
  M 51.69 53.25
  L 52.20 54.15"
/>
<path stroke="#05cedb" vector-effect="non-scaling-stroke" d="
  M 52.20 54.15
  Q 51.40 57.03 51.72 58.00
  Q 52.48 60.26 52.37 62.59
  A 1.15 1.14 -61.0 0 0 52.57 63.30
  Q 53.17 64.18 52.76 65.22
  Q 52.56 65.71 52.85 66.15
  Q 53.18 66.66 53.27 67.31"
/>
<path stroke="#7fe5ed" vector-effect="non-scaling-stroke" d="
  M 53.27 67.31
  Q 49.37 73.35 47.66 80.16"
/>
<path stroke="#05cedb" vector-effect="non-scaling-stroke" d="
  M 47.66 80.16
  Q 45.74 79.75 44.50 80.87
  Q 43.89 81.42 43.01 81.52
  Q 42.56 81.57 42.27 81.91
  Q 39.89 84.62 35.30 86.72
  C 30.47 88.93 25.62 91.12 20.49 91.60
  Q 17.95 91.84 15.73 91.16
  Q 15.17 90.99 14.90 90.48
  Q 14.15 89.07 13.95 87.54"
/>
<path stroke="#05cedb" vector-effect="non-scaling-stroke" d="
  M 141.27 32.04
  L 148.69 39.54
  Q 148.99 39.84 149.41 39.81
  Q 149.78 39.78 149.89 40.12
  Q 148.78 40.09 147.75 39.60
  Q 147.36 39.68 147.35 39.31
  Q 147.34 38.85 146.89 38.89
  Q 146.47 38.93 146.23 39.27
  Q 146.03 39.55 145.70 39.65
  Q 145.23 39.77 144.84 39.61
  Q 144.51 39.47 144.14 39.55
  Q 142.99 39.82 141.94 41.08
  Q 137.97 45.85 130.48 49.43
  Q 129.74 49.78 129.06 49.36
  A 0.90 0.89 -39.1 0 0 128.28 49.28
  L 118.50 52.99
  Q 118.05 53.16 117.79 53.57
  Q 117.50 54.05 116.94 53.89
  Q 116.52 53.77 116.19 54.06
  Q 116.09 54.14 116.03 54.26
  Q 115.82 54.64 115.40 54.75
  Q 111.85 55.61 107.92 57.01
  Q 107.60 57.12 107.26 57.14
  Q 106.89 57.17 106.81 57.59
  A 0.44 0.44 0.0 0 1 106.45 57.94
  L 92.65 60.46
  Q 92.25 60.53 91.89 60.36
  Q 90.44 59.70 89.09 58.88
  Q 87.89 58.15 86.86 56.87
  Q 84.73 54.21 82.52 51.48"
/>
<path stroke="#70dee5" vector-effect="non-scaling-stroke" d="
  M 82.52 51.48
  L 82.31 51.03"
/>
<path stroke="#7fe5ed" vector-effect="non-scaling-stroke" d="
  M 82.31 51.03
  Q 82.20 50.33 81.75 49.71"
/>
<path stroke="#73c4d2" vector-effect="non-scaling-stroke" d="
  M 168.64 68.47
  Q 168.32 68.58 168.36 69.13
  Q 168.38 69.38 168.13 69.40
  Q 167.93 69.42 167.85 69.23
  Q 166.23 65.30 164.97 61.25
  Q 164.82 60.77 164.47 60.39
  Q 163.83 59.72 163.57 58.92
  Q 163.02 57.14 162.91 56.92
  Q 158.34 48.29 151.98 41.24"
/>
<path stroke="#04e5ee" vector-effect="non-scaling-stroke" d="
  M 135.66 27.93
  Q 133.69 27.38 132.11 28.61
  Q 130.45 29.90 126.32 31.73
  Q 124.15 32.70 119.83 34.01
  Q 116.08 35.15 112.87 36.61
  Q 112.09 36.97 111.56 37.64
  Q 111.26 38.02 110.77 38.07
  Q 107.39 38.37 104.26 39.44
  Q 100.25 40.81 96.61 41.98
  Q 90.11 44.06 84.65 47.39
  Q 84.17 47.69 83.61 47.59
  Q 82.43 47.39 82.13 48.47
  Q 82.05 48.74 81.80 48.63
  Q 81.75 48.60 81.70 48.64
  Q 81.51 48.77 81.57 49.03
  Q 81.66 49.37 81.75 49.71"
/>
<path stroke="#7ff2f8" vector-effect="non-scaling-stroke" d="
  M 81.75 49.71
  Q 80.35 48.77 79.00 48.76
  Q 66.21 48.69 53.40 48.51
  C 51.95 48.49 51.10 49.16 50.51 50.38"
/>
<path stroke="#04e5ee" vector-effect="non-scaling-stroke" d="
  M 50.51 50.38
  Q 49.64 50.73 48.82 50.30
  Q 48.43 50.09 48.00 50.21
  Q 47.10 50.48 46.49 51.23
  A 2.19 2.17 7.3 0 1 45.71 51.83
  Q 44.27 52.47 42.86 52.99
  Q 41.54 53.48 39.93 54.74
  C 39.00 55.47 37.04 56.79 35.86 56.94
  Q 35.28 57.01 35.09 57.56
  Q 35.04 57.71 34.93 57.79
  Q 34.56 58.04 34.49 57.60
  A 0.10 0.09 65.4 0 0 34.34 57.54
  Q 31.41 59.85 27.56 61.51
  Q 26.84 61.82 26.72 62.56
  Q 26.65 62.98 26.27 63.18
  Q 23.77 64.44 21.86 66.79
  Q 21.76 66.91 21.64 66.83
  Q 21.59 66.80 21.56 66.76
  Q 21.33 66.55 21.24 66.88
  Q 20.75 68.72 19.23 67.66"
/>
<path stroke="#83ccd9" vector-effect="non-scaling-stroke" d="
  M 116.38 69.98
  Q 116.35 70.91 117.01 71.68"
/>
<path stroke="#057381" vector-effect="non-scaling-stroke" d="
  M 69.38 113.47
  L 66.56 106.10
  Q 66.39 105.65 66.41 105.17
  Q 66.45 104.10 65.88 103.15
  Q 65.63 102.73 65.64 102.23
  Q 65.69 98.29 65.27 94.10
  Q 65.27 94.05 65.21 94.00
  Q 65.09 93.86 64.98 94.00
  A 0.04 0.03 67.0 0 1 64.92 93.97
  Q 65.15 83.81 75.19 83.20
  Q 78.12 83.03 80.64 81.89
  Q 81.44 81.53 81.84 80.74
  Q 82.36 79.72 82.13 79.03"
/>
<path stroke="#099bb2" vector-effect="non-scaling-stroke" d="
  M 84.08 55.77
  Q 85.59 67.13 90.69 76.40
  Q 92.81 80.26 94.11 82.72
  Q 95.72 85.75 97.65 88.64
  Q 98.76 90.32 99.58 92.79
  Q 100.32 95.00 101.52 96.85
  Q 102.96 99.05 104.53 101.35
  Q 104.78 101.71 104.76 102.15
  Q 104.74 102.77 105.10 103.27
  Q 105.43 103.73 106.05 103.71
  Q 107.53 103.65 108.65 102.91
  Q 108.77 102.83 108.90 102.90
  Q 109.05 102.98 109.06 103.14
  Q 109.08 103.56 109.31 103.22
  Q 109.69 102.67 110.32 102.98
  A 0.99 0.99 0.0 0 0 111.68 102.47
  L 114.18 96.30
  Q 114.36 95.85 114.33 95.36
  Q 114.29 94.61 114.72 94.01
  Q 115.06 93.55 115.08 92.97
  Q 115.29 85.63 115.79 78.33
  Q 115.90 76.71 116.25 75.14
  Q 116.60 73.54 116.43 72.04
  Q 116.39 71.70 116.72 71.64
  Q 116.87 71.60 117.01 71.68"
/>
<path stroke="#80c2cf" vector-effect="non-scaling-stroke" d="
  M 117.01 71.68
  Q 117.18 71.79 117.29 71.95"
/>
<path stroke="#077e8f" vector-effect="non-scaling-stroke" d="
  M 117.37 72.18
  Q 116.73 73.20 117.29 73.69"
/>
<path stroke="#048d9e" vector-effect="non-scaling-stroke" d="
  M 117.29 73.69
  Q 117.25 76.48 118.62 79.24
  Q 119.66 81.32 120.00 84.63
  C 120.22 86.78 120.88 88.76 120.77 90.94
  Q 120.67 92.73 121.02 94.54
  Q 121.40 96.50 120.96 98.34
  Q 120.64 99.69 120.82 101.41
  Q 121.01 103.21 120.98 104.96
  Q 120.96 106.25 120.30 107.59
  Q 119.55 109.12 119.20 110.59
  Q 118.80 112.25 117.65 113.27
  Q 114.86 115.78 112.52 118.91"
/>
<path stroke="#04869a" vector-effect="non-scaling-stroke" d="
  M 77.20 120.42
  L 78.00 116.48
  Q 78.12 115.92 77.99 115.37
  Q 77.54 113.42 76.50 111.73
  Q 74.65 108.72 74.17 104.07
  C 74.00 102.43 73.19 100.87 72.49 99.40
  C 71.87 98.08 72.28 96.92 71.89 95.55
  Q 71.77 95.15 71.41 95.35
  Q 71.17 95.48 71.17 95.76
  Q 71.17 96.48 70.87 95.83
  Q 70.52 95.08 70.68 94.26
  Q 71.49 89.97 75.12 88.98
  C 76.44 88.62 77.41 87.84 78.55 87.10
  Q 79.44 86.53 80.12 85.70
  Q 80.82 84.84 81.93 84.40
  Q 82.42 84.20 82.63 83.73
  Q 83.33 82.17 83.54 80.61
  Q 84.63 72.24 83.92 66.84
  Q 83.66 64.84 83.62 62.87
  Q 83.62 62.75 83.58 62.63
  Q 83.48 62.36 83.21 62.47
  A 0.26 0.26 0.0 0 1 82.85 62.24
  L 82.74 56.72"
/>
<path stroke="#6eafba" vector-effect="non-scaling-stroke" d="
  M 82.49 56.71
  L 82.13 79.03"
/>
<path stroke="#72a7af" vector-effect="non-scaling-stroke" d="
  M 82.13 79.03
  Q 79.64 81.19 77.64 79.38
  Q 74.36 76.39 70.98 73.44
  A 1.10 1.09 38.4 0 0 69.37 73.62
  C 67.01 76.86 64.85 80.12 63.66 84.03
  Q 58.79 99.98 69.38 113.47"
/>
<path stroke="#6eafba" vector-effect="non-scaling-stroke" d="
  M 69.38 113.47
  Q 72.17 117.05 77.20 120.42"
/>
<path stroke="#71bac8" vector-effect="non-scaling-stroke" d="
  M 77.20 120.42
  Q 95.31 130.44 112.52 118.91"
/>
<path stroke="#6fb6be" vector-effect="non-scaling-stroke" d="
  M 112.52 118.91
  Q 120.95 112.48 124.10 102.74"
/>
<path stroke="#72a7af" vector-effect="non-scaling-stroke" d="
  M 124.10 102.74
  Q 128.75 85.31 117.37 72.18"
/>
<path stroke="#71bac8" vector-effect="non-scaling-stroke" d="
  M 117.37 72.18
  Q 117.33 72.07 117.29 71.95"
/>
<path stroke="#ebebef" vector-effect="non-scaling-stroke" d="
  M 117.29 71.95
  Q 117.97 72.28 118.24 72.00
  C 119.58 70.63 120.79 69.31 122.44 68.24
  Q 125.11 66.52 127.48 64.84
  Q 128.51 64.11 132.95 64.05"
/>
<path stroke="#71bac8" vector-effect="non-scaling-stroke" d="
  M 135.19 67.20
  L 138.96 74.68"
/>
<path stroke="#6eafba" vector-effect="non-scaling-stroke" d="
  M 138.96 74.68
  L 141.43 86.20"
/>
<path stroke="#72a7af" vector-effect="non-scaling-stroke" d="
  M 141.43 86.20
  Q 141.92 95.62 141.45 98.90
  Q 138.00 122.75 117.84 134.77
  C 94.09 148.94 63.29 139.34 50.80 114.20"
/>
<path stroke="#6fb6be" vector-effect="non-scaling-stroke" d="
  M 50.80 114.20
  L 47.33 104.55"
/>
<path stroke="#73c4d2" vector-effect="non-scaling-stroke" d="
  M 47.33 104.55
  Q 45.86 97.79 46.15 90.64"
/>
<path stroke="#70d4dd" vector-effect="non-scaling-stroke" d="
  M 46.15 90.64
  L 46.32 89.54"
/>
<path stroke="#ebebef" vector-effect="non-scaling-stroke" d="
  M 46.32 89.54
  Q 48.10 88.88 48.35 86.48
  Q 48.59 84.22 48.90 83.11
  Q 49.40 81.32 49.45 79.62
  A 4.07 3.55 -19.5 0 1 51.12 76.66
  Q 51.65 76.27 51.97 75.50
  Q 52.26 74.81 52.64 74.18
  Q 53.26 73.13 53.71 72.01
  Q 54.16 70.89 54.87 69.93
  Q 56.50 67.74 57.16 65.58
  Q 57.53 64.35 58.20 63.56
  Q 58.98 62.66 59.80 61.82
  Q 60.15 61.45 60.00 60.96
  Q 59.63 59.78 58.47 60.57"
/>
<path stroke="#72a7af" vector-effect="non-scaling-stroke" d="
  M 58.47 60.57
  L 52.51 54.40"
/>
<path stroke="#70d4dd" vector-effect="non-scaling-stroke" d="
  M 52.51 54.40
  L 52.20 54.15"
/>
<path stroke="#099bb2" vector-effect="non-scaling-stroke" d="
  M 170.10 73.45
  L 167.48 72.95
  Q 166.99 72.86 166.81 73.33
  Q 166.61 73.88 166.02 74.20
  Q 165.63 74.41 165.25 74.19
  Q 165.00 74.04 164.76 74.23
  Q 164.31 74.61 163.72 74.60
  Q 162.14 74.60 161.10 73.68
  Q 160.79 73.41 161.20 73.41
  L 162.02 73.41
  Q 163.17 73.41 162.18 72.83
  Q 161.52 72.44 161.14 71.83
  Q 160.78 71.24 160.11 71.06
  L 155.41 69.82
  Q 154.90 69.68 154.89 69.15
  L 154.88 68.83
  A 0.45 0.45 0.0 0 0 154.43 68.39
  L 150.97 68.38
  Q 150.55 68.38 150.27 68.68
  Q 149.76 69.21 149.05 69.02
  Q 148.60 68.89 148.14 69.04
  Q 145.17 70.02 142.05 70.04
  C 140.95 70.05 140.11 69.37 138.97 69.38
  A 1.24 1.21 65.2 0 1 138.16 69.07
  Q 136.71 67.77 135.19 67.20"
/>
<path stroke="#73c4d2" vector-effect="non-scaling-stroke" d="
  M 135.19 67.20
  L 132.95 64.05"
/>
<path stroke="#83ccd9" vector-effect="non-scaling-stroke" d="
  M 132.95 64.05
  L 130.61 61.08"
/>
<path stroke="#80dbe5" vector-effect="non-scaling-stroke" d="
  M 46.32 89.54
  L 47.66 80.16"
/>
<path stroke="#ebebef" vector-effect="non-scaling-stroke" d="
  M 82.31 51.03
  Q 82.38 51.59 82.10 51.95
  A 0.72 0.72 0.0 0 1 81.35 52.23
  Q 79.47 51.82 78.06 53.40
  Q 77.73 53.77 77.25 53.91
  C 75.19 54.47 73.11 54.54 71.04 55.04
  Q 67.75 55.84 64.25 55.74
  Q 62.80 55.70 61.26 55.99
  Q 59.25 56.38 57.34 55.47
  Q 56.45 55.04 55.48 55.07
  Q 54.35 55.10 53.70 54.08
  A 1.33 1.32 79.8 0 0 52.90 53.52
  L 51.69 53.25"
/>
<path stroke="#7fe5ed" vector-effect="non-scaling-stroke" d="
  M 51.69 53.25
  Q 50.26 52.33 50.51 50.38"
/>
<path stroke="#0798a5" vector-effect="non-scaling-stroke" d="
  M 52.51 54.40
  Q 52.27 54.43 52.17 54.64
  A 0.74 0.71 -53.2 0 0 52.27 55.42
  Q 52.84 56.10 52.49 56.99
  Q 52.00 58.20 52.76 58.89"
/>
<path stroke="#08b5c8" vector-effect="non-scaling-stroke" d="
  M 52.76 58.89
  Q 52.99 59.03 53.12 58.99"
/>
<path stroke="#06abbe" vector-effect="non-scaling-stroke" d="
  M 53.12 58.99
  Q 53.95 60.46 54.43 62.05
  Q 54.60 62.59 54.48 63.45
  Q 54.33 64.58 54.96 64.88"
/>
<path stroke="#80dbe5" vector-effect="non-scaling-stroke" d="
  M 54.96 64.88
  L 53.27 67.31"
/>
<path stroke="#08b5c8" vector-effect="non-scaling-stroke" d="
  M 46.15 90.64
  Q 45.79 92.20 45.17 93.47
  Q 44.38 95.10 44.21 96.23
  Q 43.98 97.78 43.69 99.53
  Q 43.61 100.00 43.27 100.34
  Q 42.64 100.96 42.48 101.90
  A 1.83 1.81 -22.8 0 1 42.19 102.60
  L 40.96 104.37
  Q 40.72 104.72 40.32 104.88
  Q 38.51 105.58 36.88 106.34
  Q 34.76 107.34 31.86 107.42
  A 0.84 0.84 0.0 0 1 31.21 107.14
  Q 30.86 106.76 30.35 106.87
  Q 29.77 106.99 29.29 106.62
  Q 28.66 106.14 27.85 106.04
  Q 23.87 105.58 20.11 102.77
  Q 20.04 102.72 19.97 102.74
  Q 19.84 102.77 19.72 102.82
  Q 19.28 102.98 18.90 102.70
  Q 17.52 101.66 16.72 100.29
  Q 16.49 99.88 16.10 99.62
  L 15.26 99.06
  A 1.30 1.30 0.0 0 1 14.72 98.29
  L 13.79 94.41"
/>
<path stroke="#057a85" vector-effect="non-scaling-stroke" d="
  M 124.10 102.74
  L 122.90 103.96
  Q 122.47 104.39 122.55 103.79
  Q 122.71 102.45 123.08 101.19
  Q 124.09 97.76 123.85 94.24
  Q 123.83 93.91 123.50 93.88
  Q 123.12 93.86 123.05 93.48
  Q 122.50 90.30 122.12 86.57
  Q 122.11 86.50 122.07 86.45
  Q 121.99 86.35 121.91 86.26
  Q 121.90 86.25 121.89 86.23
  L 118.84 78.15
  Q 118.66 77.67 118.64 77.16
  Q 118.55 75.27 117.29 73.69"
/>
<path stroke="#0797a8" vector-effect="non-scaling-stroke" d="
  M 47.33 104.55
  Q 47.18 107.40 47.38 110.24
  Q 47.54 112.34 47.28 114.14
  Q 46.98 116.24 46.81 118.29
  Q 46.80 118.50 46.59 118.57
  Q 46.28 118.66 46.24 118.98
  Q 45.95 121.26 45.45 123.65
  C 45.35 124.15 45.12 124.37 44.83 124.74
  Q 44.44 125.23 45.07 125.21
  Q 45.69 125.18 44.63 126.06
  Q 43.67 126.85 42.44 126.94
  Q 41.00 127.04 39.59 126.80
  Q 38.96 126.70 37.77 126.20
  Q 36.87 125.82 35.91 125.59
  Q 34.22 125.19 33.26 124.60
  Q 28.82 121.89 24.90 118.61
  Q 24.57 118.34 24.16 118.22
  Q 23.60 118.05 23.40 117.52
  Q 23.24 117.11 22.81 117.01
  L 22.03 116.83
  Q 21.76 116.77 21.68 116.49
  Q 21.36 115.35 20.16 115.13
  Q 19.28 114.97 18.97 114.18
  Q 18.79 113.73 18.47 113.34
  Q 16.89 111.47 15.26 109.53"
/>
<path stroke="#81afb6" vector-effect="non-scaling-stroke" d="
  M 58.47 60.57
  Q 57.78 61.91 56.86 62.75
  Q 56.35 63.21 56.01 62.61
  Q 55.80 62.25 55.98 61.89
  Q 56.19 61.47 56.06 61.01
  Q 55.75 59.85 54.78 59.04"
/>
<path stroke="#077e8f" vector-effect="non-scaling-stroke" d="
  M 54.78 59.04
  Q 55.50 58.20 54.59 58.81"
/>
<path stroke="#057a85" vector-effect="non-scaling-stroke" d="
  M 54.59 58.81
  Q 54.56 57.25 53.73 57.53"
/>
<path stroke="#077e8f" vector-effect="non-scaling-stroke" d="
  M 53.73 57.53
  Q 53.67 57.01 53.33 56.74"
/>
<path stroke="#0a8899" vector-effect="non-scaling-stroke" d="
  M 53.33 56.74
  L 53.12 56.46
  Q 52.79 56.03 52.68 56.56
  Q 52.44 57.75 52.76 58.89"
/>
<path stroke="#04869a" vector-effect="non-scaling-stroke" d="
  M 171.16 77.70
  L 168.57 80.98
  Q 168.19 81.46 167.59 81.57
  Q 165.94 81.88 165.26 83.12
  A 1.39 1.39 0.0 0 1 164.59 83.73
  L 161.77 84.96
  Q 161.58 85.05 161.62 85.26
  Q 161.65 85.41 161.76 85.50
  Q 162.33 86.03 161.57 86.21
  Q 158.41 86.95 156.65 89.68
  Q 155.11 92.07 152.39 90.62
  Q 149.30 88.97 147.77 85.48
  Q 147.66 85.24 147.55 85.47
  Q 147.46 85.66 147.06 85.30
  Q 146.84 85.11 146.72 84.83
  Q 146.20 83.60 145.27 82.64
  Q 144.39 81.72 143.56 80.17
  Q 141.75 76.79 138.96 74.68"
/>
<path stroke="#057381" vector-effect="non-scaling-stroke" d="
  M 172.42 85.47
  Q 171.86 88.99 171.61 92.50
  Q 171.51 93.81 170.29 94.42
  Q 170.19 94.47 170.19 94.58
  Q 170.20 94.71 170.25 94.84
  Q 170.40 95.23 170.27 95.63
  Q 168.08 102.16 165.50 108.22
  Q 163.89 112.00 162.46 115.74
  Q 160.55 120.73 157.62 125.12
  Q 157.46 125.35 157.19 125.31
  Q 156.71 125.24 156.56 125.69
  Q 156.03 127.27 154.92 128.37
  Q 154.87 128.42 154.87 128.50
  L 154.87 129.05
  Q 154.87 129.37 154.63 129.58
  C 153.51 130.57 153.24 131.86 152.31 133.02
  Q 149.26 136.83 146.06 140.14
  Q 145.87 140.34 145.87 140.62
  Q 145.88 140.80 145.75 140.95
  Q 145.57 141.16 145.30 141.14
  Q 145.13 141.12 145.01 141.24
  L 136.08 150.16
  Q 135.66 150.58 135.06 150.65
  Q 134.38 150.73 133.90 151.26
  Q 133.56 151.64 133.13 151.90
  L 125.66 156.49
  A 0.69 0.68 -59.2 0 1 125.27 156.59
  C 123.95 156.57 123.27 157.58 122.14 158.09
  Q 116.36 160.74 109.36 162.86
  Q 104.15 164.44 100.39 164.59
  Q 99.99 164.60 99.70 164.89
  Q 99.45 165.15 99.07 165.18
  Q 92.97 165.62 87.08 165.18
  Q 78.48 164.54 71.56 162.49
  Q 70.27 162.11 68.93 161.88
  Q 67.36 161.61 66.06 160.86
  Q 64.71 160.08 63.27 159.77
  C 61.20 159.33 59.72 158.38 58.03 157.23
  C 57.06 156.57 55.79 156.48 54.74 155.80
  Q 51.66 153.79 48.56 151.93
  Q 48.37 151.81 48.24 151.64
  Q 47.98 151.27 47.58 151.07
  Q 44.27 149.37 41.95 146.37"
/>
<path stroke="#028290" vector-effect="non-scaling-stroke" d="
  M 41.95 146.37
  Q 40.77 144.42 39.16 142.97
  Q 35.11 139.33 30.93 135.59
  Q 30.75 135.42 30.91 135.23
  L 31.19 134.92
  Q 31.36 134.74 31.54 134.90
  Q 33.93 137.03 36.24 139.00
  Q 36.34 139.08 36.44 138.99
  L 36.44 138.98
  Q 36.56 138.87 36.44 138.75
  Q 35.66 137.93 34.90 137.20
  Q 34.88 137.18 34.90 137.17
  L 35.10 137.00
  Q 35.23 136.88 35.34 137.03
  Q 36.49 138.54 37.76 139.69
  Q 38.16 140.06 38.70 140.17
  Q 39.40 140.33 39.75 141.00
  A 1.43 1.38 4.8 0 0 40.16 141.47
  Q 41.37 142.40 42.52 143.61
  Q 43.60 144.76 44.86 145.50
  Q 50.23 148.70 55.69 152.16
  Q 57.35 153.21 59.35 153.97
  Q 61.25 154.69 63.02 155.58
  Q 64.93 156.54 67.08 157.19
  Q 68.98 157.77 70.96 157.81
  Q 73.30 157.85 75.27 158.57
  Q 75.76 158.74 76.11 158.38
  Q 76.36 158.14 76.64 158.41
  Q 77.03 158.80 77.58 158.83
  Q 83.36 159.21 89.30 159.11
  C 90.82 159.09 91.83 158.22 93.35 158.18
  Q 93.98 158.16 93.98 157.53
  L 93.98 156.91
  A 0.40 0.40 0.0 0 1 94.35 156.51
  Q 96.62 156.35 98.33 154.83
  Q 98.99 154.25 98.11 154.32
  Q 96.25 154.45 94.41 154.33
  Q 94.00 154.30 94.10 154.70
  Q 94.15 154.90 93.75 155.04
  Q 93.43 155.16 93.19 154.92
  L 92.88 154.61
  Q 92.55 154.28 92.08 154.31
  Q 90.02 154.48 87.84 153.99
  Q 87.37 153.89 87.80 153.68
  Q 88.01 153.57 87.67 153.15
  Q 87.49 152.93 87.23 152.82
  Q 85.27 151.96 83.02 152.08
  Q 82.48 152.10 82.12 151.71
  Q 80.26 149.71 77.51 148.89
  Q 75.04 148.15 72.86 147.11
  Q 69.77 145.65 66.66 143.93
  Q 64.67 142.83 62.92 141.03
  Q 62.52 140.61 62.61 141.18
  Q 62.64 141.35 62.34 141.41
  Q 62.00 141.48 61.77 141.21
  Q 60.08 139.13 58.17 136.98
  Q 56.30 134.87 55.04 132.37
  Q 51.53 125.42 50.95 117.39"
/>
<path stroke="#057381" vector-effect="non-scaling-stroke" d="
  M 50.95 117.39
  Q 52.47 119.97 53.26 122.47
  Q 54.13 125.23 55.20 126.97
  Q 56.66 129.34 58.04 131.69
  Q 58.57 132.59 60.13 134.33
  Q 60.47 134.71 60.94 134.90
  Q 62.29 135.48 62.63 136.92
  Q 62.78 137.57 63.42 137.77
  Q 64.40 138.07 64.73 139.07
  Q 64.81 139.31 65.03 139.19
  Q 65.18 139.10 65.32 139.13
  Q 65.47 139.15 65.60 139.24
  Q 68.61 141.41 71.61 143.50
  Q 72.67 144.25 74.14 144.58
  Q 75.52 144.89 76.92 145.20
  Q 78.84 145.62 80.99 146.44
  Q 87.94 149.08 91.24 148.90
  C 92.95 148.80 96.33 148.54 97.85 149.21
  Q 99.74 150.05 101.78 149.43
  Q 103.67 148.87 105.81 149.32
  A 3.31 3.23 41.0 0 0 107.55 149.22
  Q 111.92 147.75 115.50 146.72
  Q 116.26 146.49 117.04 145.96
  Q 117.50 145.64 118.05 145.46
  Q 122.23 144.02 125.76 141.15
  Q 126.19 140.80 127.48 140.39
  Q 127.95 140.25 128.15 139.80
  Q 128.75 138.45 130.17 137.98
  Q 130.67 137.81 131.00 137.40
  Q 132.76 135.19 135.08 133.81
  Q 135.53 133.54 135.69 133.04
  Q 136.22 131.31 137.24 129.85
  C 137.69 129.22 137.64 128.94 137.78 128.20
  A 1.91 1.88 -18.9 0 1 138.23 127.30
  Q 139.74 125.61 139.54 123.33
  Q 139.49 122.83 139.71 122.38
  Q 140.26 121.24 140.52 119.94
  Q 140.84 118.39 141.42 116.92
  Q 142.45 114.29 142.88 111.49
  Q 142.91 111.25 142.80 111.04
  Q 142.61 110.70 142.69 110.31
  Q 143.91 104.40 143.89 95.96
  Q 143.89 94.86 143.56 94.11
  A 1.93 1.93 0.0 0 1 143.39 93.23
  Q 143.55 88.98 142.40 84.72
  Q 142.34 84.47 142.08 84.49
  L 141.57 84.54
  Q 141.37 84.55 141.37 84.76
  L 141.43 86.20"
/>
<path stroke="#057a85" vector-effect="non-scaling-stroke" d="
  M 50.95 117.39
  Q 51.12 116.86 50.57 115.54
  Q 50.05 114.31 50.80 114.20"
/>
<path stroke="#048d9e" vector-effect="non-scaling-stroke" d="
  M 53.73 57.53
  Q 53.72 58.82 54.41 59.97
  Q 54.79 60.59 54.71 59.87
  L 54.59 58.81"
/>
<path stroke="#80c2cf" vector-effect="non-scaling-stroke" d="
  M 54.78 59.04
  L 55.85 60.82
  Q 56.11 61.24 55.93 61.70
  Q 55.71 62.28 56.03 62.80
  Q 56.31 63.25 56.03 63.70
  Q 55.63 64.36 54.96 64.88"
/>
<path stroke="#099bb2" vector-effect="non-scaling-stroke" d="
  M 53.33 56.74
  L 53.12 58.99"
/>
<path stroke="#057a85" vector-effect="non-scaling-stroke" d="
  M 21.97 129.72
  Q 22.95 130.02 23.82 130.67
  Q 24.25 131.00 24.33 131.54
  Q 24.41 132.13 24.96 132.12
  A 0.70 0.68 -22.3 0 1 25.48 132.33
  Q 27.65 134.59 30.31 136.67
  Q 30.79 137.05 31.36 137.28
  Q 32.20 137.61 32.72 138.37
  Q 33.13 138.97 33.82 139.19
  Q 35.16 139.62 35.84 140.87
  C 37.17 143.30 39.68 144.89 41.95 146.37"
/>
</g>
<path fill="#01fdff" d="
  M 143.78 31.88
  Q 142.69 31.67 143.67 33.48
  L 141.27 32.04
  L 135.66 27.93
  L 128.91 24.00
  A 1.16 1.05 87.1 0 1 128.52 23.61
  Q 127.90 22.59 126.66 22.63
  A 2.12 2.12 0.0 0 1 125.62 22.40
  Q 121.30 20.20 116.76 18.78
  Q 116.53 18.71 116.29 18.73
  Q 115.95 18.77 115.58 18.75
  Q 114.67 18.69 115.46 19.15
  Q 116.02 19.48 116.82 19.30
  Q 116.92 19.28 116.87 19.37
  Q 116.84 19.43 116.76 19.41
  Q 115.45 19.09 114.58 20.00
  Q 114.20 20.40 113.67 20.53
  Q 110.61 21.28 107.62 22.01
  Q 104.86 22.68 101.57 23.93
  Q 98.05 25.28 94.35 26.47
  Q 94.07 26.55 93.90 26.79
  Q 93.64 27.14 93.21 27.29
  Q 89.83 28.47 86.07 29.62
  Q 85.30 29.85 84.69 30.36
  C 83.66 31.23 82.39 31.13 81.20 31.76
  Q 76.34 34.33 71.28 36.56
  Q 67.73 38.13 66.27 40.03
  Q 65.55 40.96 64.37 41.40
  Q 63.02 41.91 61.75 42.17
  C 60.35 42.46 59.13 43.08 57.87 43.71
  Q 56.65 44.32 54.98 44.45
  Q 53.33 44.58 51.60 45.06
  Q 51.38 45.12 51.25 45.30
  Q 51.15 45.44 51.11 45.60
  Q 50.98 46.11 50.46 46.18
  Q 49.64 46.28 49.16 45.89
  A 2.93 2.89 45.9 0 0 45.53 45.81
  Q 43.55 47.34 41.49 48.50
  Q 39.44 49.66 37.39 51.04
  Q 35.44 52.36 32.86 53.45
  Q 32.42 53.64 32.12 53.98
  Q 31.81 54.32 31.41 54.58
  Q 28.81 56.31 26.30 58.13
  Q 25.90 58.42 25.80 58.91
  Q 25.53 60.21 24.40 60.73
  A 1.65 1.62 5.7 0 0 23.73 61.27
  Q 22.68 62.67 21.35 63.82
  C 20.10 64.88 19.74 66.15 19.23 67.66
  Q 18.25 72.81 15.74 76.22
  C 28.60 17.70 97.43 -4.14 143.78 31.88
  Z"
/>
<path fill="#03f1f9" d="
  M 135.66 27.93
  Q 133.69 27.38 132.11 28.61
  Q 130.45 29.90 126.32 31.73
  Q 124.15 32.70 119.83 34.01
  Q 116.08 35.15 112.87 36.61
  Q 112.09 36.97 111.56 37.64
  Q 111.26 38.02 110.77 38.07
  Q 107.39 38.37 104.26 39.44
  Q 100.25 40.81 96.61 41.98
  Q 90.11 44.06 84.65 47.39
  Q 84.17 47.69 83.61 47.59
  Q 82.43 47.39 82.13 48.47
  Q 82.05 48.74 81.80 48.63
  Q 81.75 48.60 81.70 48.64
  Q 81.51 48.77 81.57 49.03
  Q 81.66 49.37 81.75 49.71
  Q 80.35 48.77 79.00 48.76
  Q 66.21 48.69 53.40 48.51
  C 51.95 48.49 51.10 49.16 50.51 50.38
  Q 49.64 50.73 48.82 50.30
  Q 48.43 50.09 48.00 50.21
  Q 47.10 50.48 46.49 51.23
  A 2.19 2.17 7.3 0 1 45.71 51.83
  Q 44.27 52.47 42.86 52.99
  Q 41.54 53.48 39.93 54.74
  C 39.00 55.47 37.04 56.79 35.86 56.94
  Q 35.28 57.01 35.09 57.56
  Q 35.04 57.71 34.93 57.79
  Q 34.56 58.04 34.49 57.60
  A 0.10 0.09 65.4 0 0 34.34 57.54
  Q 31.41 59.85 27.56 61.51
  Q 26.84 61.82 26.72 62.56
  Q 26.65 62.98 26.27 63.18
  Q 23.77 64.44 21.86 66.79
  Q 21.76 66.91 21.64 66.83
  Q 21.59 66.80 21.56 66.76
  Q 21.33 66.55 21.24 66.88
  Q 20.75 68.72 19.23 67.66
  C 19.74 66.15 20.10 64.88 21.35 63.82
  Q 22.68 62.67 23.73 61.27
  A 1.65 1.62 5.7 0 1 24.40 60.73
  Q 25.53 60.21 25.80 58.91
  Q 25.90 58.42 26.30 58.13
  Q 28.81 56.31 31.41 54.58
  Q 31.81 54.32 32.12 53.98
  Q 32.42 53.64 32.86 53.45
  Q 35.44 52.36 37.39 51.04
  Q 39.44 49.66 41.49 48.50
  Q 43.55 47.34 45.53 45.81
  A 2.93 2.89 45.9 0 1 49.16 45.89
  Q 49.64 46.28 50.46 46.18
  Q 50.98 46.11 51.11 45.60
  Q 51.15 45.44 51.25 45.30
  Q 51.38 45.12 51.60 45.06
  Q 53.33 44.58 54.98 44.45
  Q 56.65 44.32 57.87 43.71
  C 59.13 43.08 60.35 42.46 61.75 42.17
  Q 63.02 41.91 64.37 41.40
  Q 65.55 40.96 66.27 40.03
  Q 67.73 38.13 71.28 36.56
  Q 76.34 34.33 81.20 31.76
  C 82.39 31.13 83.66 31.23 84.69 30.36
  Q 85.30 29.85 86.07 29.62
  Q 89.83 28.47 93.21 27.29
  Q 93.64 27.14 93.90 26.79
  Q 94.07 26.55 94.35 26.47
  Q 98.05 25.28 101.57 23.93
  Q 104.86 22.68 107.62 22.01
  Q 110.61 21.28 113.67 20.53
  Q 114.20 20.40 114.58 20.00
  Q 115.45 19.09 116.76 19.41
  Q 116.84 19.43 116.87 19.37
  Q 116.92 19.28 116.82 19.30
  Q 116.02 19.48 115.46 19.15
  Q 114.67 18.69 115.58 18.75
  Q 115.95 18.77 116.29 18.73
  Q 116.53 18.71 116.76 18.78
  Q 121.30 20.20 125.62 22.40
  A 2.12 2.12 0.0 0 0 126.66 22.63
  Q 127.90 22.59 128.52 23.61
  A 1.16 1.05 87.1 0 0 128.91 24.00
  L 135.66 27.93
  Z"
/>
<path fill="#04d8e3" d="
  M 135.66 27.93
  L 141.27 32.04
  L 148.69 39.54
  Q 148.99 39.84 149.41 39.81
  Q 149.78 39.78 149.89 40.12
  Q 148.78 40.09 147.75 39.60
  Q 147.36 39.68 147.35 39.31
  Q 147.34 38.85 146.89 38.89
  Q 146.47 38.93 146.23 39.27
  Q 146.03 39.55 145.70 39.65
  Q 145.23 39.77 144.84 39.61
  Q 144.51 39.47 144.14 39.55
  Q 142.99 39.82 141.94 41.08
  Q 137.97 45.85 130.48 49.43
  Q 129.74 49.78 129.06 49.36
  A 0.90 0.89 -39.1 0 0 128.28 49.28
  L 118.50 52.99
  Q 118.05 53.16 117.79 53.57
  Q 117.50 54.05 116.94 53.89
  Q 116.52 53.77 116.19 54.06
  Q 116.09 54.14 116.03 54.26
  Q 115.82 54.64 115.40 54.75
  Q 111.85 55.61 107.92 57.01
  Q 107.60 57.12 107.26 57.14
  Q 106.89 57.17 106.81 57.59
  A 0.44 0.44 0.0 0 1 106.45 57.94
  L 92.65 60.46
  Q 92.25 60.53 91.89 60.36
  Q 90.44 59.70 89.09 58.88
  Q 87.89 58.15 86.86 56.87
  Q 84.73 54.21 82.52 51.48
  L 82.31 51.03
  Q 82.20 50.33 81.75 49.71
  Q 81.66 49.37 81.57 49.03
  Q 81.51 48.77 81.70 48.64
  Q 81.75 48.60 81.80 48.63
  Q 82.05 48.74 82.13 48.47
  Q 82.43 47.39 83.61 47.59
  Q 84.17 47.69 84.65 47.39
  Q 90.11 44.06 96.61 41.98
  Q 100.25 40.81 104.26 39.44
  Q 107.39 38.37 110.77 38.07
  Q 111.26 38.02 111.56 37.64
  Q 112.09 36.97 112.87 36.61
  Q 116.08 35.15 119.83 34.01
  Q 124.15 32.70 126.32 31.73
  Q 130.45 29.90 132.11 28.61
  Q 133.69 27.38 135.66 27.93
  Z"
/>
<path fill="#05c4d3" d="
  M 141.27 32.04
  L 143.67 33.48
  L 151.98 41.24
  Q 150.19 42.40 151.50 43.58
  A 2.14 2.09 -80.1 0 1 152.04 44.37
  Q 152.63 45.94 154.07 46.64
  Q 154.52 46.86 154.74 47.32
  Q 155.63 49.22 156.05 50.90
  Q 156.26 51.71 155.51 51.34
  Q 155.38 51.27 155.26 51.18
  Q 154.64 50.72 154.00 51.16
  L 152.66 52.08
  Q 152.21 52.39 151.67 52.51
  Q 150.66 52.73 150.02 53.54
  Q 149.46 54.25 148.65 54.68
  Q 145.57 56.33 142.27 57.37
  Q 142.18 57.40 142.09 57.40
  Q 141.98 57.41 142.04 57.17
  Q 142.04 57.14 142.01 57.15
  L 130.61 61.08
  C 129.41 59.86 128.49 59.14 126.80 60.10
  Q 120.41 63.73 116.38 69.98
  Q 115.59 69.89 114.62 70.61
  A 1.89 1.87 21.8 0 1 113.74 70.98
  Q 110.41 71.44 107.15 72.85
  Q 104.85 73.84 103.40 74.11
  Q 101.51 74.45 99.53 74.60
  A 3.78 3.77 -23.7 0 1 96.54 73.44
  Q 94.92 71.71 93.12 69.96
  Q 91.81 68.69 90.89 67.34
  Q 89.88 65.87 88.85 64.38
  C 87.93 63.06 87.89 61.70 87.02 60.40
  Q 85.60 58.26 84.08 55.77
  Q 84.08 54.81 83.25 54.31
  Q 82.78 54.03 82.68 54.57
  Q 82.48 55.61 82.74 56.72
  Q 82.62 56.72 82.49 56.71
  L 82.52 51.48
  Q 84.73 54.21 86.86 56.87
  Q 87.89 58.15 89.09 58.88
  Q 90.44 59.70 91.89 60.36
  Q 92.25 60.53 92.65 60.46
  L 106.45 57.94
  A 0.44 0.44 0.0 0 0 106.81 57.59
  Q 106.89 57.17 107.26 57.14
  Q 107.60 57.12 107.92 57.01
  Q 111.85 55.61 115.40 54.75
  Q 115.82 54.64 116.03 54.26
  Q 116.09 54.14 116.19 54.06
  Q 116.52 53.77 116.94 53.89
  Q 117.50 54.05 117.79 53.57
  Q 118.05 53.16 118.50 52.99
  L 128.28 49.28
  A 0.90 0.89 -39.1 0 1 129.06 49.36
  Q 129.74 49.78 130.48 49.43
  Q 137.97 45.85 141.94 41.08
  Q 142.99 39.82 144.14 39.55
  Q 144.51 39.47 144.84 39.61
  Q 145.23 39.77 145.70 39.65
  Q 146.03 39.55 146.23 39.27
  Q 146.47 38.93 146.89 38.89
  Q 147.34 38.85 147.35 39.31
  Q 147.36 39.68 147.75 39.60
  Q 148.78 40.09 149.89 40.12
  Q 149.78 39.78 149.41 39.81
  Q 148.99 39.84 148.69 39.54
  L 141.27 32.04
  Z"
/>
<path fill="#dbe3e7" d="
  M 143.78 31.88
  Q 161.58 46.49 168.64 68.47
  Q 168.32 68.58 168.36 69.13
  Q 168.38 69.38 168.13 69.40
  Q 167.93 69.42 167.85 69.23
  Q 166.23 65.30 164.97 61.25
  Q 164.82 60.77 164.47 60.39
  Q 163.83 59.72 163.57 58.92
  Q 163.02 57.14 162.91 56.92
  Q 158.34 48.29 151.98 41.24
  L 143.67 33.48
  Q 142.69 31.67 143.78 31.88
  Z"
/>
<path fill="#0ba5bc" d="
  M 151.98 41.24
  Q 158.34 48.29 162.91 56.92
  Q 163.02 57.14 163.57 58.92
  Q 163.83 59.72 164.47 60.39
  Q 164.82 60.77 164.97 61.25
  Q 166.23 65.30 167.85 69.23
  Q 167.93 69.42 168.13 69.40
  Q 168.38 69.38 168.36 69.13
  Q 168.32 68.58 168.64 68.47
  L 170.10 73.45
  L 167.48 72.95
  Q 166.99 72.86 166.81 73.33
  Q 166.61 73.88 166.02 74.20
  Q 165.63 74.41 165.25 74.19
  Q 165.00 74.04 164.76 74.23
  Q 164.31 74.61 163.72 74.60
  Q 162.14 74.60 161.10 73.68
  Q 160.79 73.41 161.20 73.41
  L 162.02 73.41
  Q 163.17 73.41 162.18 72.83
  Q 161.52 72.44 161.14 71.83
  Q 160.78 71.24 160.11 71.06
  L 155.41 69.82
  Q 154.90 69.68 154.89 69.15
  L 154.88 68.83
  A 0.45 0.45 0.0 0 0 154.43 68.39
  L 150.97 68.38
  Q 150.55 68.38 150.27 68.68
  Q 149.76 69.21 149.05 69.02
  Q 148.60 68.89 148.14 69.04
  Q 145.17 70.02 142.05 70.04
  C 140.95 70.05 140.11 69.37 138.97 69.38
  A 1.24 1.21 65.2 0 1 138.16 69.07
  Q 136.71 67.77 135.19 67.20
  L 132.95 64.05
  L 130.61 61.08
  L 142.01 57.15
  Q 142.04 57.14 142.04 57.17
  Q 141.98 57.41 142.09 57.40
  Q 142.18 57.40 142.27 57.37
  Q 145.57 56.33 148.65 54.68
  Q 149.46 54.25 150.02 53.54
  Q 150.66 52.73 151.67 52.51
  Q 152.21 52.39 152.66 52.08
  L 154.00 51.16
  Q 154.64 50.72 155.26 51.18
  Q 155.38 51.27 155.51 51.34
  Q 156.26 51.71 156.05 50.90
  Q 155.63 49.22 154.74 47.32
  Q 154.52 46.86 154.07 46.64
  Q 152.63 45.94 152.04 44.37
  A 2.14 2.09 -80.1 0 0 151.50 43.58
  Q 150.19 42.40 151.98 41.24
  Z"
/>
<path fill="#faf2f6" d="
  M 81.75 49.71
  Q 82.20 50.33 82.31 51.03
  Q 82.38 51.59 82.10 51.95
  A 0.72 0.72 0.0 0 1 81.35 52.23
  Q 79.47 51.82 78.06 53.40
  Q 77.73 53.77 77.25 53.91
  C 75.19 54.47 73.11 54.54 71.04 55.04
  Q 67.75 55.84 64.25 55.74
  Q 62.80 55.70 61.26 55.99
  Q 59.25 56.38 57.34 55.47
  Q 56.45 55.04 55.48 55.07
  Q 54.35 55.10 53.70 54.08
  A 1.33 1.32 79.8 0 0 52.90 53.52
  L 51.69 53.25
  Q 50.26 52.33 50.51 50.38
  C 51.10 49.16 51.95 48.49 53.40 48.51
  Q 66.21 48.69 79.00 48.76
  Q 80.35 48.77 81.75 49.71
  Z"
/>
<path fill="#04d8e3" d="
  M 50.51 50.38
  Q 50.26 52.33 51.69 53.25
  L 52.20 54.15
  Q 51.40 57.03 51.72 58.00
  Q 52.48 60.26 52.37 62.59
  A 1.15 1.14 -61.0 0 0 52.57 63.30
  Q 53.17 64.18 52.76 65.22
  Q 52.56 65.71 52.85 66.15
  Q 53.18 66.66 53.27 67.31
  Q 49.37 73.35 47.66 80.16
  Q 45.74 79.75 44.50 80.87
  Q 43.89 81.42 43.01 81.52
  Q 42.56 81.57 42.27 81.91
  Q 39.89 84.62 35.30 86.72
  C 30.47 88.93 25.62 91.12 20.49 91.60
  Q 17.95 91.84 15.73 91.16
  Q 15.17 90.99 14.90 90.48
  Q 14.15 89.07 13.95 87.54
  L 15.74 76.22
  Q 18.25 72.81 19.23 67.66
  Q 20.75 68.72 21.24 66.88
  Q 21.33 66.55 21.56 66.76
  Q 21.59 66.80 21.64 66.83
  Q 21.76 66.91 21.86 66.79
  Q 23.77 64.44 26.27 63.18
  Q 26.65 62.98 26.72 62.56
  Q 26.84 61.82 27.56 61.51
  Q 31.41 59.85 34.34 57.54
  A 0.10 0.09 65.4 0 1 34.49 57.60
  Q 34.56 58.04 34.93 57.79
  Q 35.04 57.71 35.09 57.56
  Q 35.28 57.01 35.86 56.94
  C 37.04 56.79 39.00 55.47 39.93 54.74
  Q 41.54 53.48 42.86 52.99
  Q 44.27 52.47 45.71 51.83
  A 2.19 2.17 7.3 0 0 46.49 51.23
  Q 47.10 50.48 48.00 50.21
  Q 48.43 50.09 48.82 50.30
  Q 49.64 50.73 50.51 50.38
  Z"
/>
<path fill="#dbe3e7" d="
  M 82.31 51.03
  L 82.52 51.48
  L 82.49 56.71
  L 82.13 79.03
  Q 79.64 81.19 77.64 79.38
  Q 74.36 76.39 70.98 73.44
  A 1.10 1.09 38.4 0 0 69.37 73.62
  C 67.01 76.86 64.85 80.12 63.66 84.03
  Q 58.79 99.98 69.38 113.47
  Q 72.17 117.05 77.20 120.42
  Q 95.31 130.44 112.52 118.91
  Q 120.95 112.48 124.10 102.74
  Q 128.75 85.31 117.37 72.18
  Q 117.33 72.07 117.29 71.95
  Q 117.97 72.28 118.24 72.00
  C 119.58 70.63 120.79 69.31 122.44 68.24
  Q 125.11 66.52 127.48 64.84
  Q 128.51 64.11 132.95 64.05
  L 135.19 67.20
  L 138.96 74.68
  L 141.43 86.20
  Q 141.92 95.62 141.45 98.90
  Q 138.00 122.75 117.84 134.77
  C 94.09 148.94 63.29 139.34 50.80 114.20
  L 47.33 104.55
  Q 45.86 97.79 46.15 90.64
  L 46.32 89.54
  Q 48.10 88.88 48.35 86.48
  Q 48.59 84.22 48.90 83.11
  Q 49.40 81.32 49.45 79.62
  A 4.07 3.55 -19.5 0 1 51.12 76.66
  Q 51.65 76.27 51.97 75.50
  Q 52.26 74.81 52.64 74.18
  Q 53.26 73.13 53.71 72.01
  Q 54.16 70.89 54.87 69.93
  Q 56.50 67.74 57.16 65.58
  Q 57.53 64.35 58.20 63.56
  Q 58.98 62.66 59.80 61.82
  Q 60.15 61.45 60.00 60.96
  Q 59.63 59.78 58.47 60.57
  L 52.51 54.40
  L 52.20 54.15
  L 51.69 53.25
  L 52.90 53.52
  A 1.33 1.32 79.8 0 1 53.70 54.08
  Q 54.35 55.10 55.48 55.07
  Q 56.45 55.04 57.34 55.47
  Q 59.25 56.38 61.26 55.99
  Q 62.80 55.70 64.25 55.74
  Q 67.75 55.84 71.04 55.04
  C 73.11 54.54 75.19 54.47 77.25 53.91
  Q 77.73 53.77 78.06 53.40
  Q 79.47 51.82 81.35 52.23
  A 0.72 0.72 0.0 0 0 82.10 51.95
  Q 82.38 51.59 82.31 51.03
  Z"
/>
<path fill="#0691a8" d="
  M 84.08 55.77
  Q 85.59 67.13 90.69 76.40
  Q 92.81 80.26 94.11 82.72
  Q 95.72 85.75 97.65 88.64
  Q 98.76 90.32 99.58 92.79
  Q 100.32 95.00 101.52 96.85
  Q 102.96 99.05 104.53 101.35
  Q 104.78 101.71 104.76 102.15
  Q 104.74 102.77 105.10 103.27
  Q 105.43 103.73 106.05 103.71
  Q 107.53 103.65 108.65 102.91
  Q 108.77 102.83 108.90 102.90
  Q 109.05 102.98 109.06 103.14
  Q 109.08 103.56 109.31 103.22
  Q 109.69 102.67 110.32 102.98
  A 0.99 0.99 0.0 0 0 111.68 102.47
  L 114.18 96.30
  Q 114.36 95.85 114.33 95.36
  Q 114.29 94.61 114.72 94.01
  Q 115.06 93.55 115.08 92.97
  Q 115.29 85.63 115.79 78.33
  Q 115.90 76.71 116.25 75.14
  Q 116.60 73.54 116.43 72.04
  Q 116.39 71.70 116.72 71.64
  Q 116.87 71.60 117.01 71.68
  Q 117.18 71.79 117.29 71.95
  Q 117.33 72.07 117.37 72.18
  Q 116.73 73.20 117.29 73.69
  Q 117.25 76.48 118.62 79.24
  Q 119.66 81.32 120.00 84.63
  C 120.22 86.78 120.88 88.76 120.77 90.94
  Q 120.67 92.73 121.02 94.54
  Q 121.40 96.50 120.96 98.34
  Q 120.64 99.69 120.82 101.41
  Q 121.01 103.21 120.98 104.96
  Q 120.96 106.25 120.30 107.59
  Q 119.55 109.12 119.20 110.59
  Q 118.80 112.25 117.65 113.27
  Q 114.86 115.78 112.52 118.91
  Q 95.31 130.44 77.20 120.42
  L 78.00 116.48
  Q 78.12 115.92 77.99 115.37
  Q 77.54 113.42 76.50 111.73
  Q 74.65 108.72 74.17 104.07
  C 74.00 102.43 73.19 100.87 72.49 99.40
  C 71.87 98.08 72.28 96.92 71.89 95.55
  Q 71.77 95.15 71.41 95.35
  Q 71.17 95.48 71.17 95.76
  Q 71.17 96.48 70.87 95.83
  Q 70.52 95.08 70.68 94.26
  Q 71.49 89.97 75.12 88.98
  C 76.44 88.62 77.41 87.84 78.55 87.10
  Q 79.44 86.53 80.12 85.70
  Q 80.82 84.84 81.93 84.40
  Q 82.42 84.20 82.63 83.73
  Q 83.33 82.17 83.54 80.61
  Q 84.63 72.24 83.92 66.84
  Q 83.66 64.84 83.62 62.87
  Q 83.62 62.75 83.58 62.63
  Q 83.48 62.36 83.21 62.47
  A 0.26 0.26 0.0 0 1 82.85 62.24
  L 82.74 56.72
  Q 82.48 55.61 82.68 54.57
  Q 82.78 54.03 83.25 54.31
  Q 84.08 54.81 84.08 55.77
  Z"
/>
<path fill="#05c4d3" d="
  M 52.20 54.15
  L 52.51 54.40
  Q 52.27 54.43 52.17 54.64
  A 0.74 0.71 -53.2 0 0 52.27 55.42
  Q 52.84 56.10 52.49 56.99
  Q 52.00 58.20 52.76 58.89
  Q 52.99 59.03 53.12 58.99
  Q 53.95 60.46 54.43 62.05
  Q 54.60 62.59 54.48 63.45
  Q 54.33 64.58 54.96 64.88
  L 53.27 67.31
  Q 53.18 66.66 52.85 66.15
  Q 52.56 65.71 52.76 65.22
  Q 53.17 64.18 52.57 63.30
  A 1.15 1.14 -61.0 0 1 52.37 62.59
  Q 52.48 60.26 51.72 58.00
  Q 51.40 57.03 52.20 54.15
  Z"
/>
<path fill="#086b76" d="
  M 52.51 54.40
  L 58.47 60.57
  Q 57.78 61.91 56.86 62.75
  Q 56.35 63.21 56.01 62.61
  Q 55.80 62.25 55.98 61.89
  Q 56.19 61.47 56.06 61.01
  Q 55.75 59.85 54.78 59.04
  Q 55.50 58.20 54.59 58.81
  Q 54.56 57.25 53.73 57.53
  Q 53.67 57.01 53.33 56.74
  L 53.12 56.46
  Q 52.79 56.03 52.68 56.56
  Q 52.44 57.75 52.76 58.89
  Q 52.00 58.20 52.49 56.99
  Q 52.84 56.10 52.27 55.42
  A 0.74 0.71 -53.2 0 1 52.17 54.64
  Q 52.27 54.43 52.51 54.40
  Z"
/>
<path fill="#0ba5bc" d="
  M 84.08 55.77
  Q 85.60 58.26 87.02 60.40
  C 87.89 61.70 87.93 63.06 88.85 64.38
  Q 89.88 65.87 90.89 67.34
  Q 91.81 68.69 93.12 69.96
  Q 94.92 71.71 96.54 73.44
  A 3.78 3.77 -23.7 0 0 99.53 74.60
  Q 101.51 74.45 103.40 74.11
  Q 104.85 73.84 107.15 72.85
  Q 110.41 71.44 113.74 70.98
  A 1.89 1.87 21.8 0 0 114.62 70.61
  Q 115.59 69.89 116.38 69.98
  Q 116.35 70.91 117.01 71.68
  Q 116.87 71.60 116.72 71.64
  Q 116.39 71.70 116.43 72.04
  Q 116.60 73.54 116.25 75.14
  Q 115.90 76.71 115.79 78.33
  Q 115.29 85.63 115.08 92.97
  Q 115.06 93.55 114.72 94.01
  Q 114.29 94.61 114.33 95.36
  Q 114.36 95.85 114.18 96.30
  L 111.68 102.47
  A 0.99 0.99 0.0 0 1 110.32 102.98
  Q 109.69 102.67 109.31 103.22
  Q 109.08 103.56 109.06 103.14
  Q 109.05 102.98 108.90 102.90
  Q 108.77 102.83 108.65 102.91
  Q 107.53 103.65 106.05 103.71
  Q 105.43 103.73 105.10 103.27
  Q 104.74 102.77 104.76 102.15
  Q 104.78 101.71 104.53 101.35
  Q 102.96 99.05 101.52 96.85
  Q 100.32 95.00 99.58 92.79
  Q 98.76 90.32 97.65 88.64
  Q 95.72 85.75 94.11 82.72
  Q 92.81 80.26 90.69 76.40
  Q 85.59 67.13 84.08 55.77
  Z"
/>
<path fill="#0ba5bc" d="
  M 53.33 56.74
  L 53.12 58.99
  Q 52.99 59.03 52.76 58.89
  Q 52.44 57.75 52.68 56.56
  Q 52.79 56.03 53.12 56.46
  L 53.33 56.74
  Z"
/>
<path fill="#0691a8" d="
  M 53.33 56.74
  Q 53.67 57.01 53.73 57.53
  Q 53.72 58.82 54.41 59.97
  Q 54.79 60.59 54.71 59.87
  L 54.59 58.81
  Q 55.50 58.20 54.78 59.04
  L 55.85 60.82
  Q 56.11 61.24 55.93 61.70
  Q 55.71 62.28 56.03 62.80
  Q 56.31 63.25 56.03 63.70
  Q 55.63 64.36 54.96 64.88
  Q 54.33 64.58 54.48 63.45
  Q 54.60 62.59 54.43 62.05
  Q 53.95 60.46 53.12 58.99
  L 53.33 56.74
  Z"
/>
<path fill="#017b8c" d="
  M 82.49 56.71
  Q 82.62 56.72 82.74 56.72
  L 82.85 62.24
  A 0.26 0.26 0.0 0 0 83.21 62.47
  Q 83.48 62.36 83.58 62.63
  Q 83.62 62.75 83.62 62.87
  Q 83.66 64.84 83.92 66.84
  Q 84.63 72.24 83.54 80.61
  Q 83.33 82.17 82.63 83.73
  Q 82.42 84.20 81.93 84.40
  Q 80.82 84.84 80.12 85.70
  Q 79.44 86.53 78.55 87.10
  C 77.41 87.84 76.44 88.62 75.12 88.98
  Q 71.49 89.97 70.68 94.26
  Q 70.52 95.08 70.87 95.83
  Q 71.17 96.48 71.17 95.76
  Q 71.17 95.48 71.41 95.35
  Q 71.77 95.15 71.89 95.55
  C 72.28 96.92 71.87 98.08 72.49 99.40
  C 73.19 100.87 74.00 102.43 74.17 104.07
  Q 74.65 108.72 76.50 111.73
  Q 77.54 113.42 77.99 115.37
  Q 78.12 115.92 78.00 116.48
  L 77.20 120.42
  Q 72.17 117.05 69.38 113.47
  L 66.56 106.10
  Q 66.39 105.65 66.41 105.17
  Q 66.45 104.10 65.88 103.15
  Q 65.63 102.73 65.64 102.23
  Q 65.69 98.29 65.27 94.10
  Q 65.27 94.05 65.21 94.00
  Q 65.09 93.86 64.98 94.00
  A 0.04 0.03 67.0 0 1 64.92 93.97
  Q 65.15 83.81 75.19 83.20
  Q 78.12 83.03 80.64 81.89
  Q 81.44 81.53 81.84 80.74
  Q 82.36 79.72 82.13 79.03
  L 82.49 56.71
  Z"
/>
<path fill="#028894" d="
  M 53.73 57.53
  Q 54.56 57.25 54.59 58.81
  L 54.71 59.87
  Q 54.79 60.59 54.41 59.97
  Q 53.72 58.82 53.73 57.53
  Z"
/>
<path fill="#faf2f6" d="
  M 54.78 59.04
  Q 55.75 59.85 56.06 61.01
  Q 56.19 61.47 55.98 61.89
  Q 55.80 62.25 56.01 62.61
  Q 56.35 63.21 56.86 62.75
  Q 57.78 61.91 58.47 60.57
  Q 59.63 59.78 60.00 60.96
  Q 60.15 61.45 59.80 61.82
  Q 58.98 62.66 58.20 63.56
  Q 57.53 64.35 57.16 65.58
  Q 56.50 67.74 54.87 69.93
  Q 54.16 70.89 53.71 72.01
  Q 53.26 73.13 52.64 74.18
  Q 52.26 74.81 51.97 75.50
  Q 51.65 76.27 51.12 76.66
  A 4.07 3.55 -19.5 0 0 49.45 79.62
  Q 49.40 81.32 48.90 83.11
  Q 48.59 84.22 48.35 86.48
  Q 48.10 88.88 46.32 89.54
  L 47.66 80.16
  Q 49.37 73.35 53.27 67.31
  L 54.96 64.88
  Q 55.63 64.36 56.03 63.70
  Q 56.31 63.25 56.03 62.80
  Q 55.71 62.28 55.93 61.70
  Q 56.11 61.24 55.85 60.82
  L 54.78 59.04
  Z"
/>
<path fill="#faf2f6" d="
  M 130.61 61.08
  L 132.95 64.05
  Q 128.51 64.11 127.48 64.84
  Q 125.11 66.52 122.44 68.24
  C 120.79 69.31 119.58 70.63 118.24 72.00
  Q 117.97 72.28 117.29 71.95
  Q 117.18 71.79 117.01 71.68
  Q 116.35 70.91 116.38 69.98
  Q 120.41 63.73 126.80 60.10
  C 128.49 59.14 129.41 59.86 130.61 61.08
  Z"
/>
<path fill="#0691a8" d="
  M 135.19 67.20
  Q 136.71 67.77 138.16 69.07
  A 1.24 1.21 65.2 0 0 138.97 69.38
  C 140.11 69.37 140.95 70.05 142.05 70.04
  Q 145.17 70.02 148.14 69.04
  Q 148.60 68.89 149.05 69.02
  Q 149.76 69.21 150.27 68.68
  Q 150.55 68.38 150.97 68.38
  L 154.43 68.39
  A 0.45 0.45 0.0 0 1 154.88 68.83
  L 154.89 69.15
  Q 154.90 69.68 155.41 69.82
  L 160.11 71.06
  Q 160.78 71.24 161.14 71.83
  Q 161.52 72.44 162.18 72.83
  Q 163.17 73.41 162.02 73.41
  L 161.20 73.41
  Q 160.79 73.41 161.10 73.68
  Q 162.14 74.60 163.72 74.60
  Q 164.31 74.61 164.76 74.23
  Q 165.00 74.04 165.25 74.19
  Q 165.63 74.41 166.02 74.20
  Q 166.61 73.88 166.81 73.33
  Q 166.99 72.86 167.48 72.95
  L 170.10 73.45
  L 171.16 77.70
  L 168.57 80.98
  Q 168.19 81.46 167.59 81.57
  Q 165.94 81.88 165.26 83.12
  A 1.39 1.39 0.0 0 1 164.59 83.73
  L 161.77 84.96
  Q 161.58 85.05 161.62 85.26
  Q 161.65 85.41 161.76 85.50
  Q 162.33 86.03 161.57 86.21
  Q 158.41 86.95 156.65 89.68
  Q 155.11 92.07 152.39 90.62
  Q 149.30 88.97 147.77 85.48
  Q 147.66 85.24 147.55 85.47
  Q 147.46 85.66 147.06 85.30
  Q 146.84 85.11 146.72 84.83
  Q 146.20 83.60 145.27 82.64
  Q 144.39 81.72 143.56 80.17
  Q 141.75 76.79 138.96 74.68
  L 135.19 67.20
  Z"
/>
<path fill="#086b76" d="
  M 117.37 72.18
  Q 128.75 85.31 124.10 102.74
  L 122.90 103.96
  Q 122.47 104.39 122.55 103.79
  Q 122.71 102.45 123.08 101.19
  Q 124.09 97.76 123.85 94.24
  Q 123.83 93.91 123.50 93.88
  Q 123.12 93.86 123.05 93.48
  Q 122.50 90.30 122.12 86.57
  Q 122.11 86.50 122.07 86.45
  Q 121.99 86.35 121.91 86.26
  Q 121.90 86.25 121.89 86.23
  L 118.84 78.15
  Q 118.66 77.67 118.64 77.16
  Q 118.55 75.27 117.29 73.69
  Q 116.73 73.20 117.37 72.18
  Z"
/>
<path fill="#086b76" d="
  M 82.13 79.03
  Q 82.36 79.72 81.84 80.74
  Q 81.44 81.53 80.64 81.89
  Q 78.12 83.03 75.19 83.20
  Q 65.15 83.81 64.92 93.97
  A 0.04 0.03 67.0 0 0 64.98 94.00
  Q 65.09 93.86 65.21 94.00
  Q 65.27 94.05 65.27 94.10
  Q 65.69 98.29 65.64 102.23
  Q 65.63 102.73 65.88 103.15
  Q 66.45 104.10 66.41 105.17
  Q 66.39 105.65 66.56 106.10
  L 69.38 113.47
  Q 58.79 99.98 63.66 84.03
  C 64.85 80.12 67.01 76.86 69.37 73.62
  A 1.10 1.09 38.4 0 1 70.98 73.44
  Q 74.36 76.39 77.64 79.38
  Q 79.64 81.19 82.13 79.03
  Z"
/>
<path fill="#028894" d="
  M 117.29 73.69
  Q 118.55 75.27 118.64 77.16
  Q 118.66 77.67 118.84 78.15
  L 121.89 86.23
  Q 121.90 86.25 121.91 86.26
  Q 121.99 86.35 122.07 86.45
  Q 122.11 86.50 122.12 86.57
  Q 122.50 90.30 123.05 93.48
  Q 123.12 93.86 123.50 93.88
  Q 123.83 93.91 123.85 94.24
  Q 124.09 97.76 123.08 101.19
  Q 122.71 102.45 122.55 103.79
  Q 122.47 104.39 122.90 103.96
  L 124.10 102.74
  Q 120.95 112.48 112.52 118.91
  Q 114.86 115.78 117.65 113.27
  Q 118.80 112.25 119.20 110.59
  Q 119.55 109.12 120.30 107.59
  Q 120.96 106.25 120.98 104.96
  Q 121.01 103.21 120.82 101.41
  Q 120.64 99.69 120.96 98.34
  Q 121.40 96.50 121.02 94.54
  Q 120.67 92.73 120.77 90.94
  C 120.88 88.76 120.22 86.78 120.00 84.63
  Q 119.66 81.32 118.62 79.24
  Q 117.25 76.48 117.29 73.69
  Z"
/>
<path fill="#017b8c" d="
  M 138.96 74.68
  Q 141.75 76.79 143.56 80.17
  Q 144.39 81.72 145.27 82.64
  Q 146.20 83.60 146.72 84.83
  Q 146.84 85.11 147.06 85.30
  Q 147.46 85.66 147.55 85.47
  Q 147.66 85.24 147.77 85.48
  Q 149.30 88.97 152.39 90.62
  Q 155.11 92.07 156.65 89.68
  Q 158.41 86.95 161.57 86.21
  Q 162.33 86.03 161.76 85.50
  Q 161.65 85.41 161.62 85.26
  Q 161.58 85.05 161.77 84.96
  L 164.59 83.73
  A 1.39 1.39 0.0 0 0 165.26 83.12
  Q 165.94 81.88 167.59 81.57
  Q 168.19 81.46 168.57 80.98
  L 171.16 77.70
  L 172.42 85.47
  Q 171.86 88.99 171.61 92.50
  Q 171.51 93.81 170.29 94.42
  Q 170.19 94.47 170.19 94.58
  Q 170.20 94.71 170.25 94.84
  Q 170.40 95.23 170.27 95.63
  Q 168.08 102.16 165.50 108.22
  Q 163.89 112.00 162.46 115.74
  Q 160.55 120.73 157.62 125.12
  Q 157.46 125.35 157.19 125.31
  Q 156.71 125.24 156.56 125.69
  Q 156.03 127.27 154.92 128.37
  Q 154.87 128.42 154.87 128.50
  L 154.87 129.05
  Q 154.87 129.37 154.63 129.58
  C 153.51 130.57 153.24 131.86 152.31 133.02
  Q 149.26 136.83 146.06 140.14
  Q 145.87 140.34 145.87 140.62
  Q 145.88 140.80 145.75 140.95
  Q 145.57 141.16 145.30 141.14
  Q 145.13 141.12 145.01 141.24
  L 136.08 150.16
  Q 135.66 150.58 135.06 150.65
  Q 134.38 150.73 133.90 151.26
  Q 133.56 151.64 133.13 151.90
  L 125.66 156.49
  A 0.69 0.68 -59.2 0 1 125.27 156.59
  C 123.95 156.57 123.27 157.58 122.14 158.09
  Q 116.36 160.74 109.36 162.86
  Q 104.15 164.44 100.39 164.59
  Q 99.99 164.60 99.70 164.89
  Q 99.45 165.15 99.07 165.18
  Q 92.97 165.62 87.08 165.18
  Q 78.48 164.54 71.56 162.49
  Q 70.27 162.11 68.93 161.88
  Q 67.36 161.61 66.06 160.86
  Q 64.71 160.08 63.27 159.77
  C 61.20 159.33 59.72 158.38 58.03 157.23
  C 57.06 156.57 55.79 156.48 54.74 155.80
  Q 51.66 153.79 48.56 151.93
  Q 48.37 151.81 48.24 151.64
  Q 47.98 151.27 47.58 151.07
  Q 44.27 149.37 41.95 146.37
  Q 40.77 144.42 39.16 142.97
  Q 35.11 139.33 30.93 135.59
  Q 30.75 135.42 30.91 135.23
  L 31.19 134.92
  Q 31.36 134.74 31.54 134.90
  Q 33.93 137.03 36.24 139.00
  Q 36.34 139.08 36.44 138.99
  L 36.44 138.98
  Q 36.56 138.87 36.44 138.75
  Q 35.66 137.93 34.90 137.20
  Q 34.88 137.18 34.90 137.17
  L 35.10 137.00
  Q 35.23 136.88 35.34 137.03
  Q 36.49 138.54 37.76 139.69
  Q 38.16 140.06 38.70 140.17
  Q 39.40 140.33 39.75 141.00
  A 1.43 1.38 4.8 0 0 40.16 141.47
  Q 41.37 142.40 42.52 143.61
  Q 43.60 144.76 44.86 145.50
  Q 50.23 148.70 55.69 152.16
  Q 57.35 153.21 59.35 153.97
  Q 61.25 154.69 63.02 155.58
  Q 64.93 156.54 67.08 157.19
  Q 68.98 157.77 70.96 157.81
  Q 73.30 157.85 75.27 158.57
  Q 75.76 158.74 76.11 158.38
  Q 76.36 158.14 76.64 158.41
  Q 77.03 158.80 77.58 158.83
  Q 83.36 159.21 89.30 159.11
  C 90.82 159.09 91.83 158.22 93.35 158.18
  Q 93.98 158.16 93.98 157.53
  L 93.98 156.91
  A 0.40 0.40 0.0 0 1 94.35 156.51
  Q 96.62 156.35 98.33 154.83
  Q 98.99 154.25 98.11 154.32
  Q 96.25 154.45 94.41 154.33
  Q 94.00 154.30 94.10 154.70
  Q 94.15 154.90 93.75 155.04
  Q 93.43 155.16 93.19 154.92
  L 92.88 154.61
  Q 92.55 154.28 92.08 154.31
  Q 90.02 154.48 87.84 153.99
  Q 87.37 153.89 87.80 153.68
  Q 88.01 153.57 87.67 153.15
  Q 87.49 152.93 87.23 152.82
  Q 85.27 151.96 83.02 152.08
  Q 82.48 152.10 82.12 151.71
  Q 80.26 149.71 77.51 148.89
  Q 75.04 148.15 72.86 147.11
  Q 69.77 145.65 66.66 143.93
  Q 64.67 142.83 62.92 141.03
  Q 62.52 140.61 62.61 141.18
  Q 62.64 141.35 62.34 141.41
  Q 62.00 141.48 61.77 141.21
  Q 60.08 139.13 58.17 136.98
  Q 56.30 134.87 55.04 132.37
  Q 51.53 125.42 50.95 117.39
  Q 52.47 119.97 53.26 122.47
  Q 54.13 125.23 55.20 126.97
  Q 56.66 129.34 58.04 131.69
  Q 58.57 132.59 60.13 134.33
  Q 60.47 134.71 60.94 134.90
  Q 62.29 135.48 62.63 136.92
  Q 62.78 137.57 63.42 137.77
  Q 64.40 138.07 64.73 139.07
  Q 64.81 139.31 65.03 139.19
  Q 65.18 139.10 65.32 139.13
  Q 65.47 139.15 65.60 139.24
  Q 68.61 141.41 71.61 143.50
  Q 72.67 144.25 74.14 144.58
  Q 75.52 144.89 76.92 145.20
  Q 78.84 145.62 80.99 146.44
  Q 87.94 149.08 91.24 148.90
  C 92.95 148.80 96.33 148.54 97.85 149.21
  Q 99.74 150.05 101.78 149.43
  Q 103.67 148.87 105.81 149.32
  A 3.31 3.23 41.0 0 0 107.55 149.22
  Q 111.92 147.75 115.50 146.72
  Q 116.26 146.49 117.04 145.96
  Q 117.50 145.64 118.05 145.46
  Q 122.23 144.02 125.76 141.15
  Q 126.19 140.80 127.48 140.39
  Q 127.95 140.25 128.15 139.80
  Q 128.75 138.45 130.17 137.98
  Q 130.67 137.81 131.00 137.40
  Q 132.76 135.19 135.08 133.81
  Q 135.53 133.54 135.69 133.04
  Q 136.22 131.31 137.24 129.85
  C 137.69 129.22 137.64 128.94 137.78 128.20
  A 1.91 1.88 -18.9 0 1 138.23 127.30
  Q 139.74 125.61 139.54 123.33
  Q 139.49 122.83 139.71 122.38
  Q 140.26 121.24 140.52 119.94
  Q 140.84 118.39 141.42 116.92
  Q 142.45 114.29 142.88 111.49
  Q 142.91 111.25 142.80 111.04
  Q 142.61 110.70 142.69 110.31
  Q 143.91 104.40 143.89 95.96
  Q 143.89 94.86 143.56 94.11
  A 1.93 1.93 0.0 0 1 143.39 93.23
  Q 143.55 88.98 142.40 84.72
  Q 142.34 84.47 142.08 84.49
  L 141.57 84.54
  Q 141.37 84.55 141.37 84.76
  L 141.43 86.20
  L 138.96 74.68
  Z"
/>
<path fill="#05c4d3" d="
  M 47.66 80.16
  L 46.32 89.54
  L 46.15 90.64
  Q 45.79 92.20 45.17 93.47
  Q 44.38 95.10 44.21 96.23
  Q 43.98 97.78 43.69 99.53
  Q 43.61 100.00 43.27 100.34
  Q 42.64 100.96 42.48 101.90
  A 1.83 1.81 -22.8 0 1 42.19 102.60
  L 40.96 104.37
  Q 40.72 104.72 40.32 104.88
  Q 38.51 105.58 36.88 106.34
  Q 34.76 107.34 31.86 107.42
  A 0.84 0.84 0.0 0 1 31.21 107.14
  Q 30.86 106.76 30.35 106.87
  Q 29.77 106.99 29.29 106.62
  Q 28.66 106.14 27.85 106.04
  Q 23.87 105.58 20.11 102.77
  Q 20.04 102.72 19.97 102.74
  Q 19.84 102.77 19.72 102.82
  Q 19.28 102.98 18.90 102.70
  Q 17.52 101.66 16.72 100.29
  Q 16.49 99.88 16.10 99.62
  L 15.26 99.06
  A 1.30 1.30 0.0 0 1 14.72 98.29
  L 13.79 94.41
  L 13.95 87.54
  Q 14.15 89.07 14.90 90.48
  Q 15.17 90.99 15.73 91.16
  Q 17.95 91.84 20.49 91.60
  C 25.62 91.12 30.47 88.93 35.30 86.72
  Q 39.89 84.62 42.27 81.91
  Q 42.56 81.57 43.01 81.52
  Q 43.89 81.42 44.50 80.87
  Q 45.74 79.75 47.66 80.16
  Z"
/>
<path fill="#086b76" d="
  M 50.95 117.39
  Q 51.12 116.86 50.57 115.54
  Q 50.05 114.31 50.80 114.20
  C 63.29 139.34 94.09 148.94 117.84 134.77
  Q 138.00 122.75 141.45 98.90
  Q 141.92 95.62 141.43 86.20
  L 141.37 84.76
  Q 141.37 84.55 141.57 84.54
  L 142.08 84.49
  Q 142.34 84.47 142.40 84.72
  Q 143.55 88.98 143.39 93.23
  A 1.93 1.93 0.0 0 0 143.56 94.11
  Q 143.89 94.86 143.89 95.96
  Q 143.91 104.40 142.69 110.31
  Q 142.61 110.70 142.80 111.04
  Q 142.91 111.25 142.88 111.49
  Q 142.45 114.29 141.42 116.92
  Q 140.84 118.39 140.52 119.94
  Q 140.26 121.24 139.71 122.38
  Q 139.49 122.83 139.54 123.33
  Q 139.74 125.61 138.23 127.30
  A 1.91 1.88 -18.9 0 0 137.78 128.20
  C 137.64 128.94 137.69 129.22 137.24 129.85
  Q 136.22 131.31 135.69 133.04
  Q 135.53 133.54 135.08 133.81
  Q 132.76 135.19 131.00 137.40
  Q 130.67 137.81 130.17 137.98
  Q 128.75 138.45 128.15 139.80
  Q 127.95 140.25 127.48 140.39
  Q 126.19 140.80 125.76 141.15
  Q 122.23 144.02 118.05 145.46
  Q 117.50 145.64 117.04 145.96
  Q 116.26 146.49 115.50 146.72
  Q 111.92 147.75 107.55 149.22
  A 3.31 3.23 41.0 0 1 105.81 149.32
  Q 103.67 148.87 101.78 149.43
  Q 99.74 150.05 97.85 149.21
  C 96.33 148.54 92.95 148.80 91.24 148.90
  Q 87.94 149.08 80.99 146.44
  Q 78.84 145.62 76.92 145.20
  Q 75.52 144.89 74.14 144.58
  Q 72.67 144.25 71.61 143.50
  Q 68.61 141.41 65.60 139.24
  Q 65.47 139.15 65.32 139.13
  Q 65.18 139.10 65.03 139.19
  Q 64.81 139.31 64.73 139.07
  Q 64.40 138.07 63.42 137.77
  Q 62.78 137.57 62.63 136.92
  Q 62.29 135.48 60.94 134.90
  Q 60.47 134.71 60.13 134.33
  Q 58.57 132.59 58.04 131.69
  Q 56.66 129.34 55.20 126.97
  Q 54.13 125.23 53.26 122.47
  Q 52.47 119.97 50.95 117.39
  Z"
/>
<path fill="#086b76" d="
  M 172.42 85.47
  C 175.93 125.78 152.22 161.45 112.46 171.02
  Q 84.78 177.67 59.03 165.86
  Q 34.12 154.44 21.97 129.72
  Q 22.95 130.02 23.82 130.67
  Q 24.25 131.00 24.33 131.54
  Q 24.41 132.13 24.96 132.12
  A 0.70 0.68 -22.3 0 1 25.48 132.33
  Q 27.65 134.59 30.31 136.67
  Q 30.79 137.05 31.36 137.28
  Q 32.20 137.61 32.72 138.37
  Q 33.13 138.97 33.82 139.19
  Q 35.16 139.62 35.84 140.87
  C 37.17 143.30 39.68 144.89 41.95 146.37
  Q 44.27 149.37 47.58 151.07
  Q 47.98 151.27 48.24 151.64
  Q 48.37 151.81 48.56 151.93
  Q 51.66 153.79 54.74 155.80
  C 55.79 156.48 57.06 156.57 58.03 157.23
  C 59.72 158.38 61.20 159.33 63.27 159.77
  Q 64.71 160.08 66.06 160.86
  Q 67.36 161.61 68.93 161.88
  Q 70.27 162.11 71.56 162.49
  Q 78.48 164.54 87.08 165.18
  Q 92.97 165.62 99.07 165.18
  Q 99.45 165.15 99.70 164.89
  Q 99.99 164.60 100.39 164.59
  Q 104.15 164.44 109.36 162.86
  Q 116.36 160.74 122.14 158.09
  C 123.27 157.58 123.95 156.57 125.27 156.59
  A 0.69 0.68 -59.2 0 0 125.66 156.49
  L 133.13 151.90
  Q 133.56 151.64 133.90 151.26
  Q 134.38 150.73 135.06 150.65
  Q 135.66 150.58 136.08 150.16
  L 145.01 141.24
  Q 145.13 141.12 145.30 141.14
  Q 145.57 141.16 145.75 140.95
  Q 145.88 140.80 145.87 140.62
  Q 145.87 140.34 146.06 140.14
  Q 149.26 136.83 152.31 133.02
  C 153.24 131.86 153.51 130.57 154.63 129.58
  Q 154.87 129.37 154.87 129.05
  L 154.87 128.50
  Q 154.87 128.42 154.92 128.37
  Q 156.03 127.27 156.56 125.69
  Q 156.71 125.24 157.19 125.31
  Q 157.46 125.35 157.62 125.12
  Q 160.55 120.73 162.46 115.74
  Q 163.89 112.00 165.50 108.22
  Q 168.08 102.16 170.27 95.63
  Q 170.40 95.23 170.25 94.84
  Q 170.20 94.71 170.19 94.58
  Q 170.19 94.47 170.29 94.42
  Q 171.51 93.81 171.61 92.50
  Q 171.86 88.99 172.42 85.47
  Z"
/>
<path fill="#0ba5bc" d="
  M 46.15 90.64
  Q 45.86 97.79 47.33 104.55
  Q 47.18 107.40 47.38 110.24
  Q 47.54 112.34 47.28 114.14
  Q 46.98 116.24 46.81 118.29
  Q 46.80 118.50 46.59 118.57
  Q 46.28 118.66 46.24 118.98
  Q 45.95 121.26 45.45 123.65
  C 45.35 124.15 45.12 124.37 44.83 124.74
  Q 44.44 125.23 45.07 125.21
  Q 45.69 125.18 44.63 126.06
  Q 43.67 126.85 42.44 126.94
  Q 41.00 127.04 39.59 126.80
  Q 38.96 126.70 37.77 126.20
  Q 36.87 125.82 35.91 125.59
  Q 34.22 125.19 33.26 124.60
  Q 28.82 121.89 24.90 118.61
  Q 24.57 118.34 24.16 118.22
  Q 23.60 118.05 23.40 117.52
  Q 23.24 117.11 22.81 117.01
  L 22.03 116.83
  Q 21.76 116.77 21.68 116.49
  Q 21.36 115.35 20.16 115.13
  Q 19.28 114.97 18.97 114.18
  Q 18.79 113.73 18.47 113.34
  Q 16.89 111.47 15.26 109.53
  Q 13.60 102.10 13.79 94.41
  L 14.72 98.29
  A 1.30 1.30 0.0 0 0 15.26 99.06
  L 16.10 99.62
  Q 16.49 99.88 16.72 100.29
  Q 17.52 101.66 18.90 102.70
  Q 19.28 102.98 19.72 102.82
  Q 19.84 102.77 19.97 102.74
  Q 20.04 102.72 20.11 102.77
  Q 23.87 105.58 27.85 106.04
  Q 28.66 106.14 29.29 106.62
  Q 29.77 106.99 30.35 106.87
  Q 30.86 106.76 31.21 107.14
  A 0.84 0.84 0.0 0 0 31.86 107.42
  Q 34.76 107.34 36.88 106.34
  Q 38.51 105.58 40.32 104.88
  Q 40.72 104.72 40.96 104.37
  L 42.19 102.60
  A 1.83 1.81 -22.8 0 0 42.48 101.90
  Q 42.64 100.96 43.27 100.34
  Q 43.61 100.00 43.69 99.53
  Q 43.98 97.78 44.21 96.23
  Q 44.38 95.10 45.17 93.47
  Q 45.79 92.20 46.15 90.64
  Z"
/>
<path fill="#028894" d="
  M 47.33 104.55
  L 50.80 114.20
  Q 50.05 114.31 50.57 115.54
  Q 51.12 116.86 50.95 117.39
  Q 51.53 125.42 55.04 132.37
  Q 56.30 134.87 58.17 136.98
  Q 60.08 139.13 61.77 141.21
  Q 62.00 141.48 62.34 141.41
  Q 62.64 141.35 62.61 141.18
  Q 62.52 140.61 62.92 141.03
  Q 64.67 142.83 66.66 143.93
  Q 69.77 145.65 72.86 147.11
  Q 75.04 148.15 77.51 148.89
  Q 80.26 149.71 82.12 151.71
  Q 82.48 152.10 83.02 152.08
  Q 85.27 151.96 87.23 152.82
  Q 87.49 152.93 87.67 153.15
  Q 88.01 153.57 87.80 153.68
  Q 87.37 153.89 87.84 153.99
  Q 90.02 154.48 92.08 154.31
  Q 92.55 154.28 92.88 154.61
  L 93.19 154.92
  Q 93.43 155.16 93.75 155.04
  Q 94.15 154.90 94.10 154.70
  Q 94.00 154.30 94.41 154.33
  Q 96.25 154.45 98.11 154.32
  Q 98.99 154.25 98.33 154.83
  Q 96.62 156.35 94.35 156.51
  A 0.40 0.40 0.0 0 0 93.98 156.91
  L 93.98 157.53
  Q 93.98 158.16 93.35 158.18
  C 91.83 158.22 90.82 159.09 89.30 159.11
  Q 83.36 159.21 77.58 158.83
  Q 77.03 158.80 76.64 158.41
  Q 76.36 158.14 76.11 158.38
  Q 75.76 158.74 75.27 158.57
  Q 73.30 157.85 70.96 157.81
  Q 68.98 157.77 67.08 157.19
  Q 64.93 156.54 63.02 155.58
  Q 61.25 154.69 59.35 153.97
  Q 57.35 153.21 55.69 152.16
  Q 50.23 148.70 44.86 145.50
  Q 43.60 144.76 42.52 143.61
  Q 41.37 142.40 40.16 141.47
  A 1.43 1.38 4.8 0 1 39.75 141.00
  Q 39.40 140.33 38.70 140.17
  Q 38.16 140.06 37.76 139.69
  Q 36.49 138.54 35.34 137.03
  Q 35.23 136.88 35.10 137.00
  L 34.90 137.17
  Q 34.88 137.18 34.90 137.20
  Q 35.66 137.93 36.44 138.75
  Q 36.56 138.87 36.44 138.98
  L 36.44 138.99
  Q 36.34 139.08 36.24 139.00
  Q 33.93 137.03 31.54 134.90
  Q 31.36 134.74 31.19 134.92
  L 30.91 135.23
  Q 30.75 135.42 30.93 135.59
  Q 35.11 139.33 39.16 142.97
  Q 40.77 144.42 41.95 146.37
  C 39.68 144.89 37.17 143.30 35.84 140.87
  Q 35.16 139.62 33.82 139.19
  Q 33.13 138.97 32.72 138.37
  Q 32.20 137.61 31.36 137.28
  Q 30.79 137.05 30.31 136.67
  Q 27.65 134.59 25.48 132.33
  A 0.70 0.68 -22.3 0 0 24.96 132.12
  Q 24.41 132.13 24.33 131.54
  Q 24.25 131.00 23.82 130.67
  Q 22.95 130.02 21.97 129.72
  Q 17.28 120.12 15.26 109.53
  Q 16.89 111.47 18.47 113.34
  Q 18.79 113.73 18.97 114.18
  Q 19.28 114.97 20.16 115.13
  Q 21.36 115.35 21.68 116.49
  Q 21.76 116.77 22.03 116.83
  L 22.81 117.01
  Q 23.24 117.11 23.40 117.52
  Q 23.60 118.05 24.16 118.22
  Q 24.57 118.34 24.90 118.61
  Q 28.82 121.89 33.26 124.60
  Q 34.22 125.19 35.91 125.59
  Q 36.87 125.82 37.77 126.20
  Q 38.96 126.70 39.59 126.80
  Q 41.00 127.04 42.44 126.94
  Q 43.67 126.85 44.63 126.06
  Q 45.69 125.18 45.07 125.21
  Q 44.44 125.23 44.83 124.74
  C 45.12 124.37 45.35 124.15 45.45 123.65
  Q 45.95 121.26 46.24 118.98
  Q 46.28 118.66 46.59 118.57
  Q 46.80 118.50 46.81 118.29
  Q 46.98 116.24 47.28 114.14
  Q 47.54 112.34 47.38 110.24
  Q 47.18 107.40 47.33 104.55
  Z"
/>
</svg>
