<?xml version="1.0" encoding="UTF-8"?>
<svg version="1.1" xmlns="http://www.w3.org/2000/svg" width="64" height="64">
<path d="M0 0 C8.34468007 4.97590182 13.53387008 11.86345977 16.109375 21.2578125 C17.10789012 32.35758522 16.45884702 41.9922991 9.359375 51.0703125 C3.70168013 57.1280464 -3.34488592 60.84888618 -11.625 61.59375 C-22.35447774 61.83515993 -31.19802606 60.58332943 -39.359375 52.9609375 C-46.75303791 44.73737365 -48.47252567 36.02335615 -48.203125 25.24609375 C-47.72879865 16.86039919 -44.11592977 9.8548755 -37.890625 4.2578125 C-27.15195714 -3.81766573 -12.32399863 -5.91386512 0 0 Z M-39.890625 11.2578125 C-44.97899446 19.25802345 -45.61588634 26.89070473 -44.890625 36.2578125 C-43.07054797 43.38211403 -38.7535792 49.70455853 -32.609375 53.765625 C-24.2619729 58.5084671 -15.72869597 60.00476494 -6.21484375 57.57421875 C2.74814097 53.84351181 8.08631137 47.98553318 12.109375 39.2578125 C14.36502506 32.49086232 14.23568479 23.93030573 11.484375 17.3203125 C7.59262788 9.9479183 2.21812227 4.25940089 -5.65234375 1.17578125 C-18.90688259 -2.58153676 -30.85911005 1.1228998 -39.890625 11.2578125 Z " fill="#FFFFFF" transform="translate(47.890625,2.7421875)"/>
<path d="M0 0 C5.99932374 1.8331267 11.44920563 4.07321751 17 7 C16.8984375 9.29296875 16.8984375 9.29296875 16 12 C13.1640625 13.80078125 13.1640625 13.80078125 9.625 15.3125 C8.46226563 15.82425781 7.29953125 16.33601563 6.1015625 16.86328125 C3 18 3 18 0 18 C0 16.68 0 15.36 0 14 C3.3 12.35 6.6 10.7 10 9 C5.05 7.02 5.05 7.02 0 5 C0 3.35 0 1.7 0 0 Z " fill="#FFFFFF" transform="translate(38,23)"/>
<path d="M0 0 C0 1.65 0 3.3 0 5 C-2.97 6.32 -5.94 7.64 -9 9 C-6.03 10.65 -3.06 12.3 0 14 C0 15.32 0 16.64 0 18 C-4.23322844 17.37954537 -7.52290295 15.89476441 -11.3125 13.9375 C-12.38113281 13.38964844 -13.44976562 12.84179688 -14.55078125 12.27734375 C-15.35902344 11.85582031 -16.16726562 11.43429688 -17 11 C-17 9.68 -17 8.36 -17 7 C-14.54379149 5.82866942 -12.08525083 4.66278278 -9.625 3.5 C-8.92632812 3.16613281 -8.22765625 2.83226562 -7.5078125 2.48828125 C-2.2265625 0 -2.2265625 0 0 0 Z " fill="#FFFFFF" transform="translate(25,23)"/>
<path d="M0 0 C1.32 0 2.64 0 4 0 C3.4138281 5.92909506 2.19595619 11.31580266 0.4375 17 C0.20353516 17.77472656 -0.03042969 18.54945312 -0.27148438 19.34765625 C-0.84190038 21.2335214 -1.42012803 23.1170209 -2 25 C-3.65 25 -5.3 25 -7 25 C-4.95838673 16.5537319 -2.92608728 8.19304439 0 0 Z " fill="#FFFFFF" transform="translate(33,18)"/>
</svg>
