<?xml version="1.0" encoding="UTF-8" standalone="no"?>
<!DOCTYPE svg PUBLIC "-//W3C//DTD SVG 1.1//EN" "http://www.w3.org/Graphics/SVG/1.1/DTD/svg11.dtd">
<svg xmlns="http://www.w3.org/2000/svg" version="1.1" viewBox="0.00 0.00 480.00 480.00">
<g stroke-width="2.00" fill="none" stroke-linecap="butt">
<path stroke="#007eca" vector-effect="non-scaling-stroke" d="
  M 424.71 131.65
  L 360.30 168.39"
/>
<path stroke="#80c3ea" vector-effect="non-scaling-stroke" d="
  M 360.30 168.39
  C 318.71 99.73 229.16 78.82 162.25 123.69
  C 102.04 164.06 82.27 243.40 117.30 307.41"
/>
<path stroke="#006db9" vector-effect="non-scaling-stroke" d="
  M 117.30 307.41
  L 52.59 344.29"
/>
<path stroke="#0065af" vector-effect="non-scaling-stroke" d="
  M 426.95 345.08
  L 361.71 309.17"
/>
<path stroke="#0065af" vector-effect="non-scaling-stroke" d="
  M 300.37 275.42
  L 237.09 240.62
  Q 236.69 240.40 236.64 239.95
  Q 236.60 239.66 236.44 239.42"
/>
<path stroke="#007eca" vector-effect="non-scaling-stroke" d="
  M 236.44 239.42
  L 299.69 203.36"
/>
<path stroke="#80bae0" vector-effect="non-scaling-stroke" d="
  M 360.30 168.39
  Q 360.65 168.76 360.08 169.09
  Q 337.80 182.07 299.69 203.36"
/>
<path stroke="#80c3ea" vector-effect="non-scaling-stroke" d="
  M 299.69 203.36
  Q 281.62 175.31 250.25 170.69
  C 210.56 164.85 173.76 193.79 170.23 233.99
  Q 168.43 254.54 178.12 272.79"
/>
<path stroke="#80aace" vector-effect="non-scaling-stroke" d="
  M 178.12 272.79
  Q 191.67 297.07 215.63 305.65
  C 248.06 317.25 282.60 304.86 300.37 275.42"
/>
<path stroke="#80bae0" vector-effect="non-scaling-stroke" d="
  M 300.37 275.42
  L 361.71 309.17"
/>
<path stroke="#80aace" vector-effect="non-scaling-stroke" d="
  M 361.71 309.17
  Q 343.00 341.51 311.75 360.20
  C 243.34 401.09 155.94 376.49 117.30 307.41"
/>
<path stroke="#006db9" vector-effect="non-scaling-stroke" d="
  M 236.44 239.42
  L 178.12 272.79"
/>
<path stroke="#80bae0" vector-effect="non-scaling-stroke" d="
  M 350.00 230.73
  A 0.69 0.69 0.0 0 0 349.31 230.04
  L 330.69 229.98
  A 0.69 0.69 0.0 0 1 330.00 229.29
  L 330.01 210.70
  A 0.69 0.69 0.0 0 0 329.32 210.01
  L 310.69 209.99
  A 0.69 0.69 0.0 0 0 310.00 210.68
  L 309.99 229.31
  A 0.69 0.69 0.0 0 1 309.30 230.00
  L 290.68 229.99
  A 0.69 0.69 0.0 0 0 289.99 230.68
  L 290.01 249.30
  A 0.69 0.69 0.0 0 0 290.70 249.99
  L 309.32 250.00
  A 0.69 0.69 0.0 0 1 310.01 250.69
  L 310.01 269.30
  A 0.69 0.69 0.0 0 0 310.70 269.99
  L 329.31 269.98
  A 0.69 0.69 0.0 0 0 330.00 269.29
  L 329.99 250.70
  A 0.69 0.69 0.0 0 1 330.68 250.01
  L 349.30 249.97
  A 0.69 0.69 0.0 0 0 349.99 249.28
  L 350.00 230.73"
/>
<path stroke="#80bae0" vector-effect="non-scaling-stroke" d="
  M 400.00 250.72
  A 0.71 0.71 0.0 0 1 400.71 250.01
  L 419.24 249.96
  A 0.71 0.71 0.0 0 0 419.95 249.25
  L 420.02 230.71
  A 0.71 0.71 0.0 0 0 419.31 230.00
  L 400.72 230.00
  A 0.71 0.71 0.0 0 1 400.01 229.29
  L 399.99 210.73
  A 0.71 0.71 0.0 0 0 399.28 210.02
  L 380.67 209.99
  A 0.71 0.71 0.0 0 0 379.96 210.70
  L 379.94 229.28
  A 0.71 0.71 0.0 0 1 379.23 229.99
  L 360.67 230.01
  A 0.71 0.71 0.0 0 0 359.96 230.72
  L 360.00 249.27
  A 0.71 0.71 0.0 0 0 360.71 249.98
  L 379.30 250.00
  A 0.71 0.71 0.0 0 1 380.01 250.71
  L 379.99 269.29
  A 0.71 0.71 0.0 0 0 380.70 270.00
  L 399.27 269.97
  A 0.71 0.71 0.0 0 0 399.98 269.26
  L 400.00 250.72"
/>
</g>
<path fill="#0086d4" d="
  M 424.71 131.65
  L 360.30 168.39
  C 318.71 99.73 229.16 78.82 162.25 123.69
  C 102.04 164.06 82.27 243.40 117.30 307.41
  L 52.59 344.29
  Q 50.01 339.71 50.01 337.25
  Q 50.00 240.90 50.00 148.30
  Q 50.00 141.00 51.39 137.39
  Q 54.05 130.49 60.89 126.66
  Q 142.70 80.83 227.48 33.32
  Q 239.87 26.38 252.25 33.32
  Q 335.80 80.10 419.41 126.81
  Q 421.77 128.13 424.71 131.65
  Z"
/>
<path fill="#ffffff" d="
  M 360.30 168.39
  Q 360.65 168.76 360.08 169.09
  Q 337.80 182.07 299.69 203.36
  Q 281.62 175.31 250.25 170.69
  C 210.56 164.85 173.76 193.79 170.23 233.99
  Q 168.43 254.54 178.12 272.79
  Q 191.67 297.07 215.63 305.65
  C 248.06 317.25 282.60 304.86 300.37 275.42
  L 361.71 309.17
  Q 343.00 341.51 311.75 360.20
  C 243.34 401.09 155.94 376.49 117.30 307.41
  C 82.27 243.40 102.04 164.06 162.25 123.69
  C 229.16 78.82 318.71 99.73 360.30 168.39
  Z"
/>
<path fill="#0075c0" d="
  M 424.71 131.65
  Q 430.00 136.98 430.00 144.25
  Q 430.00 240.00 430.00 335.75
  Q 430.00 340.23 426.95 345.08
  L 361.71 309.17
  L 300.37 275.42
  L 237.09 240.62
  Q 236.69 240.40 236.64 239.95
  Q 236.60 239.66 236.44 239.42
  L 299.69 203.36
  Q 337.80 182.07 360.08 169.09
  Q 360.65 168.76 360.30 168.39
  L 424.71 131.65
  Z
  M 350.00 230.73
  A 0.69 0.69 0.0 0 0 349.31 230.04
  L 330.69 229.98
  A 0.69 0.69 0.0 0 1 330.00 229.29
  L 330.01 210.70
  A 0.69 0.69 0.0 0 0 329.32 210.01
  L 310.69 209.99
  A 0.69 0.69 0.0 0 0 310.00 210.68
  L 309.99 229.31
  A 0.69 0.69 0.0 0 1 309.30 230.00
  L 290.68 229.99
  A 0.69 0.69 0.0 0 0 289.99 230.68
  L 290.01 249.30
  A 0.69 0.69 0.0 0 0 290.70 249.99
  L 309.32 250.00
  A 0.69 0.69 0.0 0 1 310.01 250.69
  L 310.01 269.30
  A 0.69 0.69 0.0 0 0 310.70 269.99
  L 329.31 269.98
  A 0.69 0.69 0.0 0 0 330.00 269.29
  L 329.99 250.70
  A 0.69 0.69 0.0 0 1 330.68 250.01
  L 349.30 249.97
  A 0.69 0.69 0.0 0 0 349.99 249.28
  L 350.00 230.73
  Z
  M 400.00 250.72
  A 0.71 0.71 0.0 0 1 400.71 250.01
  L 419.24 249.96
  A 0.71 0.71 0.0 0 0 419.95 249.25
  L 420.02 230.71
  A 0.71 0.71 0.0 0 0 419.31 230.00
  L 400.72 230.00
  A 0.71 0.71 0.0 0 1 400.01 229.29
  L 399.99 210.73
  A 0.71 0.71 0.0 0 0 399.28 210.02
  L 380.67 209.99
  A 0.71 0.71 0.0 0 0 379.96 210.70
  L 379.94 229.28
  A 0.71 0.71 0.0 0 1 379.23 229.99
  L 360.67 230.01
  A 0.71 0.71 0.0 0 0 359.96 230.72
  L 360.00 249.27
  A 0.71 0.71 0.0 0 0 360.71 249.98
  L 379.30 250.00
  A 0.71 0.71 0.0 0 1 380.01 250.71
  L 379.99 269.29
  A 0.71 0.71 0.0 0 0 380.70 270.00
  L 399.27 269.97
  A 0.71 0.71 0.0 0 0 399.98 269.26
  L 400.00 250.72
  Z"
/>
<path fill="#0086d4" d="
  M 299.69 203.36
  L 236.44 239.42
  L 178.12 272.79
  Q 168.43 254.54 170.23 233.99
  C 173.76 193.79 210.56 164.85 250.25 170.69
  Q 281.62 175.31 299.69 203.36
  Z"
/>
<path fill="#ffffff" d="
  M 350.00 230.73
  L 349.99 249.28
  A 0.69 0.69 0.0 0 1 349.30 249.97
  L 330.68 250.01
  A 0.69 0.69 0.0 0 0 329.99 250.70
  L 330.00 269.29
  A 0.69 0.69 0.0 0 1 329.31 269.98
  L 310.70 269.99
  A 0.69 0.69 0.0 0 1 310.01 269.30
  L 310.01 250.69
  A 0.69 0.69 0.0 0 0 309.32 250.00
  L 290.70 249.99
  A 0.69 0.69 0.0 0 1 290.01 249.30
  L 289.99 230.68
  A 0.69 0.69 0.0 0 1 290.68 229.99
  L 309.30 230.00
  A 0.69 0.69 0.0 0 0 309.99 229.31
  L 310.00 210.68
  A 0.69 0.69 0.0 0 1 310.69 209.99
  L 329.32 210.01
  A 0.69 0.69 0.0 0 1 330.01 210.70
  L 330.00 229.29
  A 0.69 0.69 0.0 0 0 330.69 229.98
  L 349.31 230.04
  A 0.69 0.69 0.0 0 1 350.00 230.73
  Z"
/>
<path fill="#ffffff" d="
  M 400.00 250.72
  L 399.98 269.26
  A 0.71 0.71 0.0 0 1 399.27 269.97
  L 380.70 270.00
  A 0.71 0.71 0.0 0 1 379.99 269.29
  L 380.01 250.71
  A 0.71 0.71 0.0 0 0 379.30 250.00
  L 360.71 249.98
  A 0.71 0.71 0.0 0 1 360.00 249.27
  L 359.96 230.72
  A 0.71 0.71 0.0 0 1 360.67 230.01
  L 379.23 229.99
  A 0.71 0.71 0.0 0 0 379.94 229.28
  L 379.96 210.70
  A 0.71 0.71 0.0 0 1 380.67 209.99
  L 399.28 210.02
  A 0.71 0.71 0.0 0 1 399.99 210.73
  L 400.01 229.29
  A 0.71 0.71 0.0 0 0 400.72 230.00
  L 419.31 230.00
  A 0.71 0.71 0.0 0 1 420.02 230.71
  L 419.95 249.25
  A 0.71 0.71 0.0 0 1 419.24 249.96
  L 400.71 250.01
  A 0.71 0.71 0.0 0 0 400.00 250.72
  Z"
/>
<path fill="#00549d" d="
  M 236.44 239.42
  Q 236.60 239.66 236.64 239.95
  Q 236.69 240.40 237.09 240.62
  L 300.37 275.42
  C 282.60 304.86 248.06 317.25 215.63 305.65
  Q 191.67 297.07 178.12 272.79
  L 236.44 239.42
  Z"
/>
<path fill="#00549d" d="
  M 117.30 307.41
  C 155.94 376.49 243.34 401.09 311.75 360.20
  Q 343.00 341.51 361.71 309.17
  L 426.95 345.08
  Q 423.98 350.02 419.52 352.52
  Q 336.44 399.18 250.56 447.37
  Q 243.63 451.25 236.06 449.69
  Q 232.22 448.89 223.33 443.90
  Q 141.91 398.20 60.49 352.50
  Q 55.60 349.75 52.59 344.29
  L 117.30 307.41
  Z"
/>
</svg>
