<?xml version="1.0" encoding="UTF-8" standalone="no"?>
<!DOCTYPE svg PUBLIC "-//W3C//DTD SVG 1.1//EN" "http://www.w3.org/Graphics/SVG/1.1/DTD/svg11.dtd">
<svg xmlns="http://www.w3.org/2000/svg" version="1.1" viewBox="0.00 0.00 480.00 480.00">
<g stroke-width="2.00" fill="none" stroke-linecap="butt">
<path stroke="#f3a880" vector-effect="non-scaling-stroke" d="
  M 240.05 130.01
  Q 239.99 130.01 239.93 130.01"
/>
<path stroke="#eaa077" vector-effect="non-scaling-stroke" d="
  M 239.93 130.01
  L 149.27 130.02
  A 0.26 0.26 0.0 0 0 149.01 130.29
  L 155.95 249.28
  A 0.77 0.77 0.0 0 0 156.72 250.01
  L 240.01 250.00"
/>
<path stroke="#f35f00" vector-effect="non-scaling-stroke" d="
  M 240.01 250.00
  L 240.23 308.91"
/>
<path stroke="#f3a880" vector-effect="non-scaling-stroke" d="
  M 240.23 308.91
  Q 240.29 308.61 239.95 308.96"
/>
<path stroke="#eaa077" vector-effect="non-scaling-stroke" d="
  M 239.95 308.96
  L 199.47 295.12
  A 0.76 0.76 0.0 0 1 198.96 294.46
  L 197.04 270.50
  Q 197.00 270.00 196.50 270.00
  L 157.50 270.00
  A 0.47 0.47 0.0 0 0 157.03 270.50
  L 160.96 324.47
  Q 160.99 324.95 161.45 325.10
  L 239.27 350.73"
/>
<path stroke="#f3a880" vector-effect="non-scaling-stroke" d="
  M 239.27 350.73
  Q 239.78 350.74 240.07 351.00"
/>
<path stroke="#f35f00" vector-effect="non-scaling-stroke" d="
  M 240.07 351.00
  L 240.09 398.47
  Q 240.09 399.02 240.61 398.87
  L 351.00 367.34
  Q 351.99 367.05 352.08 366.03
  L 376.95 80.50
  Q 376.99 80.00 376.50 80.00
  L 240.45 80.00
  A 0.44 0.44 0.0 0 0 240.01 80.45
  L 240.05 130.01"
/>
<path stroke="#ffb680" vector-effect="non-scaling-stroke" d="
  M 240.07 351.00
  L 318.47 325.20
  Q 319.00 325.03 319.03 324.47
  L 325.94 210.78
  Q 325.99 209.97 325.18 209.97
  L 240.07 210.01"
/>
<path stroke="#f35f00" vector-effect="non-scaling-stroke" d="
  M 240.07 210.01
  L 240.04 170.02"
/>
<path stroke="#f7ae77" vector-effect="non-scaling-stroke" d="
  M 240.04 170.02
  Q 240.31 169.82 240.80 169.93"
/>
<path stroke="#ffb680" vector-effect="non-scaling-stroke" d="
  M 240.80 169.93
  L 328.49 169.97
  Q 329.00 169.97 329.04 169.45
  L 331.93 130.77
  Q 331.99 129.97 331.19 129.97
  L 240.05 130.01"
/>
<path stroke="#f3a880" vector-effect="non-scaling-stroke" d="
  M 240.07 210.01
  Q 240.00 210.01 239.93 210.01"
/>
<path stroke="#f7f7f7" vector-effect="non-scaling-stroke" d="
  M 239.27 350.73
  C 239.66 349.77 239.99 349.13 239.99 348.05
  Q 240.04 328.50 239.95 308.96"
/>
<path stroke="#ffb680" vector-effect="non-scaling-stroke" d="
  M 240.23 308.91
  L 280.75 295.06
  A 0.42 0.41 82.5 0 0 281.02 294.70
  L 283.94 250.72
  A 0.69 0.68 1.9 0 0 283.25 249.99
  L 240.80 249.90"
/>
<path stroke="#f7f7f7" vector-effect="non-scaling-stroke" d="
  M 239.93 130.01
  Q 240.14 149.64 239.88 169.15
  Q 239.88 169.60 240.13 169.74
  Q 240.36 169.86 240.80 169.93"
/>
<path stroke="#eaa077" vector-effect="non-scaling-stroke" d="
  M 240.04 170.02
  L 191.51 170.05
  Q 191.01 170.05 191.05 170.55
  L 193.96 209.45
  A 0.60 0.60 0.0 0 0 194.56 210.01
  L 239.93 210.01"
/>
<path stroke="#f7f7f7" vector-effect="non-scaling-stroke" d="
  M 239.93 210.01
  Q 240.14 229.65 239.88 249.17
  Q 239.88 249.61 240.11 249.74
  Q 240.34 249.87 240.80 249.90"
/>
<path stroke="#f7ae77" vector-effect="non-scaling-stroke" d="
  M 240.80 249.90
  Q 240.34 249.86 240.01 250.00"
/>
</g>
<path fill="#e65100" d="
  M 99.99 389.72
  L 70.05 50.36
  A 0.33 0.33 0.0 0 1 70.38 50.00
  L 409.62 50.00
  A 0.33 0.33 0.0 0 1 409.95 50.36
  L 379.99 389.79
  A 0.33 0.33 0.0 0 1 379.75 390.08
  L 240.18 429.95
  A 0.33 0.33 0.0 0 1 240.00 429.95
  L 100.23 390.01
  A 0.33 0.33 0.0 0 1 99.99 389.72
  Z
  M 240.05 130.01
  Q 239.99 130.01 239.93 130.01
  L 149.27 130.02
  A 0.26 0.26 0.0 0 0 149.01 130.29
  L 155.95 249.28
  A 0.77 0.77 0.0 0 0 156.72 250.01
  L 240.01 250.00
  L 240.23 308.91
  Q 240.29 308.61 239.95 308.96
  L 199.47 295.12
  A 0.76 0.76 0.0 0 1 198.96 294.46
  L 197.04 270.50
  Q 197.00 270.00 196.50 270.00
  L 157.50 270.00
  A 0.47 0.47 0.0 0 0 157.03 270.50
  L 160.96 324.47
  Q 160.99 324.95 161.45 325.10
  L 239.27 350.73
  Q 239.78 350.74 240.07 351.00
  L 240.09 398.47
  Q 240.09 399.02 240.61 398.87
  L 351.00 367.34
  Q 351.99 367.05 352.08 366.03
  L 376.95 80.50
  Q 376.99 80.00 376.50 80.00
  L 240.45 80.00
  A 0.44 0.44 0.0 0 0 240.01 80.45
  L 240.05 130.01
  Z"
/>
<path fill="#ff6d00" d="
  M 240.07 351.00
  L 318.47 325.20
  Q 319.00 325.03 319.03 324.47
  L 325.94 210.78
  Q 325.99 209.97 325.18 209.97
  L 240.07 210.01
  L 240.04 170.02
  Q 240.31 169.82 240.80 169.93
  L 328.49 169.97
  Q 329.00 169.97 329.04 169.45
  L 331.93 130.77
  Q 331.99 129.97 331.19 129.97
  L 240.05 130.01
  L 240.01 80.45
  A 0.44 0.44 0.0 0 1 240.45 80.00
  L 376.50 80.00
  Q 376.99 80.00 376.95 80.50
  L 352.08 366.03
  Q 351.99 367.05 351.00 367.34
  L 240.61 398.87
  Q 240.09 399.02 240.09 398.47
  L 240.07 351.00
  Z"
/>
<path fill="#eeeeee" d="
  M 239.93 130.01
  Q 240.14 149.64 239.88 169.15
  Q 239.88 169.60 240.13 169.74
  Q 240.36 169.86 240.80 169.93
  Q 240.31 169.82 240.04 170.02
  L 191.51 170.05
  Q 191.01 170.05 191.05 170.55
  L 193.96 209.45
  A 0.60 0.60 0.0 0 0 194.56 210.01
  L 239.93 210.01
  Q 240.14 229.65 239.88 249.17
  Q 239.88 249.61 240.11 249.74
  Q 240.34 249.87 240.80 249.90
  Q 240.34 249.86 240.01 250.00
  L 156.72 250.01
  A 0.77 0.77 0.0 0 1 155.95 249.28
  L 149.01 130.29
  A 0.26 0.26 0.0 0 1 149.27 130.02
  L 239.93 130.01
  Z"
/>
<path fill="#ffffff" d="
  M 239.93 130.01
  Q 239.99 130.01 240.05 130.01
  L 331.19 129.97
  Q 331.99 129.97 331.93 130.77
  L 329.04 169.45
  Q 329.00 169.97 328.49 169.97
  L 240.80 169.93
  Q 240.36 169.86 240.13 169.74
  Q 239.88 169.60 239.88 169.15
  Q 240.14 149.64 239.93 130.01
  Z"
/>
<path fill="#e65100" d="
  M 240.04 170.02
  L 240.07 210.01
  Q 240.00 210.01 239.93 210.01
  L 194.56 210.01
  A 0.60 0.60 0.0 0 1 193.96 209.45
  L 191.05 170.55
  Q 191.01 170.05 191.51 170.05
  L 240.04 170.02
  Z"
/>
<path fill="#ffffff" d="
  M 239.93 210.01
  Q 240.00 210.01 240.07 210.01
  L 325.18 209.97
  Q 325.99 209.97 325.94 210.78
  L 319.03 324.47
  Q 319.00 325.03 318.47 325.20
  L 240.07 351.00
  Q 239.78 350.74 239.27 350.73
  C 239.66 349.77 239.99 349.13 239.99 348.05
  Q 240.04 328.50 239.95 308.96
  Q 240.29 308.61 240.23 308.91
  L 280.75 295.06
  A 0.42 0.41 82.5 0 0 281.02 294.70
  L 283.94 250.72
  A 0.69 0.68 1.9 0 0 283.25 249.99
  L 240.80 249.90
  Q 240.34 249.87 240.11 249.74
  Q 239.88 249.61 239.88 249.17
  Q 240.14 229.65 239.93 210.01
  Z"
/>
<path fill="#ff6d00" d="
  M 240.23 308.91
  L 240.01 250.00
  Q 240.34 249.86 240.80 249.90
  L 283.25 249.99
  A 0.69 0.68 1.9 0 1 283.94 250.72
  L 281.02 294.70
  A 0.42 0.41 82.5 0 1 280.75 295.06
  L 240.23 308.91
  Z"
/>
<path fill="#eeeeee" d="
  M 239.95 308.96
  Q 240.04 328.50 239.99 348.05
  C 239.99 349.13 239.66 349.77 239.27 350.73
  L 161.45 325.10
  Q 160.99 324.95 160.96 324.47
  L 157.03 270.50
  A 0.47 0.47 0.0 0 1 157.50 270.00
  L 196.50 270.00
  Q 197.00 270.00 197.04 270.50
  L 198.96 294.46
  A 0.76 0.76 0.0 0 0 199.47 295.12
  L 239.95 308.96
  Z"
/>
</svg>
