<?xml version="1.0" encoding="UTF-8" standalone="no"?>
<!DOCTYPE svg PUBLIC "-//W3C//DTD SVG 1.1//EN" "http://www.w3.org/Graphics/SVG/1.1/DTD/svg11.dtd">
<svg xmlns="http://www.w3.org/2000/svg" version="1.1" viewBox="0.00 0.00 480.00 480.00">
<path fill="#f44336" d="
  M 228.74 149.64
  C 219.78 158.97 207.94 172.17 207.56 185.75
  Q 207.44 190.02 210.21 196.97
  Q 221.29 224.74 236.07 248.24
  A 0.12 0.12 0.0 0 1 235.89 248.40
  Q 211.28 231.14 193.27 208.10
  C 181.44 192.96 172.78 173.05 182.72 154.80
  C 188.90 143.45 198.74 134.14 208.81 125.61
  Q 220.36 115.82 232.27 105.83
  C 243.29 96.58 253.65 86.69 260.82 74.61
  Q 270.46 58.36 264.10 40.85
  Q 264.06 40.73 264.13 40.84
  Q 272.83 53.75 274.86 67.79
  C 278.28 91.40 263.56 112.47 248.35 128.87
  Q 238.54 139.45 228.74 149.64
  Z"
/>
<path fill="#f44336" d="
  M 258.72 242.46
  C 264.78 230.61 260.78 220.24 253.71 210.21
  C 244.98 197.82 237.17 186.08 238.99 170.84
  C 241.71 148.12 257.52 132.73 277.61 123.59
  Q 300.72 113.08 327.16 110.60
  Q 327.82 110.54 327.26 110.90
  Q 309.21 122.48 292.82 135.67
  C 284.37 142.46 274.83 150.91 269.69 160.10
  C 265.20 168.11 268.19 177.92 272.37 185.48
  C 279.51 198.38 288.88 212.89 283.27 228.24
  C 277.73 243.39 263.49 253.04 248.21 256.77
  Q 247.38 256.97 248.02 256.40
  Q 254.66 250.41 258.72 242.46
  Z"
/>
<path fill="#1565c0" d="
  M 143.09 279.17
  C 134.72 277.57 110.57 271.64 118.40 257.89
  C 122.90 249.99 138.70 246.36 147.41 244.87
  Q 168.27 241.29 192.39 241.29
  Q 194.35 241.29 192.44 241.76
  Q 179.62 244.91 167.88 250.08
  Q 163.29 252.09 160.14 255.56
  A 2.33 2.32 40.0 0 0 160.44 258.96
  Q 161.57 259.82 163.04 260.15
  Q 173.50 262.48 186.05 262.93
  Q 241.37 264.94 295.41 258.30
  Q 305.33 257.08 314.78 255.11
  Q 316.22 254.82 315.09 255.75
  Q 304.64 264.41 292.96 272.71
  Q 291.19 273.96 289.18 274.35
  Q 238.20 283.99 186.39 283.23
  Q 162.53 282.88 143.09 279.17
  Z"
/>
<path fill="#1565c0" d="
  M 351.16 262.60
  C 345.62 252.15 332.94 248.05 321.62 250.43
  A 0.11 0.10 19.5 0 1 321.53 250.25
  Q 334.93 239.91 351.21 241.50
  C 364.69 242.82 373.70 253.92 374.90 267.28
  C 378.14 303.55 345.08 322.05 313.98 326.89
  Q 313.07 327.03 313.82 326.49
  C 327.89 316.26 341.70 302.73 349.15 287.26
  C 352.61 280.08 355.07 269.97 351.16 262.60
  Z"
/>
<path fill="#1565c0" d="
  M 171.93 320.42
  C 164.28 318.63 155.75 315.92 149.60 310.94
  C 142.92 305.52 147.18 298.68 152.37 294.62
  Q 161.79 287.25 174.24 285.78
  Q 176.30 285.54 174.68 286.84
  Q 172.67 288.45 171.73 290.77
  C 167.67 300.82 195.83 303.45 200.83 303.84
  C 226.21 305.80 254.09 303.45 278.88 295.94
  Q 279.42 295.78 279.90 296.08
  L 301.76 310.02
  Q 302.38 310.42 301.69 310.69
  C 273.38 321.70 242.76 326.11 212.44 325.36
  Q 190.76 324.82 171.93 320.42
  Z"
/>
<path fill="#1565c0" d="
  M 186.30 328.07
  C 177.74 338.54 200.34 340.46 205.07 340.72
  Q 231.28 342.14 257.69 335.87
  Q 264.64 334.22 271.08 331.52
  Q 271.54 331.32 271.95 331.60
  L 295.71 347.36
  A 0.37 0.37 0.0 0 1 295.69 347.99
  Q 284.10 354.65 270.60 358.14
  Q 243.88 365.05 214.82 364.64
  C 201.34 364.44 188.15 363.29 175.42 359.27
  C 166.81 356.55 155.36 350.18 161.96 339.40
  C 166.74 331.59 176.88 327.59 186.00 327.45
  Q 186.82 327.44 186.30 328.07
  Z"
/>
<path fill="#1565c0" d="
  M 349.14 350.84
  C 357.56 354.89 365.30 360.83 361.99 371.28
  C 358.21 383.19 342.84 390.67 331.31 394.74
  C 310.25 402.18 288.30 405.78 265.52 407.88
  Q 226.87 411.45 187.92 408.88
  C 166.59 407.47 144.80 404.53 124.35 398.27
  C 112.04 394.50 95.57 387.73 91.03 375.69
  C 85.28 360.39 106.39 351.58 117.55 349.36
  Q 130.18 346.85 143.81 348.69
  Q 146.17 349.01 148.44 350.42
  Q 153.78 353.73 158.99 356.72
  Q 160.08 357.35 158.84 357.14
  Q 145.74 354.96 133.54 359.97
  C 128.87 361.90 122.67 366.34 126.59 372.10
  C 129.56 376.48 136.31 379.35 141.19 380.93
  Q 156.05 385.76 173.21 387.98
  Q 220.95 394.17 271.72 389.85
  C 286.93 388.56 360.23 380.91 348.74 351.21
  Q 348.48 350.53 349.14 350.84
  Z"
/>
<path fill="#1565c0" d="
  M 139.70 417.32
  Q 139.50 417.23 139.30 417.18
  Q 138.90 417.07 139.31 417.05
  Q 139.66 417.04 140.01 417.12
  Q 203.03 431.99 266.83 428.20
  Q 293.93 426.59 321.18 420.04
  C 345.72 414.15 371.22 403.83 389.30 386.72
  Q 390.02 386.03 389.96 387.03
  C 388.99 403.00 374.02 414.22 360.04 421.01
  C 340.35 430.58 316.63 435.80 294.27 438.12
  Q 236.61 444.11 180.21 430.56
  Q 158.88 425.43 139.70 417.32
  Z"
/>
</svg>
