<?xml version="1.0" encoding="UTF-8" standalone="no"?>
<!DOCTYPE svg PUBLIC "-//W3C//DTD SVG 1.1//EN" "http://www.w3.org/Graphics/SVG/1.1/DTD/svg11.dtd">
<svg xmlns="http://www.w3.org/2000/svg" version="1.1" viewBox="0.00 0.00 240.00 240.00">
<path fill="#21a366" d="
  M 121.26 27.18
  A 2.34 2.32 44.8 0 0 118.95 27.18
  L 40.48 72.45
  A 2.65 2.63 75.1 0 0 39.16 74.74
  L 39.16 165.22
  Q 39.16 166.56 40.32 167.24
  Q 51.01 173.49 60.95 179.19
  Q 68.56 183.55 74.84 180.88
  C 79.98 178.69 80.82 173.91 80.80 168.59
  Q 80.62 125.17 80.75 82.22
  A 2.06 2.05 0.1 0 1 82.81 80.18
  L 92.97 80.17
  A 2.18 2.18 0.0 0 1 95.15 82.35
  Q 95.16 127.78 95.13 172.58
  C 95.12 196.23 72.43 201.36 54.92 191.85
  Q 41.78 184.71 32.82 179.15
  C 27.15 175.64 24.98 170.20 24.98 163.88
  Q 25.02 119.33 24.99 75.46
  C 24.98 68.91 27.78 63.52 33.61 60.16
  Q 70.60 38.83 109.77 16.19
  C 116.84 12.10 122.81 11.77 129.78 15.81
  Q 168.24 38.13 206.14 59.95
  Q 211.40 62.98 213.68 68.46
  Q 215.00 71.65 215.00 79.71
  Q 214.99 122.24 215.01 164.75
  Q 215.01 172.10 210.18 176.85
  Q 208.16 178.84 200.95 182.96
  Q 164.75 203.65 128.58 224.75
  C 121.67 228.78 115.21 227.13 108.33 222.90
  Q 95.95 215.28 84.41 208.71
  A 2.02 2.00 88.4 0 1 83.74 208.07
  Q 82.87 206.70 83.95 206.35
  Q 90.83 204.10 96.57 200.66
  A 1.97 1.94 44.4 0 1 98.57 200.65
  L 118.72 212.59
  A 2.63 2.61 45.2 0 0 121.36 212.61
  L 199.60 167.44
  A 2.74 2.73 -15.0 0 0 200.97 165.07
  L 200.97 74.65
  A 2.51 2.51 0.0 0 0 199.70 72.47
  L 121.26 27.18
  Z"
/>
<path fill="#21a366" d="
  M 162.57 131.29
  C 152.86 127.86 142.32 127.43 132.01 126.00
  C 118.87 124.17 105.56 119.55 105.39 103.55
  C 105.21 85.74 120.89 78.92 136.06 77.97
  C 155.89 76.73 178.39 80.68 180.17 105.28
  A 2.25 2.24 87.2 0 1 177.99 107.69
  Q 172.66 107.82 167.94 107.69
  Q 165.90 107.63 165.49 105.70
  Q 163.11 94.38 152.50 92.55
  Q 139.59 90.33 129.12 92.98
  Q 120.74 95.11 120.87 103.08
  C 120.92 106.15 122.74 108.10 125.58 109.00
  Q 131.16 110.76 136.98 111.62
  Q 147.23 113.14 157.01 114.69
  C 164.65 115.91 174.29 118.33 179.36 124.67
  C 184.95 131.66 184.14 143.55 179.90 150.54
  C 169.58 167.57 139.26 166.28 123.39 161.97
  C 110.82 158.55 102.74 149.17 102.77 135.72
  A 2.24 2.24 0.0 0 1 105.01 133.49
  L 115.24 133.49
  A 2.16 2.15 -4.4 0 1 117.37 135.31
  C 118.28 141.13 120.25 145.88 125.98 148.27
  Q 130.47 150.14 136.36 150.58
  C 144.23 151.16 160.20 151.86 165.49 145.35
  C 169.13 140.87 169.08 133.60 162.57 131.29
  Z"
/>
</svg>
