<?xml version="1.0" encoding="UTF-8" standalone="no"?>
<!DOCTYPE svg PUBLIC "-//W3C//DTD SVG 1.1//EN" "http://www.w3.org/Graphics/SVG/1.1/DTD/svg11.dtd">
<svg xmlns="http://www.w3.org/2000/svg" version="1.1" viewBox="0.00 0.00 94.00 94.00">
<g stroke-width="2.00" fill="none" stroke-linecap="butt">
<path stroke="#4fc8f2" vector-effect="non-scaling-stroke" d="
  M 70.03 12.50
  Q 69.63 13.63 69.23 14.67
  C 68.32 17.09 69.86 20.56 67.40 22.20
  Q 66.03 23.10 64.00 23.15"
/>
<path stroke="#52b1db" vector-effect="non-scaling-stroke" d="
  M 64.00 23.15
  L 42.95 23.44"
/>
<path stroke="#51a7ce" vector-effect="non-scaling-stroke" d="
  M 42.95 23.44
  L 19.23 23.67"
/>
<path stroke="#52b1db" vector-effect="non-scaling-stroke" d="
  M 19.23 23.67
  L 16.32 23.65"
/>
<path stroke="#2e9ace" vector-effect="non-scaling-stroke" d="
  M 26.31 34.18
  Q 24.96 34.69 25.20 36.36"
/>
<path stroke="#1a61ab" vector-effect="non-scaling-stroke" d="
  M 19.23 23.67
  Q 16.50 23.84 16.97 25.84
  Q 17.42 27.76 18.99 28.55
  C 20.12 29.12 21.00 28.60 22.06 29.33
  Q 22.48 29.62 22.98 29.66
  C 25.07 29.85 26.96 30.62 29.06 30.62
  Q 35.86 30.62 42.37 30.62
  A 0.97 0.95 22.2 0 0 43.05 30.34
  Q 43.41 29.98 43.93 30.07
  Q 44.49 30.16 45.05 30.13
  Q 49.30 29.87 53.29 29.26
  Q 58.05 28.54 62.02 25.34
  Q 63.50 24.14 61.61 24.08
  L 42.95 23.44"
/>
<path stroke="#1492e2" vector-effect="non-scaling-stroke" d="
  M 73.60 59.20
  Q 73.55 60.22 72.94 60.56
  Q 72.84 60.61 72.73 60.59
  Q 72.54 60.55 72.49 60.42
  Q 72.31 59.91 71.95 60.19
  L 70.55 61.28
  Q 70.17 61.57 69.80 61.28
  Q 69.67 61.19 69.69 61.00
  Q 69.72 60.38 69.20 60.72
  Q 68.36 61.28 67.27 60.71
  Q 63.61 58.78 59.77 56.61
  A 1.78 1.74 -30.1 0 0 58.86 56.38
  Q 57.78 56.40 56.91 55.76
  Q 55.66 54.85 54.07 55.17
  Q 50.74 55.83 48.58 57.49
  Q 48.49 57.57 48.37 57.59
  Q 48.22 57.62 48.06 57.59
  Q 47.76 57.54 47.55 57.77
  Q 45.31 60.21 42.88 60.25
  Q 36.59 60.35 31.04 60.01
  Q 29.98 59.94 28.83 60.08
  Q 28.50 60.13 28.20 59.97
  Q 28.08 59.90 27.99 59.81
  Q 27.64 59.43 27.13 59.44
  L 17.66 59.65
  A 0.13 0.13 0.0 0 0 17.56 59.86
  Q 17.79 60.20 17.51 60.45
  Q 16.95 60.92 16.79 60.21
  L 16.62 59.46"
/>
<path stroke="#1882cf" vector-effect="non-scaling-stroke" d="
  M 16.54 32.96
  Q 17.19 31.88 18.08 34.56
  Q 18.24 35.03 18.70 35.23
  Q 22.31 36.82 25.20 36.36"
/>
<path stroke="#2bb1e5" vector-effect="non-scaling-stroke" d="
  M 25.20 36.36
  Q 24.86 37.80 25.59 38.89
  Q 25.88 39.32 26.39 39.32
  L 63.08 39.36
  A 1.34 1.34 0.0 0 0 64.39 38.29
  Q 64.71 36.69 64.28 35.02
  Q 64.09 34.27 63.32 34.27
  L 26.31 34.18"
/>
<path stroke="#1882cf" vector-effect="non-scaling-stroke" d="
  M 26.31 34.18
  L 63.14 33.66
  A 2.89 2.88 -80.9 0 0 65.82 31.71
  Q 67.09 28.05 67.31 24.10
  Q 67.33 23.62 66.86 23.55
  L 64.00 23.15"
/>
<path stroke="#177bcb" vector-effect="non-scaling-stroke" d="
  M 73.45 74.98
  Q 72.40 75.08 71.43 75.54
  Q 70.78 75.85 70.13 75.56
  Q 69.27 75.18 68.32 74.99
  Q 66.70 74.67 65.91 73.36
  Q 65.40 72.53 65.12 70.92
  Q 64.44 67.14 63.54 63.36"
/>
<path stroke="#7fae7e" vector-effect="non-scaling-stroke" d="
  M 63.54 63.36
  Q 61.97 62.14 61.22 60.40
  Q 60.99 59.89 60.46 59.74
  Q 59.23 59.39 58.36 58.44
  Q 57.95 57.98 57.34 58.08
  Q 56.26 58.26 55.28 57.78
  Q 54.74 57.51 54.18 57.71
  Q 52.98 58.11 51.75 58.09
  A 1.08 1.06 16.6 0 0 50.83 58.58
  Q 50.22 59.53 49.11 59.82
  Q 48.57 59.97 48.34 60.48
  Q 47.63 62.13 46.14 63.04"
/>
<path stroke="#177bcb" vector-effect="non-scaling-stroke" d="
  M 46.14 63.04
  Q 45.36 64.28 45.34 66.22"
/>
<path stroke="#1382d8" vector-effect="non-scaling-stroke" d="
  M 45.34 66.22
  Q 44.62 66.39 44.17 67.11
  Q 43.76 67.76 43.24 68.30
  Q 42.00 69.59 40.62 69.88
  Q 34.15 71.27 26.99 70.77
  Q 23.98 70.56 21.23 70.61
  Q 19.23 70.66 17.46 71.09
  Q 16.96 71.21 16.84 70.70
  L 16.62 69.70"
/>
<path stroke="#839f6b" vector-effect="non-scaling-stroke" d="
  M 63.54 63.36
  Q 62.80 64.49 63.79 66.55"
/>
<path stroke="#e6c518" vector-effect="non-scaling-stroke" d="
  M 63.79 66.55
  Q 61.12 67.58 55.38 70.64
  Q 51.88 72.50 46.57 69.82"
/>
<path stroke="#839f6b" vector-effect="non-scaling-stroke" d="
  M 46.57 69.82
  Q 46.55 68.65 45.91 66.96
  Q 45.74 66.50 45.97 66.07
  Q 46.74 64.61 46.14 63.04"
/>
<path stroke="#6a51c7" vector-effect="non-scaling-stroke" d="
  M 60.50 81.91
  L 60.45 73.87"
/>
<path stroke="#405585" vector-effect="non-scaling-stroke" d="
  M 60.45 73.87
  Q 61.57 73.86 62.00 73.00
  Q 62.53 71.94 62.89 71.31
  Q 63.55 70.18 63.67 69.60
  Q 63.96 68.28 63.71 66.96"
/>
<path stroke="#7e9265" vector-effect="non-scaling-stroke" d="
  M 63.71 66.96
  Q 63.75 66.76 63.79 66.55"
/>
<path stroke="#7e9265" vector-effect="non-scaling-stroke" d="
  M 46.57 69.82
  L 48.23 72.51
  Q 48.48 72.90 48.88 73.13
  L 50.20 73.85"
/>
<path stroke="#405585" vector-effect="non-scaling-stroke" d="
  M 50.20 73.85
  Q 50.13 73.92 50.14 74.63"
/>
<path stroke="#6a51c7" vector-effect="non-scaling-stroke" d="
  M 50.14 74.63
  Q 49.23 74.61 49.26 76.25
  Q 49.31 78.98 49.25 81.76"
/>
<path stroke="#1772c5" vector-effect="non-scaling-stroke" d="
  M 16.71 78.76
  Q 28.47 78.95 40.03 78.88
  C 41.14 78.87 41.98 78.14 43.09 78.34
  Q 46.63 78.98 46.74 75.55
  Q 46.79 73.88 45.28 72.12
  Q 44.88 71.64 44.93 71.03
  L 45.34 66.22"
/>
<path stroke="#a37c32" vector-effect="non-scaling-stroke" d="
  M 63.71 66.96
  Q 63.00 67.97 63.10 69.17
  Q 63.13 69.66 62.79 70.01
  C 61.99 70.84 61.74 71.11 61.30 72.34
  Q 61.01 73.16 60.13 73.17
  Q 59.60 73.18 59.25 73.58
  L 58.60 74.31
  A 1.29 1.28 27.5 0 1 57.34 74.70
  Q 56.49 74.48 55.82 74.98
  A 1.58 1.57 29.7 0 1 54.67 75.29
  Q 52.13 74.96 50.20 73.85"
/>
<path stroke="#8f3b94" vector-effect="non-scaling-stroke" d="
  M 60.45 73.87
  Q 55.42 77.88 50.14 74.63"
/>
<path stroke="#36bfef" vector-effect="non-scaling-stroke" d="
  M 64.43 45.75
  A 1.22 1.22 0.0 0 0 63.21 44.53
  L 26.47 44.53
  A 1.22 1.22 0.0 0 0 25.25 45.75
  L 25.25 48.51
  A 1.22 1.22 0.0 0 0 26.47 49.73
  L 63.21 49.73
  A 1.22 1.22 0.0 0 0 64.43 48.51
  L 64.43 45.75"
/>
</g>
<path fill="#88f6fd" d="
  M 70.03 12.50
  Q 69.63 13.63 69.23 14.67
  C 68.32 17.09 69.86 20.56 67.40 22.20
  Q 66.03 23.10 64.00 23.15
  L 42.95 23.44
  L 19.23 23.67
  L 16.32 23.65
  C 13.74 23.71 10.36 24.09 9.91 21.21
  C 9.25 17.00 9.95 12.80 15.07 12.73
  Q 42.50 12.38 70.03 12.50
  Z"
/>
<path fill="#1599e6" d="
  M 70.03 12.50
  C 74.12 12.62 73.70 19.33 73.65 22.75
  Q 73.39 40.98 73.60 59.20
  Q 73.55 60.22 72.94 60.56
  Q 72.84 60.61 72.73 60.59
  Q 72.54 60.55 72.49 60.42
  Q 72.31 59.91 71.95 60.19
  L 70.55 61.28
  Q 70.17 61.57 69.80 61.28
  Q 69.67 61.19 69.69 61.00
  Q 69.72 60.38 69.20 60.72
  Q 68.36 61.28 67.27 60.71
  Q 63.61 58.78 59.77 56.61
  A 1.78 1.74 -30.1 0 0 58.86 56.38
  Q 57.78 56.40 56.91 55.76
  Q 55.66 54.85 54.07 55.17
  Q 50.74 55.83 48.58 57.49
  Q 48.49 57.57 48.37 57.59
  Q 48.22 57.62 48.06 57.59
  Q 47.76 57.54 47.55 57.77
  Q 45.31 60.21 42.88 60.25
  Q 36.59 60.35 31.04 60.01
  Q 29.98 59.94 28.83 60.08
  Q 28.50 60.13 28.20 59.97
  Q 28.08 59.90 27.99 59.81
  Q 27.64 59.43 27.13 59.44
  L 17.66 59.65
  A 0.13 0.13 0.0 0 0 17.56 59.86
  Q 17.79 60.20 17.51 60.45
  Q 16.95 60.92 16.79 60.21
  L 16.62 59.46
  L 16.54 32.96
  Q 17.19 31.88 18.08 34.56
  Q 18.24 35.03 18.70 35.23
  Q 22.31 36.82 25.20 36.36
  Q 24.86 37.80 25.59 38.89
  Q 25.88 39.32 26.39 39.32
  L 63.08 39.36
  A 1.34 1.34 0.0 0 0 64.39 38.29
  Q 64.71 36.69 64.28 35.02
  Q 64.09 34.27 63.32 34.27
  L 26.31 34.18
  L 63.14 33.66
  A 2.89 2.88 -80.9 0 0 65.82 31.71
  Q 67.09 28.05 67.31 24.10
  Q 67.33 23.62 66.86 23.55
  L 64.00 23.15
  Q 66.03 23.10 67.40 22.20
  C 69.86 20.56 68.32 17.09 69.23 14.67
  Q 69.63 13.63 70.03 12.50
  Z
  M 64.43 45.75
  A 1.22 1.22 0.0 0 0 63.21 44.53
  L 26.47 44.53
  A 1.22 1.22 0.0 0 0 25.25 45.75
  L 25.25 48.51
  A 1.22 1.22 0.0 0 0 26.47 49.73
  L 63.21 49.73
  A 1.22 1.22 0.0 0 0 64.43 48.51
  L 64.43 45.75
  Z"
/>
<path fill="#1b6bb8" d="
  M 64.00 23.15
  L 66.86 23.55
  Q 67.33 23.62 67.31 24.10
  Q 67.09 28.05 65.82 31.71
  A 2.89 2.88 -80.9 0 1 63.14 33.66
  L 26.31 34.18
  Q 24.96 34.69 25.20 36.36
  Q 22.31 36.82 18.70 35.23
  Q 18.24 35.03 18.08 34.56
  Q 17.19 31.88 16.54 32.96
  L 16.32 23.65
  L 19.23 23.67
  Q 16.50 23.84 16.97 25.84
  Q 17.42 27.76 18.99 28.55
  C 20.12 29.12 21.00 28.60 22.06 29.33
  Q 22.48 29.62 22.98 29.66
  C 25.07 29.85 26.96 30.62 29.06 30.62
  Q 35.86 30.62 42.37 30.62
  A 0.97 0.95 22.2 0 0 43.05 30.34
  Q 43.41 29.98 43.93 30.07
  Q 44.49 30.16 45.05 30.13
  Q 49.30 29.87 53.29 29.26
  Q 58.05 28.54 62.02 25.34
  Q 63.50 24.14 61.61 24.08
  L 42.95 23.44
  L 64.00 23.15
  Z"
/>
<path fill="#19579e" d="
  M 42.95 23.44
  L 61.61 24.08
  Q 63.50 24.14 62.02 25.34
  Q 58.05 28.54 53.29 29.26
  Q 49.30 29.87 45.05 30.13
  Q 44.49 30.16 43.93 30.07
  Q 43.41 29.98 43.05 30.34
  A 0.97 0.95 22.2 0 1 42.37 30.62
  Q 35.86 30.62 29.06 30.62
  C 26.96 30.62 25.07 29.85 22.98 29.66
  Q 22.48 29.62 22.06 29.33
  C 21.00 28.60 20.12 29.12 18.99 28.55
  Q 17.42 27.76 16.97 25.84
  Q 16.50 23.84 19.23 23.67
  L 42.95 23.44
  Z"
/>
<path fill="#40c8e3" d="
  M 26.31 34.18
  L 63.32 34.27
  Q 64.09 34.27 64.28 35.02
  Q 64.71 36.69 64.39 38.29
  A 1.34 1.34 0.0 0 1 63.08 39.36
  L 26.39 39.32
  Q 25.88 39.32 25.59 38.89
  Q 24.86 37.80 25.20 36.36
  Q 24.96 34.69 26.31 34.18
  Z"
/>
<rect fill="#56e4f7" x="25.25" y="44.53" width="39.18" height="5.20" rx="1.22"/>
<path fill="#138ade" d="
  M 73.60 59.20
  L 73.45 74.98
  Q 72.40 75.08 71.43 75.54
  Q 70.78 75.85 70.13 75.56
  Q 69.27 75.18 68.32 74.99
  Q 66.70 74.67 65.91 73.36
  Q 65.40 72.53 65.12 70.92
  Q 64.44 67.14 63.54 63.36
  Q 61.97 62.14 61.22 60.40
  Q 60.99 59.89 60.46 59.74
  Q 59.23 59.39 58.36 58.44
  Q 57.95 57.98 57.34 58.08
  Q 56.26 58.26 55.28 57.78
  Q 54.74 57.51 54.18 57.71
  Q 52.98 58.11 51.75 58.09
  A 1.08 1.06 16.6 0 0 50.83 58.58
  Q 50.22 59.53 49.11 59.82
  Q 48.57 59.97 48.34 60.48
  Q 47.63 62.13 46.14 63.04
  Q 45.36 64.28 45.34 66.22
  Q 44.62 66.39 44.17 67.11
  Q 43.76 67.76 43.24 68.30
  Q 42.00 69.59 40.62 69.88
  Q 34.15 71.27 26.99 70.77
  Q 23.98 70.56 21.23 70.61
  Q 19.23 70.66 17.46 71.09
  Q 16.96 71.21 16.84 70.70
  L 16.62 69.70
  L 16.62 59.46
  L 16.79 60.21
  Q 16.95 60.92 17.51 60.45
  Q 17.79 60.20 17.56 59.86
  A 0.13 0.13 0.0 0 1 17.66 59.65
  L 27.13 59.44
  Q 27.64 59.43 27.99 59.81
  Q 28.08 59.90 28.20 59.97
  Q 28.50 60.13 28.83 60.08
  Q 29.98 59.94 31.04 60.01
  Q 36.59 60.35 42.88 60.25
  Q 45.31 60.21 47.55 57.77
  Q 47.76 57.54 48.06 57.59
  Q 48.22 57.62 48.37 57.59
  Q 48.49 57.57 48.58 57.49
  Q 50.74 55.83 54.07 55.17
  Q 55.66 54.85 56.91 55.76
  Q 57.78 56.40 58.86 56.38
  A 1.78 1.74 -30.1 0 1 59.77 56.61
  Q 63.61 58.78 67.27 60.71
  Q 68.36 61.28 69.20 60.72
  Q 69.72 60.38 69.69 61.00
  Q 69.67 61.19 69.80 61.28
  Q 70.17 61.57 70.55 61.28
  L 71.95 60.19
  Q 72.31 59.91 72.49 60.42
  Q 72.54 60.55 72.73 60.59
  Q 72.84 60.61 72.94 60.56
  Q 73.55 60.22 73.60 59.20
  Z"
/>
<path fill="#ebd21d" d="
  M 63.54 63.36
  Q 62.80 64.49 63.79 66.55
  Q 61.12 67.58 55.38 70.64
  Q 51.88 72.50 46.57 69.82
  Q 46.55 68.65 45.91 66.96
  Q 45.74 66.50 45.97 66.07
  Q 46.74 64.61 46.14 63.04
  Q 47.63 62.13 48.34 60.48
  Q 48.57 59.97 49.11 59.82
  Q 50.22 59.53 50.83 58.58
  A 1.08 1.06 16.6 0 1 51.75 58.09
  Q 52.98 58.11 54.18 57.71
  Q 54.74 57.51 55.28 57.78
  Q 56.26 58.26 57.34 58.08
  Q 57.95 57.98 58.36 58.44
  Q 59.23 59.39 60.46 59.74
  Q 60.99 59.89 61.22 60.40
  Q 61.97 62.14 63.54 63.36
  Z"
/>
<path fill="#1b6bb8" d="
  M 46.14 63.04
  Q 46.74 64.61 45.97 66.07
  Q 45.74 66.50 45.91 66.96
  Q 46.55 68.65 46.57 69.82
  L 48.23 72.51
  Q 48.48 72.90 48.88 73.13
  L 50.20 73.85
  Q 50.13 73.92 50.14 74.63
  Q 49.23 74.61 49.26 76.25
  Q 49.31 78.98 49.25 81.76
  Q 29.40 82.05 19.50 81.67
  Q 16.80 81.57 16.71 78.76
  Q 28.47 78.95 40.03 78.88
  C 41.14 78.87 41.98 78.14 43.09 78.34
  Q 46.63 78.98 46.74 75.55
  Q 46.79 73.88 45.28 72.12
  Q 44.88 71.64 44.93 71.03
  L 45.34 66.22
  Q 45.36 64.28 46.14 63.04
  Z"
/>
<path fill="#1b6bb8" d="
  M 63.54 63.36
  Q 64.44 67.14 65.12 70.92
  Q 65.40 72.53 65.91 73.36
  Q 66.70 74.67 68.32 74.99
  Q 69.27 75.18 70.13 75.56
  Q 70.78 75.85 71.43 75.54
  Q 72.40 75.08 73.45 74.98
  L 73.33 79.59
  A 2.08 2.07 -0.1 0 1 71.31 81.61
  L 60.50 81.91
  L 60.45 73.87
  Q 61.57 73.86 62.00 73.00
  Q 62.53 71.94 62.89 71.31
  Q 63.55 70.18 63.67 69.60
  Q 63.96 68.28 63.71 66.96
  Q 63.75 66.76 63.79 66.55
  Q 62.80 64.49 63.54 63.36
  Z"
/>
<path fill="#1379d2" d="
  M 45.34 66.22
  L 44.93 71.03
  Q 44.88 71.64 45.28 72.12
  Q 46.79 73.88 46.74 75.55
  Q 46.63 78.98 43.09 78.34
  C 41.98 78.14 41.14 78.87 40.03 78.88
  Q 28.47 78.95 16.71 78.76
  L 16.62 69.70
  L 16.84 70.70
  Q 16.96 71.21 17.46 71.09
  Q 19.23 70.66 21.23 70.61
  Q 23.98 70.56 26.99 70.77
  Q 34.15 71.27 40.62 69.88
  Q 42.00 69.59 43.24 68.30
  Q 43.76 67.76 44.17 67.11
  Q 44.62 66.39 45.34 66.22
  Z"
/>
<path fill="#e0b812" d="
  M 63.79 66.55
  Q 63.75 66.76 63.71 66.96
  Q 63.00 67.97 63.10 69.17
  Q 63.13 69.66 62.79 70.01
  C 61.99 70.84 61.74 71.11 61.30 72.34
  Q 61.01 73.16 60.13 73.17
  Q 59.60 73.18 59.25 73.58
  L 58.60 74.31
  A 1.29 1.28 27.5 0 1 57.34 74.70
  Q 56.49 74.48 55.82 74.98
  A 1.58 1.57 29.7 0 1 54.67 75.29
  Q 52.13 74.96 50.20 73.85
  L 48.88 73.13
  Q 48.48 72.90 48.23 72.51
  L 46.57 69.82
  Q 51.88 72.50 55.38 70.64
  Q 61.12 67.58 63.79 66.55
  Z"
/>
<path fill="#653f52" d="
  M 63.71 66.96
  Q 63.96 68.28 63.67 69.60
  Q 63.55 70.18 62.89 71.31
  Q 62.53 71.94 62.00 73.00
  Q 61.57 73.86 60.45 73.87
  Q 55.42 77.88 50.14 74.63
  Q 50.13 73.92 50.20 73.85
  Q 52.13 74.96 54.67 75.29
  A 1.58 1.57 29.7 0 0 55.82 74.98
  Q 56.49 74.48 57.34 74.70
  A 1.29 1.28 27.5 0 0 58.60 74.31
  L 59.25 73.58
  Q 59.60 73.18 60.13 73.17
  Q 61.01 73.16 61.30 72.34
  C 61.74 71.11 61.99 70.84 62.79 70.01
  Q 63.13 69.66 63.10 69.17
  Q 63.00 67.97 63.71 66.96
  Z"
/>
<path fill="#b937d6" d="
  M 60.45 73.87
  L 60.50 81.91
  L 60.51 87.89
  A 0.52 0.52 0.0 0 1 59.69 88.31
  L 55.72 85.38
  A 1.45 1.44 44.4 0 0 53.98 85.39
  L 50.34 88.17
  A 0.68 0.68 0.0 0 1 49.24 87.63
  L 49.25 81.76
  Q 49.31 78.98 49.26 76.25
  Q 49.23 74.61 50.14 74.63
  Q 55.42 77.88 60.45 73.87
  Z"
/>
</svg>
