<?xml version="1.0" encoding="UTF-8" standalone="no"?>
<!DOCTYPE svg PUBLIC "-//W3C//DTD SVG 1.1//EN" "http://www.w3.org/Graphics/SVG/1.1/DTD/svg11.dtd">
<svg xmlns="http://www.w3.org/2000/svg" version="1.1" viewBox="0.00 0.00 480.00 480.00">
<path fill="#0277bd" d="
  M 245.06 140.00
  L 156.03 140.00
  Q 155.64 140.00 155.64 139.61
  Q 155.61 120.79 155.63 101.84
  C 155.64 86.60 157.33 72.15 171.54 63.48
  C 179.83 58.43 188.96 56.00 198.77 54.14
  C 226.81 48.83 254.89 48.19 281.53 55.66
  Q 287.91 57.44 294.75 61.87
  C 308.25 70.61 315.61 84.77 315.62 101.06
  Q 315.64 143.23 315.62 185.44
  C 315.61 208.08 297.23 224.57 276.37 228.83
  Q 269.87 230.16 258.35 230.09
  Q 224.04 229.88 192.60 230.04
  C 162.41 230.19 135.74 259.31 135.66 289.00
  Q 135.58 314.12 135.64 339.61
  A 0.36 0.36 0.0 0 1 135.28 339.97
  Q 117.80 340.08 98.89 339.94
  C 71.44 339.73 57.89 317.42 52.02 293.55
  Q 48.12 277.68 46.58 264.24
  C 44.20 243.54 46.85 223.31 51.83 202.84
  C 58.64 174.87 79.89 160.06 108.08 160.03
  Q 175.04 159.97 245.32 159.99
  A 0.31 0.31 0.0 0 0 245.63 159.68
  L 245.62 140.56
  Q 245.62 140.00 245.06 140.00
  Z
  M 205.59 105.01
  A 14.98 14.98 0.0 0 0 190.61 90.03
  A 14.98 14.98 0.0 0 0 175.63 105.01
  A 14.98 14.98 0.0 0 0 190.61 119.99
  A 14.98 14.98 0.0 0 0 205.59 105.01
  Z"
/>
<path fill="#ffc107" d="
  M 226.31 340.00
  L 315.00 340.00
  Q 315.61 340.00 315.61 340.62
  Q 315.62 359.86 315.62 379.21
  C 315.62 396.93 312.20 411.33 294.80 419.17
  Q 286.73 422.81 277.95 424.69
  Q 251.19 430.43 228.63 429.85
  Q 206.38 429.27 189.00 424.10
  C 180.11 421.45 171.25 415.48 165.35 408.01
  Q 155.59 395.64 155.61 378.53
  Q 155.65 336.80 155.61 295.27
  Q 155.59 277.90 167.60 265.84
  Q 178.87 254.52 194.84 251.21
  Q 201.77 249.77 214.65 249.89
  Q 247.71 250.19 280.43 249.91
  Q 286.09 249.86 292.89 247.70
  C 314.07 241.00 331.29 221.43 334.91 199.32
  Q 335.76 194.14 335.70 185.85
  Q 335.51 161.73 335.66 140.58
  Q 335.67 140.03 336.21 140.03
  Q 353.81 139.92 372.42 140.07
  C 402.66 140.32 414.94 166.46 420.58 192.22
  C 424.48 210.01 426.60 227.34 424.97 245.27
  Q 423.81 258.00 420.23 273.82
  C 415.82 293.28 406.65 307.92 387.26 315.66
  C 377.99 319.37 367.91 320.06 357.68 320.04
  Q 291.25 319.96 226.29 320.01
  Q 225.62 320.01 225.62 320.68
  L 225.61 339.31
  Q 225.61 340.00 226.31 340.00
  Z
  M 295.63 374.98
  A 14.99 14.99 0.0 0 0 280.64 359.99
  A 14.99 14.99 0.0 0 0 265.65 374.98
  A 14.99 14.99 0.0 0 0 280.64 389.97
  A 14.99 14.99 0.0 0 0 295.63 374.98
  Z"
/>
</svg>
