<?xml version="1.0" encoding="UTF-8" standalone="no"?>
<!DOCTYPE svg PUBLIC "-//W3C//DTD SVG 1.1//EN" "http://www.w3.org/Graphics/SVG/1.1/DTD/svg11.dtd">
<svg xmlns="http://www.w3.org/2000/svg" version="1.1" viewBox="0.00 0.00 512.00 512.00">
<path fill="#00d8ff" d="
  M 395.67 336.86
  Q 401.86 362.21 402.89 386.35
  C 404.18 417.02 397.65 464.25 359.15 468.97
  C 337.79 471.59 314.47 460.96 296.04 448.96
  Q 274.98 435.24 256.79 417.34
  A 0.47 0.47 0.0 0 0 256.13 417.34
  Q 241.24 431.79 224.11 443.69
  C 198.16 461.72 149.50 485.45 123.92 453.37
  C 112.44 438.97 108.80 417.99 108.58 399.42
  C 108.35 378.80 111.64 358.42 116.44 337.77
  Q 116.56 337.21 116.02 337.06
  Q 85.44 328.38 60.53 313.60
  C 42.39 302.84 21.55 285.70 16.79 264.24
  C 9.95 233.37 40.76 209.36 64.25 196.68
  C 80.49 187.91 98.20 181.24 116.18 176.11
  Q 116.80 175.94 116.64 175.31
  C 110.54 150.50 107.02 124.34 109.51 99.27
  C 111.58 78.38 119.69 54.03 140.69 46.20
  C 157.12 40.08 176.24 44.48 192.28 51.51
  C 215.78 61.81 236.74 77.63 255.38 95.45
  Q 255.80 95.85 256.22 95.45
  C 273.52 78.83 292.73 63.82 313.60 53.58
  C 333.60 43.76 361.53 36.12 380.31 52.01
  C 393.46 63.14 399.10 81.38 401.12 98.33
  C 404.14 123.70 400.82 151.02 394.62 175.71
  Q 394.48 176.25 395.01 176.40
  C 419.18 183.21 444.07 193.64 464.31 208.24
  C 476.12 216.77 486.64 227.40 492.06 240.54
  C 505.10 272.13 474.40 298.84 450.72 312.78
  C 434.00 322.63 415.24 330.24 396.17 335.98
  Q 395.51 336.18 395.67 336.86
  Z
  M 311.21 161.00
  C 332.26 163.06 353.05 166.19 374.42 170.98
  Q 374.77 171.06 374.86 170.70
  C 380.79 146.71 384.03 119.84 380.05 95.75
  C 378.03 83.56 372.36 65.73 357.75 63.76
  C 344.89 62.03 330.59 67.53 318.55 73.99
  Q 294.76 86.76 270.62 110.00
  Q 270.17 110.44 270.59 110.90
  Q 291.63 133.88 310.14 160.38
  A 1.46 1.46 0.0 0 0 311.21 161.00
  Z
  M 129.85 101.38
  C 127.61 123.64 130.87 148.19 136.50 170.27
  Q 136.65 170.86 137.23 170.73
  Q 168.26 163.91 200.05 160.96
  Q 200.75 160.90 201.15 160.33
  Q 219.51 134.29 241.13 110.78
  Q 241.45 110.42 241.10 110.09
  C 223.17 92.87 201.45 76.52 178.54 68.02
  Q 166.92 63.71 156.30 63.83
  Q 143.95 63.98 137.74 74.52
  C 133.00 82.56 130.79 92.08 129.85 101.38
  Z
  M 231.34 158.91
  Q 255.89 157.91 283.25 159.03
  Q 283.98 159.06 283.54 158.47
  Q 271.01 141.69 256.09 125.32
  A 0.38 0.37 -44.5 0 0 255.54 125.32
  Q 241.27 140.79 227.71 158.65
  A 0.19 0.19 0.0 0 0 227.86 158.96
  Q 229.57 158.98 231.34 158.91
  Z
  M 296.96 331.93
  C 298.71 331.82 299.35 332.08 300.21 330.77
  Q 323.89 295.05 342.90 256.38
  A 0.99 0.99 0.0 0 0 342.90 255.48
  Q 323.51 216.58 299.83 181.30
  A 2.03 1.99 74.8 0 0 298.31 180.41
  Q 255.37 177.26 212.66 180.45
  A 1.47 1.46 14.4 0 0 211.57 181.09
  Q 187.19 216.92 168.63 255.41
  A 1.72 1.70 -45.4 0 0 168.63 256.90
  Q 187.33 295.58 211.86 331.51
  Q 212.15 331.95 212.68 331.98
  Q 254.57 334.71 296.96 331.93
  Z
  M 176.64 184.33
  Q 157.09 187.28 142.74 190.45
  Q 142.14 190.58 142.32 191.17
  Q 148.94 212.07 157.19 231.63
  Q 157.44 232.23 157.74 231.65
  Q 170.60 206.61 185.36 183.79
  Q 185.73 183.21 185.05 183.28
  Q 180.78 183.70 176.64 184.33
  Z
  M 368.98 190.65
  C 354.63 187.54 340.31 184.97 325.86 183.17
  Q 325.42 183.11 325.66 183.49
  Q 340.62 207.00 353.69 231.85
  A 0.19 0.19 0.0 0 0 354.04 231.84
  Q 362.59 211.97 369.21 191.04
  A 0.31 0.31 0.0 0 0 368.98 190.65
  Z
  M 82.24 302.24
  Q 101.10 311.59 121.49 317.39
  Q 122.05 317.55 122.22 317.00
  Q 132.00 285.77 145.40 256.92
  A 1.60 1.60 0.0 0 0 145.40 255.58
  Q 131.83 226.14 122.40 195.99
  A 0.42 0.41 73.6 0 0 121.89 195.71
  C 97.34 202.67 72.77 212.56 53.67 228.30
  C 45.54 234.99 36.09 245.55 36.41 256.20
  C 36.64 263.82 41.83 271.63 47.05 277.25
  C 56.55 287.50 69.28 295.82 82.24 302.24
  Z
  M 388.98 196.20
  C 382.55 216.46 374.85 235.87 366.04 255.06
  Q 365.70 255.81 366.06 256.56
  Q 379.88 285.36 389.89 316.09
  Q 390.01 316.48 390.41 316.37
  C 414.06 309.48 440.09 298.17 458.11 282.52
  C 467.39 274.45 478.03 262.01 473.73 249.60
  C 470.26 239.57 460.82 230.75 452.11 224.53
  C 433.54 211.26 411.36 202.13 389.38 195.98
  Q 389.08 195.90 388.98 196.20
  Z
  M 326.03 329.28
  C 340.92 327.42 355.98 324.93 369.66 321.81
  Q 370.27 321.68 370.08 321.09
  Q 363.21 300.02 354.27 279.82
  A 0.21 0.21 0.0 0 0 353.89 279.81
  Q 341.00 304.68 325.73 328.81
  Q 325.38 329.36 326.03 329.28
  Z
  M 142.44 322.69
  C 156.09 325.65 171.15 328.09 185.45 329.63
  Q 186.11 329.70 185.76 329.14
  Q 170.46 305.39 157.76 280.83
  Q 157.44 280.22 157.18 280.85
  Q 148.64 301.06 142.03 321.98
  Q 141.85 322.56 142.44 322.69
  Z
  M 375.38 341.43
  C 354.70 346.20 333.02 349.37 311.81 351.24
  A 2.01 2.01 0.0 0 0 310.32 352.11
  Q 292.31 378.48 270.97 402.11
  A 0.38 0.38 0.0 0 0 270.99 402.63
  Q 286.33 417.62 303.53 429.37
  Q 320.81 441.17 337.19 446.26
  C 345.13 448.73 354.41 450.02 361.89 447.46
  C 373.99 443.32 379.26 426.11 381.10 414.51
  C 384.88 390.69 381.84 365.19 375.91 341.75
  A 0.44 0.44 0.0 0 0 375.38 341.43
  Z
  M 129.02 400.07
  C 129.28 414.63 132.81 441.60 148.76 447.16
  Q 155.35 449.46 163.93 448.34
  C 182.24 445.94 200.08 436.03 215.42 424.91
  Q 230.15 414.24 241.69 402.93
  Q 242.09 402.54 241.71 402.13
  Q 219.93 378.52 201.45 352.36
  A 1.92 1.92 0.0 0 0 200.03 351.55
  Q 168.51 349.15 136.97 342.44
  Q 136.40 342.32 136.26 342.88
  Q 128.54 373.03 129.02 400.07
  Z
  M 284.10 353.13
  C 265.37 353.92 246.64 353.98 227.93 353.21
  A 0.20 0.20 0.0 0 0 227.76 353.53
  Q 241.01 371.05 256.06 387.45
  A 0.48 0.48 0.0 0 0 256.77 387.45
  Q 271.65 370.83 284.31 353.54
  Q 284.62 353.11 284.10 353.13
  Z"
/>
<circle fill="#00d8ff" cx="255.57" cy="255.65" r="42.78"/>
</svg>
