<?xml version="1.0" encoding="UTF-8" standalone="no"?>
<!DOCTYPE svg PUBLIC "-//W3C//DTD SVG 1.1//EN" "http://www.w3.org/Graphics/SVG/1.1/DTD/svg11.dtd">
<svg xmlns="http://www.w3.org/2000/svg" version="1.1" viewBox="0.00 0.00 94.00 94.00">
<g stroke-width="2.00" fill="none" stroke-linecap="butt">
<path stroke="#163bba" vector-effect="non-scaling-stroke" d="
  M 86.38 13.29
  Q 86.14 15.52 84.25 14.89
  Q 81.65 14.03 79.87 15.33
  Q 79.47 15.63 78.98 15.75
  L 73.39 17.12"
/>
<path stroke="#137bd0" stroke-opacity="0.996" vector-effect="non-scaling-stroke" d="
  M 64.75 16.90
  L 72.49 16.39
  Q 72.89 16.36 72.66 16.04
  Q 72.32 15.53 72.39 14.63"
/>
<path stroke="#2996dc" vector-effect="non-scaling-stroke" d="
  M 72.39 14.63
  Q 77.19 13.10 78.21 10.61
  A 0.87 0.86 -54.2 0 0 78.07 9.72
  Q 77.36 8.87 75.47 9.02"
/>
<path stroke="#19bad6" vector-effect="non-scaling-stroke" d="
  M 72.39 14.63
  Q 51.64 14.26 30.39 14.95
  Q 25.11 15.12 22.38 16.58
  Q 17.10 19.40 15.32 25.64
  Q 15.27 25.83 15.44 25.94
  Q 15.59 26.04 15.53 26.28"
/>
<path stroke="#37a8e1" vector-effect="non-scaling-stroke" d="
  M 15.53 26.28
  Q 15.28 26.43 14.97 26.33"
/>
<path stroke="#60c8e7" vector-effect="non-scaling-stroke" d="
  M 14.97 26.33
  L 12.62 25.07"
/>
<path stroke="#218dd5" vector-effect="non-scaling-stroke" d="
  M 17.67 25.94
  Q 17.64 27.06 15.53 26.28"
/>
<path stroke="#689be6" vector-effect="non-scaling-stroke" d="
  M 14.97 26.33
  Q 15.63 26.69 15.99 27.35
  Q 16.25 27.81 15.83 28.13
  Q 13.40 30.08 9.80 27.05"
/>
<path stroke="#3169db" vector-effect="non-scaling-stroke" d="
  M 20.54 28.99
  Q 19.60 30.02 18.28 29.88
  Q 17.97 29.85 17.72 30.05
  Q 17.61 30.13 17.50 30.19
  Q 17.25 30.33 16.95 30.34
  Q 12.67 30.57 8.41 29.03"
/>
<path stroke="#163bba" vector-effect="non-scaling-stroke" d="
  M 21.05 30.27
  L 20.51 31.98
  Q 20.34 32.50 19.80 32.48
  L 7.70 32.01"
/>
<path stroke="#1d7bc1" vector-effect="non-scaling-stroke" d="
  M 18.66 37.95
  Q 17.94 37.72 17.25 38.46"
/>
<path stroke="#075fb4" vector-effect="non-scaling-stroke" d="
  M 17.25 38.46
  L 13.68 39.02"
/>
<path stroke="#19bad6" vector-effect="non-scaling-stroke" d="
  M 81.31 57.30
  Q 81.46 57.62 81.33 57.86
  Q 81.04 58.39 80.54 58.06
  Q 79.00 57.05 78.07 55.37
  Q 76.58 52.71 73.85 50.65
  Q 71.63 48.98 68.25 47.97
  Q 65.47 47.14 62.43 47.17
  Q 45.11 47.33 27.32 47.10
  Q 25.96 47.08 25.05 46.15
  Q 24.69 45.78 24.19 45.65
  Q 21.34 44.90 19.68 42.81
  Q 18.56 41.40 17.53 39.86
  A 1.58 1.57 28.2 0 1 17.26 38.98
  L 17.25 38.46"
/>
<path stroke="#137bd0" stroke-opacity="0.996" vector-effect="non-scaling-stroke" d="
  M 81.47 57.83
  Q 81.64 58.04 81.49 58.19
  Q 81.25 58.43 80.93 58.31
  Q 80.33 58.09 79.73 58.12
  Q 79.25 58.13 78.81 58.34
  Q 77.38 59.05 76.30 58.37"
/>
<path stroke="#163bba" vector-effect="non-scaling-stroke" d="
  M 86.04 63.00
  Q 79.62 64.80 72.71 63.84"
/>
<path stroke="#075fb4" vector-effect="non-scaling-stroke" d="
  M 80.34 71.72
  L 76.72 71.05"
/>
<path stroke="#1d7bc1" vector-effect="non-scaling-stroke" d="
  M 76.72 71.05
  L 75.48 70.34"
/>
<path stroke="#19bad6" vector-effect="non-scaling-stroke" d="
  M 76.72 71.05
  L 76.86 71.72
  Q 76.98 72.26 76.64 72.70
  Q 73.85 76.30 69.93 78.41
  Q 67.65 79.63 64.04 79.66
  Q 43.98 79.82 23.14 79.93
  Q 22.64 79.93 22.21 79.70
  L 21.03 79.06"
/>
<path stroke="#258dd7" vector-effect="non-scaling-stroke" d="
  M 21.03 79.06
  L 20.87 78.44"
/>
<path stroke="#37a8e1" vector-effect="non-scaling-stroke" d="
  M 20.87 78.44
  Q 21.29 77.67 21.02 77.35"
/>
<path stroke="#0f72cb" stroke-opacity="0.996" vector-effect="non-scaling-stroke" d="
  M 22.92 82.45
  Q 20.65 82.84 21.03 79.06"
/>
<path stroke="#1232b5" vector-effect="non-scaling-stroke" d="
  M 20.95 82.28
  Q 19.40 81.54 15.25 81.28
  Q 12.44 81.10 7.63 79.26"
/>
<path stroke="#2d60d6" vector-effect="non-scaling-stroke" d="
  M 20.87 78.44
  L 20.68 79.23
  Q 20.44 80.20 20.24 79.22
  Q 20.17 78.89 20.00 78.58
  Q 19.76 78.12 19.24 78.08
  L 8.24 77.18"
/>
</g>
<path fill="#2256d5" fill-opacity="0.996" d="
  M 86.38 13.29
  Q 86.14 15.52 84.25 14.89
  Q 81.65 14.03 79.87 15.33
  Q 79.47 15.63 78.98 15.75
  L 73.39 17.12
  L 64.75 16.90
  L 72.49 16.39
  Q 72.89 16.36 72.66 16.04
  Q 72.32 15.53 72.39 14.63
  Q 77.19 13.10 78.21 10.61
  A 0.87 0.86 -54.2 0 0 78.07 9.72
  Q 77.36 8.87 75.47 9.02
  C 79.70 5.45 85.24 8.21 86.38 13.29
  Z"
/>
<path fill="#2fd5e2" d="
  M 75.47 9.02
  Q 77.36 8.87 78.07 9.72
  A 0.87 0.86 -54.2 0 1 78.21 10.61
  Q 77.19 13.10 72.39 14.63
  Q 51.64 14.26 30.39 14.95
  Q 25.11 15.12 22.38 16.58
  Q 17.10 19.40 15.32 25.64
  Q 15.27 25.83 15.44 25.94
  Q 15.59 26.04 15.53 26.28
  Q 15.28 26.43 14.97 26.33
  L 12.62 25.07
  C 15.13 17.72 21.77 12.15 29.60 12.08
  Q 50.16 11.90 72.25 12.01
  A 1.56 1.56 0.0 0 0 73.65 11.14
  Q 74.26 9.93 75.47 9.02
  Z"
/>
<path fill="#0b209f" d="
  M 86.38 13.29
  Q 86.46 20.88 79.25 21.10
  Q 75.38 21.21 73.39 17.12
  L 78.98 15.75
  Q 79.47 15.63 79.87 15.33
  Q 81.65 14.03 84.25 14.89
  Q 86.14 15.52 86.38 13.29
  Z"
/>
<path fill="#039fca" fill-opacity="0.996" d="
  M 72.39 14.63
  Q 72.32 15.53 72.66 16.04
  Q 72.89 16.36 72.49 16.39
  L 64.75 16.90
  Q 49.46 16.90 34.13 17.00
  Q 27.43 17.04 24.60 18.37
  Q 19.89 20.58 17.67 25.94
  Q 17.64 27.06 15.53 26.28
  Q 15.59 26.04 15.44 25.94
  Q 15.27 25.83 15.32 25.64
  Q 17.10 19.40 22.38 16.58
  Q 25.11 15.12 30.39 14.95
  Q 51.64 14.26 72.39 14.63
  Z"
/>
<path fill="#90baeb" d="
  M 12.62 25.07
  L 14.97 26.33
  Q 15.63 26.69 15.99 27.35
  Q 16.25 27.81 15.83 28.13
  Q 13.40 30.08 9.80 27.05
  L 12.62 25.07
  Z"
/>
<path fill="#3f7be0" d="
  M 17.67 25.94
  Q 19.73 27.11 20.54 28.99
  Q 19.60 30.02 18.28 29.88
  Q 17.97 29.85 17.72 30.05
  Q 17.61 30.13 17.50 30.19
  Q 17.25 30.33 16.95 30.34
  Q 12.67 30.57 8.41 29.03
  Q 9.01 27.71 9.80 27.05
  Q 13.40 30.08 15.83 28.13
  Q 16.25 27.81 15.99 27.35
  Q 15.63 26.69 14.97 26.33
  Q 15.28 26.43 15.53 26.28
  Q 17.64 27.06 17.67 25.94
  Z"
/>
<path fill="#2256d5" fill-opacity="0.996" d="
  M 8.41 29.03
  Q 12.67 30.57 16.95 30.34
  Q 17.25 30.33 17.50 30.19
  Q 17.61 30.13 17.72 30.05
  Q 17.97 29.85 18.28 29.88
  Q 19.60 30.02 20.54 28.99
  Q 20.89 29.52 21.05 30.27
  L 20.51 31.98
  Q 20.34 32.50 19.80 32.48
  L 7.70 32.01
  Q 7.73 30.01 8.41 29.03
  Z"
/>
<path fill="#0b209f" d="
  M 21.05 30.27
  Q 21.99 34.11 19.39 36.64
  Q 18.63 37.38 18.66 37.95
  Q 17.94 37.72 17.25 38.46
  L 13.68 39.02
  Q 8.05 37.00 7.70 32.01
  L 19.80 32.48
  Q 20.34 32.50 20.51 31.98
  L 21.05 30.27
  Z"
/>
<path fill="#2fd5e2" d="
  M 18.66 37.95
  C 21.70 42.70 26.10 44.81 31.75 44.79
  Q 46.97 44.72 62.45 44.71
  C 71.13 44.70 77.85 49.20 81.31 57.30
  Q 81.46 57.62 81.33 57.86
  Q 81.04 58.39 80.54 58.06
  Q 79.00 57.05 78.07 55.37
  Q 76.58 52.71 73.85 50.65
  Q 71.63 48.98 68.25 47.97
  Q 65.47 47.14 62.43 47.17
  Q 45.11 47.33 27.32 47.10
  Q 25.96 47.08 25.05 46.15
  Q 24.69 45.78 24.19 45.65
  Q 21.34 44.90 19.68 42.81
  Q 18.56 41.40 17.53 39.86
  A 1.58 1.57 28.2 0 1 17.26 38.98
  L 17.25 38.46
  Q 17.94 37.72 18.66 37.95
  Z"
/>
<path fill="#039fca" fill-opacity="0.996" d="
  M 17.25 38.46
  L 17.26 38.98
  A 1.58 1.57 28.2 0 0 17.53 39.86
  Q 18.56 41.40 19.68 42.81
  Q 21.34 44.90 24.19 45.65
  Q 24.69 45.78 25.05 46.15
  Q 25.96 47.08 27.32 47.10
  Q 45.11 47.33 62.43 47.17
  Q 65.47 47.14 68.25 47.97
  Q 71.63 48.98 73.85 50.65
  Q 76.58 52.71 78.07 55.37
  Q 79.00 57.05 80.54 58.06
  Q 81.04 58.39 81.33 57.86
  Q 81.46 57.62 81.31 57.30
  Q 81.57 57.71 81.47 57.83
  Q 81.64 58.04 81.49 58.19
  Q 81.25 58.43 80.93 58.31
  Q 80.33 58.09 79.73 58.12
  Q 79.25 58.13 78.81 58.34
  Q 77.38 59.05 76.30 58.37
  C 74.01 53.72 69.37 49.76 64.15 49.74
  Q 47.24 49.69 32.18 49.73
  C 23.82 49.76 17.55 46.58 13.68 39.02
  L 17.25 38.46
  Z"
/>
<path fill="#2256d5" fill-opacity="0.996" d="
  M 81.47 57.83
  Q 84.71 59.22 86.04 63.00
  Q 79.62 64.80 72.71 63.84
  Q 73.03 60.34 76.30 58.37
  Q 77.38 59.05 78.81 58.34
  Q 79.25 58.13 79.73 58.12
  Q 80.33 58.09 80.93 58.31
  Q 81.25 58.43 81.49 58.19
  Q 81.64 58.04 81.47 57.83
  Z"
/>
<path fill="#0b209f" d="
  M 86.04 63.00
  Q 87.22 68.78 80.34 71.72
  L 76.72 71.05
  L 75.48 70.34
  Q 74.93 69.46 74.11 68.41
  Q 72.45 66.28 72.71 63.84
  Q 79.62 64.80 86.04 63.00
  Z"
/>
<path fill="#2fd5e2" d="
  M 75.48 70.34
  L 76.72 71.05
  L 76.86 71.72
  Q 76.98 72.26 76.64 72.70
  Q 73.85 76.30 69.93 78.41
  Q 67.65 79.63 64.04 79.66
  Q 43.98 79.82 23.14 79.93
  Q 22.64 79.93 22.21 79.70
  L 21.03 79.06
  L 20.87 78.44
  Q 21.29 77.67 21.02 77.35
  Q 21.40 77.45 21.75 77.45
  Q 42.86 77.50 64.01 77.50
  Q 70.93 77.50 75.48 70.34
  Z"
/>
<path fill="#039fca" fill-opacity="0.996" d="
  M 76.72 71.05
  L 80.34 71.72
  Q 74.91 82.05 64.13 82.38
  Q 55.74 82.63 22.92 82.45
  Q 20.65 82.84 21.03 79.06
  L 22.21 79.70
  Q 22.64 79.93 23.14 79.93
  Q 43.98 79.82 64.04 79.66
  Q 67.65 79.63 69.93 78.41
  Q 73.85 76.30 76.64 72.70
  Q 76.98 72.26 76.86 71.72
  L 76.72 71.05
  Z"
/>
<path fill="#3f7be0" d="
  M 21.02 77.35
  Q 21.29 77.67 20.87 78.44
  L 20.68 79.23
  Q 20.44 80.20 20.24 79.22
  Q 20.17 78.89 20.00 78.58
  Q 19.76 78.12 19.24 78.08
  L 8.24 77.18
  C 11.00 71.13 18.17 71.61 21.02 77.35
  Z"
/>
<path fill="#1a44cb" fill-opacity="0.996" d="
  M 8.24 77.18
  L 19.24 78.08
  Q 19.76 78.12 20.00 78.58
  Q 20.17 78.89 20.24 79.22
  Q 20.44 80.20 20.68 79.23
  L 20.87 78.44
  L 21.03 79.06
  Q 20.65 82.84 22.92 82.45
  Q 21.78 82.52 20.95 82.28
  Q 19.40 81.54 15.25 81.28
  Q 12.44 81.10 7.63 79.26
  Q 7.92 77.24 8.24 77.18
  Z"
/>
<path fill="#0b209f" d="
  M 7.63 79.26
  Q 12.44 81.10 15.25 81.28
  Q 19.40 81.54 20.95 82.28
  Q 16.97 88.88 11.02 85.71
  Q 7.28 83.71 7.63 79.26
  Z"
/>
</svg>
